  0
SECTION
  2
HEADER
  9
$ACADVER
  1
AC2.10
  0
ENDSEC
  0
SECTION
  2
TABLES
  0
TABLE
  2
LAYER
 70
     8
  0
LAYER
  2
0
 62
     7
 70
0
  6
CONTINUOUS
  0
LAYER
  2
1
 62
     1
 70
0
  6
CONTINUOUS
  0
LAYER
  2
2
 62
     2
 70
0
  6
CONTINUOUS
  0
LAYER
  2
3
 62
     3
 70
0
  6
CONTINUOUS
  0
LAYER
  2
4
 62
     4
 70
0
  6
CONTINUOUS
  0
LAYER
  2
5
 62
     5
 70
0
  6
CONTINUOUS
  0
LAYER
  2
6
 62
     6
 70
0
  6
CONTINUOUS
  0
LAYER
  2
7
 62
     7
 70
0
  6
CONTINUOUS
  0
ENDTAB
  0
TABLE
  2
STYLE
 70
     1
  0
STYLE
 70
     0
  2
STANDARD
  3
TXT
 40
0.00
 41
1.00
 42
1.00
 50
0.00
 71
     0
  0
ENDTAB
  0
ENDSEC
  0
SECTION
  2
BLOCKS
  0
BLOCK
  8
0
  2
EPAD
 70
0
 10
0.0
 20
0.0
  0
POLYLINE
  8
0
 66
1
 70
1
 40
0.5
 41
0.5
  0
VERTEX
  8
0
 10
-0.25
 20
0.0
 42
1.0
  0
VERTEX
  8
0
 10
0.25
 20
0.0
 42
1.0
  0
SEQEND
  8
0
  0
ENDBLK
  8
0
  0
BLOCK
  8
0
  2
RPAD
 70
0
 10
0.0
 20
0.0
  0
TRACE
  8
0
 10
-0.5
 20
-0.5
 11
-0.5
 21
0.5
 12
0.5
 22
-0.5
 13
0.5
 23
0.5
  0
ENDBLK
  8
0
  0
ENDSEC
0
SECTION
2
ENTITIES
0
INSERT
8
0
2
EPAD
10
-1.710000
20
0.191000
41
0.040000
42
0.040000
0
CIRCLE
8
0
10
-1.710000
20
0.191000
40
0.010000
0
INSERT
8
0
2
EPAD
10
1.929000
20
0.196000
41
0.040000
42
0.040000
0
CIRCLE
8
0
10
1.929000
20
0.196000
40
0.010000
0
INSERT
8
0
2
EPAD
10
1.949000
20
-1.998000
41
0.040000
42
0.040000
0
CIRCLE
8
0
10
1.949000
20
-1.998000
40
0.010000
0
INSERT
8
0
2
EPAD
10
-1.715000
20
-1.973000
41
0.040000
42
0.040000
0
CIRCLE
8
0
10
-1.715000
20
-1.973000
40
0.010000
0
INSERT
8
0
2
EPAD
10
-0.392000
20
1.286000
41
0.060000
42
0.060000
0
CIRCLE
8
0
10
-0.392000
20
1.286000
40
0.010000
0
POLYLINE
8
0
66
1
70
1
40
0
41
0
0
VERTEX
8
0
10
-1.761000
20
1.974000
0
VERTEX
8
0
10
-1.749000
20
1.986000
0
VERTEX
8
0
10
-1.713000
20
1.986000
0
VERTEX
8
0
10
-1.701000
20
1.974000
0
VERTEX
8
0
10
-1.701000
20
1.898000
0
VERTEX
8
0
10
-1.713000
20
1.886000
0
VERTEX
8
0
10
-1.749000
20
1.886000
0
VERTEX
8
0
10
-1.761000
20
1.898000
0
VERTEX
8
0
10
-1.761000
20
1.974000
0
SEQEND
8
0
0
CIRCLE
8
0
10
-1.731000
20
1.936000
40
0.015000
0
POLYLINE
8
0
66
1
70
1
40
0
41
0
0
VERTEX
8
0
10
-1.661000
20
1.974000
0
VERTEX
8
0
10
-1.649000
20
1.986000
0
VERTEX
8
0
10
-1.613000
20
1.986000
0
VERTEX
8
0
10
-1.601000
20
1.974000
0
VERTEX
8
0
10
-1.601000
20
1.898000
0
VERTEX
8
0
10
-1.613000
20
1.886000
0
VERTEX
8
0
10
-1.649000
20
1.886000
0
VERTEX
8
0
10
-1.661000
20
1.898000
0
VERTEX
8
0
10
-1.661000
20
1.974000
0
SEQEND
8
0
0
CIRCLE
8
0
10
-1.631000
20
1.936000
40
0.015000
0
POLYLINE
8
0
66
1
70
1
40
0
41
0
0
VERTEX
8
0
10
-1.561000
20
1.974000
0
VERTEX
8
0
10
-1.549000
20
1.986000
0
VERTEX
8
0
10
-1.513000
20
1.986000
0
VERTEX
8
0
10
-1.501000
20
1.974000
0
VERTEX
8
0
10
-1.501000
20
1.898000
0
VERTEX
8
0
10
-1.513000
20
1.886000
0
VERTEX
8
0
10
-1.549000
20
1.886000
0
VERTEX
8
0
10
-1.561000
20
1.898000
0
VERTEX
8
0
10
-1.561000
20
1.974000
0
SEQEND
8
0
0
CIRCLE
8
0
10
-1.531000
20
1.936000
40
0.015000
0
POLYLINE
8
0
66
1
70
1
40
0
41
0
0
VERTEX
8
0
10
-1.461000
20
1.974000
0
VERTEX
8
0
10
-1.449000
20
1.986000
0
VERTEX
8
0
10
-1.413000
20
1.986000
0
VERTEX
8
0
10
-1.401000
20
1.974000
0
VERTEX
8
0
10
-1.401000
20
1.898000
0
VERTEX
8
0
10
-1.413000
20
1.886000
0
VERTEX
8
0
10
-1.449000
20
1.886000
0
VERTEX
8
0
10
-1.461000
20
1.898000
0
VERTEX
8
0
10
-1.461000
20
1.974000
0
SEQEND
8
0
0
CIRCLE
8
0
10
-1.431000
20
1.936000
40
0.015000
0
POLYLINE
8
0
66
1
70
1
40
0
41
0
0
VERTEX
8
0
10
-1.361000
20
1.974000
0
VERTEX
8
0
10
-1.349000
20
1.986000
0
VERTEX
8
0
10
-1.313000
20
1.986000
0
VERTEX
8
0
10
-1.301000
20
1.974000
0
VERTEX
8
0
10
-1.301000
20
1.898000
0
VERTEX
8
0
10
-1.313000
20
1.886000
0
VERTEX
8
0
10
-1.349000
20
1.886000
0
VERTEX
8
0
10
-1.361000
20
1.898000
0
VERTEX
8
0
10
-1.361000
20
1.974000
0
SEQEND
8
0
0
CIRCLE
8
0
10
-1.331000
20
1.936000
40
0.015000
0
POLYLINE
8
0
66
1
70
1
40
0
41
0
0
VERTEX
8
0
10
-1.261000
20
1.974000
0
VERTEX
8
0
10
-1.249000
20
1.986000
0
VERTEX
8
0
10
-1.213000
20
1.986000
0
VERTEX
8
0
10
-1.201000
20
1.974000
0
VERTEX
8
0
10
-1.201000
20
1.898000
0
VERTEX
8
0
10
-1.213000
20
1.886000
0
VERTEX
8
0
10
-1.249000
20
1.886000
0
VERTEX
8
0
10
-1.261000
20
1.898000
0
VERTEX
8
0
10
-1.261000
20
1.974000
0
SEQEND
8
0
0
CIRCLE
8
0
10
-1.231000
20
1.936000
40
0.015000
0
POLYLINE
8
0
66
1
70
1
40
0
41
0
0
VERTEX
8
0
10
-1.161000
20
1.974000
0
VERTEX
8
0
10
-1.149000
20
1.986000
0
VERTEX
8
0
10
-1.113000
20
1.986000
0
VERTEX
8
0
10
-1.101000
20
1.974000
0
VERTEX
8
0
10
-1.101000
20
1.898000
0
VERTEX
8
0
10
-1.113000
20
1.886000
0
VERTEX
8
0
10
-1.149000
20
1.886000
0
VERTEX
8
0
10
-1.161000
20
1.898000
0
VERTEX
8
0
10
-1.161000
20
1.974000
0
SEQEND
8
0
0
CIRCLE
8
0
10
-1.131000
20
1.936000
40
0.015000
0
POLYLINE
8
0
66
1
70
1
40
0
41
0
0
VERTEX
8
0
10
-1.061000
20
1.974000
0
VERTEX
8
0
10
-1.049000
20
1.986000
0
VERTEX
8
0
10
-1.013000
20
1.986000
0
VERTEX
8
0
10
-1.001000
20
1.974000
0
VERTEX
8
0
10
-1.001000
20
1.898000
0
VERTEX
8
0
10
-1.013000
20
1.886000
0
VERTEX
8
0
10
-1.049000
20
1.886000
0
VERTEX
8
0
10
-1.061000
20
1.898000
0
VERTEX
8
0
10
-1.061000
20
1.974000
0
SEQEND
8
0
0
CIRCLE
8
0
10
-1.031000
20
1.936000
40
0.015000
0
POLYLINE
8
0
66
1
70
1
40
0
41
0
0
VERTEX
8
0
10
-0.961000
20
1.974000
0
VERTEX
8
0
10
-0.949000
20
1.986000
0
VERTEX
8
0
10
-0.913000
20
1.986000
0
VERTEX
8
0
10
-0.901000
20
1.974000
0
VERTEX
8
0
10
-0.901000
20
1.898000
0
VERTEX
8
0
10
-0.913000
20
1.886000
0
VERTEX
8
0
10
-0.949000
20
1.886000
0
VERTEX
8
0
10
-0.961000
20
1.898000
0
VERTEX
8
0
10
-0.961000
20
1.974000
0
SEQEND
8
0
0
CIRCLE
8
0
10
-0.931000
20
1.936000
40
0.015000
0
POLYLINE
8
0
66
1
70
1
40
0
41
0
0
VERTEX
8
0
10
-0.861000
20
1.974000
0
VERTEX
8
0
10
-0.849000
20
1.986000
0
VERTEX
8
0
10
-0.813000
20
1.986000
0
VERTEX
8
0
10
-0.801000
20
1.974000
0
VERTEX
8
0
10
-0.801000
20
1.898000
0
VERTEX
8
0
10
-0.813000
20
1.886000
0
VERTEX
8
0
10
-0.849000
20
1.886000
0
VERTEX
8
0
10
-0.861000
20
1.898000
0
VERTEX
8
0
10
-0.861000
20
1.974000
0
SEQEND
8
0
0
CIRCLE
8
0
10
-0.831000
20
1.936000
40
0.015000
0
POLYLINE
8
0
66
1
70
1
40
0
41
0
0
VERTEX
8
0
10
-0.761000
20
1.974000
0
VERTEX
8
0
10
-0.749000
20
1.986000
0
VERTEX
8
0
10
-0.713000
20
1.986000
0
VERTEX
8
0
10
-0.701000
20
1.974000
0
VERTEX
8
0
10
-0.701000
20
1.898000
0
VERTEX
8
0
10
-0.713000
20
1.886000
0
VERTEX
8
0
10
-0.749000
20
1.886000
0
VERTEX
8
0
10
-0.761000
20
1.898000
0
VERTEX
8
0
10
-0.761000
20
1.974000
0
SEQEND
8
0
0
CIRCLE
8
0
10
-0.731000
20
1.936000
40
0.015000
0
POLYLINE
8
0
66
1
70
1
40
0
41
0
0
VERTEX
8
0
10
-0.661000
20
1.974000
0
VERTEX
8
0
10
-0.649000
20
1.986000
0
VERTEX
8
0
10
-0.613000
20
1.986000
0
VERTEX
8
0
10
-0.601000
20
1.974000
0
VERTEX
8
0
10
-0.601000
20
1.898000
0
VERTEX
8
0
10
-0.613000
20
1.886000
0
VERTEX
8
0
10
-0.649000
20
1.886000
0
VERTEX
8
0
10
-0.661000
20
1.898000
0
VERTEX
8
0
10
-0.661000
20
1.974000
0
SEQEND
8
0
0
CIRCLE
8
0
10
-0.631000
20
1.936000
40
0.015000
0
POLYLINE
8
0
66
1
70
1
40
0
41
0
0
VERTEX
8
0
10
-0.561000
20
1.974000
0
VERTEX
8
0
10
-0.549000
20
1.986000
0
VERTEX
8
0
10
-0.513000
20
1.986000
0
VERTEX
8
0
10
-0.501000
20
1.974000
0
VERTEX
8
0
10
-0.501000
20
1.898000
0
VERTEX
8
0
10
-0.513000
20
1.886000
0
VERTEX
8
0
10
-0.549000
20
1.886000
0
VERTEX
8
0
10
-0.561000
20
1.898000
0
VERTEX
8
0
10
-0.561000
20
1.974000
0
SEQEND
8
0
0
CIRCLE
8
0
10
-0.531000
20
1.936000
40
0.015000
0
POLYLINE
8
0
66
1
70
1
40
0
41
0
0
VERTEX
8
0
10
-0.461000
20
1.974000
0
VERTEX
8
0
10
-0.449000
20
1.986000
0
VERTEX
8
0
10
-0.413000
20
1.986000
0
VERTEX
8
0
10
-0.401000
20
1.974000
0
VERTEX
8
0
10
-0.401000
20
1.898000
0
VERTEX
8
0
10
-0.413000
20
1.886000
0
VERTEX
8
0
10
-0.449000
20
1.886000
0
VERTEX
8
0
10
-0.461000
20
1.898000
0
VERTEX
8
0
10
-0.461000
20
1.974000
0
SEQEND
8
0
0
CIRCLE
8
0
10
-0.431000
20
1.936000
40
0.015000
0
POLYLINE
8
0
66
1
70
1
40
0
41
0
0
VERTEX
8
0
10
-0.361000
20
1.974000
0
VERTEX
8
0
10
-0.349000
20
1.986000
0
VERTEX
8
0
10
-0.313000
20
1.986000
0
VERTEX
8
0
10
-0.301000
20
1.974000
0
VERTEX
8
0
10
-0.301000
20
1.898000
0
VERTEX
8
0
10
-0.313000
20
1.886000
0
VERTEX
8
0
10
-0.349000
20
1.886000
0
VERTEX
8
0
10
-0.361000
20
1.898000
0
VERTEX
8
0
10
-0.361000
20
1.974000
0
SEQEND
8
0
0
CIRCLE
8
0
10
-0.331000
20
1.936000
40
0.015000
0
POLYLINE
8
0
66
1
70
1
40
0
41
0
0
VERTEX
8
0
10
-0.261000
20
1.974000
0
VERTEX
8
0
10
-0.249000
20
1.986000
0
VERTEX
8
0
10
-0.213000
20
1.986000
0
VERTEX
8
0
10
-0.201000
20
1.974000
0
VERTEX
8
0
10
-0.201000
20
1.898000
0
VERTEX
8
0
10
-0.213000
20
1.886000
0
VERTEX
8
0
10
-0.249000
20
1.886000
0
VERTEX
8
0
10
-0.261000
20
1.898000
0
VERTEX
8
0
10
-0.261000
20
1.974000
0
SEQEND
8
0
0
CIRCLE
8
0
10
-0.231000
20
1.936000
40
0.015000
0
POLYLINE
8
0
66
1
40
0.008000
41
0.008000
0
VERTEX
8
0
10
-1.813000
20
-2.094000
0
VERTEX
8
0
10
2.044000
20
-2.094000
0
VERTEX
8
0
10
2.044000
20
0.287000
0
VERTEX
8
0
10
-1.813000
20
0.287000
0
VERTEX
8
0
10
-1.813000
20
-2.094000
0
SEQEND
8
0
0
CIRCLE
8
12632256
10
-1.715000
20
0.188000
40
0.052000
0
CIRCLE
8
12632256
10
-1.715000
20
-1.976000
40
0.059000
0
CIRCLE
8
12632256
10
1.926000
20
0.188000
40
0.056000
0
CIRCLE
8
12632256
10
1.946000
20
-1.996000
40
0.055000
0
POLYLINE
8
0
66
1
40
0.008000
41
0.008000
0
VERTEX
8
0
10
-1.777000
20
-1.701000
0
VERTEX
8
0
10
2.002000
20
-1.701000
0
VERTEX
8
0
10
2.002000
20
-0.126000
0
VERTEX
8
0
10
-1.777000
20
-0.126000
0
VERTEX
8
0
10
-1.777000
20
-1.701000
0
SEQEND
8
0
0
POLYLINE
8
0
66
1
40
0.008000
41
0.008000
0
VERTEX
8
0
10
-1.383000
20
-1.405000
0
VERTEX
8
0
10
1.608000
20
-1.405000
0
VERTEX
8
0
10
1.608000
20
-0.421000
0
VERTEX
8
0
10
-1.383000
20
-0.421000
0
VERTEX
8
0
10
-1.383000
20
-1.405000
0
SEQEND
8
0
0
POLYLINE
8
0
66
1
40
0.008000
41
0.008000
0
VERTEX
8
0
10
-2.044000
20
0.518000
0
VERTEX
8
0
10
1.104000
20
0.518000
0
VERTEX
8
0
10
1.104000
20
2.034000
0
VERTEX
8
0
10
-2.044000
20
2.034000
0
VERTEX
8
0
10
-2.044000
20
0.518000
0
SEQEND
8
0
0
CIRCLE
8
12632256
10
-1.926000
20
1.936000
40
0.044000
0
CIRCLE
8
12632256
10
-1.926000
20
0.617000
40
0.039000
0
CIRCLE
8
12632256
10
0.986000
20
1.936000
40
0.044000
0
CIRCLE
8
12632256
10
0.986000
20
0.617000
40
0.039000
0
POLYLINE
8
0
66
1
40
0.008000
41
0.008000
0
VERTEX
8
0
10
-0.453000
20
1.817000
0
VERTEX
8
0
10
0.826000
20
1.817000
0
SEQEND
8
0
0
POLYLINE
8
0
66
1
40
0.008000
41
0.008000
0
VERTEX
8
0
10
0.117000
20
0.754000
0
VERTEX
8
0
10
0.747000
20
0.754000
0
SEQEND
8
0
0
POLYLINE
8
0
66
1
40
0.008000
41
0.008000
0
VERTEX
8
0
10
-1.890000
20
0.754000
0
VERTEX
8
0
10
0.964000
20
0.754000
0
VERTEX
8
0
10
0.964000
20
1.817000
0
VERTEX
8
0
10
-1.890000
20
1.817000
0
VERTEX
8
0
10
-1.890000
20
0.754000
0
SEQEND
8
0
0
POLYLINE
8
0
66
1
40
0.008000
41
0.008000
0
VERTEX
8
0
10
-1.673000
20
0.971000
0
VERTEX
8
0
10
0.747000
20
0.971000
0
VERTEX
8
0
10
0.747000
20
1.601000
0
VERTEX
8
0
10
-1.673000
20
1.601000
0
VERTEX
8
0
10
-1.673000
20
0.971000
0
SEQEND
8
0
0
ENDSEC
0
EOF

