  0
SECTION
  2
HEADER
  9
$ACADVER
  1
AC2.10
  0
ENDSEC
  0
SECTION
  2
TABLES
  0
TABLE
  2
LAYER
 70
     8
  0
LAYER
  2
0
 62
     7
 70
0
  6
CONTINUOUS
  0
LAYER
  2
1
 62
     1
 70
0
  6
CONTINUOUS
  0
LAYER
  2
2
 62
     2
 70
0
  6
CONTINUOUS
  0
LAYER
  2
3
 62
     3
 70
0
  6
CONTINUOUS
  0
LAYER
  2
4
 62
     4
 70
0
  6
CONTINUOUS
  0
LAYER
  2
5
 62
     5
 70
0
  6
CONTINUOUS
  0
LAYER
  2
6
 62
     6
 70
0
  6
CONTINUOUS
  0
LAYER
  2
7
 62
     7
 70
0
  6
CONTINUOUS
  0
ENDTAB
  0
TABLE
  2
STYLE
 70
     1
  0
STYLE
 70
     0
  2
STANDARD
  3
TXT
 40
0.00
 41
1.00
 42
1.00
 50
0.00
 71
     0
  0
ENDTAB
  0
ENDSEC
  0
SECTION
  2
BLOCKS
  0
BLOCK
  8
0
  2
EPAD
 70
0
 10
0.0
 20
0.0
  0
POLYLINE
  8
0
 66
1
 70
1
 40
0.5
 41
0.5
  0
VERTEX
  8
0
 10
-0.25
 20
0.0
 42
1.0
  0
VERTEX
  8
0
 10
0.25
 20
0.0
 42
1.0
  0
SEQEND
  8
0
  0
ENDBLK
  8
0
  0
BLOCK
  8
0
  2
RPAD
 70
0
 10
0.0
 20
0.0
  0
TRACE
  8
0
 10
-0.5
 20
-0.5
 11
-0.5
 21
0.5
 12
0.5
 22
-0.5
 13
0.5
 23
0.5
  0
ENDBLK
  8
0
  0
ENDSEC
0
SECTION
2
ENTITIES
0
POLYLINE
8
0
66
1
40
0.025000
41
0.025000
0
VERTEX
8
0
10
0.982000
20
-1.461000
0
VERTEX
8
0
10
1.105000
20
-1.461000
0
VERTEX
8
0
10
1.178000
20
-1.388000
0
VERTEX
8
0
10
1.178000
20
-0.979000
0
VERTEX
8
0
10
1.155000
20
-0.955000
0
SEQEND
8
0
0
POLYLINE
8
0
66
1
40
0.025000
41
0.025000
0
VERTEX
8
0
10
0.521000
20
0.538000
0
VERTEX
8
0
10
0.421000
20
0.638000
0
VERTEX
8
0
10
-1.424000
20
0.638000
0
VERTEX
8
0
10
-1.425000
20
0.639000
0
SEQEND
8
0
0
POLYLINE
8
0
66
1
40
0.025000
41
0.025000
0
VERTEX
8
0
10
-1.105000
20
0.069000
0
VERTEX
8
0
10
-0.367000
20
0.069000
0
VERTEX
8
0
10
-0.213000
20
0.224000
0
VERTEX
8
0
10
-0.213000
20
0.277000
0
VERTEX
8
0
10
-0.216000
20
0.308000
0
SEQEND
8
0
0
POLYLINE
8
0
66
1
40
0.025000
41
0.025000
0
VERTEX
8
0
10
-1.011000
20
0.002000
0
VERTEX
8
0
10
-0.321000
20
0.002000
0
VERTEX
8
0
10
-0.106000
20
0.218000
0
VERTEX
8
0
10
-0.106000
20
0.278000
0
VERTEX
8
0
10
-0.111000
20
0.308000
0
SEQEND
8
0
0
POLYLINE
8
0
66
1
40
0.025000
41
0.025000
0
VERTEX
8
0
10
1.047000
20
-0.557000
0
VERTEX
8
0
10
0.641000
20
-0.557000
0
VERTEX
8
0
10
0.516000
20
-0.433000
0
SEQEND
8
0
0
POLYLINE
8
0
66
1
40
0.025000
41
0.025000
0
VERTEX
8
0
10
-0.883000
20
-0.064000
0
VERTEX
8
0
10
-0.869000
20
-0.049000
0
VERTEX
8
0
10
-0.232000
20
-0.049000
0
VERTEX
8
0
10
-0.015000
20
0.166000
0
VERTEX
8
0
10
-0.015000
20
0.299000
0
VERTEX
8
0
10
-0.009000
20
0.305000
0
SEQEND
8
0
0
POLYLINE
8
0
66
1
40
0.025000
41
0.025000
0
VERTEX
8
0
10
-0.318000
20
0.304000
0
VERTEX
8
0
10
-0.318000
20
0.362000
0
VERTEX
8
0
10
-0.276000
20
0.404000
0
VERTEX
8
0
10
0.008000
20
0.404000
0
VERTEX
8
0
10
0.084000
20
0.328000
0
VERTEX
8
0
10
0.472000
20
0.328000
0
VERTEX
8
0
10
0.618000
20
0.182000
0
VERTEX
8
0
10
0.827000
20
0.182000
0
VERTEX
8
0
10
1.086000
20
-0.077000
0
SEQEND
8
0
0
POLYLINE
8
0
66
1
40
0.025000
41
0.025000
0
VERTEX
8
0
10
0.773000
20
-0.067000
0
VERTEX
8
0
10
0.305000
20
-0.067000
0
VERTEX
8
0
10
0.287000
20
-0.049000
0
SEQEND
8
0
0
POLYLINE
8
0
66
1
40
0.025000
41
0.025000
0
VERTEX
8
0
10
0.883000
20
-0.065000
0
VERTEX
8
0
10
0.776000
20
0.042000
0
VERTEX
8
0
10
0.279000
20
0.042000
0
SEQEND
8
0
0
POLYLINE
8
0
66
1
40
0.025000
41
0.025000
0
VERTEX
8
0
10
0.978000
20
-0.094000
0
VERTEX
8
0
10
0.978000
20
-0.054000
0
VERTEX
8
0
10
0.801000
20
0.122000
0
VERTEX
8
0
10
0.320000
20
0.122000
0
VERTEX
8
0
10
0.292000
20
0.149000
0
SEQEND
8
0
0
POLYLINE
8
0
66
1
40
0.025000
41
0.025000
0
VERTEX
8
0
10
-0.326000
20
-1.534000
0
VERTEX
8
0
10
-0.215000
20
-1.645000
0
VERTEX
8
0
10
-0.215000
20
-1.988000
0
VERTEX
8
0
10
-0.215000
20
-2.019000
0
VERTEX
8
0
10
-0.147000
20
-2.087000
0
SEQEND
8
0
0
POLYLINE
8
0
66
1
40
0.025000
41
0.025000
0
VERTEX
8
0
10
1.247000
20
-1.704000
0
VERTEX
8
0
10
0.596000
20
-1.704000
0
VERTEX
8
0
10
0.303000
20
-1.411000
0
VERTEX
8
0
10
-0.092000
20
-1.411000
0
VERTEX
8
0
10
-0.246000
20
-1.257000
0
VERTEX
8
0
10
-0.246000
20
-1.152000
0
VERTEX
8
0
10
-0.296000
20
-1.102000
0
SEQEND
8
0
0
POLYLINE
8
0
66
1
40
0.025000
41
0.025000
0
VERTEX
8
0
10
-0.327000
20
-0.960000
0
VERTEX
8
0
10
-0.163000
20
-1.124000
0
VERTEX
8
0
10
0.963000
20
-1.124000
0
SEQEND
8
0
0
POLYLINE
8
0
66
1
40
0.025000
41
0.025000
0
VERTEX
8
0
10
-0.434000
20
-1.111000
0
VERTEX
8
0
10
-0.434000
20
-0.850000
0
VERTEX
8
0
10
-0.389000
20
-0.805000
0
VERTEX
8
0
10
-0.032000
20
-0.805000
0
VERTEX
8
0
10
0.009000
20
-0.846000
0
SEQEND
8
0
0
POLYLINE
8
0
66
1
40
0.025000
41
0.025000
0
VERTEX
8
0
10
-1.183000
20
-1.646000
0
VERTEX
8
0
10
-1.062000
20
-1.526000
0
VERTEX
8
0
10
-0.771000
20
-1.526000
0
VERTEX
8
0
10
-0.726000
20
-1.534000
0
SEQEND
8
0
0
POLYLINE
8
0
66
1
40
0.025000
41
0.025000
0
VERTEX
8
0
10
-0.371000
20
-0.360000
0
VERTEX
8
0
10
-0.160000
20
-0.360000
0
VERTEX
8
0
10
-0.016000
20
-0.217000
0
VERTEX
8
0
10
0.545000
20
-0.217000
0
VERTEX
8
0
10
0.693000
20
-0.364000
0
VERTEX
8
0
10
1.017000
20
-0.364000
0
VERTEX
8
0
10
1.055000
20
-0.359000
0
VERTEX
8
0
10
1.055000
20
-0.402000
0
SEQEND
8
0
0
POLYLINE
8
0
66
1
40
0.025000
41
0.025000
0
VERTEX
8
0
10
0.452000
20
-1.697000
0
VERTEX
8
0
10
0.452000
20
-1.771000
0
VERTEX
8
0
10
0.369000
20
-1.853000
0
VERTEX
8
0
10
0.131000
20
-1.853000
0
VERTEX
8
0
10
0.000000
20
-1.714000
0
SEQEND
8
0
0
POLYLINE
8
0
66
1
40
0.025000
41
0.025000
0
VERTEX
8
0
10
0.591000
20
-0.852000
0
VERTEX
8
0
10
1.195000
20
-0.852000
0
VERTEX
8
0
10
1.311000
20
-0.735000
0
VERTEX
8
0
10
1.561000
20
-0.735000
0
VERTEX
8
0
10
1.775000
20
-0.521000
0
VERTEX
8
0
10
1.775000
20
0.488000
0
VERTEX
8
0
10
1.683000
20
0.581000
0
VERTEX
8
0
10
1.514000
20
0.581000
0
VERTEX
8
0
10
1.502000
20
0.593000
0
SEQEND
8
0
0
POLYLINE
8
0
66
1
40
0.025000
41
0.025000
0
VERTEX
8
0
10
0.780000
20
-0.277000
0
VERTEX
8
0
10
1.214000
20
-0.277000
0
VERTEX
8
0
10
1.360000
20
-0.424000
0
VERTEX
8
0
10
1.360000
20
-0.554000
0
VERTEX
8
0
10
1.425000
20
-0.619000
0
VERTEX
8
0
10
1.534000
20
-0.619000
0
VERTEX
8
0
10
1.710000
20
-0.443000
0
VERTEX
8
0
10
1.710000
20
0.367000
0
VERTEX
8
0
10
1.612000
20
0.464000
0
VERTEX
8
0
10
1.447000
20
0.464000
0
VERTEX
8
0
10
1.379000
20
0.532000
0
VERTEX
8
0
10
1.379000
20
0.583000
0
VERTEX
8
0
10
1.388000
20
0.592000
0
SEQEND
8
0
0
POLYLINE
8
0
66
1
40
0.025000
41
0.025000
0
VERTEX
8
0
10
-0.445000
20
-0.499000
0
VERTEX
8
0
10
-0.734000
20
-0.499000
0
VERTEX
8
0
10
-0.811000
20
-0.421000
0
VERTEX
8
0
10
-1.344000
20
-0.421000
0
VERTEX
8
0
10
-1.422000
20
-0.499000
0
SEQEND
8
0
0
POLYLINE
8
0
66
1
40
0.025000
41
0.025000
0
VERTEX
8
0
10
-1.147000
20
-0.628000
0
VERTEX
8
0
10
-1.064000
20
-0.545000
0
VERTEX
8
0
10
-0.902000
20
-0.545000
0
VERTEX
8
0
10
-0.861000
20
-0.585000
0
VERTEX
8
0
10
-0.573000
20
-0.585000
0
VERTEX
8
0
10
-0.564000
20
-0.594000
0
VERTEX
8
0
10
-0.541000
20
-0.629000
0
SEQEND
8
0
0
POLYLINE
8
0
66
1
40
0.025000
41
0.025000
0
VERTEX
8
0
10
-1.238000
20
-0.238000
0
VERTEX
8
0
10
-1.164000
20
-0.238000
0
VERTEX
8
0
10
-1.108000
20
-0.183000
0
SEQEND
8
0
0
POLYLINE
8
0
66
1
40
0.025000
41
0.025000
0
VERTEX
8
0
10
-0.771000
20
-0.360000
0
VERTEX
8
0
10
-0.858000
20
-0.274000
0
VERTEX
8
0
10
-1.056000
20
-0.274000
0
VERTEX
8
0
10
-1.108000
20
-0.222000
0
VERTEX
8
0
10
-1.108000
20
-0.183000
0
VERTEX
8
0
10
-1.108000
20
-0.054000
0
VERTEX
8
0
10
-1.275000
20
0.111000
0
VERTEX
8
0
10
-1.275000
20
0.206000
0
VERTEX
8
0
10
-1.340000
20
0.271000
0
SEQEND
8
0
0
POLYLINE
8
0
66
1
40
0.025000
41
0.025000
0
VERTEX
8
0
10
-1.238000
20
-0.638000
0
VERTEX
8
0
10
-1.238000
20
-0.575000
0
VERTEX
8
0
10
-1.271000
20
-0.542000
0
VERTEX
8
0
10
-1.354000
20
-0.542000
0
VERTEX
8
0
10
-1.421000
20
-0.610000
0
VERTEX
8
0
10
-1.532000
20
-0.610000
0
VERTEX
8
0
10
-1.574000
20
-0.567000
0
VERTEX
8
0
10
-1.574000
20
-0.410000
0
VERTEX
8
0
10
-1.410000
20
-0.299000
0
SEQEND
8
0
0
POLYLINE
8
0
66
1
40
0.025000
41
0.025000
0
VERTEX
8
0
10
0.327000
20
-1.717000
0
VERTEX
8
0
10
0.327000
20
-1.553000
0
VERTEX
8
0
10
0.271000
20
-1.498000
0
VERTEX
8
0
10
-0.135000
20
-1.498000
0
VERTEX
8
0
10
-0.385000
20
-1.247000
0
VERTEX
8
0
10
-0.756000
20
-1.247000
0
VERTEX
8
0
10
-0.811000
20
-1.192000
0
VERTEX
8
0
10
-0.811000
20
-0.982000
0
VERTEX
8
0
10
-0.902000
20
-0.942000
0
SEQEND
8
0
0
POLYLINE
8
0
66
1
40
0.025000
41
0.025000
0
VERTEX
8
0
10
-0.486000
20
-0.812000
0
VERTEX
8
0
10
-0.896000
20
-0.812000
0
VERTEX
8
0
10
-0.963000
20
-0.880000
0
VERTEX
8
0
10
-0.963000
20
-0.886000
0
VERTEX
8
0
10
-0.999000
20
-0.922000
0
VERTEX
8
0
10
-1.082000
20
-0.922000
0
VERTEX
8
0
10
-1.109000
20
-0.895000
0
VERTEX
8
0
10
-1.204000
20
-0.895000
0
VERTEX
8
0
10
-1.244000
20
-0.855000
0
VERTEX
8
0
10
-1.244000
20
-0.645000
0
VERTEX
8
0
10
-1.238000
20
-0.638000
0
SEQEND
8
0
0
INSERT
8
0
2
EPAD
10
-1.425000
20
0.639000
41
0.070000
42
0.070000
0
CIRCLE
8
0
10
-1.425000
20
0.639000
40
0.025000
0
INSERT
8
0
2
EPAD
10
-1.105000
20
0.069000
41
0.060000
42
0.060000
0
CIRCLE
8
0
10
-1.105000
20
0.069000
40
0.025000
0
INSERT
8
0
2
EPAD
10
-0.216000
20
0.308000
41
0.060000
42
0.060000
0
CIRCLE
8
0
10
-0.216000
20
0.308000
40
0.025000
0
INSERT
8
0
2
EPAD
10
-1.011000
20
0.002000
41
0.060000
42
0.060000
0
CIRCLE
8
0
10
-1.011000
20
0.002000
40
0.025000
0
INSERT
8
0
2
EPAD
10
-0.111000
20
0.308000
41
0.060000
42
0.060000
0
CIRCLE
8
0
10
-0.111000
20
0.308000
40
0.025000
0
INSERT
8
0
2
EPAD
10
1.047000
20
-0.557000
41
0.060000
42
0.060000
0
CIRCLE
8
0
10
1.047000
20
-0.557000
40
0.025000
0
INSERT
8
0
2
EPAD
10
0.516000
20
-0.433000
41
0.060000
42
0.060000
0
CIRCLE
8
0
10
0.516000
20
-0.433000
40
0.025000
0
INSERT
8
0
2
EPAD
10
-0.883000
20
-0.064000
41
0.060000
42
0.060000
0
CIRCLE
8
0
10
-0.883000
20
-0.064000
40
0.025000
0
INSERT
8
0
2
EPAD
10
-0.009000
20
0.305000
41
0.060000
42
0.060000
0
CIRCLE
8
0
10
-0.009000
20
0.305000
40
0.025000
0
INSERT
8
0
2
EPAD
10
-0.318000
20
0.304000
41
0.060000
42
0.060000
0
CIRCLE
8
0
10
-0.318000
20
0.304000
40
0.025000
0
INSERT
8
0
2
EPAD
10
1.086000
20
-0.077000
41
0.060000
42
0.060000
0
CIRCLE
8
0
10
1.086000
20
-0.077000
40
0.025000
0
INSERT
8
0
2
EPAD
10
0.773000
20
-0.067000
41
0.060000
42
0.060000
0
CIRCLE
8
0
10
0.773000
20
-0.067000
40
0.025000
0
INSERT
8
0
2
EPAD
10
0.287000
20
-0.049000
41
0.060000
42
0.060000
0
CIRCLE
8
0
10
0.287000
20
-0.049000
40
0.025000
0
INSERT
8
0
2
EPAD
10
0.883000
20
-0.065000
41
0.060000
42
0.060000
0
CIRCLE
8
0
10
0.883000
20
-0.065000
40
0.025000
0
INSERT
8
0
2
EPAD
10
0.279000
20
0.042000
41
0.060000
42
0.060000
0
CIRCLE
8
0
10
0.279000
20
0.042000
40
0.025000
0
INSERT
8
0
2
EPAD
10
0.978000
20
-0.094000
41
0.060000
42
0.060000
0
CIRCLE
8
0
10
0.978000
20
-0.094000
40
0.025000
0
INSERT
8
0
2
EPAD
10
0.292000
20
0.149000
41
0.060000
42
0.060000
0
CIRCLE
8
0
10
0.292000
20
0.149000
40
0.025000
0
INSERT
8
0
2
EPAD
10
-0.147000
20
-2.087000
41
0.060000
42
0.060000
0
CIRCLE
8
0
10
-0.147000
20
-2.087000
40
0.025000
0
INSERT
8
0
2
EPAD
10
1.247000
20
-1.704000
41
0.060000
42
0.060000
0
CIRCLE
8
0
10
1.247000
20
-1.704000
40
0.025000
0
INSERT
8
0
2
EPAD
10
-0.296000
20
-1.102000
41
0.060000
42
0.060000
0
CIRCLE
8
0
10
-0.296000
20
-1.102000
40
0.025000
0
INSERT
8
0
2
EPAD
10
-0.327000
20
-0.960000
41
0.060000
42
0.060000
0
CIRCLE
8
0
10
-0.327000
20
-0.960000
40
0.025000
0
INSERT
8
0
2
EPAD
10
0.963000
20
-1.124000
41
0.060000
42
0.060000
0
CIRCLE
8
0
10
0.963000
20
-1.124000
40
0.025000
0
INSERT
8
0
2
EPAD
10
0.009000
20
-0.846000
41
0.060000
42
0.060000
0
CIRCLE
8
0
10
0.009000
20
-0.846000
40
0.025000
0
INSERT
8
0
2
EPAD
10
1.055000
20
-0.402000
41
0.060000
42
0.060000
0
CIRCLE
8
0
10
1.055000
20
-0.402000
40
0.025000
0
INSERT
8
0
2
EPAD
10
-1.183000
20
-1.646000
41
0.060000
42
0.060000
0
CIRCLE
8
0
10
-1.183000
20
-1.646000
40
0.025000
0
INSERT
8
0
2
EPAD
10
-1.340000
20
0.271000
41
0.060000
42
0.060000
0
CIRCLE
8
0
10
-1.340000
20
0.271000
40
0.025000
0
INSERT
8
0
2
EPAD
10
0.452000
20
-1.697000
41
0.060000
42
0.060000
0
CIRCLE
8
0
10
0.452000
20
-1.697000
40
0.025000
0
INSERT
8
0
2
EPAD
10
0.000000
20
-1.714000
41
0.060000
42
0.060000
0
CIRCLE
8
0
10
0.000000
20
-1.714000
40
0.025000
0
INSERT
8
0
2
EPAD
10
0.591000
20
-0.852000
41
0.070000
42
0.070000
0
CIRCLE
8
0
10
0.591000
20
-0.852000
40
0.025000
0
INSERT
8
0
2
EPAD
10
0.780000
20
-0.277000
41
0.070000
42
0.070000
0
CIRCLE
8
0
10
0.780000
20
-0.277000
40
0.025000
0
INSERT
8
0
2
EPAD
10
-1.422000
20
-0.499000
41
0.070000
42
0.070000
0
CIRCLE
8
0
10
-1.422000
20
-0.499000
40
0.025000
0
INSERT
8
0
2
EPAD
10
-1.147000
20
-0.628000
41
0.070000
42
0.070000
0
CIRCLE
8
0
10
-1.147000
20
-0.628000
40
0.025000
0
INSERT
8
0
2
EPAD
10
-1.410000
20
-0.299000
41
0.070000
42
0.070000
0
CIRCLE
8
0
10
-1.410000
20
-0.299000
40
0.025000
0
INSERT
8
0
2
EPAD
10
0.327000
20
-1.717000
41
0.060000
42
0.060000
0
CIRCLE
8
0
10
0.327000
20
-1.717000
40
0.025000
0
INSERT
8
0
2
EPAD
10
-0.902000
20
-0.942000
41
0.060000
42
0.060000
0
CIRCLE
8
0
10
-0.902000
20
-0.942000
40
0.025000
0
INSERT
8
0
2
EPAD
10
-0.486000
20
-0.812000
41
0.070000
42
0.070000
0
CIRCLE
8
0
10
-0.486000
20
-0.812000
40
0.025000
0
INSERT
8
0
2
EPAD
10
-1.787000
20
-2.061000
41
0.250000
42
0.250000
0
CIRCLE
8
0
10
-1.787000
20
-2.061000
40
0.030000
0
INSERT
8
0
2
EPAD
10
-0.390000
20
-1.943000
41
0.150000
42
0.150000
0
CIRCLE
8
0
10
-0.390000
20
-1.943000
40
0.030000
0
INSERT
8
0
2
EPAD
10
-1.374000
20
-1.943000
41
0.150000
42
0.150000
0
CIRCLE
8
0
10
-1.374000
20
-1.943000
40
0.030000
0
INSERT
8
0
2
RPAD
10
-1.013000
20
-0.739000
41
0.050000
42
0.050000
50
0.000000
0
CIRCLE
8
0
10
-1.013000
20
-0.739000
40
0.030000
0
INSERT
8
0
2
EPAD
10
-0.913000
20
-0.739000
41
0.050000
42
0.050000
0
CIRCLE
8
0
10
-0.913000
20
-0.739000
40
0.030000
0
INSERT
8
0
2
EPAD
10
-0.813000
20
-0.739000
41
0.050000
42
0.050000
0
CIRCLE
8
0
10
-0.813000
20
-0.739000
40
0.030000
0
INSERT
8
0
2
EPAD
10
-0.713000
20
-0.739000
41
0.050000
42
0.050000
0
CIRCLE
8
0
10
-0.713000
20
-0.739000
40
0.030000
0
INSERT
8
0
2
EPAD
10
-0.613000
20
-0.739000
41
0.050000
42
0.050000
0
CIRCLE
8
0
10
-0.613000
20
-0.739000
40
0.030000
0
INSERT
8
0
2
EPAD
10
-0.513000
20
-0.739000
41
0.050000
42
0.050000
0
CIRCLE
8
0
10
-0.513000
20
-0.739000
40
0.030000
0
INSERT
8
0
2
EPAD
10
-0.413000
20
-0.739000
41
0.050000
42
0.050000
0
CIRCLE
8
0
10
-0.413000
20
-0.739000
40
0.030000
0
INSERT
8
0
2
EPAD
10
-0.313000
20
-0.739000
41
0.050000
42
0.050000
0
CIRCLE
8
0
10
-0.313000
20
-0.739000
40
0.030000
0
INSERT
8
0
2
EPAD
10
-0.213000
20
-0.739000
41
0.050000
42
0.050000
0
CIRCLE
8
0
10
-0.213000
20
-0.739000
40
0.030000
0
INSERT
8
0
2
EPAD
10
-0.113000
20
-0.739000
41
0.050000
42
0.050000
0
CIRCLE
8
0
10
-0.113000
20
-0.739000
40
0.030000
0
INSERT
8
0
2
EPAD
10
-0.013000
20
-0.739000
41
0.050000
42
0.050000
0
CIRCLE
8
0
10
-0.013000
20
-0.739000
40
0.030000
0
INSERT
8
0
2
EPAD
10
0.086000
20
-0.739000
41
0.050000
42
0.050000
0
CIRCLE
8
0
10
0.086000
20
-0.739000
40
0.030000
0
INSERT
8
0
2
EPAD
10
0.186000
20
-0.739000
41
0.050000
42
0.050000
0
CIRCLE
8
0
10
0.186000
20
-0.739000
40
0.030000
0
INSERT
8
0
2
EPAD
10
0.286000
20
-0.739000
41
0.050000
42
0.050000
0
CIRCLE
8
0
10
0.286000
20
-0.739000
40
0.030000
0
INSERT
8
0
2
EPAD
10
0.386000
20
-0.739000
41
0.050000
42
0.050000
0
CIRCLE
8
0
10
0.386000
20
-0.739000
40
0.030000
0
INSERT
8
0
2
EPAD
10
0.486000
20
-0.739000
41
0.050000
42
0.050000
0
CIRCLE
8
0
10
0.486000
20
-0.739000
40
0.030000
0
INSERT
8
0
2
EPAD
10
0.586000
20
-0.739000
41
0.050000
42
0.050000
0
CIRCLE
8
0
10
0.586000
20
-0.739000
40
0.030000
0
INSERT
8
0
2
EPAD
10
0.686000
20
-0.739000
41
0.050000
42
0.050000
0
CIRCLE
8
0
10
0.686000
20
-0.739000
40
0.030000
0
INSERT
8
0
2
EPAD
10
0.786000
20
-0.739000
41
0.050000
42
0.050000
0
CIRCLE
8
0
10
0.786000
20
-0.739000
40
0.030000
0
INSERT
8
0
2
EPAD
10
0.886000
20
-0.739000
41
0.050000
42
0.050000
0
CIRCLE
8
0
10
0.886000
20
-0.739000
40
0.030000
0
INSERT
8
0
2
EPAD
10
0.886000
20
-0.139000
41
0.050000
42
0.050000
0
CIRCLE
8
0
10
0.886000
20
-0.139000
40
0.030000
0
INSERT
8
0
2
EPAD
10
0.786000
20
-0.139000
41
0.050000
42
0.050000
0
CIRCLE
8
0
10
0.786000
20
-0.139000
40
0.030000
0
INSERT
8
0
2
EPAD
10
0.686000
20
-0.139000
41
0.050000
42
0.050000
0
CIRCLE
8
0
10
0.686000
20
-0.139000
40
0.030000
0
INSERT
8
0
2
EPAD
10
0.586000
20
-0.139000
41
0.050000
42
0.050000
0
CIRCLE
8
0
10
0.586000
20
-0.139000
40
0.030000
0
INSERT
8
0
2
EPAD
10
0.486000
20
-0.139000
41
0.050000
42
0.050000
0
CIRCLE
8
0
10
0.486000
20
-0.139000
40
0.030000
0
INSERT
8
0
2
EPAD
10
0.386000
20
-0.139000
41
0.050000
42
0.050000
0
CIRCLE
8
0
10
0.386000
20
-0.139000
40
0.030000
0
INSERT
8
0
2
EPAD
10
0.286000
20
-0.139000
41
0.050000
42
0.050000
0
CIRCLE
8
0
10
0.286000
20
-0.139000
40
0.030000
0
INSERT
8
0
2
EPAD
10
0.186000
20
-0.139000
41
0.050000
42
0.050000
0
CIRCLE
8
0
10
0.186000
20
-0.139000
40
0.030000
0
INSERT
8
0
2
EPAD
10
0.086000
20
-0.139000
41
0.050000
42
0.050000
0
CIRCLE
8
0
10
0.086000
20
-0.139000
40
0.030000
0
INSERT
8
0
2
EPAD
10
-0.013000
20
-0.139000
41
0.050000
42
0.050000
0
CIRCLE
8
0
10
-0.013000
20
-0.139000
40
0.030000
0
INSERT
8
0
2
EPAD
10
-0.113000
20
-0.139000
41
0.050000
42
0.050000
0
CIRCLE
8
0
10
-0.113000
20
-0.139000
40
0.030000
0
INSERT
8
0
2
EPAD
10
-0.213000
20
-0.139000
41
0.050000
42
0.050000
0
CIRCLE
8
0
10
-0.213000
20
-0.139000
40
0.030000
0
INSERT
8
0
2
EPAD
10
-0.313000
20
-0.139000
41
0.050000
42
0.050000
0
CIRCLE
8
0
10
-0.313000
20
-0.139000
40
0.030000
0
INSERT
8
0
2
EPAD
10
-0.413000
20
-0.139000
41
0.050000
42
0.050000
0
CIRCLE
8
0
10
-0.413000
20
-0.139000
40
0.030000
0
INSERT
8
0
2
EPAD
10
-0.513000
20
-0.139000
41
0.050000
42
0.050000
0
CIRCLE
8
0
10
-0.513000
20
-0.139000
40
0.030000
0
INSERT
8
0
2
EPAD
10
-0.613000
20
-0.139000
41
0.050000
42
0.050000
0
CIRCLE
8
0
10
-0.613000
20
-0.139000
40
0.030000
0
INSERT
8
0
2
EPAD
10
-0.713000
20
-0.139000
41
0.050000
42
0.050000
0
CIRCLE
8
0
10
-0.713000
20
-0.139000
40
0.030000
0
INSERT
8
0
2
EPAD
10
-0.813000
20
-0.139000
41
0.050000
42
0.050000
0
CIRCLE
8
0
10
-0.813000
20
-0.139000
40
0.030000
0
INSERT
8
0
2
EPAD
10
-0.913000
20
-0.139000
41
0.050000
42
0.050000
0
CIRCLE
8
0
10
-0.913000
20
-0.139000
40
0.030000
0
INSERT
8
0
2
EPAD
10
-1.013000
20
-0.139000
41
0.050000
42
0.050000
0
CIRCLE
8
0
10
-1.013000
20
-0.139000
40
0.030000
0
INSERT
8
0
2
EPAD
10
-1.714000
20
-0.916000
41
0.120000
42
0.120000
0
CIRCLE
8
0
10
-1.714000
20
-0.916000
40
0.030000
0
INSERT
8
0
2
EPAD
10
-1.714000
20
-1.116000
41
0.120000
42
0.120000
0
CIRCLE
8
0
10
-1.714000
20
-1.116000
40
0.030000
0
INSERT
8
0
2
EPAD
10
-1.543000
20
-1.363000
41
0.100000
42
0.100000
0
CIRCLE
8
0
10
-1.543000
20
-1.363000
40
0.025000
0
INSERT
8
0
2
EPAD
10
-1.743000
20
-1.563000
41
0.100000
42
0.100000
0
CIRCLE
8
0
10
-1.743000
20
-1.563000
40
0.025000
0
INSERT
8
0
2
EPAD
10
-1.743000
20
-1.363000
41
0.100000
42
0.100000
0
CIRCLE
8
0
10
-1.743000
20
-1.363000
40
0.025000
0
INSERT
8
0
2
EPAD
10
-1.543000
20
-1.563000
41
0.100000
42
0.100000
0
CIRCLE
8
0
10
-1.543000
20
-1.563000
40
0.025000
0
INSERT
8
0
2
EPAD
10
-1.210000
20
-1.315000
41
0.100000
42
0.100000
0
CIRCLE
8
0
10
-1.210000
20
-1.315000
40
0.025000
0
INSERT
8
0
2
EPAD
10
-1.210000
20
-1.515000
41
0.100000
42
0.100000
0
CIRCLE
8
0
10
-1.210000
20
-1.515000
40
0.025000
0
INSERT
8
0
2
EPAD
10
-0.886000
20
-1.224000
41
0.070000
42
0.070000
0
CIRCLE
8
0
10
-0.886000
20
-1.224000
40
0.025000
0
INSERT
8
0
2
EPAD
10
-0.886000
20
-1.624000
41
0.070000
42
0.070000
0
CIRCLE
8
0
10
-0.886000
20
-1.624000
40
0.025000
0
INSERT
8
0
2
RPAD
10
-0.986000
20
-2.069000
41
0.080000
42
0.080000
50
0.000000
0
CIRCLE
8
0
10
-0.986000
20
-2.069000
40
0.025000
0
INSERT
8
0
2
RPAD
10
-0.886000
20
-2.069000
41
0.080000
42
0.080000
50
0.000000
0
CIRCLE
8
0
10
-0.886000
20
-2.069000
40
0.025000
0
INSERT
8
0
2
RPAD
10
-0.786000
20
-2.069000
41
0.080000
42
0.080000
50
0.000000
0
CIRCLE
8
0
10
-0.786000
20
-2.069000
40
0.025000
0
INSERT
8
0
2
EPAD
10
-0.326000
20
-1.534000
41
0.090000
42
0.090000
0
CIRCLE
8
0
10
-0.326000
20
-1.534000
40
0.025000
0
INSERT
8
0
2
EPAD
10
-0.726000
20
-1.534000
41
0.090000
42
0.090000
0
CIRCLE
8
0
10
-0.726000
20
-1.534000
40
0.025000
0
INSERT
8
0
2
EPAD
10
-0.484000
20
-1.329000
41
0.080000
42
0.080000
0
CIRCLE
8
0
10
-0.484000
20
-1.329000
40
0.025000
0
INSERT
8
0
2
EPAD
10
-0.584000
20
-1.329000
41
0.080000
42
0.080000
0
CIRCLE
8
0
10
-0.584000
20
-1.329000
40
0.025000
0
INSERT
8
0
2
EPAD
10
-0.434000
20
-1.111000
41
0.070000
42
0.070000
0
CIRCLE
8
0
10
-0.434000
20
-1.111000
40
0.025000
0
INSERT
8
0
2
EPAD
10
-0.634000
20
-1.111000
41
0.070000
42
0.070000
0
CIRCLE
8
0
10
-0.634000
20
-1.111000
40
0.025000
0
INSERT
8
0
2
EPAD
10
0.010000
20
-1.970000
41
0.120000
42
0.120000
0
CIRCLE
8
0
10
0.010000
20
-1.970000
40
0.030000
0
INSERT
8
0
2
EPAD
10
0.210000
20
-1.970000
41
0.120000
42
0.120000
0
CIRCLE
8
0
10
0.210000
20
-1.970000
40
0.030000
0
INSERT
8
0
2
EPAD
10
0.410000
20
-1.970000
41
0.120000
42
0.120000
0
CIRCLE
8
0
10
0.410000
20
-1.970000
40
0.030000
0
INSERT
8
0
2
EPAD
10
0.610000
20
-1.970000
41
0.120000
42
0.120000
0
CIRCLE
8
0
10
0.610000
20
-1.970000
40
0.030000
0
INSERT
8
0
2
EPAD
10
0.843000
20
-1.970000
41
0.120000
42
0.120000
0
CIRCLE
8
0
10
0.843000
20
-1.970000
40
0.030000
0
INSERT
8
0
2
EPAD
10
1.043000
20
-1.970000
41
0.120000
42
0.120000
0
CIRCLE
8
0
10
1.043000
20
-1.970000
40
0.030000
0
INSERT
8
0
2
EPAD
10
1.243000
20
-1.970000
41
0.120000
42
0.120000
0
CIRCLE
8
0
10
1.243000
20
-1.970000
40
0.030000
0
INSERT
8
0
2
EPAD
10
1.443000
20
-1.970000
41
0.120000
42
0.120000
0
CIRCLE
8
0
10
1.443000
20
-1.970000
40
0.030000
0
INSERT
8
0
2
EPAD
10
-0.122000
20
-1.031000
41
0.080000
42
0.080000
0
CIRCLE
8
0
10
-0.122000
20
-1.031000
40
0.010000
0
INSERT
8
0
2
EPAD
10
-0.022000
20
-1.031000
41
0.080000
42
0.080000
0
CIRCLE
8
0
10
-0.022000
20
-1.031000
40
0.010000
0
INSERT
8
0
2
EPAD
10
0.077000
20
-1.031000
41
0.080000
42
0.080000
0
CIRCLE
8
0
10
0.077000
20
-1.031000
40
0.010000
0
INSERT
8
0
2
EPAD
10
0.177000
20
-1.031000
41
0.080000
42
0.080000
0
CIRCLE
8
0
10
0.177000
20
-1.031000
40
0.010000
0
INSERT
8
0
2
EPAD
10
0.277000
20
-1.031000
41
0.080000
42
0.080000
0
CIRCLE
8
0
10
0.277000
20
-1.031000
40
0.010000
0
INSERT
8
0
2
EPAD
10
0.377000
20
-1.031000
41
0.080000
42
0.080000
0
CIRCLE
8
0
10
0.377000
20
-1.031000
40
0.010000
0
INSERT
8
0
2
EPAD
10
0.477000
20
-1.031000
41
0.080000
42
0.080000
0
CIRCLE
8
0
10
0.477000
20
-1.031000
40
0.010000
0
INSERT
8
0
2
EPAD
10
0.577000
20
-1.031000
41
0.080000
42
0.080000
0
CIRCLE
8
0
10
0.577000
20
-1.031000
40
0.010000
0
INSERT
8
0
2
EPAD
10
-0.121000
20
-1.225000
41
0.070000
42
0.070000
0
CIRCLE
8
0
10
-0.121000
20
-1.225000
40
0.025000
0
INSERT
8
0
2
EPAD
10
-0.121000
20
-1.625000
41
0.070000
42
0.070000
0
CIRCLE
8
0
10
-0.121000
20
-1.625000
40
0.025000
0
INSERT
8
0
2
EPAD
10
-0.009000
20
-1.225000
41
0.070000
42
0.070000
0
CIRCLE
8
0
10
-0.009000
20
-1.225000
40
0.025000
0
INSERT
8
0
2
EPAD
10
-0.009000
20
-1.625000
41
0.070000
42
0.070000
0
CIRCLE
8
0
10
-0.009000
20
-1.625000
40
0.025000
0
INSERT
8
0
2
EPAD
10
0.108000
20
-1.225000
41
0.070000
42
0.070000
0
CIRCLE
8
0
10
0.108000
20
-1.225000
40
0.025000
0
INSERT
8
0
2
EPAD
10
0.108000
20
-1.625000
41
0.070000
42
0.070000
0
CIRCLE
8
0
10
0.108000
20
-1.625000
40
0.025000
0
INSERT
8
0
2
EPAD
10
0.226000
20
-1.225000
41
0.070000
42
0.070000
0
CIRCLE
8
0
10
0.226000
20
-1.225000
40
0.025000
0
INSERT
8
0
2
EPAD
10
0.226000
20
-1.625000
41
0.070000
42
0.070000
0
CIRCLE
8
0
10
0.226000
20
-1.625000
40
0.025000
0
INSERT
8
0
2
EPAD
10
1.271000
20
0.603000
41
0.070000
42
0.070000
0
CIRCLE
8
0
10
1.271000
20
0.603000
40
0.025000
0
INSERT
8
0
2
EPAD
10
1.271000
20
0.203000
41
0.070000
42
0.070000
0
CIRCLE
8
0
10
1.271000
20
0.203000
40
0.025000
0
INSERT
8
0
2
EPAD
10
1.145000
20
0.603000
41
0.070000
42
0.070000
0
CIRCLE
8
0
10
1.145000
20
0.603000
40
0.025000
0
INSERT
8
0
2
EPAD
10
1.145000
20
0.203000
41
0.070000
42
0.070000
0
CIRCLE
8
0
10
1.145000
20
0.203000
40
0.025000
0
INSERT
8
0
2
EPAD
10
1.036000
20
0.603000
41
0.070000
42
0.070000
0
CIRCLE
8
0
10
1.036000
20
0.603000
40
0.025000
0
INSERT
8
0
2
EPAD
10
1.036000
20
0.203000
41
0.070000
42
0.070000
0
CIRCLE
8
0
10
1.036000
20
0.203000
40
0.025000
0
INSERT
8
0
2
EPAD
10
0.920000
20
0.603000
41
0.070000
42
0.070000
0
CIRCLE
8
0
10
0.920000
20
0.603000
40
0.025000
0
INSERT
8
0
2
EPAD
10
0.920000
20
0.203000
41
0.070000
42
0.070000
0
CIRCLE
8
0
10
0.920000
20
0.203000
40
0.025000
0
INSERT
8
0
2
RPAD
10
1.124000
20
0.866000
41
0.050000
42
0.050000
50
0.000000
0
CIRCLE
8
0
10
1.124000
20
0.866000
40
0.030000
0
INSERT
8
0
2
EPAD
10
1.224000
20
0.866000
41
0.050000
42
0.050000
0
CIRCLE
8
0
10
1.224000
20
0.866000
40
0.030000
0
INSERT
8
0
2
EPAD
10
1.324000
20
0.866000
41
0.050000
42
0.050000
0
CIRCLE
8
0
10
1.324000
20
0.866000
40
0.030000
0
INSERT
8
0
2
EPAD
10
1.324000
20
1.166000
41
0.050000
42
0.050000
0
CIRCLE
8
0
10
1.324000
20
1.166000
40
0.030000
0
INSERT
8
0
2
EPAD
10
1.224000
20
1.166000
41
0.050000
42
0.050000
0
CIRCLE
8
0
10
1.224000
20
1.166000
40
0.030000
0
INSERT
8
0
2
EPAD
10
1.124000
20
1.166000
41
0.050000
42
0.050000
0
CIRCLE
8
0
10
1.124000
20
1.166000
40
0.030000
0
INSERT
8
0
2
RPAD
10
1.324000
20
1.521000
41
0.080000
42
0.080000
50
180.000000
0
CIRCLE
8
0
10
1.324000
20
1.521000
40
0.025000
0
INSERT
8
0
2
RPAD
10
1.224000
20
1.521000
41
0.080000
42
0.080000
50
180.000000
0
CIRCLE
8
0
10
1.224000
20
1.521000
40
0.025000
0
INSERT
8
0
2
RPAD
10
1.124000
20
1.521000
41
0.080000
42
0.080000
50
180.000000
0
CIRCLE
8
0
10
1.124000
20
1.521000
40
0.025000
0
INSERT
8
0
2
EPAD
10
1.021000
20
1.248000
41
0.070000
42
0.070000
0
CIRCLE
8
0
10
1.021000
20
1.248000
40
0.025000
0
INSERT
8
0
2
EPAD
10
1.421000
20
1.248000
41
0.070000
42
0.070000
0
CIRCLE
8
0
10
1.421000
20
1.248000
40
0.025000
0
INSERT
8
0
2
EPAD
10
1.128000
20
1.966000
41
0.120000
42
0.120000
0
CIRCLE
8
0
10
1.128000
20
1.966000
40
0.030000
0
INSERT
8
0
2
EPAD
10
1.328000
20
1.966000
41
0.120000
42
0.120000
0
CIRCLE
8
0
10
1.328000
20
1.966000
40
0.030000
0
INSERT
8
0
2
RPAD
10
0.328000
20
0.849000
41
0.050000
42
0.050000
50
0.000000
0
CIRCLE
8
0
10
0.328000
20
0.849000
40
0.030000
0
INSERT
8
0
2
EPAD
10
0.428000
20
0.849000
41
0.050000
42
0.050000
0
CIRCLE
8
0
10
0.428000
20
0.849000
40
0.030000
0
INSERT
8
0
2
EPAD
10
0.528000
20
0.849000
41
0.050000
42
0.050000
0
CIRCLE
8
0
10
0.528000
20
0.849000
40
0.030000
0
INSERT
8
0
2
EPAD
10
0.528000
20
1.149000
41
0.050000
42
0.050000
0
CIRCLE
8
0
10
0.528000
20
1.149000
40
0.030000
0
INSERT
8
0
2
EPAD
10
0.428000
20
1.149000
41
0.050000
42
0.050000
0
CIRCLE
8
0
10
0.428000
20
1.149000
40
0.030000
0
INSERT
8
0
2
EPAD
10
0.328000
20
1.149000
41
0.050000
42
0.050000
0
CIRCLE
8
0
10
0.328000
20
1.149000
40
0.030000
0
INSERT
8
0
2
RPAD
10
0.539000
20
1.504000
41
0.080000
42
0.080000
50
180.000000
0
CIRCLE
8
0
10
0.539000
20
1.504000
40
0.025000
0
INSERT
8
0
2
RPAD
10
0.439000
20
1.504000
41
0.080000
42
0.080000
50
180.000000
0
CIRCLE
8
0
10
0.439000
20
1.504000
40
0.025000
0
INSERT
8
0
2
RPAD
10
0.339000
20
1.504000
41
0.080000
42
0.080000
50
180.000000
0
CIRCLE
8
0
10
0.339000
20
1.504000
40
0.025000
0
INSERT
8
0
2
EPAD
10
0.383000
20
1.966000
41
0.120000
42
0.120000
0
CIRCLE
8
0
10
0.383000
20
1.966000
40
0.030000
0
INSERT
8
0
2
EPAD
10
0.583000
20
1.966000
41
0.120000
42
0.120000
0
CIRCLE
8
0
10
0.583000
20
1.966000
40
0.030000
0
INSERT
8
0
2
EPAD
10
0.199000
20
1.240000
41
0.070000
42
0.070000
0
CIRCLE
8
0
10
0.199000
20
1.240000
40
0.025000
0
INSERT
8
0
2
EPAD
10
0.599000
20
1.240000
41
0.070000
42
0.070000
0
CIRCLE
8
0
10
0.599000
20
1.240000
40
0.025000
0
INSERT
8
0
2
RPAD
10
-0.416000
20
0.857000
41
0.050000
42
0.050000
50
0.000000
0
CIRCLE
8
0
10
-0.416000
20
0.857000
40
0.030000
0
INSERT
8
0
2
EPAD
10
-0.316000
20
0.857000
41
0.050000
42
0.050000
0
CIRCLE
8
0
10
-0.316000
20
0.857000
40
0.030000
0
INSERT
8
0
2
EPAD
10
-0.216000
20
0.857000
41
0.050000
42
0.050000
0
CIRCLE
8
0
10
-0.216000
20
0.857000
40
0.030000
0
INSERT
8
0
2
EPAD
10
-0.216000
20
1.157000
41
0.050000
42
0.050000
0
CIRCLE
8
0
10
-0.216000
20
1.157000
40
0.030000
0
INSERT
8
0
2
EPAD
10
-0.316000
20
1.157000
41
0.050000
42
0.050000
0
CIRCLE
8
0
10
-0.316000
20
1.157000
40
0.030000
0
INSERT
8
0
2
EPAD
10
-0.416000
20
1.157000
41
0.050000
42
0.050000
0
CIRCLE
8
0
10
-0.416000
20
1.157000
40
0.030000
0
INSERT
8
0
2
RPAD
10
-0.229000
20
1.512000
41
0.080000
42
0.080000
50
180.000000
0
CIRCLE
8
0
10
-0.229000
20
1.512000
40
0.025000
0
INSERT
8
0
2
RPAD
10
-0.329000
20
1.512000
41
0.080000
42
0.080000
50
180.000000
0
CIRCLE
8
0
10
-0.329000
20
1.512000
40
0.025000
0
INSERT
8
0
2
RPAD
10
-0.429000
20
1.512000
41
0.080000
42
0.080000
50
180.000000
0
CIRCLE
8
0
10
-0.429000
20
1.512000
40
0.025000
0
INSERT
8
0
2
EPAD
10
-0.528000
20
1.242000
41
0.070000
42
0.070000
0
CIRCLE
8
0
10
-0.528000
20
1.242000
40
0.025000
0
INSERT
8
0
2
EPAD
10
-0.128000
20
1.242000
41
0.070000
42
0.070000
0
CIRCLE
8
0
10
-0.128000
20
1.242000
40
0.025000
0
INSERT
8
0
2
EPAD
10
-0.419000
20
1.966000
41
0.120000
42
0.120000
0
CIRCLE
8
0
10
-0.419000
20
1.966000
40
0.030000
0
INSERT
8
0
2
EPAD
10
-0.219000
20
1.966000
41
0.120000
42
0.120000
0
CIRCLE
8
0
10
-0.219000
20
1.966000
40
0.030000
0
INSERT
8
0
2
RPAD
10
-1.240000
20
0.857000
41
0.050000
42
0.050000
50
0.000000
0
CIRCLE
8
0
10
-1.240000
20
0.857000
40
0.030000
0
INSERT
8
0
2
EPAD
10
-1.140000
20
0.857000
41
0.050000
42
0.050000
0
CIRCLE
8
0
10
-1.140000
20
0.857000
40
0.030000
0
INSERT
8
0
2
EPAD
10
-1.040000
20
0.857000
41
0.050000
42
0.050000
0
CIRCLE
8
0
10
-1.040000
20
0.857000
40
0.030000
0
INSERT
8
0
2
EPAD
10
-1.040000
20
1.157000
41
0.050000
42
0.050000
0
CIRCLE
8
0
10
-1.040000
20
1.157000
40
0.030000
0
INSERT
8
0
2
EPAD
10
-1.140000
20
1.157000
41
0.050000
42
0.050000
0
CIRCLE
8
0
10
-1.140000
20
1.157000
40
0.030000
0
INSERT
8
0
2
EPAD
10
-1.240000
20
1.157000
41
0.050000
42
0.050000
0
CIRCLE
8
0
10
-1.240000
20
1.157000
40
0.030000
0
INSERT
8
0
2
RPAD
10
-1.051000
20
1.512000
41
0.080000
42
0.080000
50
180.000000
0
CIRCLE
8
0
10
-1.051000
20
1.512000
40
0.025000
0
INSERT
8
0
2
RPAD
10
-1.151000
20
1.512000
41
0.080000
42
0.080000
50
180.000000
0
CIRCLE
8
0
10
-1.151000
20
1.512000
40
0.025000
0
INSERT
8
0
2
RPAD
10
-1.251000
20
1.512000
41
0.080000
42
0.080000
50
180.000000
0
CIRCLE
8
0
10
-1.251000
20
1.512000
40
0.025000
0
INSERT
8
0
2
EPAD
10
-1.246000
20
1.966000
41
0.120000
42
0.120000
0
CIRCLE
8
0
10
-1.246000
20
1.966000
40
0.030000
0
INSERT
8
0
2
EPAD
10
-1.046000
20
1.966000
41
0.120000
42
0.120000
0
CIRCLE
8
0
10
-1.046000
20
1.966000
40
0.030000
0
INSERT
8
0
2
EPAD
10
-1.347000
20
1.249000
41
0.070000
42
0.070000
0
CIRCLE
8
0
10
-1.347000
20
1.249000
40
0.025000
0
INSERT
8
0
2
EPAD
10
-0.947000
20
1.249000
41
0.070000
42
0.070000
0
CIRCLE
8
0
10
-0.947000
20
1.249000
40
0.025000
0
INSERT
8
0
2
EPAD
10
-1.698000
20
1.080000
41
0.120000
42
0.120000
0
CIRCLE
8
0
10
-1.698000
20
1.080000
40
0.030000
0
INSERT
8
0
2
EPAD
10
-1.698000
20
1.280000
41
0.120000
42
0.120000
0
CIRCLE
8
0
10
-1.698000
20
1.280000
40
0.030000
0
INSERT
8
0
2
EPAD
10
0.281000
20
0.491000
41
0.080000
42
0.080000
0
CIRCLE
8
0
10
0.281000
20
0.491000
40
0.010000
0
INSERT
8
0
2
EPAD
10
0.181000
20
0.491000
41
0.080000
42
0.080000
0
CIRCLE
8
0
10
0.181000
20
0.491000
40
0.010000
0
INSERT
8
0
2
EPAD
10
0.081000
20
0.491000
41
0.080000
42
0.080000
0
CIRCLE
8
0
10
0.081000
20
0.491000
40
0.010000
0
INSERT
8
0
2
EPAD
10
-0.018000
20
0.491000
41
0.080000
42
0.080000
0
CIRCLE
8
0
10
-0.018000
20
0.491000
40
0.010000
0
INSERT
8
0
2
EPAD
10
-0.118000
20
0.491000
41
0.080000
42
0.080000
0
CIRCLE
8
0
10
-0.118000
20
0.491000
40
0.010000
0
INSERT
8
0
2
EPAD
10
-0.218000
20
0.491000
41
0.080000
42
0.080000
0
CIRCLE
8
0
10
-0.218000
20
0.491000
40
0.010000
0
INSERT
8
0
2
EPAD
10
-0.318000
20
0.491000
41
0.080000
42
0.080000
0
CIRCLE
8
0
10
-0.318000
20
0.491000
40
0.010000
0
INSERT
8
0
2
EPAD
10
-0.418000
20
0.491000
41
0.080000
42
0.080000
0
CIRCLE
8
0
10
-0.418000
20
0.491000
40
0.010000
0
INSERT
8
0
2
EPAD
10
-0.518000
20
0.491000
41
0.080000
42
0.080000
0
CIRCLE
8
0
10
-0.518000
20
0.491000
40
0.010000
0
INSERT
8
0
2
EPAD
10
-0.618000
20
0.491000
41
0.080000
42
0.080000
0
CIRCLE
8
0
10
-0.618000
20
0.491000
40
0.010000
0
INSERT
8
0
2
EPAD
10
-0.718000
20
0.491000
41
0.080000
42
0.080000
0
CIRCLE
8
0
10
-0.718000
20
0.491000
40
0.010000
0
INSERT
8
0
2
EPAD
10
-0.818000
20
0.491000
41
0.080000
42
0.080000
0
CIRCLE
8
0
10
-0.818000
20
0.491000
40
0.010000
0
INSERT
8
0
2
EPAD
10
-0.918000
20
0.491000
41
0.080000
42
0.080000
0
CIRCLE
8
0
10
-0.918000
20
0.491000
40
0.010000
0
INSERT
8
0
2
EPAD
10
-1.018000
20
0.491000
41
0.080000
42
0.080000
0
CIRCLE
8
0
10
-1.018000
20
0.491000
40
0.010000
0
INSERT
8
0
2
EPAD
10
-1.118000
20
0.491000
41
0.080000
42
0.080000
0
CIRCLE
8
0
10
-1.118000
20
0.491000
40
0.010000
0
INSERT
8
0
2
EPAD
10
-1.218000
20
0.491000
41
0.080000
42
0.080000
0
CIRCLE
8
0
10
-1.218000
20
0.491000
40
0.010000
0
INSERT
8
0
2
EPAD
10
-1.318000
20
0.491000
41
0.080000
42
0.080000
0
CIRCLE
8
0
10
-1.318000
20
0.491000
40
0.010000
0
INSERT
8
0
2
EPAD
10
-1.418000
20
0.491000
41
0.080000
42
0.080000
0
CIRCLE
8
0
10
-1.418000
20
0.491000
40
0.010000
0
INSERT
8
0
2
EPAD
10
-1.518000
20
0.491000
41
0.080000
42
0.080000
0
CIRCLE
8
0
10
-1.518000
20
0.491000
40
0.010000
0
INSERT
8
0
2
EPAD
10
-1.618000
20
0.491000
41
0.080000
42
0.080000
0
CIRCLE
8
0
10
-1.618000
20
0.491000
40
0.010000
0
INSERT
8
0
2
EPAD
10
1.607000
20
-1.904000
41
0.070000
42
0.070000
0
CIRCLE
8
0
10
1.607000
20
-1.904000
40
0.025000
0
INSERT
8
0
2
EPAD
10
1.607000
20
-1.504000
41
0.070000
42
0.070000
0
CIRCLE
8
0
10
1.607000
20
-1.504000
40
0.025000
0
INSERT
8
0
2
RPAD
10
1.374000
20
-1.522000
41
0.080000
42
0.080000
50
180.000000
0
CIRCLE
8
0
10
1.374000
20
-1.522000
40
0.025000
0
INSERT
8
0
2
RPAD
10
1.274000
20
-1.522000
41
0.080000
42
0.080000
50
180.000000
0
CIRCLE
8
0
10
1.274000
20
-1.522000
40
0.025000
0
INSERT
8
0
2
EPAD
10
-1.184000
20
-0.978000
41
0.080000
42
0.080000
0
CIRCLE
8
0
10
-1.184000
20
-0.978000
40
0.010000
0
INSERT
8
0
2
EPAD
10
-1.284000
20
-0.978000
41
0.080000
42
0.080000
0
CIRCLE
8
0
10
-1.284000
20
-0.978000
40
0.010000
0
INSERT
8
0
2
EPAD
10
-1.018000
20
-0.831000
41
0.070000
42
0.070000
0
CIRCLE
8
0
10
-1.018000
20
-0.831000
40
0.025000
0
INSERT
8
0
2
EPAD
10
-1.018000
20
-1.231000
41
0.070000
42
0.070000
0
CIRCLE
8
0
10
-1.018000
20
-1.231000
40
0.025000
0
INSERT
8
0
2
EPAD
10
-1.158000
20
-0.785000
41
0.070000
42
0.070000
0
CIRCLE
8
0
10
-1.158000
20
-0.785000
40
0.025000
0
INSERT
8
0
2
EPAD
10
-1.358000
20
-0.785000
41
0.070000
42
0.070000
0
CIRCLE
8
0
10
-1.358000
20
-0.785000
40
0.025000
0
INSERT
8
0
2
EPAD
10
-0.941000
20
-0.629000
41
0.070000
42
0.070000
0
CIRCLE
8
0
10
-0.941000
20
-0.629000
40
0.025000
0
INSERT
8
0
2
EPAD
10
-0.541000
20
-0.629000
41
0.070000
42
0.070000
0
CIRCLE
8
0
10
-0.541000
20
-0.629000
40
0.025000
0
INSERT
8
0
2
EPAD
10
-0.845000
20
-0.499000
41
0.070000
42
0.070000
0
CIRCLE
8
0
10
-0.845000
20
-0.499000
40
0.025000
0
INSERT
8
0
2
EPAD
10
-0.445000
20
-0.499000
41
0.070000
42
0.070000
0
CIRCLE
8
0
10
-0.445000
20
-0.499000
40
0.025000
0
INSERT
8
0
2
EPAD
10
0.139000
20
-0.568000
41
0.080000
42
0.080000
0
CIRCLE
8
0
10
0.139000
20
-0.568000
40
0.025000
0
INSERT
8
0
2
EPAD
10
0.339000
20
-0.568000
41
0.080000
42
0.080000
0
CIRCLE
8
0
10
0.339000
20
-0.568000
40
0.025000
0
INSERT
8
0
2
EPAD
10
0.140000
20
-0.373000
41
0.070000
42
0.070000
0
CIRCLE
8
0
10
0.140000
20
-0.373000
40
0.025000
0
INSERT
8
0
2
EPAD
10
0.040000
20
-0.373000
41
0.070000
42
0.070000
0
CIRCLE
8
0
10
0.040000
20
-0.373000
40
0.025000
0
INSERT
8
0
2
EPAD
10
0.335000
20
-0.378000
41
0.070000
42
0.070000
0
CIRCLE
8
0
10
0.335000
20
-0.378000
40
0.025000
0
INSERT
8
0
2
EPAD
10
0.435000
20
-0.378000
41
0.070000
42
0.070000
0
CIRCLE
8
0
10
0.435000
20
-0.378000
40
0.025000
0
INSERT
8
0
2
EPAD
10
0.755000
20
-0.955000
41
0.070000
42
0.070000
0
CIRCLE
8
0
10
0.755000
20
-0.955000
40
0.025000
0
INSERT
8
0
2
EPAD
10
1.155000
20
-0.955000
41
0.070000
42
0.070000
0
CIRCLE
8
0
10
1.155000
20
-0.955000
40
0.025000
0
INSERT
8
0
2
EPAD
10
0.982000
20
-1.381000
41
0.060000
42
0.060000
0
CIRCLE
8
0
10
0.982000
20
-1.381000
40
0.025000
0
INSERT
8
0
2
EPAD
10
0.982000
20
-1.461000
41
0.060000
42
0.060000
0
CIRCLE
8
0
10
0.982000
20
-1.461000
40
0.025000
0
INSERT
8
0
2
EPAD
10
0.982000
20
-1.541000
41
0.060000
42
0.060000
0
CIRCLE
8
0
10
0.982000
20
-1.541000
40
0.025000
0
INSERT
8
0
2
EPAD
10
0.473000
20
-1.457000
41
0.080000
42
0.080000
0
CIRCLE
8
0
10
0.473000
20
-1.457000
40
0.010000
0
INSERT
8
0
2
EPAD
10
0.776000
20
-1.457000
41
0.080000
42
0.080000
0
CIRCLE
8
0
10
0.776000
20
-1.457000
40
0.010000
0
INSERT
8
0
2
EPAD
10
0.721000
20
0.538000
41
0.080000
42
0.080000
0
CIRCLE
8
0
10
0.721000
20
0.538000
40
0.025000
0
INSERT
8
0
2
EPAD
10
0.521000
20
0.538000
41
0.080000
42
0.080000
0
CIRCLE
8
0
10
0.521000
20
0.538000
40
0.025000
0
INSERT
8
0
2
EPAD
10
0.621000
20
0.318000
41
0.080000
42
0.080000
0
CIRCLE
8
0
10
0.621000
20
0.318000
40
0.025000
0
INSERT
8
0
2
EPAD
10
-1.367000
20
-0.088000
41
0.060000
42
0.060000
0
CIRCLE
8
0
10
-1.367000
20
-0.088000
40
0.025000
0
INSERT
8
0
2
EPAD
10
-1.287000
20
-0.088000
41
0.060000
42
0.060000
0
CIRCLE
8
0
10
-1.287000
20
-0.088000
40
0.025000
0
INSERT
8
0
2
EPAD
10
-1.207000
20
-0.088000
41
0.060000
42
0.060000
0
CIRCLE
8
0
10
-1.207000
20
-0.088000
40
0.025000
0
INSERT
8
0
2
EPAD
10
-1.334000
20
-0.638000
41
0.070000
42
0.070000
0
CIRCLE
8
0
10
-1.334000
20
-0.638000
40
0.025000
0
INSERT
8
0
2
EPAD
10
-1.334000
20
-0.238000
41
0.070000
42
0.070000
0
CIRCLE
8
0
10
-1.334000
20
-0.238000
40
0.025000
0
INSERT
8
0
2
EPAD
10
1.724000
20
-2.065000
41
0.250000
42
0.250000
0
CIRCLE
8
0
10
1.724000
20
-2.065000
40
0.030000
0
INSERT
8
0
2
EPAD
10
-1.795000
20
2.044000
41
0.250000
42
0.250000
0
CIRCLE
8
0
10
-1.795000
20
2.044000
40
0.030000
0
INSERT
8
0
2
EPAD
10
1.696000
20
2.060000
41
0.250000
42
0.250000
0
CIRCLE
8
0
10
1.696000
20
2.060000
40
0.030000
0
INSERT
8
0
2
EPAD
10
1.185000
20
-0.443000
41
0.080000
42
0.080000
0
CIRCLE
8
0
10
1.185000
20
-0.443000
40
0.010000
0
INSERT
8
0
2
EPAD
10
1.185000
20
-0.543000
41
0.080000
42
0.080000
0
CIRCLE
8
0
10
1.185000
20
-0.543000
40
0.010000
0
INSERT
8
0
2
EPAD
10
1.185000
20
-0.643000
41
0.080000
42
0.080000
0
CIRCLE
8
0
10
1.185000
20
-0.643000
40
0.010000
0
INSERT
8
0
2
EPAD
10
-0.771000
20
-0.360000
41
0.070000
42
0.070000
0
CIRCLE
8
0
10
-0.771000
20
-0.360000
40
0.025000
0
INSERT
8
0
2
EPAD
10
-0.371000
20
-0.360000
41
0.070000
42
0.070000
0
CIRCLE
8
0
10
-0.371000
20
-0.360000
40
0.025000
0
INSERT
8
0
2
EPAD
10
1.602000
20
0.035000
41
0.120000
42
0.120000
0
CIRCLE
8
0
10
1.602000
20
0.035000
40
0.030000
0
INSERT
8
0
2
EPAD
10
1.602000
20
-0.164000
41
0.120000
42
0.120000
0
CIRCLE
8
0
10
1.602000
20
-0.164000
40
0.030000
0
INSERT
8
0
2
EPAD
10
1.602000
20
-0.364000
41
0.120000
42
0.120000
0
CIRCLE
8
0
10
1.602000
20
-0.364000
40
0.030000
0
INSERT
8
0
2
EPAD
10
-1.238000
20
-0.238000
41
0.070000
42
0.070000
0
CIRCLE
8
0
10
-1.238000
20
-0.238000
40
0.025000
0
INSERT
8
0
2
EPAD
10
-1.238000
20
-0.638000
41
0.070000
42
0.070000
0
CIRCLE
8
0
10
-1.238000
20
-0.638000
40
0.025000
0
INSERT
8
0
2
EPAD
10
1.388000
20
0.592000
41
0.070000
42
0.070000
0
CIRCLE
8
0
10
1.388000
20
0.592000
40
0.025000
0
INSERT
8
0
2
EPAD
10
1.388000
20
0.192000
41
0.070000
42
0.070000
0
CIRCLE
8
0
10
1.388000
20
0.192000
40
0.025000
0
INSERT
8
0
2
EPAD
10
1.502000
20
0.593000
41
0.070000
42
0.070000
0
CIRCLE
8
0
10
1.502000
20
0.593000
40
0.025000
0
INSERT
8
0
2
EPAD
10
1.502000
20
0.193000
41
0.070000
42
0.070000
0
CIRCLE
8
0
10
1.502000
20
0.193000
40
0.025000
0
INSERT
8
0
2
EPAD
10
-1.721000
20
-0.703000
41
0.120000
42
0.120000
0
CIRCLE
8
0
10
-1.721000
20
-0.703000
40
0.030000
0
INSERT
8
0
2
EPAD
10
-1.721000
20
-0.503000
41
0.120000
42
0.120000
0
CIRCLE
8
0
10
-1.721000
20
-0.503000
40
0.030000
0
INSERT
8
0
2
EPAD
10
-1.721000
20
-0.303000
41
0.120000
42
0.120000
0
CIRCLE
8
0
10
-1.721000
20
-0.303000
40
0.030000
0
INSERT
8
0
2
EPAD
10
-1.721000
20
-0.103000
41
0.120000
42
0.120000
0
CIRCLE
8
0
10
-1.721000
20
-0.103000
40
0.030000
0
INSERT
8
0
2
EPAD
10
-1.721000
20
0.096000
41
0.120000
42
0.120000
0
CIRCLE
8
0
10
-1.721000
20
0.096000
40
0.030000
0
POLYLINE
8
0
66
1
40
0.008000
41
0.008000
0
VERTEX
8
0
10
-1.964000
20
-2.226000
0
VERTEX
8
0
10
1.870000
20
-2.226000
0
VERTEX
8
0
10
1.870000
20
2.222000
0
VERTEX
8
0
10
-1.964000
20
2.222000
0
VERTEX
8
0
10
-1.964000
20
-2.226000
0
SEQEND
8
0
0
POLYLINE
8
0
66
1
40
0.008000
41
0.008000
0
VERTEX
8
0
10
-1.575000
20
-2.187000
0
VERTEX
8
0
10
-0.197000
20
-2.187000
0
VERTEX
8
0
10
-0.197000
20
-1.699000
0
VERTEX
8
0
10
-1.575000
20
-1.699000
0
VERTEX
8
0
10
-1.575000
20
-2.187000
0
SEQEND
8
0
0
POLYLINE
8
0
66
1
40
0.008000
41
0.008000
0
VERTEX
8
0
10
1.351000
20
-1.232000
0
VERTEX
8
0
10
1.823000
20
-1.232000
0
VERTEX
8
0
10
1.823000
20
-0.760000
0
VERTEX
8
0
10
1.351000
20
-0.760000
0
VERTEX
8
0
10
1.351000
20
-1.232000
0
SEQEND
8
0
0
POLYLINE
8
0
66
1
40
0.008000
41
0.008000
0
VERTEX
8
0
10
1.823000
20
-0.937000
0
VERTEX
8
0
10
1.981000
20
-0.937000
0
VERTEX
8
0
10
1.981000
20
-0.898000
0
VERTEX
8
0
10
1.823000
20
-0.898000
0
VERTEX
8
0
10
1.823000
20
-0.937000
0
SEQEND
8
0
0
POLYLINE
8
0
66
1
40
0.008000
41
0.008000
0
VERTEX
8
0
10
1.823000
20
-1.094000
0
VERTEX
8
0
10
1.981000
20
-1.094000
0
VERTEX
8
0
10
1.981000
20
-1.055000
0
VERTEX
8
0
10
1.823000
20
-1.055000
0
VERTEX
8
0
10
1.823000
20
-1.094000
0
SEQEND
8
0
0
TEXT
8
12632256
10
1.293000
20
-1.098000
40
0.048000
41
1.041667
50
90.000000
71
2
1
SP1
0
POLYLINE
8
0
66
1
40
0.008000
41
0.008000
0
VERTEX
8
0
10
-0.963000
20
-0.439000
0
VERTEX
8
0
10
-0.965000
20
-0.419000
0
VERTEX
8
0
10
-0.971000
20
-0.400000
0
VERTEX
8
0
10
-0.980000
20
-0.383000
0
VERTEX
8
0
10
-0.992000
20
-0.368000
0
VERTEX
8
0
10
-1.007000
20
-0.356000
0
VERTEX
8
0
10
-1.024000
20
-0.347000
0
VERTEX
8
0
10
-1.043000
20
-0.341000
0
VERTEX
8
0
10
-1.063000
20
-0.339000
0
SEQEND
8
0
0
POLYLINE
8
0
66
1
40
0.008000
41
0.008000
0
VERTEX
8
0
10
-0.963000
20
-0.439000
0
VERTEX
8
0
10
-0.965000
20
-0.460000
0
VERTEX
8
0
10
-0.971000
20
-0.479000
0
VERTEX
8
0
10
-0.980000
20
-0.496000
0
VERTEX
8
0
10
-0.992000
20
-0.510000
0
VERTEX
8
0
10
-1.007000
20
-0.522000
0
VERTEX
8
0
10
-1.024000
20
-0.531000
0
VERTEX
8
0
10
-1.043000
20
-0.537000
0
VERTEX
8
0
10
-1.063000
20
-0.539000
0
SEQEND
8
0
0
POLYLINE
8
0
66
1
40
0.008000
41
0.008000
0
VERTEX
8
0
10
-1.063000
20
-0.339000
0
VERTEX
8
0
10
-1.063000
20
-0.189000
0
SEQEND
8
0
0
POLYLINE
8
0
66
1
40
0.008000
41
0.008000
0
VERTEX
8
0
10
0.936000
20
-0.189000
0
VERTEX
8
0
10
0.936000
20
-0.689000
0
SEQEND
8
0
0
POLYLINE
8
0
66
1
40
0.008000
41
0.008000
0
VERTEX
8
0
10
-1.063000
20
-0.689000
0
VERTEX
8
0
10
-1.063000
20
-0.539000
0
SEQEND
8
0
0
POLYLINE
8
0
66
1
40
0.008000
41
0.008000
0
VERTEX
8
0
10
-1.063000
20
-0.189000
0
VERTEX
8
0
10
0.936000
20
-0.189000
0
SEQEND
8
0
0
POLYLINE
8
0
66
1
40
0.008000
41
0.008000
0
VERTEX
8
0
10
-1.063000
20
-0.689000
0
VERTEX
8
0
10
0.936000
20
-0.689000
0
SEQEND
8
0
0
TEXT
8
12632256
10
-1.073000
20
-0.489000
40
0.048000
41
1.041667
50
90.000000
1
U1
0
POLYLINE
8
0
66
1
40
0.008000
41
0.008000
0
VERTEX
8
0
10
-1.514000
20
-0.816000
0
VERTEX
8
0
10
-1.914000
20
-0.816000
0
SEQEND
8
0
0
POLYLINE
8
0
66
1
40
0.008000
41
0.008000
0
VERTEX
8
0
10
-1.514000
20
-1.216000
0
VERTEX
8
0
10
-1.914000
20
-1.216000
0
SEQEND
8
0
0
POLYLINE
8
0
66
1
40
0.008000
41
0.008000
0
VERTEX
8
0
10
-1.914000
20
-0.816000
0
VERTEX
8
0
10
-1.914000
20
-1.216000
0
SEQEND
8
0
0
POLYLINE
8
0
66
1
40
0.008000
41
0.008000
0
VERTEX
8
0
10
-1.514000
20
-0.816000
0
VERTEX
8
0
10
-1.514000
20
-1.216000
0
SEQEND
8
0
0
TEXT
8
12632256
10
-1.882000
20
-1.471000
40
0.048000
41
1.041667
50
90.000000
1
J16
0
CIRCLE
8
12632256
10
-1.643000
20
-1.463000
40
0.213000
0
POLYLINE
8
0
66
1
40
0.008000
41
0.008000
0
VERTEX
8
0
10
-1.453000
20
-1.383000
0
VERTEX
8
0
10
-1.493000
20
-1.383000
0
SEQEND
8
0
0
POLYLINE
8
0
66
1
40
0.008000
41
0.008000
0
VERTEX
8
0
10
-1.473000
20
-1.363000
0
VERTEX
8
0
10
-1.473000
20
-1.403000
0
SEQEND
8
0
0
TEXT
8
12632256
10
-1.372000
20
-1.538000
40
0.048000
41
1.041667
50
90.000000
1
BR1
0
CIRCLE
8
12632256
10
-1.210000
20
-1.415000
40
0.200000
0
POLYLINE
8
0
66
1
40
0.008000
41
0.008000
0
VERTEX
8
0
10
-1.110000
20
-1.290000
0
VERTEX
8
0
10
-1.110000
20
-1.340000
0
SEQEND
8
0
0
POLYLINE
8
0
66
1
40
0.008000
41
0.008000
0
VERTEX
8
0
10
-1.085000
20
-1.315000
0
VERTEX
8
0
10
-1.135000
20
-1.315000
0
SEQEND
8
0
0
TEXT
8
12632256
10
-0.952000
20
-1.465000
40
0.048000
41
1.041667
50
90.000000
1
C4
0
POLYLINE
8
0
66
1
40
0.008000
41
0.008000
0
VERTEX
8
0
10
-0.886000
20
-1.274000
0
VERTEX
8
0
10
-0.886000
20
-1.324000
0
SEQEND
8
0
0
POLYLINE
8
0
66
1
40
0.008000
41
0.008000
0
VERTEX
8
0
10
-0.911000
20
-1.524000
0
VERTEX
8
0
10
-0.861000
20
-1.524000
0
VERTEX
8
0
10
-0.861000
20
-1.324000
0
VERTEX
8
0
10
-0.911000
20
-1.324000
0
VERTEX
8
0
10
-0.911000
20
-1.524000
0
SEQEND
8
0
0
POLYLINE
8
0
66
1
40
0.008000
41
0.008000
0
VERTEX
8
0
10
-0.886000
20
-1.524000
0
VERTEX
8
0
10
-0.886000
20
-1.574000
0
SEQEND
8
0
0
TEXT
8
12632256
10
-0.803000
20
-1.499000
40
0.048000
41
1.041667
50
90.000000
1
R60
0
POLYLINE
8
0
66
1
40
0.008000
41
0.008000
0
VERTEX
8
0
10
-1.036000
20
-2.119000
0
VERTEX
8
0
10
-0.736000
20
-2.119000
0
VERTEX
8
0
10
-0.736000
20
-2.019000
0
VERTEX
8
0
10
-1.036000
20
-2.019000
0
VERTEX
8
0
10
-1.036000
20
-2.119000
0
SEQEND
8
0
0
POLYLINE
8
0
66
1
40
0.008000
41
0.008000
0
VERTEX
8
0
10
-1.036000
20
-2.019000
0
VERTEX
8
0
10
-1.036000
20
-1.969000
0
VERTEX
8
0
10
-0.736000
20
-1.969000
0
VERTEX
8
0
10
-0.736000
20
-2.019000
0
SEQEND
8
0
0
POLYLINE
8
0
66
1
40
0.008000
41
0.008000
0
VERTEX
8
0
10
-1.036000
20
-2.019000
0
VERTEX
8
0
10
-0.986000
20
-1.969000
0
SEQEND
8
0
0
POLYLINE
8
0
66
1
40
0.008000
41
0.008000
0
VERTEX
8
0
10
-0.986000
20
-2.019000
0
VERTEX
8
0
10
-0.936000
20
-1.969000
0
SEQEND
8
0
0
POLYLINE
8
0
66
1
40
0.008000
41
0.008000
0
VERTEX
8
0
10
-0.936000
20
-2.019000
0
VERTEX
8
0
10
-0.886000
20
-1.969000
0
SEQEND
8
0
0
POLYLINE
8
0
66
1
40
0.008000
41
0.008000
0
VERTEX
8
0
10
-0.886000
20
-2.019000
0
VERTEX
8
0
10
-0.836000
20
-1.969000
0
SEQEND
8
0
0
POLYLINE
8
0
66
1
40
0.008000
41
0.008000
0
VERTEX
8
0
10
-0.836000
20
-2.019000
0
VERTEX
8
0
10
-0.786000
20
-1.969000
0
SEQEND
8
0
0
POLYLINE
8
0
66
1
40
0.008000
41
0.008000
0
VERTEX
8
0
10
-0.786000
20
-2.019000
0
VERTEX
8
0
10
-0.736000
20
-1.969000
0
SEQEND
8
0
0
TEXT
8
12632256
10
-0.961000
20
-1.959000
40
0.048000
41
1.041667
1
U30
0
POLYLINE
8
0
66
1
40
0.008000
41
0.008000
0
VERTEX
8
0
10
-0.628000
20
-1.586000
0
VERTEX
8
0
10
-0.424000
20
-1.586000
0
VERTEX
8
0
10
-0.424000
20
-1.481000
0
VERTEX
8
0
10
-0.628000
20
-1.481000
0
VERTEX
8
0
10
-0.628000
20
-1.586000
0
SEQEND
8
0
0
POLYLINE
8
0
66
1
40
0.008000
41
0.008000
0
VERTEX
8
0
10
-0.596000
20
-1.482000
0
VERTEX
8
0
10
-0.596000
20
-1.585000
0
SEQEND
8
0
0
POLYLINE
8
0
66
1
40
0.008000
41
0.008000
0
VERTEX
8
0
10
-0.656000
20
-1.534000
0
VERTEX
8
0
10
-0.628000
20
-1.534000
0
SEQEND
8
0
0
POLYLINE
8
0
66
1
40
0.008000
41
0.008000
0
VERTEX
8
0
10
-0.424000
20
-1.534000
0
VERTEX
8
0
10
-0.396000
20
-1.534000
0
SEQEND
8
0
0
TEXT
8
12632256
10
-0.576000
20
-1.471000
40
0.048000
41
1.041667
1
D1
0
CIRCLE
8
12632256
10
-0.534000
20
-1.329000
40
0.100000
0
POLYLINE
8
0
66
1
40
0.008000
41
0.008000
0
VERTEX
8
0
10
-0.459000
20
-1.379000
0
VERTEX
8
0
10
-0.509000
20
-1.379000
0
SEQEND
8
0
0
POLYLINE
8
0
66
1
40
0.008000
41
0.008000
0
VERTEX
8
0
10
-0.484000
20
-1.404000
0
VERTEX
8
0
10
-0.484000
20
-1.354000
0
SEQEND
8
0
0
TEXT
8
12632256
10
-0.596000
20
-1.214000
40
0.048000
41
1.041667
1
C5
0
POLYLINE
8
0
66
1
40
0.008000
41
0.008000
0
VERTEX
8
0
10
-0.384000
20
-1.111000
0
VERTEX
8
0
10
-0.387000
20
-1.121000
0
VERTEX
8
0
10
-0.395000
20
-1.131000
0
VERTEX
8
0
10
-0.409000
20
-1.139000
0
VERTEX
8
0
10
-0.427000
20
-1.146000
0
VERTEX
8
0
10
-0.449000
20
-1.153000
0
VERTEX
8
0
10
-0.475000
20
-1.157000
0
VERTEX
8
0
10
-0.503000
20
-1.160000
0
VERTEX
8
0
10
-0.534000
20
-1.161000
0
SEQEND
8
0
0
POLYLINE
8
0
66
1
40
0.008000
41
0.008000
0
VERTEX
8
0
10
-0.684000
20
-1.111000
0
VERTEX
8
0
10
-0.681000
20
-1.121000
0
VERTEX
8
0
10
-0.672000
20
-1.131000
0
VERTEX
8
0
10
-0.658000
20
-1.139000
0
VERTEX
8
0
10
-0.640000
20
-1.146000
0
VERTEX
8
0
10
-0.618000
20
-1.153000
0
VERTEX
8
0
10
-0.593000
20
-1.157000
0
VERTEX
8
0
10
-0.565000
20
-1.160000
0
VERTEX
8
0
10
-0.534000
20
-1.161000
0
SEQEND
8
0
0
POLYLINE
8
0
66
1
40
0.008000
41
0.008000
0
VERTEX
8
0
10
-0.684000
20
-1.111000
0
VERTEX
8
0
10
-0.681000
20
-1.101000
0
VERTEX
8
0
10
-0.672000
20
-1.091000
0
VERTEX
8
0
10
-0.658000
20
-1.083000
0
VERTEX
8
0
10
-0.640000
20
-1.076000
0
VERTEX
8
0
10
-0.618000
20
-1.069000
0
VERTEX
8
0
10
-0.593000
20
-1.065000
0
VERTEX
8
0
10
-0.565000
20
-1.062000
0
VERTEX
8
0
10
-0.534000
20
-1.061000
0
SEQEND
8
0
0
POLYLINE
8
0
66
1
40
0.008000
41
0.008000
0
VERTEX
8
0
10
-0.384000
20
-1.111000
0
VERTEX
8
0
10
-0.387000
20
-1.101000
0
VERTEX
8
0
10
-0.395000
20
-1.091000
0
VERTEX
8
0
10
-0.409000
20
-1.083000
0
VERTEX
8
0
10
-0.427000
20
-1.076000
0
VERTEX
8
0
10
-0.449000
20
-1.069000
0
VERTEX
8
0
10
-0.475000
20
-1.065000
0
VERTEX
8
0
10
-0.503000
20
-1.062000
0
VERTEX
8
0
10
-0.534000
20
-1.061000
0
SEQEND
8
0
0
TEXT
8
12632256
10
-0.565000
20
-1.051000
40
0.048000
41
1.041667
1
C6
0
POLYLINE
8
0
66
1
40
0.008000
41
0.008000
0
VERTEX
8
0
10
-0.089000
20
-1.770000
0
VERTEX
8
0
10
-0.089000
20
-2.170000
0
SEQEND
8
0
0
POLYLINE
8
0
66
1
40
0.008000
41
0.008000
0
VERTEX
8
0
10
0.710000
20
-1.770000
0
VERTEX
8
0
10
0.710000
20
-2.170000
0
VERTEX
8
0
10
-0.089000
20
-2.170000
0
SEQEND
8
0
0
POLYLINE
8
0
66
1
40
0.008000
41
0.008000
0
VERTEX
8
0
10
-0.089000
20
-1.770000
0
VERTEX
8
0
10
0.710000
20
-1.770000
0
SEQEND
8
0
0
TEXT
8
12632256
10
-0.180000
20
-1.934000
40
0.048000
41
1.041667
1
J2
0
POLYLINE
8
0
66
1
40
0.008000
41
0.008000
0
VERTEX
8
0
10
0.743000
20
-1.770000
0
VERTEX
8
0
10
0.743000
20
-2.170000
0
SEQEND
8
0
0
POLYLINE
8
0
66
1
40
0.008000
41
0.008000
0
VERTEX
8
0
10
1.543000
20
-1.770000
0
VERTEX
8
0
10
1.543000
20
-2.170000
0
VERTEX
8
0
10
0.743000
20
-2.170000
0
SEQEND
8
0
0
POLYLINE
8
0
66
1
40
0.008000
41
0.008000
0
VERTEX
8
0
10
0.743000
20
-1.770000
0
VERTEX
8
0
10
1.543000
20
-1.770000
0
SEQEND
8
0
0
TEXT
8
12632256
10
1.656000
20
-1.886000
40
0.048000
41
1.041667
1
J4
0
POLYLINE
8
0
66
1
40
0.008000
41
0.008000
0
VERTEX
8
0
10
-0.222000
20
-1.131000
0
VERTEX
8
0
10
0.677000
20
-1.131000
0
VERTEX
8
0
10
0.677000
20
-0.881000
0
VERTEX
8
0
10
-0.222000
20
-0.881000
0
VERTEX
8
0
10
-0.222000
20
-1.131000
0
SEQEND
8
0
0
POLYLINE
8
0
66
1
40
0.008000
41
0.008000
0
VERTEX
8
0
10
-0.222000
20
-0.931000
0
VERTEX
8
0
10
0.677000
20
-0.931000
0
SEQEND
8
0
0
TEXT
8
12632256
10
-0.330000
20
-1.052000
40
0.048000
41
1.041667
1
J3
0
POLYLINE
8
0
66
1
40
0.008000
41
0.008000
0
VERTEX
8
0
10
-0.121000
20
-1.275000
0
VERTEX
8
0
10
-0.121000
20
-1.325000
0
SEQEND
8
0
0
POLYLINE
8
0
66
1
40
0.008000
41
0.008000
0
VERTEX
8
0
10
-0.146000
20
-1.525000
0
VERTEX
8
0
10
-0.096000
20
-1.525000
0
VERTEX
8
0
10
-0.096000
20
-1.325000
0
VERTEX
8
0
10
-0.146000
20
-1.325000
0
VERTEX
8
0
10
-0.146000
20
-1.525000
0
SEQEND
8
0
0
POLYLINE
8
0
66
1
40
0.008000
41
0.008000
0
VERTEX
8
0
10
-0.121000
20
-1.525000
0
VERTEX
8
0
10
-0.121000
20
-1.575000
0
SEQEND
8
0
0
TEXT
8
12632256
10
-0.038000
20
-1.475000
40
0.048000
41
1.041667
50
90.000000
1
R2
0
POLYLINE
8
0
66
1
40
0.008000
41
0.008000
0
VERTEX
8
0
10
-0.009000
20
-1.275000
0
VERTEX
8
0
10
-0.009000
20
-1.325000
0
SEQEND
8
0
0
POLYLINE
8
0
66
1
40
0.008000
41
0.008000
0
VERTEX
8
0
10
-0.034000
20
-1.525000
0
VERTEX
8
0
10
0.015000
20
-1.525000
0
VERTEX
8
0
10
0.015000
20
-1.325000
0
VERTEX
8
0
10
-0.034000
20
-1.325000
0
VERTEX
8
0
10
-0.034000
20
-1.525000
0
SEQEND
8
0
0
POLYLINE
8
0
66
1
40
0.008000
41
0.008000
0
VERTEX
8
0
10
-0.009000
20
-1.525000
0
VERTEX
8
0
10
-0.009000
20
-1.575000
0
SEQEND
8
0
0
TEXT
8
12632256
10
0.073000
20
-1.475000
40
0.048000
41
1.041667
50
90.000000
1
R3
0
POLYLINE
8
0
66
1
40
0.008000
41
0.008000
0
VERTEX
8
0
10
0.108000
20
-1.275000
0
VERTEX
8
0
10
0.108000
20
-1.325000
0
SEQEND
8
0
0
POLYLINE
8
0
66
1
40
0.008000
41
0.008000
0
VERTEX
8
0
10
0.083000
20
-1.525000
0
VERTEX
8
0
10
0.133000
20
-1.525000
0
VERTEX
8
0
10
0.133000
20
-1.325000
0
VERTEX
8
0
10
0.083000
20
-1.325000
0
VERTEX
8
0
10
0.083000
20
-1.525000
0
SEQEND
8
0
0
POLYLINE
8
0
66
1
40
0.008000
41
0.008000
0
VERTEX
8
0
10
0.108000
20
-1.525000
0
VERTEX
8
0
10
0.108000
20
-1.575000
0
SEQEND
8
0
0
TEXT
8
12632256
10
0.191000
20
-1.475000
40
0.048000
41
1.041667
50
90.000000
1
R5
0
POLYLINE
8
0
66
1
40
0.008000
41
0.008000
0
VERTEX
8
0
10
0.226000
20
-1.275000
0
VERTEX
8
0
10
0.226000
20
-1.325000
0
SEQEND
8
0
0
POLYLINE
8
0
66
1
40
0.008000
41
0.008000
0
VERTEX
8
0
10
0.201000
20
-1.525000
0
VERTEX
8
0
10
0.251000
20
-1.525000
0
VERTEX
8
0
10
0.251000
20
-1.325000
0
VERTEX
8
0
10
0.201000
20
-1.325000
0
VERTEX
8
0
10
0.201000
20
-1.525000
0
SEQEND
8
0
0
POLYLINE
8
0
66
1
40
0.008000
41
0.008000
0
VERTEX
8
0
10
0.226000
20
-1.525000
0
VERTEX
8
0
10
0.226000
20
-1.575000
0
SEQEND
8
0
0
TEXT
8
12632256
10
0.309000
20
-1.475000
40
0.048000
41
1.041667
50
90.000000
1
R6
0
POLYLINE
8
0
66
1
40
0.008000
41
0.008000
0
VERTEX
8
0
10
1.271000
20
0.553000
0
VERTEX
8
0
10
1.271000
20
0.503000
0
SEQEND
8
0
0
POLYLINE
8
0
66
1
40
0.008000
41
0.008000
0
VERTEX
8
0
10
1.246000
20
0.303000
0
VERTEX
8
0
10
1.296000
20
0.303000
0
VERTEX
8
0
10
1.296000
20
0.503000
0
VERTEX
8
0
10
1.246000
20
0.503000
0
VERTEX
8
0
10
1.246000
20
0.303000
0
SEQEND
8
0
0
POLYLINE
8
0
66
1
40
0.008000
41
0.008000
0
VERTEX
8
0
10
1.271000
20
0.303000
0
VERTEX
8
0
10
1.271000
20
0.253000
0
SEQEND
8
0
0
TEXT
8
12632256
10
1.354000
20
0.328000
40
0.048000
41
1.041667
50
90.000000
1
R16
0
POLYLINE
8
0
66
1
40
0.008000
41
0.008000
0
VERTEX
8
0
10
1.145000
20
0.553000
0
VERTEX
8
0
10
1.145000
20
0.503000
0
SEQEND
8
0
0
POLYLINE
8
0
66
1
40
0.008000
41
0.008000
0
VERTEX
8
0
10
1.120000
20
0.303000
0
VERTEX
8
0
10
1.170000
20
0.303000
0
VERTEX
8
0
10
1.170000
20
0.503000
0
VERTEX
8
0
10
1.120000
20
0.503000
0
VERTEX
8
0
10
1.120000
20
0.303000
0
SEQEND
8
0
0
POLYLINE
8
0
66
1
40
0.008000
41
0.008000
0
VERTEX
8
0
10
1.145000
20
0.303000
0
VERTEX
8
0
10
1.145000
20
0.253000
0
SEQEND
8
0
0
TEXT
8
12632256
10
1.228000
20
0.328000
40
0.048000
41
1.041667
50
90.000000
1
R12
0
POLYLINE
8
0
66
1
40
0.008000
41
0.008000
0
VERTEX
8
0
10
1.036000
20
0.553000
0
VERTEX
8
0
10
1.036000
20
0.503000
0
SEQEND
8
0
0
POLYLINE
8
0
66
1
40
0.008000
41
0.008000
0
VERTEX
8
0
10
1.011000
20
0.303000
0
VERTEX
8
0
10
1.061000
20
0.303000
0
VERTEX
8
0
10
1.061000
20
0.503000
0
VERTEX
8
0
10
1.011000
20
0.503000
0
VERTEX
8
0
10
1.011000
20
0.303000
0
SEQEND
8
0
0
POLYLINE
8
0
66
1
40
0.008000
41
0.008000
0
VERTEX
8
0
10
1.036000
20
0.303000
0
VERTEX
8
0
10
1.036000
20
0.253000
0
SEQEND
8
0
0
TEXT
8
12632256
10
1.119000
20
0.328000
40
0.048000
41
1.041667
50
90.000000
1
R15
0
POLYLINE
8
0
66
1
40
0.008000
41
0.008000
0
VERTEX
8
0
10
0.920000
20
0.553000
0
VERTEX
8
0
10
0.920000
20
0.503000
0
SEQEND
8
0
0
POLYLINE
8
0
66
1
40
0.008000
41
0.008000
0
VERTEX
8
0
10
0.895000
20
0.303000
0
VERTEX
8
0
10
0.945000
20
0.303000
0
VERTEX
8
0
10
0.945000
20
0.503000
0
VERTEX
8
0
10
0.895000
20
0.503000
0
VERTEX
8
0
10
0.895000
20
0.303000
0
SEQEND
8
0
0
POLYLINE
8
0
66
1
40
0.008000
41
0.008000
0
VERTEX
8
0
10
0.920000
20
0.303000
0
VERTEX
8
0
10
0.920000
20
0.253000
0
SEQEND
8
0
0
TEXT
8
12632256
10
1.003000
20
0.328000
40
0.048000
41
1.041667
50
90.000000
1
R19
0
POLYLINE
8
0
66
1
40
0.008000
41
0.008000
0
VERTEX
8
0
10
1.074000
20
0.916000
0
VERTEX
8
0
10
1.074000
20
0.966000
0
SEQEND
8
0
0
POLYLINE
8
0
66
1
40
0.008000
41
0.008000
0
VERTEX
8
0
10
1.124000
20
1.016000
0
VERTEX
8
0
10
1.123000
20
1.026000
0
VERTEX
8
0
10
1.120000
20
1.036000
0
VERTEX
8
0
10
1.116000
20
1.044000
0
VERTEX
8
0
10
1.110000
20
1.052000
0
VERTEX
8
0
10
1.103000
20
1.058000
0
VERTEX
8
0
10
1.094000
20
1.062000
0
VERTEX
8
0
10
1.084000
20
1.065000
0
VERTEX
8
0
10
1.074000
20
1.066000
0
SEQEND
8
0
0
POLYLINE
8
0
66
1
40
0.008000
41
0.008000
0
VERTEX
8
0
10
1.124000
20
1.016000
0
VERTEX
8
0
10
1.123000
20
1.006000
0
VERTEX
8
0
10
1.120000
20
0.996000
0
VERTEX
8
0
10
1.116000
20
0.987000
0
VERTEX
8
0
10
1.110000
20
0.980000
0
VERTEX
8
0
10
1.103000
20
0.974000
0
VERTEX
8
0
10
1.094000
20
0.970000
0
VERTEX
8
0
10
1.084000
20
0.967000
0
VERTEX
8
0
10
1.074000
20
0.966000
0
SEQEND
8
0
0
POLYLINE
8
0
66
1
40
0.008000
41
0.008000
0
VERTEX
8
0
10
1.074000
20
1.066000
0
VERTEX
8
0
10
1.074000
20
1.116000
0
SEQEND
8
0
0
POLYLINE
8
0
66
1
40
0.008000
41
0.008000
0
VERTEX
8
0
10
1.374000
20
0.916000
0
VERTEX
8
0
10
1.374000
20
1.116000
0
SEQEND
8
0
0
POLYLINE
8
0
66
1
40
0.008000
41
0.008000
0
VERTEX
8
0
10
1.074000
20
0.916000
0
VERTEX
8
0
10
1.374000
20
0.916000
0
SEQEND
8
0
0
POLYLINE
8
0
66
1
40
0.008000
41
0.008000
0
VERTEX
8
0
10
1.074000
20
1.116000
0
VERTEX
8
0
10
1.374000
20
1.116000
0
SEQEND
8
0
0
TEXT
8
12632256
10
1.064000
20
0.941000
40
0.048000
41
1.041667
50
90.000000
1
U10
0
POLYLINE
8
0
66
1
40
0.008000
41
0.008000
0
VERTEX
8
0
10
1.074000
20
1.471000
0
VERTEX
8
0
10
1.374000
20
1.471000
0
VERTEX
8
0
10
1.374000
20
1.571000
0
VERTEX
8
0
10
1.074000
20
1.571000
0
VERTEX
8
0
10
1.074000
20
1.471000
0
SEQEND
8
0
0
POLYLINE
8
0
66
1
40
0.008000
41
0.008000
0
VERTEX
8
0
10
1.374000
20
1.471000
0
VERTEX
8
0
10
1.374000
20
1.421000
0
VERTEX
8
0
10
1.074000
20
1.421000
0
VERTEX
8
0
10
1.074000
20
1.471000
0
SEQEND
8
0
0
POLYLINE
8
0
66
1
40
0.008000
41
0.008000
0
VERTEX
8
0
10
1.374000
20
1.471000
0
VERTEX
8
0
10
1.324000
20
1.421000
0
SEQEND
8
0
0
POLYLINE
8
0
66
1
40
0.008000
41
0.008000
0
VERTEX
8
0
10
1.324000
20
1.471000
0
VERTEX
8
0
10
1.274000
20
1.421000
0
SEQEND
8
0
0
POLYLINE
8
0
66
1
40
0.008000
41
0.008000
0
VERTEX
8
0
10
1.274000
20
1.471000
0
VERTEX
8
0
10
1.224000
20
1.421000
0
SEQEND
8
0
0
POLYLINE
8
0
66
1
40
0.008000
41
0.008000
0
VERTEX
8
0
10
1.224000
20
1.471000
0
VERTEX
8
0
10
1.174000
20
1.421000
0
SEQEND
8
0
0
POLYLINE
8
0
66
1
40
0.008000
41
0.008000
0
VERTEX
8
0
10
1.174000
20
1.471000
0
VERTEX
8
0
10
1.124000
20
1.421000
0
SEQEND
8
0
0
POLYLINE
8
0
66
1
40
0.008000
41
0.008000
0
VERTEX
8
0
10
1.124000
20
1.471000
0
VERTEX
8
0
10
1.074000
20
1.421000
0
SEQEND
8
0
0
TEXT
8
12632256
10
1.149000
20
1.363000
40
0.048000
41
1.041667
1
U11
0
POLYLINE
8
0
66
1
40
0.008000
41
0.008000
0
VERTEX
8
0
10
1.071000
20
1.248000
0
VERTEX
8
0
10
1.121000
20
1.248000
0
SEQEND
8
0
0
POLYLINE
8
0
66
1
40
0.008000
41
0.008000
0
VERTEX
8
0
10
1.121000
20
1.223000
0
VERTEX
8
0
10
1.321000
20
1.223000
0
VERTEX
8
0
10
1.321000
20
1.273000
0
VERTEX
8
0
10
1.121000
20
1.273000
0
VERTEX
8
0
10
1.121000
20
1.223000
0
SEQEND
8
0
0
POLYLINE
8
0
66
1
40
0.008000
41
0.008000
0
VERTEX
8
0
10
1.321000
20
1.248000
0
VERTEX
8
0
10
1.371000
20
1.248000
0
SEQEND
8
0
0
TEXT
8
12632256
10
1.146000
20
1.283000
40
0.048000
41
1.041667
1
R11
0
POLYLINE
8
0
66
1
40
0.008000
41
0.008000
0
VERTEX
8
0
10
1.028000
20
2.166000
0
VERTEX
8
0
10
1.028000
20
1.766000
0
SEQEND
8
0
0
POLYLINE
8
0
66
1
40
0.008000
41
0.008000
0
VERTEX
8
0
10
1.428000
20
2.166000
0
VERTEX
8
0
10
1.428000
20
1.766000
0
SEQEND
8
0
0
POLYLINE
8
0
66
1
40
0.008000
41
0.008000
0
VERTEX
8
0
10
1.028000
20
1.766000
0
VERTEX
8
0
10
1.428000
20
1.766000
0
SEQEND
8
0
0
POLYLINE
8
0
66
1
40
0.008000
41
0.008000
0
VERTEX
8
0
10
1.028000
20
2.166000
0
VERTEX
8
0
10
1.428000
20
2.166000
0
SEQEND
8
0
0
TEXT
8
12632256
10
1.178000
20
2.176000
40
0.048000
41
1.041667
1
J7
0
POLYLINE
8
0
66
1
40
0.008000
41
0.008000
0
VERTEX
8
0
10
0.278000
20
0.899000
0
VERTEX
8
0
10
0.278000
20
0.949000
0
SEQEND
8
0
0
POLYLINE
8
0
66
1
40
0.008000
41
0.008000
0
VERTEX
8
0
10
0.328000
20
0.999000
0
VERTEX
8
0
10
0.327000
20
1.009000
0
VERTEX
8
0
10
0.324000
20
1.019000
0
VERTEX
8
0
10
0.320000
20
1.027000
0
VERTEX
8
0
10
0.314000
20
1.034000
0
VERTEX
8
0
10
0.307000
20
1.041000
0
VERTEX
8
0
10
0.298000
20
1.045000
0
VERTEX
8
0
10
0.288000
20
1.048000
0
VERTEX
8
0
10
0.278000
20
1.049000
0
SEQEND
8
0
0
POLYLINE
8
0
66
1
40
0.008000
41
0.008000
0
VERTEX
8
0
10
0.328000
20
0.999000
0
VERTEX
8
0
10
0.327000
20
0.989000
0
VERTEX
8
0
10
0.324000
20
0.979000
0
VERTEX
8
0
10
0.320000
20
0.970000
0
VERTEX
8
0
10
0.314000
20
0.963000
0
VERTEX
8
0
10
0.307000
20
0.957000
0
VERTEX
8
0
10
0.298000
20
0.953000
0
VERTEX
8
0
10
0.288000
20
0.950000
0
VERTEX
8
0
10
0.278000
20
0.949000
0
SEQEND
8
0
0
POLYLINE
8
0
66
1
40
0.008000
41
0.008000
0
VERTEX
8
0
10
0.278000
20
1.049000
0
VERTEX
8
0
10
0.278000
20
1.099000
0
SEQEND
8
0
0
POLYLINE
8
0
66
1
40
0.008000
41
0.008000
0
VERTEX
8
0
10
0.578000
20
0.899000
0
VERTEX
8
0
10
0.578000
20
1.099000
0
SEQEND
8
0
0
POLYLINE
8
0
66
1
40
0.008000
41
0.008000
0
VERTEX
8
0
10
0.278000
20
0.899000
0
VERTEX
8
0
10
0.578000
20
0.899000
0
SEQEND
8
0
0
POLYLINE
8
0
66
1
40
0.008000
41
0.008000
0
VERTEX
8
0
10
0.278000
20
1.099000
0
VERTEX
8
0
10
0.578000
20
1.099000
0
SEQEND
8
0
0
TEXT
8
12632256
10
0.268000
20
0.949000
40
0.048000
41
1.041667
50
90.000000
1
U3
0
POLYLINE
8
0
66
1
40
0.008000
41
0.008000
0
VERTEX
8
0
10
0.289000
20
1.454000
0
VERTEX
8
0
10
0.589000
20
1.454000
0
VERTEX
8
0
10
0.589000
20
1.554000
0
VERTEX
8
0
10
0.289000
20
1.554000
0
VERTEX
8
0
10
0.289000
20
1.454000
0
SEQEND
8
0
0
POLYLINE
8
0
66
1
40
0.008000
41
0.008000
0
VERTEX
8
0
10
0.589000
20
1.454000
0
VERTEX
8
0
10
0.589000
20
1.404000
0
VERTEX
8
0
10
0.289000
20
1.404000
0
VERTEX
8
0
10
0.289000
20
1.454000
0
SEQEND
8
0
0
POLYLINE
8
0
66
1
40
0.008000
41
0.008000
0
VERTEX
8
0
10
0.589000
20
1.454000
0
VERTEX
8
0
10
0.539000
20
1.404000
0
SEQEND
8
0
0
POLYLINE
8
0
66
1
40
0.008000
41
0.008000
0
VERTEX
8
0
10
0.539000
20
1.454000
0
VERTEX
8
0
10
0.489000
20
1.404000
0
SEQEND
8
0
0
POLYLINE
8
0
66
1
40
0.008000
41
0.008000
0
VERTEX
8
0
10
0.489000
20
1.454000
0
VERTEX
8
0
10
0.439000
20
1.404000
0
SEQEND
8
0
0
POLYLINE
8
0
66
1
40
0.008000
41
0.008000
0
VERTEX
8
0
10
0.439000
20
1.454000
0
VERTEX
8
0
10
0.389000
20
1.404000
0
SEQEND
8
0
0
POLYLINE
8
0
66
1
40
0.008000
41
0.008000
0
VERTEX
8
0
10
0.389000
20
1.454000
0
VERTEX
8
0
10
0.339000
20
1.404000
0
SEQEND
8
0
0
POLYLINE
8
0
66
1
40
0.008000
41
0.008000
0
VERTEX
8
0
10
0.339000
20
1.454000
0
VERTEX
8
0
10
0.289000
20
1.404000
0
SEQEND
8
0
0
TEXT
8
12632256
10
0.389000
20
1.346000
40
0.048000
41
1.041667
1
U4
0
POLYLINE
8
0
66
1
40
0.008000
41
0.008000
0
VERTEX
8
0
10
0.283000
20
2.166000
0
VERTEX
8
0
10
0.283000
20
1.766000
0
SEQEND
8
0
0
POLYLINE
8
0
66
1
40
0.008000
41
0.008000
0
VERTEX
8
0
10
0.683000
20
2.166000
0
VERTEX
8
0
10
0.683000
20
1.766000
0
SEQEND
8
0
0
POLYLINE
8
0
66
1
40
0.008000
41
0.008000
0
VERTEX
8
0
10
0.283000
20
1.766000
0
VERTEX
8
0
10
0.683000
20
1.766000
0
SEQEND
8
0
0
POLYLINE
8
0
66
1
40
0.008000
41
0.008000
0
VERTEX
8
0
10
0.283000
20
2.166000
0
VERTEX
8
0
10
0.683000
20
2.166000
0
SEQEND
8
0
0
TEXT
8
12632256
10
0.433000
20
2.176000
40
0.048000
41
1.041667
1
J8
0
POLYLINE
8
0
66
1
40
0.008000
41
0.008000
0
VERTEX
8
0
10
0.249000
20
1.240000
0
VERTEX
8
0
10
0.299000
20
1.240000
0
SEQEND
8
0
0
POLYLINE
8
0
66
1
40
0.008000
41
0.008000
0
VERTEX
8
0
10
0.299000
20
1.215000
0
VERTEX
8
0
10
0.499000
20
1.215000
0
VERTEX
8
0
10
0.499000
20
1.265000
0
VERTEX
8
0
10
0.299000
20
1.265000
0
VERTEX
8
0
10
0.299000
20
1.215000
0
SEQEND
8
0
0
POLYLINE
8
0
66
1
40
0.008000
41
0.008000
0
VERTEX
8
0
10
0.499000
20
1.240000
0
VERTEX
8
0
10
0.549000
20
1.240000
0
SEQEND
8
0
0
TEXT
8
12632256
10
0.324000
20
1.275000
40
0.048000
41
1.041667
1
R10
0
POLYLINE
8
0
66
1
40
0.008000
41
0.008000
0
VERTEX
8
0
10
-0.466000
20
0.907000
0
VERTEX
8
0
10
-0.466000
20
0.957000
0
SEQEND
8
0
0
POLYLINE
8
0
66
1
40
0.008000
41
0.008000
0
VERTEX
8
0
10
-0.416000
20
1.007000
0
VERTEX
8
0
10
-0.417000
20
1.017000
0
VERTEX
8
0
10
-0.420000
20
1.027000
0
VERTEX
8
0
10
-0.424000
20
1.035000
0
VERTEX
8
0
10
-0.430000
20
1.042000
0
VERTEX
8
0
10
-0.437000
20
1.049000
0
VERTEX
8
0
10
-0.446000
20
1.053000
0
VERTEX
8
0
10
-0.456000
20
1.056000
0
VERTEX
8
0
10
-0.466000
20
1.057000
0
SEQEND
8
0
0
POLYLINE
8
0
66
1
40
0.008000
41
0.008000
0
VERTEX
8
0
10
-0.416000
20
1.007000
0
VERTEX
8
0
10
-0.417000
20
0.997000
0
VERTEX
8
0
10
-0.420000
20
0.987000
0
VERTEX
8
0
10
-0.424000
20
0.978000
0
VERTEX
8
0
10
-0.430000
20
0.971000
0
VERTEX
8
0
10
-0.437000
20
0.965000
0
VERTEX
8
0
10
-0.446000
20
0.961000
0
VERTEX
8
0
10
-0.456000
20
0.958000
0
VERTEX
8
0
10
-0.466000
20
0.957000
0
SEQEND
8
0
0
POLYLINE
8
0
66
1
40
0.008000
41
0.008000
0
VERTEX
8
0
10
-0.466000
20
1.057000
0
VERTEX
8
0
10
-0.466000
20
1.107000
0
SEQEND
8
0
0
POLYLINE
8
0
66
1
40
0.008000
41
0.008000
0
VERTEX
8
0
10
-0.166000
20
0.907000
0
VERTEX
8
0
10
-0.166000
20
1.107000
0
SEQEND
8
0
0
POLYLINE
8
0
66
1
40
0.008000
41
0.008000
0
VERTEX
8
0
10
-0.466000
20
0.907000
0
VERTEX
8
0
10
-0.166000
20
0.907000
0
SEQEND
8
0
0
POLYLINE
8
0
66
1
40
0.008000
41
0.008000
0
VERTEX
8
0
10
-0.466000
20
1.107000
0
VERTEX
8
0
10
-0.166000
20
1.107000
0
SEQEND
8
0
0
TEXT
8
12632256
10
-0.476000
20
0.957000
40
0.048000
41
1.041667
50
90.000000
1
U5
0
POLYLINE
8
0
66
1
40
0.008000
41
0.008000
0
VERTEX
8
0
10
-0.479000
20
1.462000
0
VERTEX
8
0
10
-0.179000
20
1.462000
0
VERTEX
8
0
10
-0.179000
20
1.562000
0
VERTEX
8
0
10
-0.479000
20
1.562000
0
VERTEX
8
0
10
-0.479000
20
1.462000
0
SEQEND
8
0
0
POLYLINE
8
0
66
1
40
0.008000
41
0.008000
0
VERTEX
8
0
10
-0.179000
20
1.462000
0
VERTEX
8
0
10
-0.179000
20
1.412000
0
VERTEX
8
0
10
-0.479000
20
1.412000
0
VERTEX
8
0
10
-0.479000
20
1.462000
0
SEQEND
8
0
0
POLYLINE
8
0
66
1
40
0.008000
41
0.008000
0
VERTEX
8
0
10
-0.179000
20
1.462000
0
VERTEX
8
0
10
-0.229000
20
1.412000
0
SEQEND
8
0
0
POLYLINE
8
0
66
1
40
0.008000
41
0.008000
0
VERTEX
8
0
10
-0.229000
20
1.462000
0
VERTEX
8
0
10
-0.279000
20
1.412000
0
SEQEND
8
0
0
POLYLINE
8
0
66
1
40
0.008000
41
0.008000
0
VERTEX
8
0
10
-0.279000
20
1.462000
0
VERTEX
8
0
10
-0.329000
20
1.412000
0
SEQEND
8
0
0
POLYLINE
8
0
66
1
40
0.008000
41
0.008000
0
VERTEX
8
0
10
-0.329000
20
1.462000
0
VERTEX
8
0
10
-0.379000
20
1.412000
0
SEQEND
8
0
0
POLYLINE
8
0
66
1
40
0.008000
41
0.008000
0
VERTEX
8
0
10
-0.379000
20
1.462000
0
VERTEX
8
0
10
-0.429000
20
1.412000
0
SEQEND
8
0
0
POLYLINE
8
0
66
1
40
0.008000
41
0.008000
0
VERTEX
8
0
10
-0.429000
20
1.462000
0
VERTEX
8
0
10
-0.479000
20
1.412000
0
SEQEND
8
0
0
TEXT
8
12632256
10
-0.379000
20
1.354000
40
0.048000
41
1.041667
1
U6
0
POLYLINE
8
0
66
1
40
0.008000
41
0.008000
0
VERTEX
8
0
10
-0.478000
20
1.242000
0
VERTEX
8
0
10
-0.428000
20
1.242000
0
SEQEND
8
0
0
POLYLINE
8
0
66
1
40
0.008000
41
0.008000
0
VERTEX
8
0
10
-0.428000
20
1.217000
0
VERTEX
8
0
10
-0.228000
20
1.217000
0
VERTEX
8
0
10
-0.228000
20
1.267000
0
VERTEX
8
0
10
-0.428000
20
1.267000
0
VERTEX
8
0
10
-0.428000
20
1.217000
0
SEQEND
8
0
0
POLYLINE
8
0
66
1
40
0.008000
41
0.008000
0
VERTEX
8
0
10
-0.228000
20
1.242000
0
VERTEX
8
0
10
-0.178000
20
1.242000
0
SEQEND
8
0
0
TEXT
8
12632256
10
-0.403000
20
1.277000
40
0.048000
41
1.041667
1
R14
0
POLYLINE
8
0
66
1
40
0.008000
41
0.008000
0
VERTEX
8
0
10
-0.519000
20
2.166000
0
VERTEX
8
0
10
-0.519000
20
1.766000
0
SEQEND
8
0
0
POLYLINE
8
0
66
1
40
0.008000
41
0.008000
0
VERTEX
8
0
10
-0.119000
20
2.166000
0
VERTEX
8
0
10
-0.119000
20
1.766000
0
SEQEND
8
0
0
POLYLINE
8
0
66
1
40
0.008000
41
0.008000
0
VERTEX
8
0
10
-0.519000
20
1.766000
0
VERTEX
8
0
10
-0.119000
20
1.766000
0
SEQEND
8
0
0
POLYLINE
8
0
66
1
40
0.008000
41
0.008000
0
VERTEX
8
0
10
-0.519000
20
2.166000
0
VERTEX
8
0
10
-0.119000
20
2.166000
0
SEQEND
8
0
0
TEXT
8
12632256
10
-0.394000
20
2.176000
40
0.048000
41
1.041667
1
J10
0
POLYLINE
8
0
66
1
40
0.008000
41
0.008000
0
VERTEX
8
0
10
-1.290000
20
0.907000
0
VERTEX
8
0
10
-1.290000
20
0.957000
0
SEQEND
8
0
0
POLYLINE
8
0
66
1
40
0.008000
41
0.008000
0
VERTEX
8
0
10
-1.240000
20
1.007000
0
VERTEX
8
0
10
-1.241000
20
1.017000
0
VERTEX
8
0
10
-1.244000
20
1.027000
0
VERTEX
8
0
10
-1.248000
20
1.035000
0
VERTEX
8
0
10
-1.254000
20
1.042000
0
VERTEX
8
0
10
-1.261000
20
1.049000
0
VERTEX
8
0
10
-1.270000
20
1.053000
0
VERTEX
8
0
10
-1.280000
20
1.056000
0
VERTEX
8
0
10
-1.290000
20
1.057000
0
SEQEND
8
0
0
POLYLINE
8
0
66
1
40
0.008000
41
0.008000
0
VERTEX
8
0
10
-1.240000
20
1.007000
0
VERTEX
8
0
10
-1.241000
20
0.997000
0
VERTEX
8
0
10
-1.244000
20
0.987000
0
VERTEX
8
0
10
-1.248000
20
0.978000
0
VERTEX
8
0
10
-1.254000
20
0.971000
0
VERTEX
8
0
10
-1.261000
20
0.965000
0
VERTEX
8
0
10
-1.270000
20
0.961000
0
VERTEX
8
0
10
-1.280000
20
0.958000
0
VERTEX
8
0
10
-1.290000
20
0.957000
0
SEQEND
8
0
0
POLYLINE
8
0
66
1
40
0.008000
41
0.008000
0
VERTEX
8
0
10
-1.290000
20
1.057000
0
VERTEX
8
0
10
-1.290000
20
1.107000
0
SEQEND
8
0
0
POLYLINE
8
0
66
1
40
0.008000
41
0.008000
0
VERTEX
8
0
10
-0.990000
20
0.907000
0
VERTEX
8
0
10
-0.990000
20
1.107000
0
SEQEND
8
0
0
POLYLINE
8
0
66
1
40
0.008000
41
0.008000
0
VERTEX
8
0
10
-1.290000
20
0.907000
0
VERTEX
8
0
10
-0.990000
20
0.907000
0
SEQEND
8
0
0
POLYLINE
8
0
66
1
40
0.008000
41
0.008000
0
VERTEX
8
0
10
-1.290000
20
1.107000
0
VERTEX
8
0
10
-0.990000
20
1.107000
0
SEQEND
8
0
0
TEXT
8
12632256
10
-1.300000
20
0.957000
40
0.048000
41
1.041667
50
90.000000
1
U7
0
POLYLINE
8
0
66
1
40
0.008000
41
0.008000
0
VERTEX
8
0
10
-1.301000
20
1.462000
0
VERTEX
8
0
10
-1.001000
20
1.462000
0
VERTEX
8
0
10
-1.001000
20
1.562000
0
VERTEX
8
0
10
-1.301000
20
1.562000
0
VERTEX
8
0
10
-1.301000
20
1.462000
0
SEQEND
8
0
0
POLYLINE
8
0
66
1
40
0.008000
41
0.008000
0
VERTEX
8
0
10
-1.001000
20
1.462000
0
VERTEX
8
0
10
-1.001000
20
1.412000
0
VERTEX
8
0
10
-1.301000
20
1.412000
0
VERTEX
8
0
10
-1.301000
20
1.462000
0
SEQEND
8
0
0
POLYLINE
8
0
66
1
40
0.008000
41
0.008000
0
VERTEX
8
0
10
-1.001000
20
1.462000
0
VERTEX
8
0
10
-1.051000
20
1.412000
0
SEQEND
8
0
0
POLYLINE
8
0
66
1
40
0.008000
41
0.008000
0
VERTEX
8
0
10
-1.051000
20
1.462000
0
VERTEX
8
0
10
-1.101000
20
1.412000
0
SEQEND
8
0
0
POLYLINE
8
0
66
1
40
0.008000
41
0.008000
0
VERTEX
8
0
10
-1.101000
20
1.462000
0
VERTEX
8
0
10
-1.151000
20
1.412000
0
SEQEND
8
0
0
POLYLINE
8
0
66
1
40
0.008000
41
0.008000
0
VERTEX
8
0
10
-1.151000
20
1.462000
0
VERTEX
8
0
10
-1.201000
20
1.412000
0
SEQEND
8
0
0
POLYLINE
8
0
66
1
40
0.008000
41
0.008000
0
VERTEX
8
0
10
-1.201000
20
1.462000
0
VERTEX
8
0
10
-1.251000
20
1.412000
0
SEQEND
8
0
0
POLYLINE
8
0
66
1
40
0.008000
41
0.008000
0
VERTEX
8
0
10
-1.251000
20
1.462000
0
VERTEX
8
0
10
-1.301000
20
1.412000
0
SEQEND
8
0
0
TEXT
8
12632256
10
-1.201000
20
1.354000
40
0.048000
41
1.041667
1
U8
0
POLYLINE
8
0
66
1
40
0.008000
41
0.008000
0
VERTEX
8
0
10
-1.346000
20
2.166000
0
VERTEX
8
0
10
-1.346000
20
1.766000
0
SEQEND
8
0
0
POLYLINE
8
0
66
1
40
0.008000
41
0.008000
0
VERTEX
8
0
10
-0.946000
20
2.166000
0
VERTEX
8
0
10
-0.946000
20
1.766000
0
SEQEND
8
0
0
POLYLINE
8
0
66
1
40
0.008000
41
0.008000
0
VERTEX
8
0
10
-1.346000
20
1.766000
0
VERTEX
8
0
10
-0.946000
20
1.766000
0
SEQEND
8
0
0
POLYLINE
8
0
66
1
40
0.008000
41
0.008000
0
VERTEX
8
0
10
-1.346000
20
2.166000
0
VERTEX
8
0
10
-0.946000
20
2.166000
0
SEQEND
8
0
0
TEXT
8
12632256
10
-1.221000
20
2.176000
40
0.048000
41
1.041667
1
J11
0
POLYLINE
8
0
66
1
40
0.008000
41
0.008000
0
VERTEX
8
0
10
-1.297000
20
1.249000
0
VERTEX
8
0
10
-1.247000
20
1.249000
0
SEQEND
8
0
0
POLYLINE
8
0
66
1
40
0.008000
41
0.008000
0
VERTEX
8
0
10
-1.247000
20
1.224000
0
VERTEX
8
0
10
-1.047000
20
1.224000
0
VERTEX
8
0
10
-1.047000
20
1.274000
0
VERTEX
8
0
10
-1.247000
20
1.274000
0
VERTEX
8
0
10
-1.247000
20
1.224000
0
SEQEND
8
0
0
POLYLINE
8
0
66
1
40
0.008000
41
0.008000
0
VERTEX
8
0
10
-1.047000
20
1.249000
0
VERTEX
8
0
10
-0.997000
20
1.249000
0
SEQEND
8
0
0
TEXT
8
12632256
10
-1.222000
20
1.284000
40
0.048000
41
1.041667
1
R18
0
POLYLINE
8
0
66
1
40
0.008000
41
0.008000
0
VERTEX
8
0
10
-1.898000
20
0.980000
0
VERTEX
8
0
10
-1.498000
20
0.980000
0
SEQEND
8
0
0
POLYLINE
8
0
66
1
40
0.008000
41
0.008000
0
VERTEX
8
0
10
-1.898000
20
1.380000
0
VERTEX
8
0
10
-1.498000
20
1.380000
0
SEQEND
8
0
0
POLYLINE
8
0
66
1
40
0.008000
41
0.008000
0
VERTEX
8
0
10
-1.498000
20
0.980000
0
VERTEX
8
0
10
-1.498000
20
1.380000
0
SEQEND
8
0
0
POLYLINE
8
0
66
1
40
0.008000
41
0.008000
0
VERTEX
8
0
10
-1.898000
20
0.980000
0
VERTEX
8
0
10
-1.898000
20
1.380000
0
SEQEND
8
0
0
TEXT
8
12632256
10
-1.908000
20
1.105000
40
0.048000
41
1.041667
50
90.000000
1
J12
0
POLYLINE
8
0
66
1
40
0.008000
41
0.008000
0
VERTEX
8
0
10
-1.718000
20
0.341000
0
VERTEX
8
0
10
0.381000
20
0.341000
0
VERTEX
8
0
10
0.381000
20
0.591000
0
VERTEX
8
0
10
-1.718000
20
0.591000
0
VERTEX
8
0
10
-1.718000
20
0.341000
0
SEQEND
8
0
0
POLYLINE
8
0
66
1
40
0.008000
41
0.008000
0
VERTEX
8
0
10
0.381000
20
0.391000
0
VERTEX
8
0
10
-1.718000
20
0.391000
0
SEQEND
8
0
0
TEXT
8
12632256
10
-0.718000
20
0.283000
40
0.048000
41
1.041667
1
J9
0
POLYLINE
8
0
66
1
40
0.008000
41
0.008000
0
VERTEX
8
0
10
1.607000
20
-1.854000
0
VERTEX
8
0
10
1.607000
20
-1.804000
0
SEQEND
8
0
0
POLYLINE
8
0
66
1
40
0.008000
41
0.008000
0
VERTEX
8
0
10
1.582000
20
-1.804000
0
VERTEX
8
0
10
1.632000
20
-1.804000
0
VERTEX
8
0
10
1.632000
20
-1.604000
0
VERTEX
8
0
10
1.582000
20
-1.604000
0
VERTEX
8
0
10
1.582000
20
-1.804000
0
SEQEND
8
0
0
POLYLINE
8
0
66
1
40
0.008000
41
0.008000
0
VERTEX
8
0
10
1.607000
20
-1.604000
0
VERTEX
8
0
10
1.607000
20
-1.554000
0
SEQEND
8
0
0
TEXT
8
12632256
10
1.710000
20
-1.712000
40
0.048000
41
1.041667
50
90.000000
1
R24
0
CIRCLE
8
12632256
10
1.324000
20
-1.522000
40
0.000000
0
CIRCLE
8
12632256
10
1.324000
20
-1.522000
40
0.100000
0
POLYLINE
8
0
66
1
40
0.008000
41
0.008000
0
VERTEX
8
0
10
1.449000
20
-1.622000
0
VERTEX
8
0
10
1.399000
20
-1.622000
0
SEQEND
8
0
0
POLYLINE
8
0
66
1
40
0.008000
41
0.008000
0
VERTEX
8
0
10
1.424000
20
-1.647000
0
VERTEX
8
0
10
1.424000
20
-1.597000
0
SEQEND
8
0
0
TEXT
8
12632256
10
1.287000
20
-1.705000
40
0.048000
41
1.041667
1
D2
0
POLYLINE
8
0
66
1
40
0.008000
41
0.008000
0
VERTEX
8
0
10
-1.384000
20
-1.128000
0
VERTEX
8
0
10
-1.084000
20
-1.128000
0
VERTEX
8
0
10
-1.084000
20
-0.878000
0
VERTEX
8
0
10
-1.384000
20
-0.878000
0
VERTEX
8
0
10
-1.384000
20
-1.128000
0
SEQEND
8
0
0
POLYLINE
8
0
66
1
40
0.008000
41
0.008000
0
VERTEX
8
0
10
-1.084000
20
-1.078000
0
VERTEX
8
0
10
-1.384000
20
-1.078000
0
SEQEND
8
0
0
TEXT
8
12632256
10
-1.170000
20
-0.867000
40
0.048000
41
1.041667
1
J1
0
POLYLINE
8
0
66
1
40
0.008000
41
0.008000
0
VERTEX
8
0
10
-1.018000
20
-0.881000
0
VERTEX
8
0
10
-1.018000
20
-0.931000
0
SEQEND
8
0
0
POLYLINE
8
0
66
1
40
0.008000
41
0.008000
0
VERTEX
8
0
10
-1.043000
20
-1.131000
0
VERTEX
8
0
10
-0.993000
20
-1.131000
0
VERTEX
8
0
10
-0.993000
20
-0.931000
0
VERTEX
8
0
10
-1.043000
20
-0.931000
0
VERTEX
8
0
10
-1.043000
20
-1.131000
0
SEQEND
8
0
0
POLYLINE
8
0
66
1
40
0.008000
41
0.008000
0
VERTEX
8
0
10
-1.018000
20
-1.131000
0
VERTEX
8
0
10
-1.018000
20
-1.181000
0
SEQEND
8
0
0
TEXT
8
12632256
10
-0.935000
20
-1.081000
40
0.048000
41
1.041667
50
90.000000
1
R1
0
POLYLINE
8
0
66
1
40
0.008000
41
0.008000
0
VERTEX
8
0
10
-1.108000
20
-0.785000
0
VERTEX
8
0
10
-1.111000
20
-0.795000
0
VERTEX
8
0
10
-1.119000
20
-0.805000
0
VERTEX
8
0
10
-1.133000
20
-0.813000
0
VERTEX
8
0
10
-1.151000
20
-0.820000
0
VERTEX
8
0
10
-1.173000
20
-0.827000
0
VERTEX
8
0
10
-1.199000
20
-0.831000
0
VERTEX
8
0
10
-1.227000
20
-0.834000
0
VERTEX
8
0
10
-1.258000
20
-0.835000
0
SEQEND
8
0
0
POLYLINE
8
0
66
1
40
0.008000
41
0.008000
0
VERTEX
8
0
10
-1.408000
20
-0.785000
0
VERTEX
8
0
10
-1.405000
20
-0.795000
0
VERTEX
8
0
10
-1.396000
20
-0.805000
0
VERTEX
8
0
10
-1.382000
20
-0.813000
0
VERTEX
8
0
10
-1.364000
20
-0.820000
0
VERTEX
8
0
10
-1.342000
20
-0.827000
0
VERTEX
8
0
10
-1.317000
20
-0.831000
0
VERTEX
8
0
10
-1.289000
20
-0.834000
0
VERTEX
8
0
10
-1.258000
20
-0.835000
0
SEQEND
8
0
0
POLYLINE
8
0
66
1
40
0.008000
41
0.008000
0
VERTEX
8
0
10
-1.408000
20
-0.785000
0
VERTEX
8
0
10
-1.405000
20
-0.775000
0
VERTEX
8
0
10
-1.396000
20
-0.765000
0
VERTEX
8
0
10
-1.382000
20
-0.757000
0
VERTEX
8
0
10
-1.364000
20
-0.750000
0
VERTEX
8
0
10
-1.342000
20
-0.743000
0
VERTEX
8
0
10
-1.317000
20
-0.739000
0
VERTEX
8
0
10
-1.289000
20
-0.736000
0
VERTEX
8
0
10
-1.258000
20
-0.735000
0
SEQEND
8
0
0
POLYLINE
8
0
66
1
40
0.008000
41
0.008000
0
VERTEX
8
0
10
-1.108000
20
-0.785000
0
VERTEX
8
0
10
-1.111000
20
-0.775000
0
VERTEX
8
0
10
-1.119000
20
-0.765000
0
VERTEX
8
0
10
-1.133000
20
-0.757000
0
VERTEX
8
0
10
-1.151000
20
-0.750000
0
VERTEX
8
0
10
-1.173000
20
-0.743000
0
VERTEX
8
0
10
-1.199000
20
-0.739000
0
VERTEX
8
0
10
-1.227000
20
-0.736000
0
VERTEX
8
0
10
-1.258000
20
-0.735000
0
SEQEND
8
0
0
TEXT
8
12632256
10
-1.280000
20
-0.712000
40
0.048000
41
1.041667
1
C2
0
POLYLINE
8
0
66
1
40
0.008000
41
0.008000
0
VERTEX
8
0
10
-0.891000
20
-0.629000
0
VERTEX
8
0
10
-0.841000
20
-0.629000
0
SEQEND
8
0
0
POLYLINE
8
0
66
1
40
0.008000
41
0.008000
0
VERTEX
8
0
10
-0.841000
20
-0.654000
0
VERTEX
8
0
10
-0.641000
20
-0.654000
0
VERTEX
8
0
10
-0.641000
20
-0.604000
0
VERTEX
8
0
10
-0.841000
20
-0.604000
0
VERTEX
8
0
10
-0.841000
20
-0.654000
0
SEQEND
8
0
0
POLYLINE
8
0
66
1
40
0.008000
41
0.008000
0
VERTEX
8
0
10
-0.641000
20
-0.629000
0
VERTEX
8
0
10
-0.591000
20
-0.629000
0
SEQEND
8
0
0
TEXT
8
12632256
10
-0.791000
20
-0.594000
40
0.048000
41
1.041667
1
R4
0
POLYLINE
8
0
66
1
40
0.008000
41
0.008000
0
VERTEX
8
0
10
-0.795000
20
-0.499000
0
VERTEX
8
0
10
-0.745000
20
-0.499000
0
SEQEND
8
0
0
POLYLINE
8
0
66
1
40
0.008000
41
0.008000
0
VERTEX
8
0
10
-0.745000
20
-0.524000
0
VERTEX
8
0
10
-0.545000
20
-0.524000
0
VERTEX
8
0
10
-0.545000
20
-0.474000
0
VERTEX
8
0
10
-0.745000
20
-0.474000
0
VERTEX
8
0
10
-0.745000
20
-0.524000
0
SEQEND
8
0
0
POLYLINE
8
0
66
1
40
0.008000
41
0.008000
0
VERTEX
8
0
10
-0.545000
20
-0.499000
0
VERTEX
8
0
10
-0.495000
20
-0.499000
0
SEQEND
8
0
0
TEXT
8
12632256
10
-0.695000
20
-0.464000
40
0.048000
41
1.041667
1
R7
0
POLYLINE
8
0
66
1
40
0.008000
41
0.008000
0
VERTEX
8
0
10
0.089000
20
-0.468000
0
VERTEX
8
0
10
0.389000
20
-0.468000
0
VERTEX
8
0
10
0.439000
20
-0.518000
0
VERTEX
8
0
10
0.439000
20
-0.618000
0
VERTEX
8
0
10
0.389000
20
-0.668000
0
VERTEX
8
0
10
0.089000
20
-0.668000
0
VERTEX
8
0
10
0.039000
20
-0.618000
0
VERTEX
8
0
10
0.039000
20
-0.518000
0
VERTEX
8
0
10
0.089000
20
-0.468000
0
SEQEND
8
0
0
TEXT
8
12632256
10
0.189000
20
-0.458000
40
0.048000
41
1.041667
1
X1
0
POLYLINE
8
0
66
1
40
0.008000
41
0.008000
0
VERTEX
8
0
10
0.190000
20
-0.373000
0
VERTEX
8
0
10
0.188000
20
-0.383000
0
VERTEX
8
0
10
0.182000
20
-0.393000
0
VERTEX
8
0
10
0.173000
20
-0.401000
0
VERTEX
8
0
10
0.161000
20
-0.408000
0
VERTEX
8
0
10
0.146000
20
-0.415000
0
VERTEX
8
0
10
0.129000
20
-0.419000
0
VERTEX
8
0
10
0.110000
20
-0.422000
0
VERTEX
8
0
10
0.090000
20
-0.423000
0
SEQEND
8
0
0
POLYLINE
8
0
66
1
40
0.008000
41
0.008000
0
VERTEX
8
0
10
-0.009000
20
-0.373000
0
VERTEX
8
0
10
-0.007000
20
-0.383000
0
VERTEX
8
0
10
-0.001000
20
-0.393000
0
VERTEX
8
0
10
0.008000
20
-0.401000
0
VERTEX
8
0
10
0.020000
20
-0.408000
0
VERTEX
8
0
10
0.034000
20
-0.415000
0
VERTEX
8
0
10
0.051000
20
-0.419000
0
VERTEX
8
0
10
0.070000
20
-0.422000
0
VERTEX
8
0
10
0.090000
20
-0.423000
0
SEQEND
8
0
0
POLYLINE
8
0
66
1
40
0.008000
41
0.008000
0
VERTEX
8
0
10
0.190000
20
-0.373000
0
VERTEX
8
0
10
0.188000
20
-0.363000
0
VERTEX
8
0
10
0.182000
20
-0.353000
0
VERTEX
8
0
10
0.173000
20
-0.345000
0
VERTEX
8
0
10
0.161000
20
-0.338000
0
VERTEX
8
0
10
0.146000
20
-0.331000
0
VERTEX
8
0
10
0.129000
20
-0.327000
0
VERTEX
8
0
10
0.110000
20
-0.324000
0
VERTEX
8
0
10
0.090000
20
-0.323000
0
SEQEND
8
0
0
POLYLINE
8
0
66
1
40
0.008000
41
0.008000
0
VERTEX
8
0
10
-0.009000
20
-0.373000
0
VERTEX
8
0
10
-0.007000
20
-0.363000
0
VERTEX
8
0
10
-0.001000
20
-0.353000
0
VERTEX
8
0
10
0.008000
20
-0.345000
0
VERTEX
8
0
10
0.020000
20
-0.338000
0
VERTEX
8
0
10
0.034000
20
-0.331000
0
VERTEX
8
0
10
0.051000
20
-0.327000
0
VERTEX
8
0
10
0.070000
20
-0.324000
0
VERTEX
8
0
10
0.090000
20
-0.323000
0
SEQEND
8
0
0
TEXT
8
12632256
10
0.036000
20
-0.312000
40
0.048000
41
1.041667
1
C8
0
POLYLINE
8
0
66
1
40
0.008000
41
0.008000
0
VERTEX
8
0
10
0.285000
20
-0.378000
0
VERTEX
8
0
10
0.287000
20
-0.368000
0
VERTEX
8
0
10
0.293000
20
-0.358000
0
VERTEX
8
0
10
0.302000
20
-0.350000
0
VERTEX
8
0
10
0.314000
20
-0.342000
0
VERTEX
8
0
10
0.329000
20
-0.336000
0
VERTEX
8
0
10
0.346000
20
-0.332000
0
VERTEX
8
0
10
0.365000
20
-0.329000
0
VERTEX
8
0
10
0.385000
20
-0.328000
0
SEQEND
8
0
0
POLYLINE
8
0
66
1
40
0.008000
41
0.008000
0
VERTEX
8
0
10
0.485000
20
-0.378000
0
VERTEX
8
0
10
0.483000
20
-0.368000
0
VERTEX
8
0
10
0.477000
20
-0.358000
0
VERTEX
8
0
10
0.468000
20
-0.350000
0
VERTEX
8
0
10
0.456000
20
-0.342000
0
VERTEX
8
0
10
0.441000
20
-0.336000
0
VERTEX
8
0
10
0.424000
20
-0.332000
0
VERTEX
8
0
10
0.405000
20
-0.329000
0
VERTEX
8
0
10
0.385000
20
-0.328000
0
SEQEND
8
0
0
POLYLINE
8
0
66
1
40
0.008000
41
0.008000
0
VERTEX
8
0
10
0.285000
20
-0.378000
0
VERTEX
8
0
10
0.287000
20
-0.388000
0
VERTEX
8
0
10
0.293000
20
-0.398000
0
VERTEX
8
0
10
0.302000
20
-0.406000
0
VERTEX
8
0
10
0.314000
20
-0.414000
0
VERTEX
8
0
10
0.329000
20
-0.420000
0
VERTEX
8
0
10
0.346000
20
-0.424000
0
VERTEX
8
0
10
0.365000
20
-0.427000
0
VERTEX
8
0
10
0.385000
20
-0.428000
0
SEQEND
8
0
0
POLYLINE
8
0
66
1
40
0.008000
41
0.008000
0
VERTEX
8
0
10
0.485000
20
-0.378000
0
VERTEX
8
0
10
0.483000
20
-0.388000
0
VERTEX
8
0
10
0.477000
20
-0.398000
0
VERTEX
8
0
10
0.468000
20
-0.406000
0
VERTEX
8
0
10
0.456000
20
-0.414000
0
VERTEX
8
0
10
0.441000
20
-0.420000
0
VERTEX
8
0
10
0.424000
20
-0.424000
0
VERTEX
8
0
10
0.405000
20
-0.427000
0
VERTEX
8
0
10
0.385000
20
-0.428000
0
SEQEND
8
0
0
TEXT
8
12632256
10
0.335000
20
-0.318000
40
0.048000
41
1.041667
1
C9
0
POLYLINE
8
0
66
1
40
0.008000
41
0.008000
0
VERTEX
8
0
10
0.805000
20
-0.955000
0
VERTEX
8
0
10
0.855000
20
-0.955000
0
SEQEND
8
0
0
POLYLINE
8
0
66
1
40
0.008000
41
0.008000
0
VERTEX
8
0
10
0.855000
20
-0.980000
0
VERTEX
8
0
10
1.055000
20
-0.980000
0
VERTEX
8
0
10
1.055000
20
-0.930000
0
VERTEX
8
0
10
0.855000
20
-0.930000
0
VERTEX
8
0
10
0.855000
20
-0.980000
0
SEQEND
8
0
0
POLYLINE
8
0
66
1
40
0.008000
41
0.008000
0
VERTEX
8
0
10
1.055000
20
-0.955000
0
VERTEX
8
0
10
1.105000
20
-0.955000
0
SEQEND
8
0
0
TEXT
8
12632256
10
0.880000
20
-0.920000
40
0.048000
41
1.041667
1
R21
0
POLYLINE
8
0
66
1
40
0.008000
41
0.008000
0
VERTEX
8
0
10
0.917000
20
-1.361000
0
VERTEX
8
0
10
0.917000
20
-1.561000
0
SEQEND
8
0
0
POLYLINE
8
0
66
1
40
0.008000
41
0.008000
0
VERTEX
8
0
10
0.982000
20
-1.331000
0
VERTEX
8
0
10
0.967000
20
-1.333000
0
VERTEX
8
0
10
0.951000
20
-1.338000
0
VERTEX
8
0
10
0.935000
20
-1.348000
0
VERTEX
8
0
10
0.917000
20
-1.361000
0
SEQEND
8
0
0
POLYLINE
8
0
66
1
40
0.008000
41
0.008000
0
VERTEX
8
0
10
0.982000
20
-1.331000
0
VERTEX
8
0
10
1.007000
20
-1.332000
0
VERTEX
8
0
10
1.019000
20
-1.335000
0
VERTEX
8
0
10
1.031000
20
-1.339000
0
VERTEX
8
0
10
1.042000
20
-1.344000
0
VERTEX
8
0
10
1.052000
20
-1.350000
0
VERTEX
8
0
10
1.062000
20
-1.357000
0
VERTEX
8
0
10
1.071000
20
-1.366000
0
VERTEX
8
0
10
1.086000
20
-1.385000
0
VERTEX
8
0
10
1.097000
20
-1.408000
0
VERTEX
8
0
10
1.101000
20
-1.420000
0
VERTEX
8
0
10
1.104000
20
-1.433000
0
VERTEX
8
0
10
1.106000
20
-1.447000
0
VERTEX
8
0
10
1.107000
20
-1.461000
0
SEQEND
8
0
0
POLYLINE
8
0
66
1
40
0.008000
41
0.008000
0
VERTEX
8
0
10
0.982000
20
-1.591000
0
VERTEX
8
0
10
0.967000
20
-1.589000
0
VERTEX
8
0
10
0.951000
20
-1.584000
0
VERTEX
8
0
10
0.935000
20
-1.574000
0
VERTEX
8
0
10
0.917000
20
-1.561000
0
SEQEND
8
0
0
POLYLINE
8
0
66
1
40
0.008000
41
0.008000
0
VERTEX
8
0
10
0.982000
20
-1.591000
0
VERTEX
8
0
10
1.007000
20
-1.590000
0
VERTEX
8
0
10
1.019000
20
-1.587000
0
VERTEX
8
0
10
1.031000
20
-1.583000
0
VERTEX
8
0
10
1.042000
20
-1.578000
0
VERTEX
8
0
10
1.052000
20
-1.572000
0
VERTEX
8
0
10
1.062000
20
-1.565000
0
VERTEX
8
0
10
1.071000
20
-1.556000
0
VERTEX
8
0
10
1.086000
20
-1.537000
0
VERTEX
8
0
10
1.097000
20
-1.514000
0
VERTEX
8
0
10
1.101000
20
-1.502000
0
VERTEX
8
0
10
1.104000
20
-1.489000
0
VERTEX
8
0
10
1.106000
20
-1.475000
0
VERTEX
8
0
10
1.107000
20
-1.461000
0
SEQEND
8
0
0
TEXT
8
12632256
10
1.165000
20
-1.511000
40
0.048000
41
1.041667
50
90.000000
1
Q2
0
CIRCLE
8
12632256
10
0.623000
20
-1.457000
40
0.242000
0
CIRCLE
8
12632256
10
0.623000
20
-1.457000
40
0.050000
0
TEXT
8
12632256
10
0.457000
20
-1.353000
40
0.080000
41
1.125000
1
+
0
TEXT
8
12632256
10
0.735000
20
-1.232000
40
0.048000
41
1.041667
1
BUZ2
0
POLYLINE
8
0
66
1
40
0.008000
41
0.008000
0
VERTEX
8
0
10
0.471000
20
0.463000
0
VERTEX
8
0
10
0.771000
20
0.463000
0
VERTEX
8
0
10
0.771000
20
0.613000
0
VERTEX
8
0
10
0.471000
20
0.613000
0
VERTEX
8
0
10
0.471000
20
0.463000
0
SEQEND
8
0
0
POLYLINE
8
0
66
1
40
0.008000
41
0.008000
0
VERTEX
8
0
10
0.671000
20
0.313000
0
VERTEX
8
0
10
0.571000
20
0.313000
0
SEQEND
8
0
0
POLYLINE
8
0
66
1
40
0.008000
41
0.008000
0
VERTEX
8
0
10
0.526000
20
0.243000
0
VERTEX
8
0
10
0.719000
20
0.243000
0
VERTEX
8
0
10
0.719000
20
0.464000
0
VERTEX
8
0
10
0.526000
20
0.464000
0
VERTEX
8
0
10
0.526000
20
0.243000
0
SEQEND
8
0
0
TEXT
8
12632256
10
0.546000
20
0.623000
40
0.048000
41
1.041667
1
RV1
0
POLYLINE
8
0
66
1
40
0.008000
41
0.008000
0
VERTEX
8
0
10
-1.387000
20
-0.153000
0
VERTEX
8
0
10
-1.187000
20
-0.153000
0
SEQEND
8
0
0
POLYLINE
8
0
66
1
40
0.008000
41
0.008000
0
VERTEX
8
0
10
-1.417000
20
-0.088000
0
VERTEX
8
0
10
-1.415000
20
-0.103000
0
VERTEX
8
0
10
-1.410000
20
-0.119000
0
VERTEX
8
0
10
-1.400000
20
-0.135000
0
VERTEX
8
0
10
-1.387000
20
-0.153000
0
SEQEND
8
0
0
POLYLINE
8
0
66
1
40
0.008000
41
0.008000
0
VERTEX
8
0
10
-1.417000
20
-0.088000
0
VERTEX
8
0
10
-1.416000
20
-0.063000
0
VERTEX
8
0
10
-1.409000
20
-0.039000
0
VERTEX
8
0
10
-1.398000
20
-0.018000
0
VERTEX
8
0
10
-1.382000
20
0.000000
0
VERTEX
8
0
10
-1.363000
20
0.015000
0
VERTEX
8
0
10
-1.340000
20
0.026000
0
VERTEX
8
0
10
-1.315000
20
0.034000
0
VERTEX
8
0
10
-1.287000
20
0.036000
0
SEQEND
8
0
0
POLYLINE
8
0
66
1
40
0.008000
41
0.008000
0
VERTEX
8
0
10
-1.157000
20
-0.088000
0
VERTEX
8
0
10
-1.159000
20
-0.103000
0
VERTEX
8
0
10
-1.164000
20
-0.119000
0
VERTEX
8
0
10
-1.174000
20
-0.135000
0
VERTEX
8
0
10
-1.187000
20
-0.153000
0
SEQEND
8
0
0
POLYLINE
8
0
66
1
40
0.008000
41
0.008000
0
VERTEX
8
0
10
-1.157000
20
-0.088000
0
VERTEX
8
0
10
-1.158000
20
-0.063000
0
VERTEX
8
0
10
-1.165000
20
-0.039000
0
VERTEX
8
0
10
-1.176000
20
-0.018000
0
VERTEX
8
0
10
-1.192000
20
0.000000
0
VERTEX
8
0
10
-1.211000
20
0.015000
0
VERTEX
8
0
10
-1.234000
20
0.026000
0
VERTEX
8
0
10
-1.259000
20
0.034000
0
VERTEX
8
0
10
-1.287000
20
0.036000
0
SEQEND
8
0
0
TEXT
8
12632256
10
-1.337000
20
0.046000
40
0.048000
41
1.041667
1
Q1
0
POLYLINE
8
0
66
1
40
0.008000
41
0.008000
0
VERTEX
8
0
10
-1.334000
20
-0.588000
0
VERTEX
8
0
10
-1.334000
20
-0.538000
0
SEQEND
8
0
0
POLYLINE
8
0
66
1
40
0.008000
41
0.008000
0
VERTEX
8
0
10
-1.359000
20
-0.538000
0
VERTEX
8
0
10
-1.309000
20
-0.538000
0
VERTEX
8
0
10
-1.309000
20
-0.338000
0
VERTEX
8
0
10
-1.359000
20
-0.338000
0
VERTEX
8
0
10
-1.359000
20
-0.538000
0
SEQEND
8
0
0
POLYLINE
8
0
66
1
40
0.008000
41
0.008000
0
VERTEX
8
0
10
-1.334000
20
-0.338000
0
VERTEX
8
0
10
-1.334000
20
-0.288000
0
SEQEND
8
0
0
TEXT
8
12632256
10
-1.369000
20
-0.754000
40
0.048000
41
1.041667
50
90.000000
1
R9
0
POLYLINE
8
0
66
1
40
0.008000
41
0.008000
0
VERTEX
8
0
10
-0.055000
20
-0.530000
0
VERTEX
8
0
10
-0.093000
20
-0.530000
0
SEQEND
8
0
0
POLYLINE
8
0
66
1
40
0.008000
41
0.008000
0
VERTEX
8
0
10
-0.055000
20
-0.641000
0
VERTEX
8
0
10
-0.094000
20
-0.641000
0
SEQEND
8
0
0
POLYLINE
8
0
66
1
40
0.008000
41
0.008000
0
VERTEX
8
0
10
-0.135000
20
-0.515000
0
VERTEX
8
0
10
-0.135000
20
-0.495000
0
SEQEND
8
0
0
POLYLINE
8
0
66
1
40
0.008000
41
0.008000
0
VERTEX
8
0
10
-0.125000
20
-0.505000
0
VERTEX
8
0
10
-0.145000
20
-0.505000
0
SEQEND
8
0
0
TEXT
8
12632256
10
0.000000
20
-0.485000
40
0.048000
41
1.041667
71
2
1
C20
0
POLYLINE
8
0
66
1
40
0.008000
41
0.008000
0
VERTEX
8
0
10
-0.150000
20
-0.215000
0
VERTEX
8
0
10
-0.188000
20
-0.215000
0
SEQEND
8
0
0
POLYLINE
8
0
66
1
40
0.008000
41
0.008000
0
VERTEX
8
0
10
-0.150000
20
-0.326000
0
VERTEX
8
0
10
-0.189000
20
-0.326000
0
SEQEND
8
0
0
POLYLINE
8
0
66
1
40
0.008000
41
0.008000
0
VERTEX
8
0
10
-0.230000
20
-0.200000
0
VERTEX
8
0
10
-0.230000
20
-0.180000
0
SEQEND
8
0
0
POLYLINE
8
0
66
1
40
0.008000
41
0.008000
0
VERTEX
8
0
10
-0.220000
20
-0.190000
0
VERTEX
8
0
10
-0.240000
20
-0.190000
0
SEQEND
8
0
0
TEXT
8
12632256
10
-0.255000
20
-0.382000
40
0.048000
41
1.041667
71
2
1
C21
0
POLYLINE
8
0
66
1
40
0.008000
41
0.008000
0
VERTEX
8
0
10
-0.869000
20
-1.923000
0
VERTEX
8
0
10
-0.831000
20
-1.923000
0
SEQEND
8
0
0
POLYLINE
8
0
66
1
40
0.008000
41
0.008000
0
VERTEX
8
0
10
-0.869000
20
-1.812000
0
VERTEX
8
0
10
-0.830000
20
-1.812000
0
SEQEND
8
0
0
POLYLINE
8
0
66
1
40
0.008000
41
0.008000
0
VERTEX
8
0
10
-0.789000
20
-1.938000
0
VERTEX
8
0
10
-0.789000
20
-1.958000
0
SEQEND
8
0
0
POLYLINE
8
0
66
1
40
0.008000
41
0.008000
0
VERTEX
8
0
10
-0.799000
20
-1.948000
0
VERTEX
8
0
10
-0.779000
20
-1.948000
0
SEQEND
8
0
0
TEXT
8
12632256
10
-0.570000
20
-1.886000
40
0.048000
41
1.041667
71
2
1
C16
0
POLYLINE
8
0
66
1
40
0.008000
41
0.008000
0
VERTEX
8
0
10
1.085000
20
-0.743000
0
VERTEX
8
0
10
1.335000
20
-0.743000
0
VERTEX
8
0
10
1.335000
20
-0.343000
0
VERTEX
8
0
10
1.085000
20
-0.343000
0
VERTEX
8
0
10
1.085000
20
-0.743000
0
SEQEND
8
0
0
POLYLINE
8
0
66
1
40
0.008000
41
0.008000
0
VERTEX
8
0
10
1.285000
20
-0.343000
0
VERTEX
8
0
10
1.285000
20
-0.743000
0
SEQEND
8
0
0
TEXT
8
12632256
10
1.279000
20
-0.937000
40
0.048000
41
1.041667
50
90.000000
1
J13
0
POLYLINE
8
0
66
1
40
0.008000
41
0.008000
0
VERTEX
8
0
10
-0.721000
20
-0.360000
0
VERTEX
8
0
10
-0.671000
20
-0.360000
0
SEQEND
8
0
0
POLYLINE
8
0
66
1
40
0.008000
41
0.008000
0
VERTEX
8
0
10
-0.671000
20
-0.385000
0
VERTEX
8
0
10
-0.471000
20
-0.385000
0
VERTEX
8
0
10
-0.471000
20
-0.335000
0
VERTEX
8
0
10
-0.671000
20
-0.335000
0
VERTEX
8
0
10
-0.671000
20
-0.385000
0
SEQEND
8
0
0
POLYLINE
8
0
66
1
40
0.008000
41
0.008000
0
VERTEX
8
0
10
-0.471000
20
-0.360000
0
VERTEX
8
0
10
-0.421000
20
-0.360000
0
SEQEND
8
0
0
TEXT
8
12632256
10
-0.621000
20
-0.325000
40
0.048000
41
1.041667
1
R8
0
TEXT
8
12632256
10
1.004000
20
1.655000
40
0.064000
41
1.093750
1
LUZ  N
0
TEXT
8
12632256
10
0.287000
20
1.647000
40
0.064000
41
1.093750
1
UV  N
0
TEXT
8
12632256
10
-0.641000
20
1.651000
40
0.064000
41
1.093750
1
MOTOR  N
0
TEXT
8
12632256
10
-1.409000
20
1.647000
40
0.064000
41
1.093750
1
TOMA  N
0
TEXT
8
12632256
10
-1.413000
20
1.040000
40
0.064000
41
1.093750
50
90.000000
1
L  N
0
TEXT
8
12632256
10
0.319000
20
0.257000
40
0.064000
41
1.093750
1
1
0
TEXT
8
12632256
10
-1.763000
20
0.245000
40
0.064000
41
1.093750
1
20
0
TEXT
8
12632256
10
-0.720000
20
0.663000
40
0.064000
41
1.093750
1
GLCD
0
TEXT
8
12632256
10
-1.491000
20
-0.922000
40
0.064000
41
1.093750
50
-90.000000
1
VIN
0
TEXT
8
12632256
10
-1.338000
20
-1.197000
40
0.048000
41
1.041667
1
RESET
0
TEXT
8
12632256
10
0.173000
20
-0.844000
40
0.064000
41
1.093750
1
BOTONES
0
TEXT
8
12632256
10
-0.155000
20
-1.189000
40
0.048000
41
1.041667
1
U D R L  + + + +
0
POLYLINE
8
0
66
1
40
0.000000
41
0.000000
0
VERTEX
8
0
10
1.504000
20
1.906000
0
VERTEX
8
0
10
1.504000
20
0.427000
0
VERTEX
8
0
10
1.838000
20
0.427000
0
VERTEX
8
0
10
1.838000
20
1.906000
0
VERTEX
8
0
10
1.504000
20
1.906000
0
SEQEND
8
0
0
TEXT
8
12632256
10
0.803000
20
-1.764000
40
0.048000
41
1.041667
1
V12 GND VCC VF
0
TEXT
8
12632256
10
-0.056000
20
-1.761000
40
0.048000
41
1.041667
1
V12 GND VCC VF
0
TEXT
8
12632256
10
1.401000
20
-0.878000
40
0.048000
41
1.041667
1
PRESION
0
TEXT
8
12632256
10
1.385000
20
-1.047000
40
0.048000
41
1.041667
1
DOWN FLOW
0
TEXT
8
12632256
10
0.958000
20
-0.262000
40
0.048000
41
1.041667
50
-90.000000
1
OUT GND VCC
0
TEXT
8
12632256
10
1.350000
20
-0.544000
40
0.048000
41
1.041667
1
INFRARROJO
0
POLYLINE
8
0
66
1
40
0.023000
41
0.023000
0
VERTEX
8
0
10
-1.932000
20
1.411000
0
VERTEX
8
0
10
-1.432000
20
1.411000
0
VERTEX
8
0
10
-1.432000
20
1.887000
0
VERTEX
8
0
10
-1.932000
20
1.887000
0
VERTEX
8
0
10
-1.932000
20
1.411000
0
SEQEND
8
0
0
TEXT
8
12632256
10
-1.897000
20
1.771000
40
0.048000
41
1.041667
1
BIOSAFETY
0
TEXT
8
12632256
10
-1.842000
20
1.696000
40
0.048000
41
1.041667
1
CABINET
0
TEXT
8
12632256
10
-1.838000
20
1.605000
40
0.048000
41
1.041667
1
CONTROL
0
TEXT
8
12632256
10
-1.779000
20
1.491000
40
0.048000
41
1.041667
1
2017
0
TEXT
8
12632256
10
-0.074000
20
0.684000
40
0.048000
41
1.041667
1
DIELECCBA2CR-001
0
TEXT
8
12632256
10
-1.869000
20
0.793000
40
0.064000
41
0.781250
1
JUDAPIES
0
TEXT
8
12632256
10
0.888000
20
1.745000
40
0.048000
41
1.041667
50
-90.000000
1
Bogota - Colombia
0
TEXT
8
12632256
10
0.805000
20
1.769000
40
0.048000
41
1.041667
50
-90.000000
1
www.jpinglobal.com
0
TEXT
8
12632256
10
0.177000
20
-2.216000
40
0.048000
41
1.041667
1
INFLOW
0
TEXT
8
12632256
10
0.988000
20
-2.216000
40
0.048000
41
1.041667
1
DOWNFLOW
0
POLYLINE
8
0
66
1
40
0.008000
41
0.008000
0
VERTEX
8
0
10
1.802000
20
0.135000
0
VERTEX
8
0
10
1.402000
20
0.135000
0
SEQEND
8
0
0
POLYLINE
8
0
66
1
40
0.008000
41
0.008000
0
VERTEX
8
0
10
1.802000
20
-0.464000
0
VERTEX
8
0
10
1.402000
20
-0.464000
0
SEQEND
8
0
0
POLYLINE
8
0
66
1
40
0.008000
41
0.008000
0
VERTEX
8
0
10
1.402000
20
0.135000
0
VERTEX
8
0
10
1.402000
20
-0.464000
0
SEQEND
8
0
0
POLYLINE
8
0
66
1
40
0.008000
41
0.008000
0
VERTEX
8
0
10
1.802000
20
-0.464000
0
VERTEX
8
0
10
1.802000
20
0.135000
0
SEQEND
8
0
0
TEXT
8
12632256
10
1.860000
20
-0.239000
40
0.048000
41
1.041667
50
90.000000
1
J15
0
POLYLINE
8
0
66
1
40
0.008000
41
0.008000
0
VERTEX
8
0
10
-1.238000
20
-0.288000
0
VERTEX
8
0
10
-1.238000
20
-0.338000
0
SEQEND
8
0
0
POLYLINE
8
0
66
1
40
0.008000
41
0.008000
0
VERTEX
8
0
10
-1.263000
20
-0.538000
0
VERTEX
8
0
10
-1.213000
20
-0.538000
0
VERTEX
8
0
10
-1.213000
20
-0.338000
0
VERTEX
8
0
10
-1.263000
20
-0.338000
0
VERTEX
8
0
10
-1.263000
20
-0.538000
0
SEQEND
8
0
0
POLYLINE
8
0
66
1
40
0.008000
41
0.008000
0
VERTEX
8
0
10
-1.238000
20
-0.538000
0
VERTEX
8
0
10
-1.238000
20
-0.588000
0
SEQEND
8
0
0
TEXT
8
12632256
10
-1.155000
20
-0.513000
40
0.048000
41
1.041667
50
90.000000
1
R13
0
POLYLINE
8
0
66
1
40
0.008000
41
0.008000
0
VERTEX
8
0
10
1.388000
20
0.542000
0
VERTEX
8
0
10
1.388000
20
0.492000
0
SEQEND
8
0
0
POLYLINE
8
0
66
1
40
0.008000
41
0.008000
0
VERTEX
8
0
10
1.363000
20
0.292000
0
VERTEX
8
0
10
1.413000
20
0.292000
0
VERTEX
8
0
10
1.413000
20
0.492000
0
VERTEX
8
0
10
1.363000
20
0.492000
0
VERTEX
8
0
10
1.363000
20
0.292000
0
SEQEND
8
0
0
POLYLINE
8
0
66
1
40
0.008000
41
0.008000
0
VERTEX
8
0
10
1.388000
20
0.292000
0
VERTEX
8
0
10
1.388000
20
0.242000
0
SEQEND
8
0
0
TEXT
8
12632256
10
1.471000
20
0.317000
40
0.048000
41
1.041667
50
90.000000
1
R17
0
POLYLINE
8
0
66
1
40
0.008000
41
0.008000
0
VERTEX
8
0
10
1.502000
20
0.543000
0
VERTEX
8
0
10
1.502000
20
0.493000
0
SEQEND
8
0
0
POLYLINE
8
0
66
1
40
0.008000
41
0.008000
0
VERTEX
8
0
10
1.477000
20
0.293000
0
VERTEX
8
0
10
1.527000
20
0.293000
0
VERTEX
8
0
10
1.527000
20
0.493000
0
VERTEX
8
0
10
1.477000
20
0.493000
0
VERTEX
8
0
10
1.477000
20
0.293000
0
SEQEND
8
0
0
POLYLINE
8
0
66
1
40
0.008000
41
0.008000
0
VERTEX
8
0
10
1.502000
20
0.293000
0
VERTEX
8
0
10
1.502000
20
0.243000
0
SEQEND
8
0
0
TEXT
8
12632256
10
1.585000
20
0.318000
40
0.048000
41
1.041667
50
90.000000
1
R20
0
POLYLINE
8
0
66
1
40
0.008000
41
0.008000
0
VERTEX
8
0
10
-1.921000
20
-0.803000
0
VERTEX
8
0
10
-1.521000
20
-0.803000
0
SEQEND
8
0
0
POLYLINE
8
0
66
1
40
0.008000
41
0.008000
0
VERTEX
8
0
10
-1.921000
20
0.196000
0
VERTEX
8
0
10
-1.521000
20
0.196000
0
SEQEND
8
0
0
POLYLINE
8
0
66
1
40
0.008000
41
0.008000
0
VERTEX
8
0
10
-1.921000
20
0.196000
0
VERTEX
8
0
10
-1.921000
20
-0.803000
0
SEQEND
8
0
0
POLYLINE
8
0
66
1
40
0.008000
41
0.008000
0
VERTEX
8
0
10
-1.521000
20
-0.803000
0
VERTEX
8
0
10
-1.521000
20
0.196000
0
SEQEND
8
0
0
TEXT
8
12632256
10
-1.931000
20
-0.353000
40
0.048000
41
1.041667
50
90.000000
1
J5
0
TEXT
8
12632256
10
1.343000
20
0.089000
40
0.048000
41
1.041667
50
-90.000000
1
O1  O2 GND
0
TEXT
8
12632256
10
-1.464000
20
-0.754000
40
0.048000
41
1.041667
50
90.000000
1
OK  DN  UP   GND
0
ENDSEC
0
EOF

