  0
SECTION
  2
HEADER
  9
$ACADVER
  1
AC2.10
  0
ENDSEC
  0
SECTION
  2
TABLES
  0
TABLE
  2
LAYER
 70
     8
  0
LAYER
  2
0
 62
     7
 70
0
  6
CONTINUOUS
  0
LAYER
  2
1
 62
     1
 70
0
  6
CONTINUOUS
  0
LAYER
  2
2
 62
     2
 70
0
  6
CONTINUOUS
  0
LAYER
  2
3
 62
     3
 70
0
  6
CONTINUOUS
  0
LAYER
  2
4
 62
     4
 70
0
  6
CONTINUOUS
  0
LAYER
  2
5
 62
     5
 70
0
  6
CONTINUOUS
  0
LAYER
  2
6
 62
     6
 70
0
  6
CONTINUOUS
  0
LAYER
  2
7
 62
     7
 70
0
  6
CONTINUOUS
  0
ENDTAB
  0
TABLE
  2
STYLE
 70
     1
  0
STYLE
 70
     0
  2
STANDARD
  3
TXT
 40
0.00
 41
1.00
 42
1.00
 50
0.00
 71
     0
  0
ENDTAB
  0
ENDSEC
  0
SECTION
  2
BLOCKS
  0
BLOCK
  8
0
  2
EPAD
 70
0
 10
0.0
 20
0.0
  0
POLYLINE
  8
0
 66
1
 70
1
 40
0.5
 41
0.5
  0
VERTEX
  8
0
 10
-0.25
 20
0.0
 42
1.0
  0
VERTEX
  8
0
 10
0.25
 20
0.0
 42
1.0
  0
SEQEND
  8
0
  0
ENDBLK
  8
0
  0
BLOCK
  8
0
  2
RPAD
 70
0
 10
0.0
 20
0.0
  0
TRACE
  8
0
 10
-0.5
 20
-0.5
 11
-0.5
 21
0.5
 12
0.5
 22
-0.5
 13
0.5
 23
0.5
  0
ENDBLK
  8
0
  0
ENDSEC
0
SECTION
2
ENTITIES
0
INSERT
8
0
2
RPAD
10
-0.718000
20
0.468000
41
0.080000
42
0.080000
50
0.000000
0
CIRCLE
8
0
10
-0.718000
20
0.468000
40
0.025000
0
INSERT
8
0
2
RPAD
10
-0.618000
20
0.468000
41
0.080000
42
0.080000
50
0.000000
0
CIRCLE
8
0
10
-0.618000
20
0.468000
40
0.025000
0
INSERT
8
0
2
RPAD
10
-0.518000
20
0.468000
41
0.080000
42
0.080000
50
0.000000
0
CIRCLE
8
0
10
-0.518000
20
0.468000
40
0.025000
0
INSERT
8
0
2
RPAD
10
-0.418000
20
0.468000
41
0.080000
42
0.080000
50
0.000000
0
CIRCLE
8
0
10
-0.418000
20
0.468000
40
0.025000
0
INSERT
8
0
2
RPAD
10
-0.318000
20
0.468000
41
0.080000
42
0.080000
50
0.000000
0
CIRCLE
8
0
10
-0.318000
20
0.468000
40
0.025000
0
INSERT
8
0
2
RPAD
10
-0.218000
20
0.468000
41
0.080000
42
0.080000
50
0.000000
0
CIRCLE
8
0
10
-0.218000
20
0.468000
40
0.025000
0
INSERT
8
0
2
RPAD
10
-0.118000
20
0.468000
41
0.080000
42
0.080000
50
0.000000
0
CIRCLE
8
0
10
-0.118000
20
0.468000
40
0.025000
0
INSERT
8
0
2
RPAD
10
-0.018000
20
0.468000
41
0.080000
42
0.080000
50
0.000000
0
CIRCLE
8
0
10
-0.018000
20
0.468000
40
0.025000
0
INSERT
8
0
2
RPAD
10
0.081000
20
0.468000
41
0.080000
42
0.080000
50
0.000000
0
CIRCLE
8
0
10
0.081000
20
0.468000
40
0.025000
0
INSERT
8
0
2
RPAD
10
0.181000
20
0.468000
41
0.080000
42
0.080000
50
0.000000
0
CIRCLE
8
0
10
0.181000
20
0.468000
40
0.025000
0
INSERT
8
0
2
RPAD
10
0.281000
20
0.468000
41
0.080000
42
0.080000
50
0.000000
0
CIRCLE
8
0
10
0.281000
20
0.468000
40
0.025000
0
INSERT
8
0
2
RPAD
10
0.381000
20
0.468000
41
0.080000
42
0.080000
50
0.000000
0
CIRCLE
8
0
10
0.381000
20
0.468000
40
0.025000
0
INSERT
8
0
2
RPAD
10
0.481000
20
0.468000
41
0.080000
42
0.080000
50
0.000000
0
CIRCLE
8
0
10
0.481000
20
0.468000
40
0.025000
0
INSERT
8
0
2
RPAD
10
0.581000
20
0.468000
41
0.080000
42
0.080000
50
0.000000
0
CIRCLE
8
0
10
0.581000
20
0.468000
40
0.025000
0
INSERT
8
0
2
RPAD
10
0.681000
20
0.468000
41
0.080000
42
0.080000
50
0.000000
0
CIRCLE
8
0
10
0.681000
20
0.468000
40
0.025000
0
INSERT
8
0
2
RPAD
10
0.781000
20
0.468000
41
0.080000
42
0.080000
50
0.000000
0
CIRCLE
8
0
10
0.781000
20
0.468000
40
0.025000
0
INSERT
8
0
2
RPAD
10
0.375000
20
-0.229000
41
0.070000
42
0.070000
50
180.000000
0
CIRCLE
8
0
10
0.375000
20
-0.229000
40
0.015000
0
INSERT
8
0
2
RPAD
10
0.267000
20
-0.229000
41
0.070000
42
0.070000
50
180.000000
0
CIRCLE
8
0
10
0.267000
20
-0.229000
40
0.015000
0
INSERT
8
0
2
RPAD
10
0.159000
20
-0.229000
41
0.070000
42
0.070000
50
180.000000
0
CIRCLE
8
0
10
0.159000
20
-0.229000
40
0.015000
0
INSERT
8
0
2
RPAD
10
0.051000
20
-0.229000
41
0.070000
42
0.070000
50
180.000000
0
CIRCLE
8
0
10
0.051000
20
-0.229000
40
0.015000
0
INSERT
8
0
2
RPAD
10
-0.055000
20
-0.229000
41
0.070000
42
0.070000
50
180.000000
0
CIRCLE
8
0
10
-0.055000
20
-0.229000
40
0.015000
0
INSERT
8
0
2
RPAD
10
-0.163000
20
-0.229000
41
0.070000
42
0.070000
50
180.000000
0
CIRCLE
8
0
10
-0.163000
20
-0.229000
40
0.015000
0
INSERT
8
0
2
RPAD
10
-0.271000
20
-0.229000
41
0.070000
42
0.070000
50
180.000000
0
CIRCLE
8
0
10
-0.271000
20
-0.229000
40
0.015000
0
INSERT
8
0
2
RPAD
10
-0.379000
20
-0.229000
41
0.070000
42
0.070000
50
180.000000
0
CIRCLE
8
0
10
-0.379000
20
-0.229000
40
0.015000
0
INSERT
8
0
2
RPAD
10
0.321000
20
-0.329000
41
0.070000
42
0.070000
50
180.000000
0
CIRCLE
8
0
10
0.321000
20
-0.329000
40
0.015000
0
INSERT
8
0
2
RPAD
10
0.213000
20
-0.329000
41
0.070000
42
0.070000
50
180.000000
0
CIRCLE
8
0
10
0.213000
20
-0.329000
40
0.015000
0
INSERT
8
0
2
RPAD
10
0.105000
20
-0.329000
41
0.070000
42
0.070000
50
180.000000
0
CIRCLE
8
0
10
0.105000
20
-0.329000
40
0.015000
0
INSERT
8
0
2
RPAD
10
-0.002000
20
-0.329000
41
0.070000
42
0.070000
50
180.000000
0
CIRCLE
8
0
10
-0.002000
20
-0.329000
40
0.015000
0
INSERT
8
0
2
RPAD
10
-0.110000
20
-0.329000
41
0.070000
42
0.070000
50
180.000000
0
CIRCLE
8
0
10
-0.110000
20
-0.329000
40
0.015000
0
INSERT
8
0
2
RPAD
10
-0.218000
20
-0.329000
41
0.070000
42
0.070000
50
180.000000
0
CIRCLE
8
0
10
-0.218000
20
-0.329000
40
0.015000
0
INSERT
8
0
2
RPAD
10
-0.326000
20
-0.329000
41
0.070000
42
0.070000
50
180.000000
0
CIRCLE
8
0
10
-0.326000
20
-0.329000
40
0.015000
0
INSERT
8
0
2
EPAD
10
0.652000
20
-0.279000
41
0.250000
42
0.250000
0
CIRCLE
8
0
10
0.652000
20
-0.279000
40
0.030000
0
INSERT
8
0
2
EPAD
10
-0.657000
20
-0.279000
41
0.250000
42
0.250000
0
CIRCLE
8
0
10
-0.657000
20
-0.279000
40
0.030000
0
POLYLINE
8
0
66
1
40
0.008000
41
0.008000
0
VERTEX
8
0
10
-1.003000
20
-0.527000
0
VERTEX
8
0
10
1.003000
20
-0.527000
0
VERTEX
8
0
10
1.003000
20
0.699000
0
VERTEX
8
0
10
-1.003000
20
0.699000
0
VERTEX
8
0
10
-1.003000
20
-0.527000
0
SEQEND
8
0
0
POLYLINE
8
0
66
1
40
0.008000
41
0.008000
0
VERTEX
8
0
10
-0.768000
20
0.379000
0
VERTEX
8
0
10
0.835000
20
0.379000
0
VERTEX
8
0
10
0.835000
20
0.589000
0
VERTEX
8
0
10
-0.768000
20
0.589000
0
VERTEX
8
0
10
-0.768000
20
0.379000
0
SEQEND
8
0
0
POLYLINE
8
0
66
1
40
0.008000
41
0.008000
0
VERTEX
8
0
10
-0.668000
20
0.585000
0
VERTEX
8
0
10
-0.668000
20
0.383000
0
SEQEND
8
0
0
POLYLINE
8
0
66
1
40
0.008000
41
0.008000
0
VERTEX
8
0
10
-0.765000
20
0.422000
0
VERTEX
8
0
10
0.832000
20
0.422000
0
SEQEND
8
0
0
TEXT
8
12632256
10
0.017000
20
0.390000
40
0.024000
41
1.250000
1
BACK
0
TEXT
8
12632256
10
-0.066000
20
0.321000
40
0.048000
41
1.041667
1
LCD2
0
POLYLINE
8
0
66
1
40
0.008000
41
0.008000
0
VERTEX
8
0
10
-0.802000
20
-0.519000
0
VERTEX
8
0
10
0.797000
20
-0.519000
0
VERTEX
8
0
10
0.797000
20
-0.159000
0
VERTEX
8
0
10
-0.802000
20
-0.159000
0
VERTEX
8
0
10
-0.802000
20
-0.519000
0
SEQEND
8
0
0
POLYLINE
8
0
66
1
40
0.008000
41
0.008000
0
VERTEX
8
0
10
-0.442000
20
-0.639000
0
VERTEX
8
0
10
0.437000
20
-0.639000
0
VERTEX
8
0
10
0.437000
20
-0.519000
0
VERTEX
8
0
10
-0.442000
20
-0.519000
0
VERTEX
8
0
10
-0.442000
20
-0.639000
0
SEQEND
8
0
0
POLYLINE
8
0
66
1
40
0.008000
41
0.008000
0
VERTEX
8
0
10
-0.682000
20
-0.524000
0
VERTEX
8
0
10
-0.682000
20
-0.599000
0
VERTEX
8
0
10
-0.602000
20
-0.599000
0
VERTEX
8
0
10
-0.602000
20
-0.524000
0
SEQEND
8
0
0
POLYLINE
8
0
66
1
40
0.008000
41
0.008000
0
VERTEX
8
0
10
0.597000
20
-0.519000
0
VERTEX
8
0
10
0.597000
20
-0.599000
0
VERTEX
8
0
10
0.677000
20
-0.599000
0
SEQEND
8
0
0
POLYLINE
8
0
66
1
40
0.008000
41
0.008000
0
VERTEX
8
0
10
0.677000
20
-0.519000
0
VERTEX
8
0
10
0.677000
20
-0.599000
0
SEQEND
8
0
0
TEXT
8
12632256
10
-0.077000
20
-0.697000
40
0.048000
41
1.041667
1
J12
0
POLYLINE
8
0
66
1
40
0.000000
41
0.000000
0
VERTEX
8
0
10
-0.896000
20
-0.113000
0
VERTEX
8
0
10
0.921000
20
-0.113000
0
VERTEX
8
0
10
0.921000
20
0.221000
0
VERTEX
8
0
10
-0.896000
20
0.221000
0
VERTEX
8
0
10
-0.896000
20
-0.113000
0
SEQEND
8
0
0
TEXT
8
12632256
10
-0.979000
20
0.311000
40
0.048000
41
1.041667
1
JDPE
0
ENDSEC
0
EOF

