  0
SECTION
  2
HEADER
  9
$ACADVER
  1
AC2.10
  0
ENDSEC
  0
SECTION
  2
TABLES
  0
TABLE
  2
LAYER
 70
     8
  0
LAYER
  2
0
 62
     7
 70
0
  6
CONTINUOUS
  0
LAYER
  2
1
 62
     1
 70
0
  6
CONTINUOUS
  0
LAYER
  2
2
 62
     2
 70
0
  6
CONTINUOUS
  0
LAYER
  2
3
 62
     3
 70
0
  6
CONTINUOUS
  0
LAYER
  2
4
 62
     4
 70
0
  6
CONTINUOUS
  0
LAYER
  2
5
 62
     5
 70
0
  6
CONTINUOUS
  0
LAYER
  2
6
 62
     6
 70
0
  6
CONTINUOUS
  0
LAYER
  2
7
 62
     7
 70
0
  6
CONTINUOUS
  0
ENDTAB
  0
TABLE
  2
STYLE
 70
     1
  0
STYLE
 70
     0
  2
STANDARD
  3
TXT
 40
0.00
 41
1.00
 42
1.00
 50
0.00
 71
     0
  0
ENDTAB
  0
ENDSEC
  0
SECTION
  2
BLOCKS
  0
BLOCK
  8
0
  2
EPAD
 70
0
 10
0.0
 20
0.0
  0
POLYLINE
  8
0
 66
1
 70
1
 40
0.5
 41
0.5
  0
VERTEX
  8
0
 10
-0.25
 20
0.0
 42
1.0
  0
VERTEX
  8
0
 10
0.25
 20
0.0
 42
1.0
  0
SEQEND
  8
0
  0
ENDBLK
  8
0
  0
BLOCK
  8
0
  2
RPAD
 70
0
 10
0.0
 20
0.0
  0
TRACE
  8
0
 10
-0.5
 20
-0.5
 11
-0.5
 21
0.5
 12
0.5
 22
-0.5
 13
0.5
 23
0.5
  0
ENDBLK
  8
0
  0
ENDSEC
0
SECTION
2
ENTITIES
0
INSERT
8
0
2
EPAD
10
1.318000
20
0.275000
41
0.080000
42
0.080000
0
CIRCLE
8
0
10
1.318000
20
0.275000
40
0.025000
0
INSERT
8
0
2
EPAD
10
-0.933000
20
-1.102000
41
0.100000
42
0.100000
0
CIRCLE
8
0
10
-0.933000
20
-1.102000
40
0.025000
0
INSERT
8
0
2
EPAD
10
-0.733000
20
-1.302000
41
0.100000
42
0.100000
0
CIRCLE
8
0
10
-0.733000
20
-1.302000
40
0.025000
0
INSERT
8
0
2
EPAD
10
-0.933000
20
-1.302000
41
0.100000
42
0.100000
0
CIRCLE
8
0
10
-0.933000
20
-1.302000
40
0.025000
0
INSERT
8
0
2
EPAD
10
-0.733000
20
-1.102000
41
0.100000
42
0.100000
0
CIRCLE
8
0
10
-0.733000
20
-1.102000
40
0.025000
0
INSERT
8
0
2
RPAD
10
-0.905000
20
0.244000
41
0.050000
42
0.050000
50
0.000000
0
CIRCLE
8
0
10
-0.905000
20
0.244000
40
0.030000
0
INSERT
8
0
2
EPAD
10
-0.805000
20
0.244000
41
0.050000
42
0.050000
0
CIRCLE
8
0
10
-0.805000
20
0.244000
40
0.030000
0
INSERT
8
0
2
EPAD
10
-0.705000
20
0.244000
41
0.050000
42
0.050000
0
CIRCLE
8
0
10
-0.705000
20
0.244000
40
0.030000
0
INSERT
8
0
2
EPAD
10
-0.605000
20
0.244000
41
0.050000
42
0.050000
0
CIRCLE
8
0
10
-0.605000
20
0.244000
40
0.030000
0
INSERT
8
0
2
EPAD
10
-0.505000
20
0.244000
41
0.050000
42
0.050000
0
CIRCLE
8
0
10
-0.505000
20
0.244000
40
0.030000
0
INSERT
8
0
2
EPAD
10
-0.405000
20
0.244000
41
0.050000
42
0.050000
0
CIRCLE
8
0
10
-0.405000
20
0.244000
40
0.030000
0
INSERT
8
0
2
EPAD
10
-0.305000
20
0.244000
41
0.050000
42
0.050000
0
CIRCLE
8
0
10
-0.305000
20
0.244000
40
0.030000
0
INSERT
8
0
2
EPAD
10
-0.205000
20
0.244000
41
0.050000
42
0.050000
0
CIRCLE
8
0
10
-0.205000
20
0.244000
40
0.030000
0
INSERT
8
0
2
EPAD
10
-0.105000
20
0.244000
41
0.050000
42
0.050000
0
CIRCLE
8
0
10
-0.105000
20
0.244000
40
0.030000
0
INSERT
8
0
2
EPAD
10
-0.005000
20
0.244000
41
0.050000
42
0.050000
0
CIRCLE
8
0
10
-0.005000
20
0.244000
40
0.030000
0
INSERT
8
0
2
EPAD
10
0.094000
20
0.244000
41
0.050000
42
0.050000
0
CIRCLE
8
0
10
0.094000
20
0.244000
40
0.030000
0
INSERT
8
0
2
EPAD
10
0.194000
20
0.244000
41
0.050000
42
0.050000
0
CIRCLE
8
0
10
0.194000
20
0.244000
40
0.030000
0
INSERT
8
0
2
EPAD
10
0.294000
20
0.244000
41
0.050000
42
0.050000
0
CIRCLE
8
0
10
0.294000
20
0.244000
40
0.030000
0
INSERT
8
0
2
EPAD
10
0.394000
20
0.244000
41
0.050000
42
0.050000
0
CIRCLE
8
0
10
0.394000
20
0.244000
40
0.030000
0
INSERT
8
0
2
EPAD
10
0.494000
20
0.244000
41
0.050000
42
0.050000
0
CIRCLE
8
0
10
0.494000
20
0.244000
40
0.030000
0
INSERT
8
0
2
EPAD
10
0.594000
20
0.244000
41
0.050000
42
0.050000
0
CIRCLE
8
0
10
0.594000
20
0.244000
40
0.030000
0
INSERT
8
0
2
EPAD
10
0.694000
20
0.244000
41
0.050000
42
0.050000
0
CIRCLE
8
0
10
0.694000
20
0.244000
40
0.030000
0
INSERT
8
0
2
EPAD
10
0.794000
20
0.244000
41
0.050000
42
0.050000
0
CIRCLE
8
0
10
0.794000
20
0.244000
40
0.030000
0
INSERT
8
0
2
EPAD
10
0.894000
20
0.244000
41
0.050000
42
0.050000
0
CIRCLE
8
0
10
0.894000
20
0.244000
40
0.030000
0
INSERT
8
0
2
EPAD
10
0.994000
20
0.244000
41
0.050000
42
0.050000
0
CIRCLE
8
0
10
0.994000
20
0.244000
40
0.030000
0
INSERT
8
0
2
EPAD
10
0.994000
20
0.844000
41
0.050000
42
0.050000
0
CIRCLE
8
0
10
0.994000
20
0.844000
40
0.030000
0
INSERT
8
0
2
EPAD
10
0.894000
20
0.844000
41
0.050000
42
0.050000
0
CIRCLE
8
0
10
0.894000
20
0.844000
40
0.030000
0
INSERT
8
0
2
EPAD
10
0.794000
20
0.844000
41
0.050000
42
0.050000
0
CIRCLE
8
0
10
0.794000
20
0.844000
40
0.030000
0
INSERT
8
0
2
EPAD
10
0.694000
20
0.844000
41
0.050000
42
0.050000
0
CIRCLE
8
0
10
0.694000
20
0.844000
40
0.030000
0
INSERT
8
0
2
EPAD
10
0.594000
20
0.844000
41
0.050000
42
0.050000
0
CIRCLE
8
0
10
0.594000
20
0.844000
40
0.030000
0
INSERT
8
0
2
EPAD
10
0.494000
20
0.844000
41
0.050000
42
0.050000
0
CIRCLE
8
0
10
0.494000
20
0.844000
40
0.030000
0
INSERT
8
0
2
EPAD
10
0.394000
20
0.844000
41
0.050000
42
0.050000
0
CIRCLE
8
0
10
0.394000
20
0.844000
40
0.030000
0
INSERT
8
0
2
EPAD
10
0.294000
20
0.844000
41
0.050000
42
0.050000
0
CIRCLE
8
0
10
0.294000
20
0.844000
40
0.030000
0
INSERT
8
0
2
EPAD
10
0.194000
20
0.844000
41
0.050000
42
0.050000
0
CIRCLE
8
0
10
0.194000
20
0.844000
40
0.030000
0
INSERT
8
0
2
EPAD
10
0.094000
20
0.844000
41
0.050000
42
0.050000
0
CIRCLE
8
0
10
0.094000
20
0.844000
40
0.030000
0
INSERT
8
0
2
EPAD
10
-0.005000
20
0.844000
41
0.050000
42
0.050000
0
CIRCLE
8
0
10
-0.005000
20
0.844000
40
0.030000
0
INSERT
8
0
2
EPAD
10
-0.105000
20
0.844000
41
0.050000
42
0.050000
0
CIRCLE
8
0
10
-0.105000
20
0.844000
40
0.030000
0
INSERT
8
0
2
EPAD
10
-0.205000
20
0.844000
41
0.050000
42
0.050000
0
CIRCLE
8
0
10
-0.205000
20
0.844000
40
0.030000
0
INSERT
8
0
2
EPAD
10
-0.305000
20
0.844000
41
0.050000
42
0.050000
0
CIRCLE
8
0
10
-0.305000
20
0.844000
40
0.030000
0
INSERT
8
0
2
EPAD
10
-0.405000
20
0.844000
41
0.050000
42
0.050000
0
CIRCLE
8
0
10
-0.405000
20
0.844000
40
0.030000
0
INSERT
8
0
2
EPAD
10
-0.505000
20
0.844000
41
0.050000
42
0.050000
0
CIRCLE
8
0
10
-0.505000
20
0.844000
40
0.030000
0
INSERT
8
0
2
EPAD
10
-0.605000
20
0.844000
41
0.050000
42
0.050000
0
CIRCLE
8
0
10
-0.605000
20
0.844000
40
0.030000
0
INSERT
8
0
2
EPAD
10
-0.705000
20
0.844000
41
0.050000
42
0.050000
0
CIRCLE
8
0
10
-0.705000
20
0.844000
40
0.030000
0
INSERT
8
0
2
EPAD
10
-0.805000
20
0.844000
41
0.050000
42
0.050000
0
CIRCLE
8
0
10
-0.805000
20
0.844000
40
0.030000
0
INSERT
8
0
2
EPAD
10
-0.905000
20
0.844000
41
0.050000
42
0.050000
0
CIRCLE
8
0
10
-0.905000
20
0.844000
40
0.030000
0
INSERT
8
0
2
RPAD
10
-1.303000
20
-0.185000
41
0.080000
42
0.080000
50
0.000000
0
CIRCLE
8
0
10
-1.303000
20
-0.185000
40
0.025000
0
INSERT
8
0
2
RPAD
10
-1.203000
20
-0.185000
41
0.080000
42
0.080000
50
0.000000
0
CIRCLE
8
0
10
-1.203000
20
-0.185000
40
0.025000
0
INSERT
8
0
2
RPAD
10
-1.103000
20
-0.185000
41
0.080000
42
0.080000
50
0.000000
0
CIRCLE
8
0
10
-1.103000
20
-0.185000
40
0.025000
0
INSERT
8
0
2
RPAD
10
0.466000
20
-1.122000
41
0.080000
42
0.080000
50
0.000000
0
CIRCLE
8
0
10
0.466000
20
-1.122000
40
0.025000
0
INSERT
8
0
2
RPAD
10
0.566000
20
-1.122000
41
0.080000
42
0.080000
50
0.000000
0
CIRCLE
8
0
10
0.566000
20
-1.122000
40
0.025000
0
INSERT
8
0
2
RPAD
10
0.666000
20
-1.122000
41
0.080000
42
0.080000
50
0.000000
0
CIRCLE
8
0
10
0.666000
20
-1.122000
40
0.025000
0
INSERT
8
0
2
RPAD
10
-1.649000
20
-0.205000
41
0.080000
42
0.080000
50
90.000000
0
CIRCLE
8
0
10
-1.649000
20
-0.205000
40
0.025000
0
INSERT
8
0
2
RPAD
10
-1.649000
20
-0.105000
41
0.080000
42
0.080000
50
90.000000
0
CIRCLE
8
0
10
-1.649000
20
-0.105000
40
0.025000
0
INSERT
8
0
2
RPAD
10
-1.649000
20
-0.005000
41
0.080000
42
0.080000
50
90.000000
0
CIRCLE
8
0
10
-1.649000
20
-0.005000
40
0.025000
0
INSERT
8
0
2
RPAD
10
-1.649000
20
0.094000
41
0.080000
42
0.080000
50
90.000000
0
CIRCLE
8
0
10
-1.649000
20
0.094000
40
0.025000
0
INSERT
8
0
2
RPAD
10
-1.649000
20
0.194000
41
0.080000
42
0.080000
50
90.000000
0
CIRCLE
8
0
10
-1.649000
20
0.194000
40
0.025000
0
INSERT
8
0
2
RPAD
10
-1.649000
20
0.294000
41
0.080000
42
0.080000
50
90.000000
0
CIRCLE
8
0
10
-1.649000
20
0.294000
40
0.025000
0
INSERT
8
0
2
RPAD
10
-1.649000
20
0.394000
41
0.080000
42
0.080000
50
90.000000
0
CIRCLE
8
0
10
-1.649000
20
0.394000
40
0.025000
0
INSERT
8
0
2
RPAD
10
-1.649000
20
0.494000
41
0.080000
42
0.080000
50
90.000000
0
CIRCLE
8
0
10
-1.649000
20
0.494000
40
0.025000
0
INSERT
8
0
2
RPAD
10
-1.649000
20
0.594000
41
0.080000
42
0.080000
50
90.000000
0
CIRCLE
8
0
10
-1.649000
20
0.594000
40
0.025000
0
INSERT
8
0
2
RPAD
10
-1.649000
20
0.694000
41
0.080000
42
0.080000
50
90.000000
0
CIRCLE
8
0
10
-1.649000
20
0.694000
40
0.025000
0
INSERT
8
0
2
EPAD
10
1.236000
20
-1.307000
41
0.120000
42
0.120000
0
CIRCLE
8
0
10
1.236000
20
-1.307000
40
0.030000
0
INSERT
8
0
2
EPAD
10
1.436000
20
-1.307000
41
0.120000
42
0.120000
0
CIRCLE
8
0
10
1.436000
20
-1.307000
40
0.030000
0
INSERT
8
0
2
EPAD
10
0.484000
20
-0.291000
41
0.070000
42
0.070000
0
CIRCLE
8
0
10
0.484000
20
-0.291000
40
0.025000
0
INSERT
8
0
2
EPAD
10
0.484000
20
-0.691000
41
0.070000
42
0.070000
0
CIRCLE
8
0
10
0.484000
20
-0.691000
40
0.025000
0
INSERT
8
0
2
EPAD
10
-0.874000
20
-0.003000
41
0.070000
42
0.070000
0
CIRCLE
8
0
10
-0.874000
20
-0.003000
40
0.025000
0
INSERT
8
0
2
EPAD
10
-0.874000
20
-0.403000
41
0.070000
42
0.070000
0
CIRCLE
8
0
10
-0.874000
20
-0.403000
40
0.025000
0
INSERT
8
0
2
EPAD
10
-1.140000
20
-0.830000
41
0.070000
42
0.070000
0
CIRCLE
8
0
10
-1.140000
20
-0.830000
40
0.025000
0
INSERT
8
0
2
EPAD
10
-0.740000
20
-0.830000
41
0.070000
42
0.070000
0
CIRCLE
8
0
10
-0.740000
20
-0.830000
40
0.025000
0
INSERT
8
0
2
RPAD
10
-0.732000
20
-0.200000
41
0.080000
42
0.080000
50
0.000000
0
CIRCLE
8
0
10
-0.732000
20
-0.200000
40
0.025000
0
INSERT
8
0
2
RPAD
10
-0.632000
20
-0.200000
41
0.080000
42
0.080000
50
0.000000
0
CIRCLE
8
0
10
-0.632000
20
-0.200000
40
0.025000
0
INSERT
8
0
2
RPAD
10
-0.532000
20
-0.200000
41
0.080000
42
0.080000
50
0.000000
0
CIRCLE
8
0
10
-0.532000
20
-0.200000
40
0.025000
0
INSERT
8
0
2
RPAD
10
-0.432000
20
-0.200000
41
0.080000
42
0.080000
50
0.000000
0
CIRCLE
8
0
10
-0.432000
20
-0.200000
40
0.025000
0
INSERT
8
0
2
RPAD
10
-0.332000
20
-0.200000
41
0.080000
42
0.080000
50
0.000000
0
CIRCLE
8
0
10
-0.332000
20
-0.200000
40
0.025000
0
INSERT
8
0
2
RPAD
10
-0.232000
20
-0.200000
41
0.080000
42
0.080000
50
0.000000
0
CIRCLE
8
0
10
-0.232000
20
-0.200000
40
0.025000
0
INSERT
8
0
2
RPAD
10
-0.348000
20
1.074000
41
0.080000
42
0.080000
50
180.000000
0
CIRCLE
8
0
10
-0.348000
20
1.074000
40
0.025000
0
INSERT
8
0
2
RPAD
10
-0.448000
20
1.074000
41
0.080000
42
0.080000
50
180.000000
0
CIRCLE
8
0
10
-0.448000
20
1.074000
40
0.025000
0
INSERT
8
0
2
RPAD
10
-0.548000
20
1.074000
41
0.080000
42
0.080000
50
180.000000
0
CIRCLE
8
0
10
-0.548000
20
1.074000
40
0.025000
0
INSERT
8
0
2
RPAD
10
-0.648000
20
1.074000
41
0.080000
42
0.080000
50
180.000000
0
CIRCLE
8
0
10
-0.648000
20
1.074000
40
0.025000
0
INSERT
8
0
2
RPAD
10
-0.748000
20
1.074000
41
0.080000
42
0.080000
50
180.000000
0
CIRCLE
8
0
10
-0.748000
20
1.074000
40
0.025000
0
INSERT
8
0
2
RPAD
10
1.605000
20
1.110000
41
0.080000
42
0.080000
50
180.000000
0
CIRCLE
8
0
10
1.605000
20
1.110000
40
0.025000
0
INSERT
8
0
2
RPAD
10
1.505000
20
1.110000
41
0.080000
42
0.080000
50
180.000000
0
CIRCLE
8
0
10
1.505000
20
1.110000
40
0.025000
0
INSERT
8
0
2
RPAD
10
1.405000
20
1.110000
41
0.080000
42
0.080000
50
180.000000
0
CIRCLE
8
0
10
1.405000
20
1.110000
40
0.025000
0
INSERT
8
0
2
RPAD
10
1.305000
20
1.110000
41
0.080000
42
0.080000
50
180.000000
0
CIRCLE
8
0
10
1.305000
20
1.110000
40
0.025000
0
INSERT
8
0
2
RPAD
10
1.205000
20
1.110000
41
0.080000
42
0.080000
50
180.000000
0
CIRCLE
8
0
10
1.205000
20
1.110000
40
0.025000
0
INSERT
8
0
2
RPAD
10
1.105000
20
1.110000
41
0.080000
42
0.080000
50
180.000000
0
CIRCLE
8
0
10
1.105000
20
1.110000
40
0.025000
0
INSERT
8
0
2
RPAD
10
1.005000
20
1.110000
41
0.080000
42
0.080000
50
180.000000
0
CIRCLE
8
0
10
1.005000
20
1.110000
40
0.025000
0
INSERT
8
0
2
RPAD
10
0.905000
20
1.110000
41
0.080000
42
0.080000
50
180.000000
0
CIRCLE
8
0
10
0.905000
20
1.110000
40
0.025000
0
INSERT
8
0
2
RPAD
10
0.805000
20
1.110000
41
0.080000
42
0.080000
50
180.000000
0
CIRCLE
8
0
10
0.805000
20
1.110000
40
0.025000
0
INSERT
8
0
2
RPAD
10
0.705000
20
1.110000
41
0.080000
42
0.080000
50
180.000000
0
CIRCLE
8
0
10
0.705000
20
1.110000
40
0.025000
0
INSERT
8
0
2
RPAD
10
0.605000
20
1.110000
41
0.080000
42
0.080000
50
180.000000
0
CIRCLE
8
0
10
0.605000
20
1.110000
40
0.025000
0
INSERT
8
0
2
RPAD
10
0.505000
20
1.110000
41
0.080000
42
0.080000
50
180.000000
0
CIRCLE
8
0
10
0.505000
20
1.110000
40
0.025000
0
INSERT
8
0
2
RPAD
10
0.405000
20
1.110000
41
0.080000
42
0.080000
50
180.000000
0
CIRCLE
8
0
10
0.405000
20
1.110000
40
0.025000
0
INSERT
8
0
2
RPAD
10
0.305000
20
1.110000
41
0.080000
42
0.080000
50
180.000000
0
CIRCLE
8
0
10
0.305000
20
1.110000
40
0.025000
0
INSERT
8
0
2
RPAD
10
0.205000
20
1.110000
41
0.080000
42
0.080000
50
180.000000
0
CIRCLE
8
0
10
0.205000
20
1.110000
40
0.025000
0
INSERT
8
0
2
RPAD
10
0.105000
20
1.110000
41
0.080000
42
0.080000
50
180.000000
0
CIRCLE
8
0
10
0.105000
20
1.110000
40
0.025000
0
INSERT
8
0
2
RPAD
10
0.005000
20
1.110000
41
0.080000
42
0.080000
50
180.000000
0
CIRCLE
8
0
10
0.005000
20
1.110000
40
0.025000
0
INSERT
8
0
2
RPAD
10
-0.094000
20
1.110000
41
0.080000
42
0.080000
50
180.000000
0
CIRCLE
8
0
10
-0.094000
20
1.110000
40
0.025000
0
INSERT
8
0
2
EPAD
10
0.010000
20
0.035000
41
0.070000
42
0.070000
0
CIRCLE
8
0
10
0.010000
20
0.035000
40
0.025000
0
INSERT
8
0
2
EPAD
10
-0.389000
20
0.035000
41
0.070000
42
0.070000
0
CIRCLE
8
0
10
-0.389000
20
0.035000
40
0.025000
0
INSERT
8
0
2
EPAD
10
-1.048000
20
1.295000
41
0.070000
42
0.070000
0
CIRCLE
8
0
10
-1.048000
20
1.295000
40
0.025000
0
INSERT
8
0
2
EPAD
10
-1.448000
20
1.295000
41
0.070000
42
0.070000
0
CIRCLE
8
0
10
-1.448000
20
1.295000
40
0.025000
0
INSERT
8
0
2
EPAD
10
-1.127000
20
1.177000
41
0.070000
42
0.070000
0
CIRCLE
8
0
10
-1.127000
20
1.177000
40
0.025000
0
INSERT
8
0
2
EPAD
10
-1.527000
20
1.177000
41
0.070000
42
0.070000
0
CIRCLE
8
0
10
-1.527000
20
1.177000
40
0.025000
0
INSERT
8
0
2
EPAD
10
-1.198000
20
1.055000
41
0.070000
42
0.070000
0
CIRCLE
8
0
10
-1.198000
20
1.055000
40
0.025000
0
INSERT
8
0
2
EPAD
10
-1.598000
20
1.055000
41
0.070000
42
0.070000
0
CIRCLE
8
0
10
-1.598000
20
1.055000
40
0.025000
0
INSERT
8
0
2
EPAD
10
-1.324000
20
0.940000
41
0.070000
42
0.070000
0
CIRCLE
8
0
10
-1.324000
20
0.940000
40
0.025000
0
INSERT
8
0
2
EPAD
10
-1.724000
20
0.940000
41
0.070000
42
0.070000
0
CIRCLE
8
0
10
-1.724000
20
0.940000
40
0.025000
0
INSERT
8
0
2
EPAD
10
-0.157000
20
-1.314000
41
0.070000
42
0.070000
0
CIRCLE
8
0
10
-0.157000
20
-1.314000
40
0.025000
0
INSERT
8
0
2
EPAD
10
0.242000
20
-1.314000
41
0.070000
42
0.070000
0
CIRCLE
8
0
10
0.242000
20
-1.314000
40
0.025000
0
INSERT
8
0
2
EPAD
10
1.218000
20
0.043000
41
0.080000
42
0.080000
0
CIRCLE
8
0
10
1.218000
20
0.043000
40
0.025000
0
INSERT
8
0
2
EPAD
10
1.418000
20
0.043000
41
0.080000
42
0.080000
0
CIRCLE
8
0
10
1.418000
20
0.043000
40
0.025000
0
INSERT
8
0
2
EPAD
10
1.318000
20
0.043000
41
0.080000
42
0.080000
0
CIRCLE
8
0
10
1.318000
20
0.043000
40
0.025000
0
INSERT
8
0
2
EPAD
10
0.251000
20
0.456000
41
0.080000
42
0.080000
0
CIRCLE
8
0
10
0.251000
20
0.456000
40
0.025000
0
INSERT
8
0
2
EPAD
10
0.451000
20
0.456000
41
0.080000
42
0.080000
0
CIRCLE
8
0
10
0.451000
20
0.456000
40
0.025000
0
INSERT
8
0
2
EPAD
10
0.877000
20
-0.208000
41
0.070000
42
0.070000
0
CIRCLE
8
0
10
0.877000
20
-0.208000
40
0.025000
0
INSERT
8
0
2
EPAD
10
0.977000
20
-0.208000
41
0.070000
42
0.070000
0
CIRCLE
8
0
10
0.977000
20
-0.208000
40
0.025000
0
INSERT
8
0
2
EPAD
10
0.295000
20
0.043000
41
0.070000
42
0.070000
0
CIRCLE
8
0
10
0.295000
20
0.043000
40
0.025000
0
INSERT
8
0
2
EPAD
10
0.295000
20
-0.056000
41
0.070000
42
0.070000
0
CIRCLE
8
0
10
0.295000
20
-0.056000
40
0.025000
0
INSERT
8
0
2
EPAD
10
0.464000
20
0.035000
41
0.070000
42
0.070000
0
CIRCLE
8
0
10
0.464000
20
0.035000
40
0.025000
0
INSERT
8
0
2
EPAD
10
0.464000
20
-0.064000
41
0.070000
42
0.070000
0
CIRCLE
8
0
10
0.464000
20
-0.064000
40
0.025000
0
INSERT
8
0
2
EPAD
10
-1.571000
20
-0.496000
41
0.080000
42
0.080000
0
CIRCLE
8
0
10
-1.571000
20
-0.496000
40
0.025000
0
INSERT
8
0
2
EPAD
10
-1.446000
20
-0.496000
41
0.080000
42
0.080000
0
CIRCLE
8
0
10
-1.446000
20
-0.496000
40
0.025000
0
INSERT
8
0
2
EPAD
10
-1.140000
20
-0.488000
41
0.080000
42
0.080000
0
CIRCLE
8
0
10
-1.140000
20
-0.488000
40
0.025000
0
INSERT
8
0
2
EPAD
10
-1.240000
20
-0.488000
41
0.080000
42
0.080000
0
CIRCLE
8
0
10
-1.240000
20
-0.488000
40
0.025000
0
INSERT
8
0
2
EPAD
10
-1.468000
20
-0.767000
41
0.070000
42
0.070000
0
CIRCLE
8
0
10
-1.468000
20
-0.767000
40
0.025000
0
INSERT
8
0
2
EPAD
10
-1.368000
20
-0.767000
41
0.070000
42
0.070000
0
CIRCLE
8
0
10
-1.368000
20
-0.767000
40
0.025000
0
INSERT
8
0
2
EPAD
10
-0.551000
20
-0.614000
41
0.070000
42
0.070000
0
CIRCLE
8
0
10
-0.551000
20
-0.614000
40
0.025000
0
INSERT
8
0
2
EPAD
10
-0.551000
20
-0.514000
41
0.070000
42
0.070000
0
CIRCLE
8
0
10
-0.551000
20
-0.514000
40
0.025000
0
INSERT
8
0
2
EPAD
10
-0.397000
20
-0.614000
41
0.070000
42
0.070000
0
CIRCLE
8
0
10
-0.397000
20
-0.614000
40
0.025000
0
INSERT
8
0
2
EPAD
10
-0.397000
20
-0.514000
41
0.070000
42
0.070000
0
CIRCLE
8
0
10
-0.397000
20
-0.514000
40
0.025000
0
INSERT
8
0
2
EPAD
10
-0.029000
20
-0.814000
41
0.080000
42
0.080000
0
CIRCLE
8
0
10
-0.029000
20
-0.814000
40
0.025000
0
INSERT
8
0
2
EPAD
10
-0.154000
20
-0.814000
41
0.080000
42
0.080000
0
CIRCLE
8
0
10
-0.154000
20
-0.814000
40
0.025000
0
INSERT
8
0
2
EPAD
10
-0.429000
20
-1.074000
41
0.080000
42
0.080000
0
CIRCLE
8
0
10
-0.429000
20
-1.074000
40
0.025000
0
INSERT
8
0
2
EPAD
10
-0.329000
20
-1.074000
41
0.080000
42
0.080000
0
CIRCLE
8
0
10
-0.329000
20
-1.074000
40
0.025000
0
INSERT
8
0
2
EPAD
10
-0.330000
20
-1.279000
41
0.070000
42
0.070000
0
CIRCLE
8
0
10
-0.330000
20
-1.279000
40
0.025000
0
INSERT
8
0
2
EPAD
10
-0.430000
20
-1.279000
41
0.070000
42
0.070000
0
CIRCLE
8
0
10
-0.430000
20
-1.279000
40
0.025000
0
INSERT
8
0
2
EPAD
10
-1.409000
20
-1.188000
41
0.120000
42
0.120000
0
CIRCLE
8
0
10
-1.409000
20
-1.188000
40
0.030000
0
INSERT
8
0
2
EPAD
10
-1.209000
20
-1.188000
41
0.120000
42
0.120000
0
CIRCLE
8
0
10
-1.209000
20
-1.188000
40
0.030000
0
INSERT
8
0
2
RPAD
10
1.073000
20
-0.637000
41
0.080000
42
0.080000
50
0.000000
0
CIRCLE
8
0
10
1.073000
20
-0.637000
40
0.025000
0
INSERT
8
0
2
RPAD
10
1.173000
20
-0.637000
41
0.080000
42
0.080000
50
0.000000
0
CIRCLE
8
0
10
1.173000
20
-0.637000
40
0.025000
0
INSERT
8
0
2
RPAD
10
1.273000
20
-0.637000
41
0.080000
42
0.080000
50
0.000000
0
CIRCLE
8
0
10
1.273000
20
-0.637000
40
0.025000
0
INSERT
8
0
2
EPAD
10
0.661000
20
-0.299000
41
0.070000
42
0.070000
0
CIRCLE
8
0
10
0.661000
20
-0.299000
40
0.025000
0
INSERT
8
0
2
EPAD
10
0.661000
20
-0.699000
41
0.070000
42
0.070000
0
CIRCLE
8
0
10
0.661000
20
-0.699000
40
0.025000
0
INSERT
8
0
2
EPAD
10
-0.236000
20
0.669000
41
0.100000
42
0.100000
0
CIRCLE
8
0
10
-0.236000
20
0.669000
40
0.025000
0
INSERT
8
0
2
EPAD
10
0.163000
20
0.669000
41
0.100000
42
0.100000
0
CIRCLE
8
0
10
0.163000
20
0.669000
40
0.025000
0
INSERT
8
0
2
EPAD
10
-1.728000
20
-1.421000
41
0.250000
42
0.250000
0
CIRCLE
8
0
10
-1.728000
20
-1.421000
40
0.030000
0
INSERT
8
0
2
EPAD
10
1.712000
20
-1.437000
41
0.250000
42
0.250000
0
CIRCLE
8
0
10
1.712000
20
-1.437000
40
0.030000
0
INSERT
8
0
2
EPAD
10
1.712000
20
1.444000
41
0.250000
42
0.250000
0
CIRCLE
8
0
10
1.712000
20
1.444000
40
0.030000
0
INSERT
8
0
2
EPAD
10
-1.724000
20
1.437000
41
0.250000
42
0.250000
0
CIRCLE
8
0
10
-1.724000
20
1.437000
40
0.030000
0
INSERT
8
0
2
EPAD
10
0.094000
20
1.421000
41
0.080000
42
0.080000
0
CIRCLE
8
0
10
0.094000
20
1.421000
40
0.025000
0
INSERT
8
0
2
EPAD
10
0.094000
20
1.221000
41
0.080000
42
0.080000
0
CIRCLE
8
0
10
0.094000
20
1.221000
40
0.025000
0
INSERT
8
0
2
EPAD
10
-0.133000
20
-0.070000
41
0.080000
42
0.080000
0
CIRCLE
8
0
10
-0.133000
20
-0.070000
40
0.025000
0
INSERT
8
0
2
EPAD
10
0.166000
20
-0.070000
41
0.080000
42
0.080000
0
CIRCLE
8
0
10
0.166000
20
-0.070000
40
0.025000
0
INSERT
8
0
2
EPAD
10
-1.578000
20
0.787000
41
0.070000
42
0.070000
0
CIRCLE
8
0
10
-1.578000
20
0.787000
40
0.025000
0
INSERT
8
0
2
EPAD
10
-1.178000
20
0.787000
41
0.070000
42
0.070000
0
CIRCLE
8
0
10
-1.178000
20
0.787000
40
0.025000
0
INSERT
8
0
2
RPAD
10
-0.118000
20
-0.496000
41
0.080000
42
0.080000
50
0.000000
0
CIRCLE
8
0
10
-0.118000
20
-0.496000
40
0.025000
0
INSERT
8
0
2
RPAD
10
-0.018000
20
-0.496000
41
0.080000
42
0.080000
50
0.000000
0
CIRCLE
8
0
10
-0.018000
20
-0.496000
40
0.025000
0
INSERT
8
0
2
RPAD
10
-1.102000
20
0.027000
41
0.080000
42
0.080000
50
0.000000
0
CIRCLE
8
0
10
-1.102000
20
0.027000
40
0.025000
0
INSERT
8
0
2
RPAD
10
-1.002000
20
0.027000
41
0.080000
42
0.080000
50
0.000000
0
CIRCLE
8
0
10
-1.002000
20
0.027000
40
0.025000
0
POLYLINE
8
0
66
1
40
0.008000
41
0.008000
0
VERTEX
8
0
10
-1.885000
20
-1.598000
0
VERTEX
8
0
10
1.885000
20
-1.598000
0
VERTEX
8
0
10
1.885000
20
1.598000
0
VERTEX
8
0
10
-1.885000
20
1.598000
0
VERTEX
8
0
10
-1.885000
20
-1.598000
0
SEQEND
8
0
0
CIRCLE
8
12632256
10
-0.833000
20
-1.202000
40
0.213000
0
POLYLINE
8
0
66
1
40
0.008000
41
0.008000
0
VERTEX
8
0
10
-0.913000
20
-1.012000
0
VERTEX
8
0
10
-0.913000
20
-1.052000
0
SEQEND
8
0
0
POLYLINE
8
0
66
1
40
0.008000
41
0.008000
0
VERTEX
8
0
10
-0.933000
20
-1.032000
0
VERTEX
8
0
10
-0.893000
20
-1.032000
0
SEQEND
8
0
0
TEXT
8
12632256
10
-0.783000
20
-0.992000
40
0.048000
41
1.041667
1
BR1
0
POLYLINE
8
0
66
1
40
0.008000
41
0.008000
0
VERTEX
8
0
10
-0.855000
20
0.544000
0
VERTEX
8
0
10
-0.857000
20
0.564000
0
VERTEX
8
0
10
-0.863000
20
0.583000
0
VERTEX
8
0
10
-0.872000
20
0.600000
0
VERTEX
8
0
10
-0.884000
20
0.615000
0
VERTEX
8
0
10
-0.899000
20
0.627000
0
VERTEX
8
0
10
-0.916000
20
0.636000
0
VERTEX
8
0
10
-0.935000
20
0.642000
0
VERTEX
8
0
10
-0.955000
20
0.644000
0
SEQEND
8
0
0
POLYLINE
8
0
66
1
40
0.008000
41
0.008000
0
VERTEX
8
0
10
-0.855000
20
0.544000
0
VERTEX
8
0
10
-0.857000
20
0.523000
0
VERTEX
8
0
10
-0.863000
20
0.504000
0
VERTEX
8
0
10
-0.872000
20
0.487000
0
VERTEX
8
0
10
-0.884000
20
0.473000
0
VERTEX
8
0
10
-0.899000
20
0.461000
0
VERTEX
8
0
10
-0.916000
20
0.452000
0
VERTEX
8
0
10
-0.935000
20
0.446000
0
VERTEX
8
0
10
-0.955000
20
0.444000
0
SEQEND
8
0
0
POLYLINE
8
0
66
1
40
0.008000
41
0.008000
0
VERTEX
8
0
10
-0.955000
20
0.644000
0
VERTEX
8
0
10
-0.955000
20
0.794000
0
SEQEND
8
0
0
POLYLINE
8
0
66
1
40
0.008000
41
0.008000
0
VERTEX
8
0
10
1.044000
20
0.794000
0
VERTEX
8
0
10
1.044000
20
0.294000
0
SEQEND
8
0
0
POLYLINE
8
0
66
1
40
0.008000
41
0.008000
0
VERTEX
8
0
10
-0.955000
20
0.294000
0
VERTEX
8
0
10
-0.955000
20
0.444000
0
SEQEND
8
0
0
POLYLINE
8
0
66
1
40
0.008000
41
0.008000
0
VERTEX
8
0
10
-0.955000
20
0.794000
0
VERTEX
8
0
10
1.044000
20
0.794000
0
SEQEND
8
0
0
POLYLINE
8
0
66
1
40
0.008000
41
0.008000
0
VERTEX
8
0
10
-0.955000
20
0.294000
0
VERTEX
8
0
10
1.044000
20
0.294000
0
SEQEND
8
0
0
TEXT
8
12632256
10
-0.965000
20
0.494000
40
0.048000
41
1.041667
50
90.000000
1
U1
0
POLYLINE
8
0
66
1
40
0.008000
41
0.008000
0
VERTEX
8
0
10
-1.353000
20
-0.235000
0
VERTEX
8
0
10
-1.053000
20
-0.235000
0
VERTEX
8
0
10
-1.053000
20
-0.135000
0
VERTEX
8
0
10
-1.353000
20
-0.135000
0
VERTEX
8
0
10
-1.353000
20
-0.235000
0
SEQEND
8
0
0
POLYLINE
8
0
66
1
40
0.008000
41
0.008000
0
VERTEX
8
0
10
-1.353000
20
-0.135000
0
VERTEX
8
0
10
-1.353000
20
-0.085000
0
VERTEX
8
0
10
-1.053000
20
-0.085000
0
VERTEX
8
0
10
-1.053000
20
-0.135000
0
SEQEND
8
0
0
POLYLINE
8
0
66
1
40
0.008000
41
0.008000
0
VERTEX
8
0
10
-1.353000
20
-0.135000
0
VERTEX
8
0
10
-1.303000
20
-0.085000
0
SEQEND
8
0
0
POLYLINE
8
0
66
1
40
0.008000
41
0.008000
0
VERTEX
8
0
10
-1.303000
20
-0.135000
0
VERTEX
8
0
10
-1.253000
20
-0.085000
0
SEQEND
8
0
0
POLYLINE
8
0
66
1
40
0.008000
41
0.008000
0
VERTEX
8
0
10
-1.253000
20
-0.135000
0
VERTEX
8
0
10
-1.203000
20
-0.085000
0
SEQEND
8
0
0
POLYLINE
8
0
66
1
40
0.008000
41
0.008000
0
VERTEX
8
0
10
-1.203000
20
-0.135000
0
VERTEX
8
0
10
-1.153000
20
-0.085000
0
SEQEND
8
0
0
POLYLINE
8
0
66
1
40
0.008000
41
0.008000
0
VERTEX
8
0
10
-1.153000
20
-0.135000
0
VERTEX
8
0
10
-1.103000
20
-0.085000
0
SEQEND
8
0
0
POLYLINE
8
0
66
1
40
0.008000
41
0.008000
0
VERTEX
8
0
10
-1.103000
20
-0.135000
0
VERTEX
8
0
10
-1.053000
20
-0.085000
0
SEQEND
8
0
0
TEXT
8
12632256
10
-1.253000
20
-0.075000
40
0.048000
41
1.041667
1
U2
0
POLYLINE
8
0
66
1
40
0.008000
41
0.008000
0
VERTEX
8
0
10
0.416000
20
-1.172000
0
VERTEX
8
0
10
0.716000
20
-1.172000
0
VERTEX
8
0
10
0.716000
20
-1.072000
0
VERTEX
8
0
10
0.416000
20
-1.072000
0
VERTEX
8
0
10
0.416000
20
-1.172000
0
SEQEND
8
0
0
POLYLINE
8
0
66
1
40
0.008000
41
0.008000
0
VERTEX
8
0
10
0.416000
20
-1.072000
0
VERTEX
8
0
10
0.416000
20
-1.022000
0
VERTEX
8
0
10
0.716000
20
-1.022000
0
VERTEX
8
0
10
0.716000
20
-1.072000
0
SEQEND
8
0
0
POLYLINE
8
0
66
1
40
0.008000
41
0.008000
0
VERTEX
8
0
10
0.416000
20
-1.072000
0
VERTEX
8
0
10
0.466000
20
-1.022000
0
SEQEND
8
0
0
POLYLINE
8
0
66
1
40
0.008000
41
0.008000
0
VERTEX
8
0
10
0.466000
20
-1.072000
0
VERTEX
8
0
10
0.516000
20
-1.022000
0
SEQEND
8
0
0
POLYLINE
8
0
66
1
40
0.008000
41
0.008000
0
VERTEX
8
0
10
0.516000
20
-1.072000
0
VERTEX
8
0
10
0.566000
20
-1.022000
0
SEQEND
8
0
0
POLYLINE
8
0
66
1
40
0.008000
41
0.008000
0
VERTEX
8
0
10
0.566000
20
-1.072000
0
VERTEX
8
0
10
0.616000
20
-1.022000
0
SEQEND
8
0
0
POLYLINE
8
0
66
1
40
0.008000
41
0.008000
0
VERTEX
8
0
10
0.616000
20
-1.072000
0
VERTEX
8
0
10
0.666000
20
-1.022000
0
SEQEND
8
0
0
POLYLINE
8
0
66
1
40
0.008000
41
0.008000
0
VERTEX
8
0
10
0.666000
20
-1.072000
0
VERTEX
8
0
10
0.716000
20
-1.022000
0
SEQEND
8
0
0
TEXT
8
12632256
10
0.491000
20
-1.012000
40
0.048000
41
1.041667
1
U12
0
POLYLINE
8
0
66
1
40
0.008000
41
0.008000
0
VERTEX
8
0
10
-1.699000
20
-0.255000
0
VERTEX
8
0
10
-1.599000
20
-0.255000
0
VERTEX
8
0
10
-1.599000
20
0.744000
0
VERTEX
8
0
10
-1.699000
20
0.744000
0
VERTEX
8
0
10
-1.699000
20
-0.255000
0
SEQEND
8
0
0
TEXT
8
12632256
10
-1.709000
20
0.194000
40
0.048000
41
1.041667
50
90.000000
1
J1
0
POLYLINE
8
0
66
1
40
0.008000
41
0.008000
0
VERTEX
8
0
10
1.136000
20
-1.107000
0
VERTEX
8
0
10
1.136000
20
-1.507000
0
SEQEND
8
0
0
POLYLINE
8
0
66
1
40
0.008000
41
0.008000
0
VERTEX
8
0
10
1.536000
20
-1.107000
0
VERTEX
8
0
10
1.536000
20
-1.507000
0
SEQEND
8
0
0
POLYLINE
8
0
66
1
40
0.008000
41
0.008000
0
VERTEX
8
0
10
1.136000
20
-1.507000
0
VERTEX
8
0
10
1.536000
20
-1.507000
0
SEQEND
8
0
0
POLYLINE
8
0
66
1
40
0.008000
41
0.008000
0
VERTEX
8
0
10
1.136000
20
-1.107000
0
VERTEX
8
0
10
1.536000
20
-1.107000
0
SEQEND
8
0
0
TEXT
8
12632256
10
1.278000
20
-1.585000
40
0.048000
41
1.041667
1
J3
0
POLYLINE
8
0
66
1
40
0.008000
41
0.008000
0
VERTEX
8
0
10
0.484000
20
-0.341000
0
VERTEX
8
0
10
0.484000
20
-0.391000
0
SEQEND
8
0
0
POLYLINE
8
0
66
1
40
0.008000
41
0.008000
0
VERTEX
8
0
10
0.459000
20
-0.591000
0
VERTEX
8
0
10
0.509000
20
-0.591000
0
VERTEX
8
0
10
0.509000
20
-0.391000
0
VERTEX
8
0
10
0.459000
20
-0.391000
0
VERTEX
8
0
10
0.459000
20
-0.591000
0
SEQEND
8
0
0
POLYLINE
8
0
66
1
40
0.008000
41
0.008000
0
VERTEX
8
0
10
0.484000
20
-0.591000
0
VERTEX
8
0
10
0.484000
20
-0.641000
0
SEQEND
8
0
0
TEXT
8
12632256
10
0.567000
20
-0.529000
40
0.048000
41
1.041667
50
90.000000
1
R2
0
POLYLINE
8
0
66
1
40
0.008000
41
0.008000
0
VERTEX
8
0
10
-0.874000
20
-0.053000
0
VERTEX
8
0
10
-0.874000
20
-0.103000
0
SEQEND
8
0
0
POLYLINE
8
0
66
1
40
0.008000
41
0.008000
0
VERTEX
8
0
10
-0.899000
20
-0.303000
0
VERTEX
8
0
10
-0.849000
20
-0.303000
0
VERTEX
8
0
10
-0.849000
20
-0.103000
0
VERTEX
8
0
10
-0.899000
20
-0.103000
0
VERTEX
8
0
10
-0.899000
20
-0.303000
0
SEQEND
8
0
0
POLYLINE
8
0
66
1
40
0.008000
41
0.008000
0
VERTEX
8
0
10
-0.874000
20
-0.303000
0
VERTEX
8
0
10
-0.874000
20
-0.353000
0
SEQEND
8
0
0
TEXT
8
12632256
10
-0.936000
20
-0.253000
40
0.048000
41
1.041667
50
90.000000
1
R1
0
POLYLINE
8
0
66
1
40
0.008000
41
0.008000
0
VERTEX
8
0
10
-1.090000
20
-0.830000
0
VERTEX
8
0
10
-1.040000
20
-0.830000
0
SEQEND
8
0
0
POLYLINE
8
0
66
1
40
0.008000
41
0.008000
0
VERTEX
8
0
10
-1.040000
20
-0.855000
0
VERTEX
8
0
10
-0.840000
20
-0.855000
0
VERTEX
8
0
10
-0.840000
20
-0.805000
0
VERTEX
8
0
10
-1.040000
20
-0.805000
0
VERTEX
8
0
10
-1.040000
20
-0.855000
0
SEQEND
8
0
0
POLYLINE
8
0
66
1
40
0.008000
41
0.008000
0
VERTEX
8
0
10
-0.840000
20
-0.830000
0
VERTEX
8
0
10
-0.790000
20
-0.830000
0
SEQEND
8
0
0
TEXT
8
12632256
10
-0.990000
20
-0.795000
40
0.048000
41
1.041667
1
R3
0
POLYLINE
8
0
66
1
40
0.008000
41
0.008000
0
VERTEX
8
0
10
-0.782000
20
-0.250000
0
VERTEX
8
0
10
-0.182000
20
-0.250000
0
VERTEX
8
0
10
-0.182000
20
-0.150000
0
VERTEX
8
0
10
-0.782000
20
-0.150000
0
VERTEX
8
0
10
-0.782000
20
-0.250000
0
SEQEND
8
0
0
TEXT
8
12632256
10
-0.532000
20
-0.140000
40
0.048000
41
1.041667
1
J4
0
POLYLINE
8
0
66
1
40
0.008000
41
0.008000
0
VERTEX
8
0
10
-0.798000
20
1.024000
0
VERTEX
8
0
10
-0.298000
20
1.024000
0
VERTEX
8
0
10
-0.298000
20
1.124000
0
VERTEX
8
0
10
-0.798000
20
1.124000
0
VERTEX
8
0
10
-0.798000
20
1.024000
0
SEQEND
8
0
0
TEXT
8
12632256
10
-0.598000
20
0.966000
40
0.048000
41
1.041667
1
J7
0
POLYLINE
8
0
66
1
40
0.008000
41
0.008000
0
VERTEX
8
0
10
-0.144000
20
1.060000
0
VERTEX
8
0
10
1.655000
20
1.060000
0
VERTEX
8
0
10
1.655000
20
1.160000
0
VERTEX
8
0
10
-0.144000
20
1.160000
0
VERTEX
8
0
10
-0.144000
20
1.060000
0
SEQEND
8
0
0
POLYLINE
8
0
66
1
40
0.008000
41
0.008000
0
VERTEX
8
0
10
1.555000
20
1.060000
0
VERTEX
8
0
10
1.555000
20
1.160000
0
SEQEND
8
0
0
TEXT
8
12632256
10
0.655000
20
1.002000
40
0.048000
41
1.041667
1
LCD1
0
POLYLINE
8
0
66
1
40
0.008000
41
0.008000
0
VERTEX
8
0
10
-0.039000
20
0.035000
0
VERTEX
8
0
10
-0.089000
20
0.035000
0
SEQEND
8
0
0
POLYLINE
8
0
66
1
40
0.008000
41
0.008000
0
VERTEX
8
0
10
-0.289000
20
0.010000
0
VERTEX
8
0
10
-0.089000
20
0.010000
0
VERTEX
8
0
10
-0.089000
20
0.060000
0
VERTEX
8
0
10
-0.289000
20
0.060000
0
VERTEX
8
0
10
-0.289000
20
0.010000
0
SEQEND
8
0
0
POLYLINE
8
0
66
1
40
0.008000
41
0.008000
0
VERTEX
8
0
10
-0.289000
20
0.035000
0
VERTEX
8
0
10
-0.339000
20
0.035000
0
SEQEND
8
0
0
TEXT
8
12632256
10
-0.247000
20
0.074000
40
0.048000
41
1.041667
1
R4
0
POLYLINE
8
0
66
1
40
0.008000
41
0.008000
0
VERTEX
8
0
10
-1.098000
20
1.295000
0
VERTEX
8
0
10
-1.148000
20
1.295000
0
SEQEND
8
0
0
POLYLINE
8
0
66
1
40
0.008000
41
0.008000
0
VERTEX
8
0
10
-1.348000
20
1.270000
0
VERTEX
8
0
10
-1.148000
20
1.270000
0
VERTEX
8
0
10
-1.148000
20
1.320000
0
VERTEX
8
0
10
-1.348000
20
1.320000
0
VERTEX
8
0
10
-1.348000
20
1.270000
0
SEQEND
8
0
0
POLYLINE
8
0
66
1
40
0.008000
41
0.008000
0
VERTEX
8
0
10
-1.348000
20
1.295000
0
VERTEX
8
0
10
-1.398000
20
1.295000
0
SEQEND
8
0
0
TEXT
8
12632256
10
-1.323000
20
1.212000
40
0.048000
41
1.041667
1
R12
0
POLYLINE
8
0
66
1
40
0.008000
41
0.008000
0
VERTEX
8
0
10
-1.177000
20
1.177000
0
VERTEX
8
0
10
-1.227000
20
1.177000
0
SEQEND
8
0
0
POLYLINE
8
0
66
1
40
0.008000
41
0.008000
0
VERTEX
8
0
10
-1.427000
20
1.152000
0
VERTEX
8
0
10
-1.227000
20
1.152000
0
VERTEX
8
0
10
-1.227000
20
1.202000
0
VERTEX
8
0
10
-1.427000
20
1.202000
0
VERTEX
8
0
10
-1.427000
20
1.152000
0
SEQEND
8
0
0
POLYLINE
8
0
66
1
40
0.008000
41
0.008000
0
VERTEX
8
0
10
-1.427000
20
1.177000
0
VERTEX
8
0
10
-1.477000
20
1.177000
0
SEQEND
8
0
0
TEXT
8
12632256
10
-1.402000
20
1.094000
40
0.048000
41
1.041667
1
R13
0
POLYLINE
8
0
66
1
40
0.008000
41
0.008000
0
VERTEX
8
0
10
-1.248000
20
1.055000
0
VERTEX
8
0
10
-1.298000
20
1.055000
0
SEQEND
8
0
0
POLYLINE
8
0
66
1
40
0.008000
41
0.008000
0
VERTEX
8
0
10
-1.498000
20
1.030000
0
VERTEX
8
0
10
-1.298000
20
1.030000
0
VERTEX
8
0
10
-1.298000
20
1.080000
0
VERTEX
8
0
10
-1.498000
20
1.080000
0
VERTEX
8
0
10
-1.498000
20
1.030000
0
SEQEND
8
0
0
POLYLINE
8
0
66
1
40
0.008000
41
0.008000
0
VERTEX
8
0
10
-1.498000
20
1.055000
0
VERTEX
8
0
10
-1.548000
20
1.055000
0
SEQEND
8
0
0
TEXT
8
12632256
10
-1.473000
20
0.972000
40
0.048000
41
1.041667
1
R14
0
POLYLINE
8
0
66
1
40
0.008000
41
0.008000
0
VERTEX
8
0
10
-1.374000
20
0.940000
0
VERTEX
8
0
10
-1.424000
20
0.940000
0
SEQEND
8
0
0
POLYLINE
8
0
66
1
40
0.008000
41
0.008000
0
VERTEX
8
0
10
-1.624000
20
0.915000
0
VERTEX
8
0
10
-1.424000
20
0.915000
0
VERTEX
8
0
10
-1.424000
20
0.965000
0
VERTEX
8
0
10
-1.624000
20
0.965000
0
VERTEX
8
0
10
-1.624000
20
0.915000
0
SEQEND
8
0
0
POLYLINE
8
0
66
1
40
0.008000
41
0.008000
0
VERTEX
8
0
10
-1.624000
20
0.940000
0
VERTEX
8
0
10
-1.674000
20
0.940000
0
SEQEND
8
0
0
TEXT
8
12632256
10
-1.603000
20
0.850000
40
0.048000
41
1.041667
1
R15
0
POLYLINE
8
0
66
1
40
0.008000
41
0.008000
0
VERTEX
8
0
10
-0.107000
20
-1.314000
0
VERTEX
8
0
10
-0.057000
20
-1.314000
0
SEQEND
8
0
0
POLYLINE
8
0
66
1
40
0.008000
41
0.008000
0
VERTEX
8
0
10
-0.057000
20
-1.339000
0
VERTEX
8
0
10
0.142000
20
-1.339000
0
VERTEX
8
0
10
0.142000
20
-1.289000
0
VERTEX
8
0
10
-0.057000
20
-1.289000
0
VERTEX
8
0
10
-0.057000
20
-1.339000
0
SEQEND
8
0
0
POLYLINE
8
0
66
1
40
0.008000
41
0.008000
0
VERTEX
8
0
10
0.142000
20
-1.314000
0
VERTEX
8
0
10
0.192000
20
-1.314000
0
SEQEND
8
0
0
TEXT
8
12632256
10
-0.032000
20
-1.279000
40
0.048000
41
1.041667
1
R20
0
POLYLINE
8
0
66
1
40
0.008000
41
0.008000
0
VERTEX
8
0
10
1.168000
20
-0.031000
0
VERTEX
8
0
10
1.468000
20
-0.031000
0
VERTEX
8
0
10
1.468000
20
0.118000
0
VERTEX
8
0
10
1.168000
20
0.118000
0
VERTEX
8
0
10
1.168000
20
-0.031000
0
SEQEND
8
0
0
CIRCLE
8
12632256
10
1.318000
20
0.268000
40
0.150000
0
POLYLINE
8
0
66
1
40
0.008000
41
0.008000
0
VERTEX
8
0
10
1.318000
20
0.168000
0
VERTEX
8
0
10
1.318000
20
0.368000
0
SEQEND
8
0
0
POLYLINE
8
0
66
1
40
0.008000
41
0.008000
0
VERTEX
8
0
10
1.268000
20
0.268000
0
VERTEX
8
0
10
1.368000
20
0.268000
0
SEQEND
8
0
0
TEXT
8
12632256
10
1.243000
20
0.428000
40
0.048000
41
1.041667
1
RV1
0
POLYLINE
8
0
66
1
40
0.008000
41
0.008000
0
VERTEX
8
0
10
0.201000
20
0.556000
0
VERTEX
8
0
10
0.501000
20
0.556000
0
VERTEX
8
0
10
0.551000
20
0.506000
0
VERTEX
8
0
10
0.551000
20
0.406000
0
VERTEX
8
0
10
0.501000
20
0.356000
0
VERTEX
8
0
10
0.201000
20
0.356000
0
VERTEX
8
0
10
0.151000
20
0.406000
0
VERTEX
8
0
10
0.151000
20
0.506000
0
VERTEX
8
0
10
0.201000
20
0.556000
0
SEQEND
8
0
0
TEXT
8
12632256
10
0.301000
20
0.566000
40
0.048000
41
1.041667
1
X1
0
POLYLINE
8
0
66
1
40
0.008000
41
0.008000
0
VERTEX
8
0
10
0.827000
20
-0.208000
0
VERTEX
8
0
10
0.829000
20
-0.198000
0
VERTEX
8
0
10
0.835000
20
-0.188000
0
VERTEX
8
0
10
0.844000
20
-0.180000
0
VERTEX
8
0
10
0.856000
20
-0.172000
0
VERTEX
8
0
10
0.871000
20
-0.166000
0
VERTEX
8
0
10
0.888000
20
-0.162000
0
VERTEX
8
0
10
0.907000
20
-0.159000
0
VERTEX
8
0
10
0.927000
20
-0.158000
0
SEQEND
8
0
0
POLYLINE
8
0
66
1
40
0.008000
41
0.008000
0
VERTEX
8
0
10
1.027000
20
-0.208000
0
VERTEX
8
0
10
1.025000
20
-0.198000
0
VERTEX
8
0
10
1.019000
20
-0.188000
0
VERTEX
8
0
10
1.010000
20
-0.180000
0
VERTEX
8
0
10
0.998000
20
-0.172000
0
VERTEX
8
0
10
0.983000
20
-0.166000
0
VERTEX
8
0
10
0.966000
20
-0.162000
0
VERTEX
8
0
10
0.947000
20
-0.159000
0
VERTEX
8
0
10
0.927000
20
-0.158000
0
SEQEND
8
0
0
POLYLINE
8
0
66
1
40
0.008000
41
0.008000
0
VERTEX
8
0
10
0.827000
20
-0.208000
0
VERTEX
8
0
10
0.829000
20
-0.218000
0
VERTEX
8
0
10
0.835000
20
-0.228000
0
VERTEX
8
0
10
0.844000
20
-0.236000
0
VERTEX
8
0
10
0.856000
20
-0.244000
0
VERTEX
8
0
10
0.871000
20
-0.250000
0
VERTEX
8
0
10
0.888000
20
-0.254000
0
VERTEX
8
0
10
0.907000
20
-0.257000
0
VERTEX
8
0
10
0.927000
20
-0.258000
0
SEQEND
8
0
0
POLYLINE
8
0
66
1
40
0.008000
41
0.008000
0
VERTEX
8
0
10
1.027000
20
-0.208000
0
VERTEX
8
0
10
1.025000
20
-0.218000
0
VERTEX
8
0
10
1.019000
20
-0.228000
0
VERTEX
8
0
10
1.010000
20
-0.236000
0
VERTEX
8
0
10
0.998000
20
-0.244000
0
VERTEX
8
0
10
0.983000
20
-0.250000
0
VERTEX
8
0
10
0.966000
20
-0.254000
0
VERTEX
8
0
10
0.947000
20
-0.257000
0
VERTEX
8
0
10
0.927000
20
-0.258000
0
SEQEND
8
0
0
TEXT
8
12632256
10
0.877000
20
-0.148000
40
0.048000
41
1.041667
1
C1
0
POLYLINE
8
0
66
1
40
0.008000
41
0.008000
0
VERTEX
8
0
10
0.295000
20
0.093000
0
VERTEX
8
0
10
0.305000
20
0.091000
0
VERTEX
8
0
10
0.315000
20
0.085000
0
VERTEX
8
0
10
0.323000
20
0.076000
0
VERTEX
8
0
10
0.330000
20
0.064000
0
VERTEX
8
0
10
0.336000
20
0.049000
0
VERTEX
8
0
10
0.341000
20
0.033000
0
VERTEX
8
0
10
0.344000
20
0.014000
0
VERTEX
8
0
10
0.345000
20
-0.006000
0
SEQEND
8
0
0
POLYLINE
8
0
66
1
40
0.008000
41
0.008000
0
VERTEX
8
0
10
0.295000
20
-0.106000
0
VERTEX
8
0
10
0.305000
20
-0.104000
0
VERTEX
8
0
10
0.315000
20
-0.098000
0
VERTEX
8
0
10
0.323000
20
-0.089000
0
VERTEX
8
0
10
0.330000
20
-0.077000
0
VERTEX
8
0
10
0.336000
20
-0.062000
0
VERTEX
8
0
10
0.341000
20
-0.045000
0
VERTEX
8
0
10
0.344000
20
-0.026000
0
VERTEX
8
0
10
0.345000
20
-0.006000
0
SEQEND
8
0
0
POLYLINE
8
0
66
1
40
0.008000
41
0.008000
0
VERTEX
8
0
10
0.295000
20
0.093000
0
VERTEX
8
0
10
0.285000
20
0.091000
0
VERTEX
8
0
10
0.275000
20
0.085000
0
VERTEX
8
0
10
0.267000
20
0.076000
0
VERTEX
8
0
10
0.260000
20
0.064000
0
VERTEX
8
0
10
0.254000
20
0.049000
0
VERTEX
8
0
10
0.249000
20
0.033000
0
VERTEX
8
0
10
0.246000
20
0.014000
0
VERTEX
8
0
10
0.245000
20
-0.006000
0
SEQEND
8
0
0
POLYLINE
8
0
66
1
40
0.008000
41
0.008000
0
VERTEX
8
0
10
0.295000
20
-0.106000
0
VERTEX
8
0
10
0.285000
20
-0.104000
0
VERTEX
8
0
10
0.275000
20
-0.098000
0
VERTEX
8
0
10
0.267000
20
-0.089000
0
VERTEX
8
0
10
0.260000
20
-0.077000
0
VERTEX
8
0
10
0.254000
20
-0.062000
0
VERTEX
8
0
10
0.249000
20
-0.045000
0
VERTEX
8
0
10
0.246000
20
-0.026000
0
VERTEX
8
0
10
0.245000
20
-0.006000
0
SEQEND
8
0
0
TEXT
8
12632256
10
0.403000
20
-0.056000
40
0.048000
41
1.041667
50
90.000000
1
C2
0
POLYLINE
8
0
66
1
40
0.008000
41
0.008000
0
VERTEX
8
0
10
0.464000
20
0.085000
0
VERTEX
8
0
10
0.474000
20
0.083000
0
VERTEX
8
0
10
0.484000
20
0.077000
0
VERTEX
8
0
10
0.492000
20
0.068000
0
VERTEX
8
0
10
0.500000
20
0.056000
0
VERTEX
8
0
10
0.506000
20
0.041000
0
VERTEX
8
0
10
0.510000
20
0.025000
0
VERTEX
8
0
10
0.513000
20
0.006000
0
VERTEX
8
0
10
0.514000
20
-0.014000
0
SEQEND
8
0
0
POLYLINE
8
0
66
1
40
0.008000
41
0.008000
0
VERTEX
8
0
10
0.464000
20
-0.114000
0
VERTEX
8
0
10
0.474000
20
-0.112000
0
VERTEX
8
0
10
0.484000
20
-0.106000
0
VERTEX
8
0
10
0.492000
20
-0.097000
0
VERTEX
8
0
10
0.500000
20
-0.085000
0
VERTEX
8
0
10
0.506000
20
-0.070000
0
VERTEX
8
0
10
0.510000
20
-0.053000
0
VERTEX
8
0
10
0.513000
20
-0.034000
0
VERTEX
8
0
10
0.514000
20
-0.014000
0
SEQEND
8
0
0
POLYLINE
8
0
66
1
40
0.008000
41
0.008000
0
VERTEX
8
0
10
0.464000
20
0.085000
0
VERTEX
8
0
10
0.454000
20
0.083000
0
VERTEX
8
0
10
0.444000
20
0.077000
0
VERTEX
8
0
10
0.436000
20
0.068000
0
VERTEX
8
0
10
0.428000
20
0.056000
0
VERTEX
8
0
10
0.422000
20
0.041000
0
VERTEX
8
0
10
0.418000
20
0.025000
0
VERTEX
8
0
10
0.415000
20
0.006000
0
VERTEX
8
0
10
0.414000
20
-0.014000
0
SEQEND
8
0
0
POLYLINE
8
0
66
1
40
0.008000
41
0.008000
0
VERTEX
8
0
10
0.464000
20
-0.114000
0
VERTEX
8
0
10
0.454000
20
-0.112000
0
VERTEX
8
0
10
0.444000
20
-0.106000
0
VERTEX
8
0
10
0.436000
20
-0.097000
0
VERTEX
8
0
10
0.428000
20
-0.085000
0
VERTEX
8
0
10
0.422000
20
-0.070000
0
VERTEX
8
0
10
0.418000
20
-0.053000
0
VERTEX
8
0
10
0.415000
20
-0.034000
0
VERTEX
8
0
10
0.414000
20
-0.014000
0
SEQEND
8
0
0
TEXT
8
12632256
10
0.572000
20
-0.064000
40
0.048000
41
1.041667
50
90.000000
1
C3
0
CIRCLE
8
12632256
10
-1.511000
20
-0.496000
40
0.115000
0
POLYLINE
8
0
66
1
40
0.008000
41
0.008000
0
VERTEX
8
0
10
-1.596000
20
-0.446000
0
VERTEX
8
0
10
-1.546000
20
-0.446000
0
SEQEND
8
0
0
POLYLINE
8
0
66
1
40
0.008000
41
0.008000
0
VERTEX
8
0
10
-1.571000
20
-0.421000
0
VERTEX
8
0
10
-1.571000
20
-0.471000
0
SEQEND
8
0
0
TEXT
8
12632256
10
-1.571000
20
-0.386000
40
0.048000
41
1.041667
1
C4
0
CIRCLE
8
12632256
10
-1.190000
20
-0.488000
40
0.100000
0
POLYLINE
8
0
66
1
40
0.008000
41
0.008000
0
VERTEX
8
0
10
-1.115000
20
-0.538000
0
VERTEX
8
0
10
-1.165000
20
-0.538000
0
SEQEND
8
0
0
POLYLINE
8
0
66
1
40
0.008000
41
0.008000
0
VERTEX
8
0
10
-1.140000
20
-0.563000
0
VERTEX
8
0
10
-1.140000
20
-0.513000
0
SEQEND
8
0
0
TEXT
8
12632256
10
-1.240000
20
-0.646000
40
0.048000
41
1.041667
1
C5
0
POLYLINE
8
0
66
1
40
0.008000
41
0.008000
0
VERTEX
8
0
10
-1.518000
20
-0.767000
0
VERTEX
8
0
10
-1.516000
20
-0.757000
0
VERTEX
8
0
10
-1.510000
20
-0.747000
0
VERTEX
8
0
10
-1.501000
20
-0.739000
0
VERTEX
8
0
10
-1.489000
20
-0.732000
0
VERTEX
8
0
10
-1.474000
20
-0.725000
0
VERTEX
8
0
10
-1.457000
20
-0.721000
0
VERTEX
8
0
10
-1.438000
20
-0.718000
0
VERTEX
8
0
10
-1.418000
20
-0.717000
0
SEQEND
8
0
0
POLYLINE
8
0
66
1
40
0.008000
41
0.008000
0
VERTEX
8
0
10
-1.318000
20
-0.767000
0
VERTEX
8
0
10
-1.320000
20
-0.757000
0
VERTEX
8
0
10
-1.326000
20
-0.747000
0
VERTEX
8
0
10
-1.335000
20
-0.739000
0
VERTEX
8
0
10
-1.347000
20
-0.732000
0
VERTEX
8
0
10
-1.362000
20
-0.725000
0
VERTEX
8
0
10
-1.379000
20
-0.721000
0
VERTEX
8
0
10
-1.398000
20
-0.718000
0
VERTEX
8
0
10
-1.418000
20
-0.717000
0
SEQEND
8
0
0
POLYLINE
8
0
66
1
40
0.008000
41
0.008000
0
VERTEX
8
0
10
-1.518000
20
-0.767000
0
VERTEX
8
0
10
-1.516000
20
-0.777000
0
VERTEX
8
0
10
-1.510000
20
-0.787000
0
VERTEX
8
0
10
-1.501000
20
-0.795000
0
VERTEX
8
0
10
-1.489000
20
-0.802000
0
VERTEX
8
0
10
-1.474000
20
-0.809000
0
VERTEX
8
0
10
-1.457000
20
-0.813000
0
VERTEX
8
0
10
-1.438000
20
-0.816000
0
VERTEX
8
0
10
-1.418000
20
-0.817000
0
SEQEND
8
0
0
POLYLINE
8
0
66
1
40
0.008000
41
0.008000
0
VERTEX
8
0
10
-1.318000
20
-0.767000
0
VERTEX
8
0
10
-1.320000
20
-0.777000
0
VERTEX
8
0
10
-1.326000
20
-0.787000
0
VERTEX
8
0
10
-1.335000
20
-0.795000
0
VERTEX
8
0
10
-1.347000
20
-0.802000
0
VERTEX
8
0
10
-1.362000
20
-0.809000
0
VERTEX
8
0
10
-1.379000
20
-0.813000
0
VERTEX
8
0
10
-1.398000
20
-0.816000
0
VERTEX
8
0
10
-1.418000
20
-0.817000
0
SEQEND
8
0
0
TEXT
8
12632256
10
-1.468000
20
-0.707000
40
0.048000
41
1.041667
1
C6
0
POLYLINE
8
0
66
1
40
0.008000
41
0.008000
0
VERTEX
8
0
10
-0.551000
20
-0.664000
0
VERTEX
8
0
10
-0.561000
20
-0.662000
0
VERTEX
8
0
10
-0.571000
20
-0.656000
0
VERTEX
8
0
10
-0.579000
20
-0.647000
0
VERTEX
8
0
10
-0.586000
20
-0.635000
0
VERTEX
8
0
10
-0.592000
20
-0.620000
0
VERTEX
8
0
10
-0.597000
20
-0.603000
0
VERTEX
8
0
10
-0.600000
20
-0.584000
0
VERTEX
8
0
10
-0.601000
20
-0.564000
0
SEQEND
8
0
0
POLYLINE
8
0
66
1
40
0.008000
41
0.008000
0
VERTEX
8
0
10
-0.551000
20
-0.464000
0
VERTEX
8
0
10
-0.561000
20
-0.466000
0
VERTEX
8
0
10
-0.571000
20
-0.472000
0
VERTEX
8
0
10
-0.579000
20
-0.481000
0
VERTEX
8
0
10
-0.586000
20
-0.493000
0
VERTEX
8
0
10
-0.592000
20
-0.508000
0
VERTEX
8
0
10
-0.597000
20
-0.525000
0
VERTEX
8
0
10
-0.600000
20
-0.544000
0
VERTEX
8
0
10
-0.601000
20
-0.564000
0
SEQEND
8
0
0
POLYLINE
8
0
66
1
40
0.008000
41
0.008000
0
VERTEX
8
0
10
-0.551000
20
-0.664000
0
VERTEX
8
0
10
-0.541000
20
-0.662000
0
VERTEX
8
0
10
-0.531000
20
-0.656000
0
VERTEX
8
0
10
-0.523000
20
-0.647000
0
VERTEX
8
0
10
-0.516000
20
-0.635000
0
VERTEX
8
0
10
-0.510000
20
-0.620000
0
VERTEX
8
0
10
-0.505000
20
-0.603000
0
VERTEX
8
0
10
-0.502000
20
-0.584000
0
VERTEX
8
0
10
-0.501000
20
-0.564000
0
SEQEND
8
0
0
POLYLINE
8
0
66
1
40
0.008000
41
0.008000
0
VERTEX
8
0
10
-0.551000
20
-0.464000
0
VERTEX
8
0
10
-0.541000
20
-0.466000
0
VERTEX
8
0
10
-0.531000
20
-0.472000
0
VERTEX
8
0
10
-0.523000
20
-0.481000
0
VERTEX
8
0
10
-0.516000
20
-0.493000
0
VERTEX
8
0
10
-0.510000
20
-0.508000
0
VERTEX
8
0
10
-0.505000
20
-0.525000
0
VERTEX
8
0
10
-0.502000
20
-0.544000
0
VERTEX
8
0
10
-0.501000
20
-0.564000
0
SEQEND
8
0
0
TEXT
8
12632256
10
-0.611000
20
-0.614000
40
0.048000
41
1.041667
50
90.000000
1
C7
0
POLYLINE
8
0
66
1
40
0.008000
41
0.008000
0
VERTEX
8
0
10
-0.397000
20
-0.664000
0
VERTEX
8
0
10
-0.407000
20
-0.662000
0
VERTEX
8
0
10
-0.417000
20
-0.656000
0
VERTEX
8
0
10
-0.425000
20
-0.647000
0
VERTEX
8
0
10
-0.432000
20
-0.635000
0
VERTEX
8
0
10
-0.438000
20
-0.620000
0
VERTEX
8
0
10
-0.443000
20
-0.603000
0
VERTEX
8
0
10
-0.446000
20
-0.584000
0
VERTEX
8
0
10
-0.447000
20
-0.564000
0
SEQEND
8
0
0
POLYLINE
8
0
66
1
40
0.008000
41
0.008000
0
VERTEX
8
0
10
-0.397000
20
-0.464000
0
VERTEX
8
0
10
-0.407000
20
-0.466000
0
VERTEX
8
0
10
-0.417000
20
-0.472000
0
VERTEX
8
0
10
-0.425000
20
-0.481000
0
VERTEX
8
0
10
-0.432000
20
-0.493000
0
VERTEX
8
0
10
-0.438000
20
-0.508000
0
VERTEX
8
0
10
-0.443000
20
-0.525000
0
VERTEX
8
0
10
-0.446000
20
-0.544000
0
VERTEX
8
0
10
-0.447000
20
-0.564000
0
SEQEND
8
0
0
POLYLINE
8
0
66
1
40
0.008000
41
0.008000
0
VERTEX
8
0
10
-0.397000
20
-0.664000
0
VERTEX
8
0
10
-0.387000
20
-0.662000
0
VERTEX
8
0
10
-0.377000
20
-0.656000
0
VERTEX
8
0
10
-0.369000
20
-0.647000
0
VERTEX
8
0
10
-0.362000
20
-0.635000
0
VERTEX
8
0
10
-0.356000
20
-0.620000
0
VERTEX
8
0
10
-0.351000
20
-0.603000
0
VERTEX
8
0
10
-0.348000
20
-0.584000
0
VERTEX
8
0
10
-0.347000
20
-0.564000
0
SEQEND
8
0
0
POLYLINE
8
0
66
1
40
0.008000
41
0.008000
0
VERTEX
8
0
10
-0.397000
20
-0.464000
0
VERTEX
8
0
10
-0.387000
20
-0.466000
0
VERTEX
8
0
10
-0.377000
20
-0.472000
0
VERTEX
8
0
10
-0.369000
20
-0.481000
0
VERTEX
8
0
10
-0.362000
20
-0.493000
0
VERTEX
8
0
10
-0.356000
20
-0.508000
0
VERTEX
8
0
10
-0.351000
20
-0.525000
0
VERTEX
8
0
10
-0.348000
20
-0.544000
0
VERTEX
8
0
10
-0.347000
20
-0.564000
0
SEQEND
8
0
0
TEXT
8
12632256
10
-0.457000
20
-0.614000
40
0.048000
41
1.041667
50
90.000000
1
C8
0
CIRCLE
8
12632256
10
-0.089000
20
-0.814000
40
0.115000
0
POLYLINE
8
0
66
1
40
0.008000
41
0.008000
0
VERTEX
8
0
10
-0.004000
20
-0.864000
0
VERTEX
8
0
10
-0.054000
20
-0.864000
0
SEQEND
8
0
0
POLYLINE
8
0
66
1
40
0.008000
41
0.008000
0
VERTEX
8
0
10
-0.029000
20
-0.889000
0
VERTEX
8
0
10
-0.029000
20
-0.839000
0
SEQEND
8
0
0
TEXT
8
12632256
10
-0.154000
20
-0.972000
40
0.048000
41
1.041667
1
C11
0
CIRCLE
8
12632256
10
-0.379000
20
-1.074000
40
0.100000
0
POLYLINE
8
0
66
1
40
0.008000
41
0.008000
0
VERTEX
8
0
10
-0.454000
20
-1.024000
0
VERTEX
8
0
10
-0.404000
20
-1.024000
0
SEQEND
8
0
0
POLYLINE
8
0
66
1
40
0.008000
41
0.008000
0
VERTEX
8
0
10
-0.429000
20
-0.999000
0
VERTEX
8
0
10
-0.429000
20
-1.049000
0
SEQEND
8
0
0
TEXT
8
12632256
10
-0.454000
20
-0.964000
40
0.048000
41
1.041667
1
C12
0
POLYLINE
8
0
66
1
40
0.008000
41
0.008000
0
VERTEX
8
0
10
-0.280000
20
-1.279000
0
VERTEX
8
0
10
-0.282000
20
-1.289000
0
VERTEX
8
0
10
-0.288000
20
-1.299000
0
VERTEX
8
0
10
-0.297000
20
-1.307000
0
VERTEX
8
0
10
-0.309000
20
-1.314000
0
VERTEX
8
0
10
-0.324000
20
-1.321000
0
VERTEX
8
0
10
-0.341000
20
-1.325000
0
VERTEX
8
0
10
-0.360000
20
-1.328000
0
VERTEX
8
0
10
-0.380000
20
-1.329000
0
SEQEND
8
0
0
POLYLINE
8
0
66
1
40
0.008000
41
0.008000
0
VERTEX
8
0
10
-0.480000
20
-1.279000
0
VERTEX
8
0
10
-0.478000
20
-1.289000
0
VERTEX
8
0
10
-0.472000
20
-1.299000
0
VERTEX
8
0
10
-0.463000
20
-1.307000
0
VERTEX
8
0
10
-0.451000
20
-1.314000
0
VERTEX
8
0
10
-0.436000
20
-1.321000
0
VERTEX
8
0
10
-0.419000
20
-1.325000
0
VERTEX
8
0
10
-0.400000
20
-1.328000
0
VERTEX
8
0
10
-0.380000
20
-1.329000
0
SEQEND
8
0
0
POLYLINE
8
0
66
1
40
0.008000
41
0.008000
0
VERTEX
8
0
10
-0.280000
20
-1.279000
0
VERTEX
8
0
10
-0.282000
20
-1.269000
0
VERTEX
8
0
10
-0.288000
20
-1.259000
0
VERTEX
8
0
10
-0.297000
20
-1.251000
0
VERTEX
8
0
10
-0.309000
20
-1.244000
0
VERTEX
8
0
10
-0.324000
20
-1.237000
0
VERTEX
8
0
10
-0.341000
20
-1.233000
0
VERTEX
8
0
10
-0.360000
20
-1.230000
0
VERTEX
8
0
10
-0.380000
20
-1.229000
0
SEQEND
8
0
0
POLYLINE
8
0
66
1
40
0.008000
41
0.008000
0
VERTEX
8
0
10
-0.480000
20
-1.279000
0
VERTEX
8
0
10
-0.478000
20
-1.269000
0
VERTEX
8
0
10
-0.472000
20
-1.259000
0
VERTEX
8
0
10
-0.463000
20
-1.251000
0
VERTEX
8
0
10
-0.451000
20
-1.244000
0
VERTEX
8
0
10
-0.436000
20
-1.237000
0
VERTEX
8
0
10
-0.419000
20
-1.233000
0
VERTEX
8
0
10
-0.400000
20
-1.230000
0
VERTEX
8
0
10
-0.380000
20
-1.229000
0
SEQEND
8
0
0
TEXT
8
12632256
10
-0.455000
20
-1.387000
40
0.048000
41
1.041667
1
C13
0
POLYLINE
8
0
66
1
40
0.008000
41
0.008000
0
VERTEX
8
0
10
-1.509000
20
-0.988000
0
VERTEX
8
0
10
-1.509000
20
-1.388000
0
SEQEND
8
0
0
POLYLINE
8
0
66
1
40
0.008000
41
0.008000
0
VERTEX
8
0
10
-1.109000
20
-0.988000
0
VERTEX
8
0
10
-1.109000
20
-1.388000
0
SEQEND
8
0
0
POLYLINE
8
0
66
1
40
0.008000
41
0.008000
0
VERTEX
8
0
10
-1.509000
20
-1.388000
0
VERTEX
8
0
10
-1.109000
20
-1.388000
0
SEQEND
8
0
0
POLYLINE
8
0
66
1
40
0.008000
41
0.008000
0
VERTEX
8
0
10
-1.509000
20
-0.988000
0
VERTEX
8
0
10
-1.109000
20
-0.988000
0
SEQEND
8
0
0
TEXT
8
12632256
10
-1.359000
20
-0.978000
40
0.048000
41
1.041667
1
J8
0
POLYLINE
8
0
66
1
40
0.008000
41
0.008000
0
VERTEX
8
0
10
1.023000
20
-0.687000
0
VERTEX
8
0
10
1.323000
20
-0.687000
0
VERTEX
8
0
10
1.323000
20
-0.587000
0
VERTEX
8
0
10
1.023000
20
-0.587000
0
VERTEX
8
0
10
1.023000
20
-0.687000
0
SEQEND
8
0
0
POLYLINE
8
0
66
1
40
0.008000
41
0.008000
0
VERTEX
8
0
10
1.023000
20
-0.587000
0
VERTEX
8
0
10
1.023000
20
-0.537000
0
VERTEX
8
0
10
1.323000
20
-0.537000
0
VERTEX
8
0
10
1.323000
20
-0.587000
0
SEQEND
8
0
0
POLYLINE
8
0
66
1
40
0.008000
41
0.008000
0
VERTEX
8
0
10
1.023000
20
-0.587000
0
VERTEX
8
0
10
1.073000
20
-0.537000
0
SEQEND
8
0
0
POLYLINE
8
0
66
1
40
0.008000
41
0.008000
0
VERTEX
8
0
10
1.073000
20
-0.587000
0
VERTEX
8
0
10
1.123000
20
-0.537000
0
SEQEND
8
0
0
POLYLINE
8
0
66
1
40
0.008000
41
0.008000
0
VERTEX
8
0
10
1.123000
20
-0.587000
0
VERTEX
8
0
10
1.173000
20
-0.537000
0
SEQEND
8
0
0
POLYLINE
8
0
66
1
40
0.008000
41
0.008000
0
VERTEX
8
0
10
1.173000
20
-0.587000
0
VERTEX
8
0
10
1.223000
20
-0.537000
0
SEQEND
8
0
0
POLYLINE
8
0
66
1
40
0.008000
41
0.008000
0
VERTEX
8
0
10
1.223000
20
-0.587000
0
VERTEX
8
0
10
1.273000
20
-0.537000
0
SEQEND
8
0
0
POLYLINE
8
0
66
1
40
0.008000
41
0.008000
0
VERTEX
8
0
10
1.273000
20
-0.587000
0
VERTEX
8
0
10
1.323000
20
-0.537000
0
SEQEND
8
0
0
TEXT
8
12632256
10
1.123000
20
-0.527000
40
0.048000
41
1.041667
1
Q1
0
POLYLINE
8
0
66
1
40
0.008000
41
0.008000
0
VERTEX
8
0
10
0.661000
20
-0.349000
0
VERTEX
8
0
10
0.661000
20
-0.399000
0
SEQEND
8
0
0
POLYLINE
8
0
66
1
40
0.008000
41
0.008000
0
VERTEX
8
0
10
0.636000
20
-0.599000
0
VERTEX
8
0
10
0.686000
20
-0.599000
0
VERTEX
8
0
10
0.686000
20
-0.399000
0
VERTEX
8
0
10
0.636000
20
-0.399000
0
VERTEX
8
0
10
0.636000
20
-0.599000
0
SEQEND
8
0
0
POLYLINE
8
0
66
1
40
0.008000
41
0.008000
0
VERTEX
8
0
10
0.661000
20
-0.599000
0
VERTEX
8
0
10
0.661000
20
-0.649000
0
SEQEND
8
0
0
TEXT
8
12632256
10
0.744000
20
-0.549000
40
0.048000
41
1.041667
50
90.000000
1
R6
0
POLYLINE
8
0
66
1
40
0.008000
41
0.008000
0
VERTEX
8
0
10
-0.171000
20
0.664000
0
VERTEX
8
0
10
0.103000
20
0.664000
0
VERTEX
8
0
10
0.103000
20
0.684000
0
VERTEX
8
0
10
-0.171000
20
0.684000
0
VERTEX
8
0
10
-0.171000
20
0.664000
0
SEQEND
8
0
0
POLYLINE
8
0
66
1
40
0.008000
41
0.008000
0
VERTEX
8
0
10
0.084000
20
1.271000
0
VERTEX
8
0
10
0.104000
20
1.271000
0
VERTEX
8
0
10
0.104000
20
1.371000
0
VERTEX
8
0
10
0.084000
20
1.371000
0
VERTEX
8
0
10
0.084000
20
1.271000
0
SEQEND
8
0
0
POLYLINE
8
0
66
1
40
0.008000
41
0.008000
0
VERTEX
8
0
10
-0.083000
20
-0.080000
0
VERTEX
8
0
10
0.116000
20
-0.080000
0
VERTEX
8
0
10
0.116000
20
-0.060000
0
VERTEX
8
0
10
-0.083000
20
-0.060000
0
VERTEX
8
0
10
-0.083000
20
-0.080000
0
SEQEND
8
0
0
POLYLINE
8
0
66
1
40
0.000000
41
0.000000
0
VERTEX
8
0
10
1.567000
20
0.928000
0
VERTEX
8
0
10
1.567000
20
-1.227000
0
VERTEX
8
0
10
1.853000
20
-1.227000
0
VERTEX
8
0
10
1.853000
20
0.928000
0
VERTEX
8
0
10
1.567000
20
0.928000
0
SEQEND
8
0
0
TEXT
8
12632256
10
0.854000
20
1.356000
40
0.112000
41
0.803571
1
JDPE
0
TEXT
8
12632256
10
1.066000
20
-1.040000
40
0.120000
41
1.000000
1
+ -
0
TEXT
8
12632256
10
1.456000
20
1.295000
40
0.096000
41
1.250000
1
1
0
TEXT
8
12632256
10
0.133000
20
1.323000
40
0.096000
41
1.250000
1
16
0
TEXT
8
12632256
10
-0.818000
20
1.346000
40
0.096000
41
1.250000
1
+
0
TEXT
8
12632256
10
-1.503000
20
0.677000
40
0.064000
41
1.093750
1
GND
0
TEXT
8
12632256
10
-1.503000
20
0.570000
40
0.064000
41
1.093750
1
GND
0
TEXT
8
12632256
10
-1.511000
20
0.460000
40
0.064000
41
1.093750
1
GND
0
TEXT
8
12632256
10
-1.511000
20
0.374000
40
0.064000
41
1.093750
1
GND
0
TEXT
8
12632256
10
-1.484000
20
0.271000
40
0.064000
41
1.093750
1
B7
0
TEXT
8
12632256
10
-1.492000
20
0.173000
40
0.064000
41
1.093750
1
B6
0
TEXT
8
12632256
10
-1.496000
20
0.078000
40
0.064000
41
1.093750
1
B5
0
TEXT
8
12632256
10
-1.500000
20
-0.015000
40
0.064000
41
1.093750
1
B4
0
TEXT
8
12632256
10
-1.500000
20
-0.117000
40
0.064000
41
1.093750
1
C2
0
TEXT
8
12632256
10
1.157000
20
-0.932000
40
0.064000
41
1.093750
1
SSR
0
TEXT
8
12632256
10
-0.834000
20
-0.431000
40
0.048000
41
1.041667
1
+12+5 V T - -
0
TEXT
8
12632256
10
1.212000
20
-0.137000
40
0.064000
41
1.093750
1
CTE
0
TEXT
8
12632256
10
-0.803000
20
1.248000
40
0.064000
41
1.093750
1
TECLAS
0
TEXT
8
12632256
10
-1.413000
20
-0.925000
40
0.064000
41
1.093750
1
VAC
0
POLYLINE
8
0
66
1
40
0.008000
41
0.008000
0
VERTEX
8
0
10
-1.528000
20
0.787000
0
VERTEX
8
0
10
-1.478000
20
0.787000
0
SEQEND
8
0
0
POLYLINE
8
0
66
1
40
0.008000
41
0.008000
0
VERTEX
8
0
10
-1.478000
20
0.762000
0
VERTEX
8
0
10
-1.278000
20
0.762000
0
VERTEX
8
0
10
-1.278000
20
0.812000
0
VERTEX
8
0
10
-1.478000
20
0.812000
0
VERTEX
8
0
10
-1.478000
20
0.762000
0
SEQEND
8
0
0
POLYLINE
8
0
66
1
40
0.008000
41
0.008000
0
VERTEX
8
0
10
-1.278000
20
0.787000
0
VERTEX
8
0
10
-1.228000
20
0.787000
0
SEQEND
8
0
0
TEXT
8
12632256
10
-0.625000
20
-0.056000
40
0.048000
41
1.041667
1
SENSOR
0
TEXT
8
12632256
10
-0.763000
20
0.531000
40
0.064000
41
1.093750
1
EXTRACTORA
0
TEXT
8
12632256
10
-0.889000
20
0.374000
40
0.064000
41
1.093750
1
LECTOR DE FLUJO
0
POLYLINE
8
0
66
1
40
0.008000
41
0.008000
0
VERTEX
8
0
10
-0.168000
20
-0.546000
0
VERTEX
8
0
10
0.031000
20
-0.546000
0
VERTEX
8
0
10
0.031000
20
-0.446000
0
VERTEX
8
0
10
-0.168000
20
-0.446000
0
VERTEX
8
0
10
-0.168000
20
-0.546000
0
SEQEND
8
0
0
TEXT
8
12632256
10
-0.137000
20
-0.648000
40
0.040000
41
1.250000
1
+ -
0
TEXT
8
12632256
10
-0.200000
20
-0.682000
40
0.024000
41
1.250000
1
FEEDBACK
0
POLYLINE
8
0
66
1
40
0.008000
41
0.008000
0
VERTEX
8
0
10
0.168000
20
0.196000
0
VERTEX
8
0
10
0.130000
20
0.196000
0
SEQEND
8
0
0
POLYLINE
8
0
66
1
40
0.008000
41
0.008000
0
VERTEX
8
0
10
0.168000
20
0.085000
0
VERTEX
8
0
10
0.129000
20
0.085000
0
SEQEND
8
0
0
POLYLINE
8
0
66
1
40
0.008000
41
0.008000
0
VERTEX
8
0
10
0.088000
20
0.211000
0
VERTEX
8
0
10
0.088000
20
0.231000
0
SEQEND
8
0
0
POLYLINE
8
0
66
1
40
0.008000
41
0.008000
0
VERTEX
8
0
10
0.098000
20
0.221000
0
VERTEX
8
0
10
0.078000
20
0.221000
0
SEQEND
8
0
0
POLYLINE
8
0
66
1
40
0.008000
41
0.008000
0
VERTEX
8
0
10
-0.028000
20
0.771000
0
VERTEX
8
0
10
-0.066000
20
0.771000
0
SEQEND
8
0
0
POLYLINE
8
0
66
1
40
0.008000
41
0.008000
0
VERTEX
8
0
10
-0.028000
20
0.660000
0
VERTEX
8
0
10
-0.067000
20
0.660000
0
SEQEND
8
0
0
POLYLINE
8
0
66
1
40
0.008000
41
0.008000
0
VERTEX
8
0
10
-0.108000
20
0.786000
0
VERTEX
8
0
10
-0.108000
20
0.806000
0
SEQEND
8
0
0
POLYLINE
8
0
66
1
40
0.008000
41
0.008000
0
VERTEX
8
0
10
-0.098000
20
0.796000
0
VERTEX
8
0
10
-0.118000
20
0.796000
0
SEQEND
8
0
0
POLYLINE
8
0
66
1
40
0.008000
41
0.008000
0
VERTEX
8
0
10
-1.152000
20
-0.022000
0
VERTEX
8
0
10
-0.952000
20
-0.022000
0
VERTEX
8
0
10
-0.952000
20
0.077000
0
VERTEX
8
0
10
-1.152000
20
0.077000
0
VERTEX
8
0
10
-1.152000
20
-0.022000
0
SEQEND
8
0
0
ENDSEC
0
EOF

