  0
SECTION
  2
HEADER
  9
$ACADVER
  1
AC2.10
  0
ENDSEC
  0
SECTION
  2
TABLES
  0
TABLE
  2
LAYER
 70
     8
  0
LAYER
  2
0
 62
     7
 70
0
  6
CONTINUOUS
  0
LAYER
  2
1
 62
     1
 70
0
  6
CONTINUOUS
  0
LAYER
  2
2
 62
     2
 70
0
  6
CONTINUOUS
  0
LAYER
  2
3
 62
     3
 70
0
  6
CONTINUOUS
  0
LAYER
  2
4
 62
     4
 70
0
  6
CONTINUOUS
  0
LAYER
  2
5
 62
     5
 70
0
  6
CONTINUOUS
  0
LAYER
  2
6
 62
     6
 70
0
  6
CONTINUOUS
  0
LAYER
  2
7
 62
     7
 70
0
  6
CONTINUOUS
  0
ENDTAB
  0
TABLE
  2
STYLE
 70
     1
  0
STYLE
 70
     0
  2
STANDARD
  3
TXT
 40
0.00
 41
1.00
 42
1.00
 50
0.00
 71
     0
  0
ENDTAB
  0
ENDSEC
  0
SECTION
  2
BLOCKS
  0
BLOCK
  8
0
  2
EPAD
 70
0
 10
0.0
 20
0.0
  0
POLYLINE
  8
0
 66
1
 70
1
 40
0.5
 41
0.5
  0
VERTEX
  8
0
 10
-0.25
 20
0.0
 42
1.0
  0
VERTEX
  8
0
 10
0.25
 20
0.0
 42
1.0
  0
SEQEND
  8
0
  0
ENDBLK
  8
0
  0
BLOCK
  8
0
  2
RPAD
 70
0
 10
0.0
 20
0.0
  0
TRACE
  8
0
 10
-0.5
 20
-0.5
 11
-0.5
 21
0.5
 12
0.5
 22
-0.5
 13
0.5
 23
0.5
  0
ENDBLK
  8
0
  0
ENDSEC
0
SECTION
2
ENTITIES
0
INSERT
8
0
2
EPAD
10
0.049000
20
-0.700000
41
0.100000
42
0.100000
0
CIRCLE
8
0
10
0.049000
20
-0.700000
40
0.025000
0
INSERT
8
0
2
EPAD
10
0.249000
20
-0.900000
41
0.100000
42
0.100000
0
CIRCLE
8
0
10
0.249000
20
-0.900000
40
0.025000
0
INSERT
8
0
2
EPAD
10
0.049000
20
-0.900000
41
0.100000
42
0.100000
0
CIRCLE
8
0
10
0.049000
20
-0.900000
40
0.025000
0
INSERT
8
0
2
EPAD
10
0.249000
20
-0.700000
41
0.100000
42
0.100000
0
CIRCLE
8
0
10
0.249000
20
-0.700000
40
0.025000
0
INSERT
8
0
2
EPAD
10
0.899000
20
0.559000
41
0.070000
42
0.070000
0
CIRCLE
8
0
10
0.899000
20
0.559000
40
0.025000
0
INSERT
8
0
2
EPAD
10
0.899000
20
0.359000
41
0.070000
42
0.070000
0
CIRCLE
8
0
10
0.899000
20
0.359000
40
0.025000
0
INSERT
8
0
2
EPAD
10
-0.307000
20
0.338000
41
0.070000
42
0.070000
0
CIRCLE
8
0
10
-0.307000
20
0.338000
40
0.025000
0
INSERT
8
0
2
EPAD
10
-0.507000
20
0.338000
41
0.070000
42
0.070000
0
CIRCLE
8
0
10
-0.507000
20
0.338000
40
0.025000
0
INSERT
8
0
2
EPAD
10
0.001000
20
-0.358000
41
0.070000
42
0.070000
0
CIRCLE
8
0
10
0.001000
20
-0.358000
40
0.025000
0
INSERT
8
0
2
EPAD
10
0.401000
20
-0.358000
41
0.070000
42
0.070000
0
CIRCLE
8
0
10
0.401000
20
-0.358000
40
0.025000
0
INSERT
8
0
2
RPAD
10
0.919000
20
-0.334000
41
0.080000
42
0.080000
50
-90.000000
0
CIRCLE
8
0
10
0.919000
20
-0.334000
40
0.025000
0
INSERT
8
0
2
RPAD
10
0.919000
20
-0.434000
41
0.080000
42
0.080000
50
-90.000000
0
CIRCLE
8
0
10
0.919000
20
-0.434000
40
0.025000
0
INSERT
8
0
2
RPAD
10
0.919000
20
-0.534000
41
0.080000
42
0.080000
50
-90.000000
0
CIRCLE
8
0
10
0.919000
20
-0.534000
40
0.025000
0
INSERT
8
0
2
EPAD
10
-0.320000
20
-0.385000
41
0.080000
42
0.080000
0
CIRCLE
8
0
10
-0.320000
20
-0.385000
40
0.025000
0
INSERT
8
0
2
EPAD
10
-0.195000
20
-0.385000
41
0.080000
42
0.080000
0
CIRCLE
8
0
10
-0.195000
20
-0.385000
40
0.025000
0
INSERT
8
0
2
EPAD
10
0.668000
20
-0.622000
41
0.080000
42
0.080000
0
CIRCLE
8
0
10
0.668000
20
-0.622000
40
0.025000
0
INSERT
8
0
2
EPAD
10
0.568000
20
-0.622000
41
0.080000
42
0.080000
0
CIRCLE
8
0
10
0.568000
20
-0.622000
40
0.025000
0
INSERT
8
0
2
EPAD
10
0.492000
20
-0.913000
41
0.070000
42
0.070000
0
CIRCLE
8
0
10
0.492000
20
-0.913000
40
0.025000
0
INSERT
8
0
2
EPAD
10
0.692000
20
-0.913000
41
0.070000
42
0.070000
0
CIRCLE
8
0
10
0.692000
20
-0.913000
40
0.025000
0
INSERT
8
0
2
EPAD
10
-0.451000
20
-0.787000
41
0.120000
42
0.120000
0
CIRCLE
8
0
10
-0.451000
20
-0.787000
40
0.030000
0
INSERT
8
0
2
EPAD
10
-0.651000
20
-0.787000
41
0.120000
42
0.120000
0
CIRCLE
8
0
10
-0.651000
20
-0.787000
40
0.030000
0
INSERT
8
0
2
RPAD
10
-0.124000
20
0.299000
41
0.050000
42
0.050000
50
0.000000
0
CIRCLE
8
0
10
-0.124000
20
0.299000
40
0.030000
0
INSERT
8
0
2
EPAD
10
-0.024000
20
0.299000
41
0.050000
42
0.050000
0
CIRCLE
8
0
10
-0.024000
20
0.299000
40
0.030000
0
INSERT
8
0
2
EPAD
10
0.075000
20
0.299000
41
0.050000
42
0.050000
0
CIRCLE
8
0
10
0.075000
20
0.299000
40
0.030000
0
INSERT
8
0
2
EPAD
10
0.175000
20
0.299000
41
0.050000
42
0.050000
0
CIRCLE
8
0
10
0.175000
20
0.299000
40
0.030000
0
INSERT
8
0
2
EPAD
10
0.275000
20
0.299000
41
0.050000
42
0.050000
0
CIRCLE
8
0
10
0.275000
20
0.299000
40
0.030000
0
INSERT
8
0
2
EPAD
10
0.375000
20
0.299000
41
0.050000
42
0.050000
0
CIRCLE
8
0
10
0.375000
20
0.299000
40
0.030000
0
INSERT
8
0
2
EPAD
10
0.475000
20
0.299000
41
0.050000
42
0.050000
0
CIRCLE
8
0
10
0.475000
20
0.299000
40
0.030000
0
INSERT
8
0
2
EPAD
10
0.475000
20
0.599000
41
0.050000
42
0.050000
0
CIRCLE
8
0
10
0.475000
20
0.599000
40
0.030000
0
INSERT
8
0
2
EPAD
10
0.375000
20
0.599000
41
0.050000
42
0.050000
0
CIRCLE
8
0
10
0.375000
20
0.599000
40
0.030000
0
INSERT
8
0
2
EPAD
10
0.275000
20
0.599000
41
0.050000
42
0.050000
0
CIRCLE
8
0
10
0.275000
20
0.599000
40
0.030000
0
INSERT
8
0
2
EPAD
10
0.175000
20
0.599000
41
0.050000
42
0.050000
0
CIRCLE
8
0
10
0.175000
20
0.599000
40
0.030000
0
INSERT
8
0
2
EPAD
10
0.075000
20
0.599000
41
0.050000
42
0.050000
0
CIRCLE
8
0
10
0.075000
20
0.599000
40
0.030000
0
INSERT
8
0
2
EPAD
10
-0.024000
20
0.599000
41
0.050000
42
0.050000
0
CIRCLE
8
0
10
-0.024000
20
0.599000
40
0.030000
0
INSERT
8
0
2
EPAD
10
-0.124000
20
0.599000
41
0.050000
42
0.050000
0
CIRCLE
8
0
10
-0.124000
20
0.599000
40
0.030000
0
INSERT
8
0
2
EPAD
10
0.559000
20
0.106000
41
0.070000
42
0.070000
0
CIRCLE
8
0
10
0.559000
20
0.106000
40
0.025000
0
INSERT
8
0
2
EPAD
10
0.159000
20
0.106000
41
0.070000
42
0.070000
0
CIRCLE
8
0
10
0.159000
20
0.106000
40
0.025000
0
INSERT
8
0
2
EPAD
10
0.872000
20
0.122000
41
0.120000
42
0.120000
0
CIRCLE
8
0
10
0.872000
20
0.122000
40
0.030000
0
INSERT
8
0
2
EPAD
10
0.872000
20
-0.077000
41
0.120000
42
0.120000
0
CIRCLE
8
0
10
0.872000
20
-0.077000
40
0.030000
0
INSERT
8
0
2
EPAD
10
0.553000
20
-0.295000
41
0.080000
42
0.080000
0
CIRCLE
8
0
10
0.553000
20
-0.295000
40
0.025000
0
INSERT
8
0
2
EPAD
10
0.653000
20
-0.295000
41
0.080000
42
0.080000
0
CIRCLE
8
0
10
0.653000
20
-0.295000
40
0.025000
0
INSERT
8
0
2
EPAD
10
0.555000
20
-0.047000
41
0.070000
42
0.070000
0
CIRCLE
8
0
10
0.555000
20
-0.047000
40
0.025000
0
INSERT
8
0
2
EPAD
10
0.155000
20
-0.047000
41
0.070000
42
0.070000
0
CIRCLE
8
0
10
0.155000
20
-0.047000
40
0.025000
0
INSERT
8
0
2
EPAD
10
-0.498000
20
0.106000
41
0.070000
42
0.070000
0
CIRCLE
8
0
10
-0.498000
20
0.106000
40
0.025000
0
INSERT
8
0
2
EPAD
10
-0.098000
20
0.106000
41
0.070000
42
0.070000
0
CIRCLE
8
0
10
-0.098000
20
0.106000
40
0.025000
0
INSERT
8
0
2
EPAD
10
-0.494000
20
-0.074000
41
0.070000
42
0.070000
0
CIRCLE
8
0
10
-0.494000
20
-0.074000
40
0.025000
0
INSERT
8
0
2
EPAD
10
-0.094000
20
-0.074000
41
0.070000
42
0.070000
0
CIRCLE
8
0
10
-0.094000
20
-0.074000
40
0.025000
0
INSERT
8
0
2
EPAD
10
0.001000
20
0.744000
41
0.070000
42
0.070000
0
CIRCLE
8
0
10
0.001000
20
0.744000
40
0.025000
0
INSERT
8
0
2
EPAD
10
0.401000
20
0.744000
41
0.070000
42
0.070000
0
CIRCLE
8
0
10
0.401000
20
0.744000
40
0.025000
0
INSERT
8
0
2
EPAD
10
0.400000
20
0.897000
41
0.070000
42
0.070000
0
CIRCLE
8
0
10
0.400000
20
0.897000
40
0.025000
0
INSERT
8
0
2
EPAD
10
0.000000
20
0.897000
41
0.070000
42
0.070000
0
CIRCLE
8
0
10
0.000000
20
0.897000
40
0.025000
0
INSERT
8
0
2
EPAD
10
-0.883000
20
0.484000
41
0.120000
42
0.120000
0
CIRCLE
8
0
10
-0.883000
20
0.484000
40
0.030000
0
INSERT
8
0
2
EPAD
10
-0.883000
20
0.284000
41
0.120000
42
0.120000
0
CIRCLE
8
0
10
-0.883000
20
0.284000
40
0.030000
0
INSERT
8
0
2
EPAD
10
-0.864000
20
-0.039000
41
0.120000
42
0.120000
0
CIRCLE
8
0
10
-0.864000
20
-0.039000
40
0.030000
0
INSERT
8
0
2
EPAD
10
-0.864000
20
-0.239000
41
0.120000
42
0.120000
0
CIRCLE
8
0
10
-0.864000
20
-0.239000
40
0.030000
0
INSERT
8
0
2
RPAD
10
0.739000
20
0.838000
41
0.080000
42
0.080000
50
180.000000
0
CIRCLE
8
0
10
0.739000
20
0.838000
40
0.025000
0
INSERT
8
0
2
RPAD
10
0.639000
20
0.838000
41
0.080000
42
0.080000
50
180.000000
0
CIRCLE
8
0
10
0.639000
20
0.838000
40
0.025000
0
INSERT
8
0
2
EPAD
10
0.667000
20
0.570000
41
0.070000
42
0.070000
0
CIRCLE
8
0
10
0.667000
20
0.570000
40
0.025000
0
INSERT
8
0
2
EPAD
10
0.667000
20
0.370000
41
0.070000
42
0.070000
0
CIRCLE
8
0
10
0.667000
20
0.370000
40
0.025000
0
INSERT
8
0
2
EPAD
10
-1.005000
20
-0.889000
41
0.250000
42
0.250000
0
CIRCLE
8
0
10
-1.005000
20
-0.889000
40
0.030000
0
INSERT
8
0
2
EPAD
10
0.942000
20
-0.889000
41
0.250000
42
0.250000
0
CIRCLE
8
0
10
0.942000
20
-0.889000
40
0.030000
0
INSERT
8
0
2
EPAD
10
0.954000
20
0.901000
41
0.250000
42
0.250000
0
CIRCLE
8
0
10
0.954000
20
0.901000
40
0.030000
0
INSERT
8
0
2
EPAD
10
-1.001000
20
0.885000
41
0.250000
42
0.250000
0
CIRCLE
8
0
10
-1.001000
20
0.885000
40
0.030000
0
POLYLINE
8
0
66
1
40
0.008000
41
0.008000
0
VERTEX
8
0
10
-1.155000
20
-1.047000
0
VERTEX
8
0
10
1.155000
20
-1.047000
0
VERTEX
8
0
10
1.155000
20
1.047000
0
VERTEX
8
0
10
-1.155000
20
1.047000
0
VERTEX
8
0
10
-1.155000
20
-1.047000
0
SEQEND
8
0
0
CIRCLE
8
12632256
10
0.149000
20
-0.800000
40
0.213000
0
POLYLINE
8
0
66
1
40
0.008000
41
0.008000
0
VERTEX
8
0
10
0.069000
20
-0.610000
0
VERTEX
8
0
10
0.069000
20
-0.650000
0
SEQEND
8
0
0
POLYLINE
8
0
66
1
40
0.008000
41
0.008000
0
VERTEX
8
0
10
0.049000
20
-0.630000
0
VERTEX
8
0
10
0.089000
20
-0.630000
0
SEQEND
8
0
0
TEXT
8
12632256
10
0.074000
20
-0.577000
40
0.048000
41
1.041667
1
BR1
0
POLYLINE
8
0
66
1
40
0.008000
41
0.008000
0
VERTEX
8
0
10
0.899000
20
0.609000
0
VERTEX
8
0
10
0.909000
20
0.606000
0
VERTEX
8
0
10
0.919000
20
0.598000
0
VERTEX
8
0
10
0.927000
20
0.584000
0
VERTEX
8
0
10
0.934000
20
0.566000
0
VERTEX
8
0
10
0.940000
20
0.544000
0
VERTEX
8
0
10
0.945000
20
0.518000
0
VERTEX
8
0
10
0.948000
20
0.490000
0
VERTEX
8
0
10
0.949000
20
0.459000
0
SEQEND
8
0
0
POLYLINE
8
0
66
1
40
0.008000
41
0.008000
0
VERTEX
8
0
10
0.899000
20
0.309000
0
VERTEX
8
0
10
0.904000
20
0.310000
0
VERTEX
8
0
10
0.909000
20
0.312000
0
VERTEX
8
0
10
0.919000
20
0.321000
0
VERTEX
8
0
10
0.927000
20
0.334000
0
VERTEX
8
0
10
0.934000
20
0.352000
0
VERTEX
8
0
10
0.940000
20
0.375000
0
VERTEX
8
0
10
0.945000
20
0.400000
0
VERTEX
8
0
10
0.948000
20
0.428000
0
VERTEX
8
0
10
0.949000
20
0.459000
0
SEQEND
8
0
0
POLYLINE
8
0
66
1
40
0.008000
41
0.008000
0
VERTEX
8
0
10
0.899000
20
0.309000
0
VERTEX
8
0
10
0.894000
20
0.310000
0
VERTEX
8
0
10
0.889000
20
0.312000
0
VERTEX
8
0
10
0.879000
20
0.321000
0
VERTEX
8
0
10
0.871000
20
0.334000
0
VERTEX
8
0
10
0.864000
20
0.352000
0
VERTEX
8
0
10
0.858000
20
0.375000
0
VERTEX
8
0
10
0.853000
20
0.400000
0
VERTEX
8
0
10
0.850000
20
0.428000
0
VERTEX
8
0
10
0.849000
20
0.459000
0
SEQEND
8
0
0
POLYLINE
8
0
66
1
40
0.008000
41
0.008000
0
VERTEX
8
0
10
0.899000
20
0.609000
0
VERTEX
8
0
10
0.889000
20
0.606000
0
VERTEX
8
0
10
0.879000
20
0.598000
0
VERTEX
8
0
10
0.871000
20
0.584000
0
VERTEX
8
0
10
0.864000
20
0.566000
0
VERTEX
8
0
10
0.858000
20
0.544000
0
VERTEX
8
0
10
0.853000
20
0.518000
0
VERTEX
8
0
10
0.850000
20
0.490000
0
VERTEX
8
0
10
0.849000
20
0.459000
0
SEQEND
8
0
0
TEXT
8
12632256
10
1.007000
20
0.462000
40
0.048000
41
1.041667
50
90.000000
1
C1
0
POLYLINE
8
0
66
1
40
0.008000
41
0.008000
0
VERTEX
8
0
10
-0.257000
20
0.338000
0
VERTEX
8
0
10
-0.260000
20
0.328000
0
VERTEX
8
0
10
-0.268000
20
0.318000
0
VERTEX
8
0
10
-0.282000
20
0.310000
0
VERTEX
8
0
10
-0.300000
20
0.302000
0
VERTEX
8
0
10
-0.322000
20
0.296000
0
VERTEX
8
0
10
-0.348000
20
0.292000
0
VERTEX
8
0
10
-0.376000
20
0.289000
0
VERTEX
8
0
10
-0.407000
20
0.288000
0
SEQEND
8
0
0
POLYLINE
8
0
66
1
40
0.008000
41
0.008000
0
VERTEX
8
0
10
-0.557000
20
0.338000
0
VERTEX
8
0
10
-0.554000
20
0.328000
0
VERTEX
8
0
10
-0.545000
20
0.318000
0
VERTEX
8
0
10
-0.532000
20
0.310000
0
VERTEX
8
0
10
-0.514000
20
0.302000
0
VERTEX
8
0
10
-0.492000
20
0.296000
0
VERTEX
8
0
10
-0.466000
20
0.292000
0
VERTEX
8
0
10
-0.438000
20
0.289000
0
VERTEX
8
0
10
-0.407000
20
0.288000
0
SEQEND
8
0
0
POLYLINE
8
0
66
1
40
0.008000
41
0.008000
0
VERTEX
8
0
10
-0.557000
20
0.338000
0
VERTEX
8
0
10
-0.554000
20
0.348000
0
VERTEX
8
0
10
-0.545000
20
0.358000
0
VERTEX
8
0
10
-0.532000
20
0.366000
0
VERTEX
8
0
10
-0.514000
20
0.374000
0
VERTEX
8
0
10
-0.492000
20
0.380000
0
VERTEX
8
0
10
-0.466000
20
0.384000
0
VERTEX
8
0
10
-0.438000
20
0.387000
0
VERTEX
8
0
10
-0.407000
20
0.388000
0
SEQEND
8
0
0
POLYLINE
8
0
66
1
40
0.008000
41
0.008000
0
VERTEX
8
0
10
-0.257000
20
0.338000
0
VERTEX
8
0
10
-0.260000
20
0.348000
0
VERTEX
8
0
10
-0.268000
20
0.358000
0
VERTEX
8
0
10
-0.282000
20
0.366000
0
VERTEX
8
0
10
-0.300000
20
0.374000
0
VERTEX
8
0
10
-0.322000
20
0.380000
0
VERTEX
8
0
10
-0.348000
20
0.384000
0
VERTEX
8
0
10
-0.376000
20
0.387000
0
VERTEX
8
0
10
-0.407000
20
0.388000
0
SEQEND
8
0
0
TEXT
8
12632256
10
-0.407000
20
0.230000
40
0.048000
41
1.041667
1
C2
0
POLYLINE
8
0
66
1
40
0.008000
41
0.008000
0
VERTEX
8
0
10
0.051000
20
-0.358000
0
VERTEX
8
0
10
0.101000
20
-0.358000
0
SEQEND
8
0
0
POLYLINE
8
0
66
1
40
0.008000
41
0.008000
0
VERTEX
8
0
10
0.101000
20
-0.383000
0
VERTEX
8
0
10
0.301000
20
-0.383000
0
VERTEX
8
0
10
0.301000
20
-0.333000
0
VERTEX
8
0
10
0.101000
20
-0.333000
0
VERTEX
8
0
10
0.101000
20
-0.383000
0
SEQEND
8
0
0
POLYLINE
8
0
66
1
40
0.008000
41
0.008000
0
VERTEX
8
0
10
0.301000
20
-0.358000
0
VERTEX
8
0
10
0.351000
20
-0.358000
0
SEQEND
8
0
0
TEXT
8
12632256
10
0.126000
20
-0.323000
40
0.048000
41
1.041667
1
R20
0
POLYLINE
8
0
66
1
40
0.008000
41
0.008000
0
VERTEX
8
0
10
0.869000
20
-0.584000
0
VERTEX
8
0
10
0.969000
20
-0.584000
0
VERTEX
8
0
10
0.969000
20
-0.284000
0
VERTEX
8
0
10
0.869000
20
-0.284000
0
VERTEX
8
0
10
0.869000
20
-0.584000
0
SEQEND
8
0
0
POLYLINE
8
0
66
1
40
0.008000
41
0.008000
0
VERTEX
8
0
10
0.969000
20
-0.284000
0
VERTEX
8
0
10
1.019000
20
-0.284000
0
VERTEX
8
0
10
1.019000
20
-0.584000
0
VERTEX
8
0
10
0.969000
20
-0.584000
0
SEQEND
8
0
0
POLYLINE
8
0
66
1
40
0.008000
41
0.008000
0
VERTEX
8
0
10
0.969000
20
-0.284000
0
VERTEX
8
0
10
1.019000
20
-0.334000
0
SEQEND
8
0
0
POLYLINE
8
0
66
1
40
0.008000
41
0.008000
0
VERTEX
8
0
10
0.969000
20
-0.334000
0
VERTEX
8
0
10
1.019000
20
-0.384000
0
SEQEND
8
0
0
POLYLINE
8
0
66
1
40
0.008000
41
0.008000
0
VERTEX
8
0
10
0.969000
20
-0.384000
0
VERTEX
8
0
10
1.019000
20
-0.434000
0
SEQEND
8
0
0
POLYLINE
8
0
66
1
40
0.008000
41
0.008000
0
VERTEX
8
0
10
0.969000
20
-0.434000
0
VERTEX
8
0
10
1.019000
20
-0.484000
0
SEQEND
8
0
0
POLYLINE
8
0
66
1
40
0.008000
41
0.008000
0
VERTEX
8
0
10
0.969000
20
-0.484000
0
VERTEX
8
0
10
1.019000
20
-0.534000
0
SEQEND
8
0
0
POLYLINE
8
0
66
1
40
0.008000
41
0.008000
0
VERTEX
8
0
10
0.969000
20
-0.534000
0
VERTEX
8
0
10
1.019000
20
-0.584000
0
SEQEND
8
0
0
TEXT
8
12632256
10
1.077000
20
-0.509000
40
0.048000
41
1.041667
50
90.000000
1
U12
0
CIRCLE
8
12632256
10
-0.260000
20
-0.385000
40
0.115000
0
POLYLINE
8
0
66
1
40
0.008000
41
0.008000
0
VERTEX
8
0
10
-0.345000
20
-0.335000
0
VERTEX
8
0
10
-0.295000
20
-0.335000
0
SEQEND
8
0
0
POLYLINE
8
0
66
1
40
0.008000
41
0.008000
0
VERTEX
8
0
10
-0.320000
20
-0.310000
0
VERTEX
8
0
10
-0.320000
20
-0.360000
0
SEQEND
8
0
0
TEXT
8
12632256
10
-0.335000
20
-0.260000
40
0.048000
41
1.041667
1
C11
0
CIRCLE
8
12632256
10
0.618000
20
-0.622000
40
0.100000
0
POLYLINE
8
0
66
1
40
0.008000
41
0.008000
0
VERTEX
8
0
10
0.693000
20
-0.672000
0
VERTEX
8
0
10
0.643000
20
-0.672000
0
SEQEND
8
0
0
POLYLINE
8
0
66
1
40
0.008000
41
0.008000
0
VERTEX
8
0
10
0.668000
20
-0.697000
0
VERTEX
8
0
10
0.668000
20
-0.647000
0
SEQEND
8
0
0
TEXT
8
12632256
10
0.543000
20
-0.780000
40
0.048000
41
1.041667
1
C12
0
POLYLINE
8
0
66
1
40
0.008000
41
0.008000
0
VERTEX
8
0
10
0.442000
20
-0.913000
0
VERTEX
8
0
10
0.445000
20
-0.903000
0
VERTEX
8
0
10
0.453000
20
-0.893000
0
VERTEX
8
0
10
0.467000
20
-0.885000
0
VERTEX
8
0
10
0.485000
20
-0.878000
0
VERTEX
8
0
10
0.507000
20
-0.871000
0
VERTEX
8
0
10
0.533000
20
-0.867000
0
VERTEX
8
0
10
0.561000
20
-0.864000
0
VERTEX
8
0
10
0.592000
20
-0.863000
0
SEQEND
8
0
0
POLYLINE
8
0
66
1
40
0.008000
41
0.008000
0
VERTEX
8
0
10
0.742000
20
-0.913000
0
VERTEX
8
0
10
0.739000
20
-0.903000
0
VERTEX
8
0
10
0.730000
20
-0.893000
0
VERTEX
8
0
10
0.716000
20
-0.885000
0
VERTEX
8
0
10
0.698000
20
-0.878000
0
VERTEX
8
0
10
0.676000
20
-0.871000
0
VERTEX
8
0
10
0.651000
20
-0.867000
0
VERTEX
8
0
10
0.623000
20
-0.864000
0
VERTEX
8
0
10
0.592000
20
-0.863000
0
SEQEND
8
0
0
POLYLINE
8
0
66
1
40
0.008000
41
0.008000
0
VERTEX
8
0
10
0.742000
20
-0.913000
0
VERTEX
8
0
10
0.739000
20
-0.923000
0
VERTEX
8
0
10
0.730000
20
-0.933000
0
VERTEX
8
0
10
0.716000
20
-0.941000
0
VERTEX
8
0
10
0.698000
20
-0.948000
0
VERTEX
8
0
10
0.676000
20
-0.955000
0
VERTEX
8
0
10
0.651000
20
-0.959000
0
VERTEX
8
0
10
0.623000
20
-0.962000
0
VERTEX
8
0
10
0.592000
20
-0.963000
0
SEQEND
8
0
0
POLYLINE
8
0
66
1
40
0.008000
41
0.008000
0
VERTEX
8
0
10
0.442000
20
-0.913000
0
VERTEX
8
0
10
0.445000
20
-0.923000
0
VERTEX
8
0
10
0.453000
20
-0.933000
0
VERTEX
8
0
10
0.467000
20
-0.941000
0
VERTEX
8
0
10
0.485000
20
-0.948000
0
VERTEX
8
0
10
0.507000
20
-0.955000
0
VERTEX
8
0
10
0.533000
20
-0.959000
0
VERTEX
8
0
10
0.561000
20
-0.962000
0
VERTEX
8
0
10
0.592000
20
-0.963000
0
SEQEND
8
0
0
TEXT
8
12632256
10
0.467000
20
-0.853000
40
0.048000
41
1.041667
1
C13
0
POLYLINE
8
0
66
1
40
0.008000
41
0.008000
0
VERTEX
8
0
10
-0.351000
20
-0.987000
0
VERTEX
8
0
10
-0.351000
20
-0.587000
0
SEQEND
8
0
0
POLYLINE
8
0
66
1
40
0.008000
41
0.008000
0
VERTEX
8
0
10
-0.751000
20
-0.987000
0
VERTEX
8
0
10
-0.751000
20
-0.587000
0
SEQEND
8
0
0
POLYLINE
8
0
66
1
40
0.008000
41
0.008000
0
VERTEX
8
0
10
-0.351000
20
-0.587000
0
VERTEX
8
0
10
-0.751000
20
-0.587000
0
SEQEND
8
0
0
POLYLINE
8
0
66
1
40
0.008000
41
0.008000
0
VERTEX
8
0
10
-0.351000
20
-0.987000
0
VERTEX
8
0
10
-0.751000
20
-0.987000
0
SEQEND
8
0
0
TEXT
8
12632256
10
-0.601000
20
-0.553000
40
0.048000
41
1.041667
1
J8
0
POLYLINE
8
0
66
1
40
0.008000
41
0.008000
0
VERTEX
8
0
10
-0.174000
20
0.499000
0
VERTEX
8
0
10
-0.174000
20
0.549000
0
SEQEND
8
0
0
POLYLINE
8
0
66
1
40
0.008000
41
0.008000
0
VERTEX
8
0
10
-0.174000
20
0.349000
0
VERTEX
8
0
10
-0.174000
20
0.399000
0
SEQEND
8
0
0
POLYLINE
8
0
66
1
40
0.008000
41
0.008000
0
VERTEX
8
0
10
-0.124000
20
0.449000
0
VERTEX
8
0
10
-0.125000
20
0.459000
0
VERTEX
8
0
10
-0.128000
20
0.469000
0
VERTEX
8
0
10
-0.132000
20
0.477000
0
VERTEX
8
0
10
-0.138000
20
0.484000
0
VERTEX
8
0
10
-0.145000
20
0.491000
0
VERTEX
8
0
10
-0.154000
20
0.495000
0
VERTEX
8
0
10
-0.164000
20
0.498000
0
VERTEX
8
0
10
-0.174000
20
0.499000
0
SEQEND
8
0
0
POLYLINE
8
0
66
1
40
0.008000
41
0.008000
0
VERTEX
8
0
10
-0.124000
20
0.449000
0
VERTEX
8
0
10
-0.125000
20
0.439000
0
VERTEX
8
0
10
-0.128000
20
0.429000
0
VERTEX
8
0
10
-0.132000
20
0.420000
0
VERTEX
8
0
10
-0.138000
20
0.413000
0
VERTEX
8
0
10
-0.145000
20
0.407000
0
VERTEX
8
0
10
-0.154000
20
0.403000
0
VERTEX
8
0
10
-0.164000
20
0.400000
0
VERTEX
8
0
10
-0.174000
20
0.399000
0
SEQEND
8
0
0
POLYLINE
8
0
66
1
40
0.008000
41
0.008000
0
VERTEX
8
0
10
-0.174000
20
0.349000
0
VERTEX
8
0
10
0.525000
20
0.349000
0
VERTEX
8
0
10
0.525000
20
0.549000
0
VERTEX
8
0
10
-0.174000
20
0.549000
0
SEQEND
8
0
0
TEXT
8
12632256
10
-0.184000
20
0.399000
40
0.048000
41
1.041667
50
90.000000
1
U1
0
POLYLINE
8
0
66
1
40
0.008000
41
0.008000
0
VERTEX
8
0
10
0.509000
20
0.106000
0
VERTEX
8
0
10
0.459000
20
0.106000
0
SEQEND
8
0
0
POLYLINE
8
0
66
1
40
0.008000
41
0.008000
0
VERTEX
8
0
10
0.259000
20
0.081000
0
VERTEX
8
0
10
0.459000
20
0.081000
0
VERTEX
8
0
10
0.459000
20
0.131000
0
VERTEX
8
0
10
0.259000
20
0.131000
0
VERTEX
8
0
10
0.259000
20
0.081000
0
SEQEND
8
0
0
POLYLINE
8
0
66
1
40
0.008000
41
0.008000
0
VERTEX
8
0
10
0.259000
20
0.106000
0
VERTEX
8
0
10
0.209000
20
0.106000
0
SEQEND
8
0
0
TEXT
8
12632256
10
0.317000
20
0.149000
40
0.048000
41
1.041667
1
R4
0
POLYLINE
8
0
66
1
40
0.008000
41
0.008000
0
VERTEX
8
0
10
1.072000
20
0.222000
0
VERTEX
8
0
10
0.672000
20
0.222000
0
SEQEND
8
0
0
POLYLINE
8
0
66
1
40
0.008000
41
0.008000
0
VERTEX
8
0
10
1.072000
20
-0.177000
0
VERTEX
8
0
10
0.672000
20
-0.177000
0
SEQEND
8
0
0
POLYLINE
8
0
66
1
40
0.008000
41
0.008000
0
VERTEX
8
0
10
0.672000
20
0.222000
0
VERTEX
8
0
10
0.672000
20
-0.177000
0
SEQEND
8
0
0
POLYLINE
8
0
66
1
40
0.008000
41
0.008000
0
VERTEX
8
0
10
1.072000
20
0.222000
0
VERTEX
8
0
10
1.072000
20
-0.177000
0
SEQEND
8
0
0
TEXT
8
12632256
10
1.141000
20
-0.039000
40
0.048000
41
1.041667
50
90.000000
1
J3
0
CIRCLE
8
12632256
10
0.603000
20
-0.295000
40
0.100000
0
POLYLINE
8
0
66
1
40
0.008000
41
0.008000
0
VERTEX
8
0
10
0.528000
20
-0.245000
0
VERTEX
8
0
10
0.578000
20
-0.245000
0
SEQEND
8
0
0
POLYLINE
8
0
66
1
40
0.008000
41
0.008000
0
VERTEX
8
0
10
0.553000
20
-0.220000
0
VERTEX
8
0
10
0.553000
20
-0.270000
0
SEQEND
8
0
0
TEXT
8
12632256
10
0.568000
20
-0.472000
40
0.048000
41
1.041667
1
C4
0
POLYLINE
8
0
66
1
40
0.008000
41
0.008000
0
VERTEX
8
0
10
0.505000
20
-0.047000
0
VERTEX
8
0
10
0.455000
20
-0.047000
0
SEQEND
8
0
0
POLYLINE
8
0
66
1
40
0.008000
41
0.008000
0
VERTEX
8
0
10
0.255000
20
-0.072000
0
VERTEX
8
0
10
0.455000
20
-0.072000
0
VERTEX
8
0
10
0.455000
20
-0.022000
0
VERTEX
8
0
10
0.255000
20
-0.022000
0
VERTEX
8
0
10
0.255000
20
-0.072000
0
SEQEND
8
0
0
POLYLINE
8
0
66
1
40
0.008000
41
0.008000
0
VERTEX
8
0
10
0.255000
20
-0.047000
0
VERTEX
8
0
10
0.205000
20
-0.047000
0
SEQEND
8
0
0
TEXT
8
12632256
10
0.305000
20
-0.130000
40
0.048000
41
1.041667
1
R1
0
POLYLINE
8
0
66
1
40
0.008000
41
0.008000
0
VERTEX
8
0
10
-0.448000
20
0.106000
0
VERTEX
8
0
10
-0.398000
20
0.106000
0
SEQEND
8
0
0
POLYLINE
8
0
66
1
40
0.008000
41
0.008000
0
VERTEX
8
0
10
-0.398000
20
0.081000
0
VERTEX
8
0
10
-0.198000
20
0.081000
0
VERTEX
8
0
10
-0.198000
20
0.131000
0
VERTEX
8
0
10
-0.398000
20
0.131000
0
VERTEX
8
0
10
-0.398000
20
0.081000
0
SEQEND
8
0
0
POLYLINE
8
0
66
1
40
0.008000
41
0.008000
0
VERTEX
8
0
10
-0.198000
20
0.106000
0
VERTEX
8
0
10
-0.148000
20
0.106000
0
SEQEND
8
0
0
TEXT
8
12632256
10
-0.348000
20
0.141000
40
0.048000
41
1.041667
1
R2
0
POLYLINE
8
0
66
1
40
0.008000
41
0.008000
0
VERTEX
8
0
10
-0.444000
20
-0.074000
0
VERTEX
8
0
10
-0.394000
20
-0.074000
0
SEQEND
8
0
0
POLYLINE
8
0
66
1
40
0.008000
41
0.008000
0
VERTEX
8
0
10
-0.394000
20
-0.099000
0
VERTEX
8
0
10
-0.194000
20
-0.099000
0
VERTEX
8
0
10
-0.194000
20
-0.049000
0
VERTEX
8
0
10
-0.394000
20
-0.049000
0
VERTEX
8
0
10
-0.394000
20
-0.099000
0
SEQEND
8
0
0
POLYLINE
8
0
66
1
40
0.008000
41
0.008000
0
VERTEX
8
0
10
-0.194000
20
-0.074000
0
VERTEX
8
0
10
-0.144000
20
-0.074000
0
SEQEND
8
0
0
TEXT
8
12632256
10
-0.344000
20
-0.039000
40
0.048000
41
1.041667
1
R3
0
POLYLINE
8
0
66
1
40
0.008000
41
0.008000
0
VERTEX
8
0
10
0.051000
20
0.744000
0
VERTEX
8
0
10
0.101000
20
0.744000
0
SEQEND
8
0
0
POLYLINE
8
0
66
1
40
0.008000
41
0.008000
0
VERTEX
8
0
10
0.101000
20
0.719000
0
VERTEX
8
0
10
0.301000
20
0.719000
0
VERTEX
8
0
10
0.301000
20
0.769000
0
VERTEX
8
0
10
0.101000
20
0.769000
0
VERTEX
8
0
10
0.101000
20
0.719000
0
SEQEND
8
0
0
POLYLINE
8
0
66
1
40
0.008000
41
0.008000
0
VERTEX
8
0
10
0.301000
20
0.744000
0
VERTEX
8
0
10
0.351000
20
0.744000
0
SEQEND
8
0
0
TEXT
8
12632256
10
0.151000
20
0.779000
40
0.048000
41
1.041667
1
R5
0
POLYLINE
8
0
66
1
40
0.008000
41
0.008000
0
VERTEX
8
0
10
0.350000
20
0.897000
0
VERTEX
8
0
10
0.300000
20
0.897000
0
SEQEND
8
0
0
POLYLINE
8
0
66
1
40
0.008000
41
0.008000
0
VERTEX
8
0
10
0.100000
20
0.872000
0
VERTEX
8
0
10
0.300000
20
0.872000
0
VERTEX
8
0
10
0.300000
20
0.922000
0
VERTEX
8
0
10
0.100000
20
0.922000
0
VERTEX
8
0
10
0.100000
20
0.872000
0
SEQEND
8
0
0
POLYLINE
8
0
66
1
40
0.008000
41
0.008000
0
VERTEX
8
0
10
0.100000
20
0.897000
0
VERTEX
8
0
10
0.050000
20
0.897000
0
SEQEND
8
0
0
TEXT
8
12632256
10
0.134000
20
0.940000
40
0.048000
41
1.041667
1
R6
0
POLYLINE
8
0
66
1
40
0.008000
41
0.008000
0
VERTEX
8
0
10
-0.683000
20
0.584000
0
VERTEX
8
0
10
-1.083000
20
0.584000
0
SEQEND
8
0
0
POLYLINE
8
0
66
1
40
0.008000
41
0.008000
0
VERTEX
8
0
10
-0.683000
20
0.184000
0
VERTEX
8
0
10
-1.083000
20
0.184000
0
SEQEND
8
0
0
POLYLINE
8
0
66
1
40
0.008000
41
0.008000
0
VERTEX
8
0
10
-1.083000
20
0.584000
0
VERTEX
8
0
10
-1.083000
20
0.184000
0
SEQEND
8
0
0
POLYLINE
8
0
66
1
40
0.008000
41
0.008000
0
VERTEX
8
0
10
-0.683000
20
0.584000
0
VERTEX
8
0
10
-0.683000
20
0.184000
0
SEQEND
8
0
0
TEXT
8
12632256
10
-1.090000
20
0.346000
40
0.048000
41
1.041667
50
90.000000
1
J1
0
POLYLINE
8
0
66
1
40
0.008000
41
0.008000
0
VERTEX
8
0
10
-0.664000
20
0.060000
0
VERTEX
8
0
10
-1.064000
20
0.060000
0
SEQEND
8
0
0
POLYLINE
8
0
66
1
40
0.008000
41
0.008000
0
VERTEX
8
0
10
-0.664000
20
-0.339000
0
VERTEX
8
0
10
-1.064000
20
-0.339000
0
SEQEND
8
0
0
POLYLINE
8
0
66
1
40
0.008000
41
0.008000
0
VERTEX
8
0
10
-1.064000
20
0.060000
0
VERTEX
8
0
10
-1.064000
20
-0.339000
0
SEQEND
8
0
0
POLYLINE
8
0
66
1
40
0.008000
41
0.008000
0
VERTEX
8
0
10
-0.664000
20
0.060000
0
VERTEX
8
0
10
-0.664000
20
-0.339000
0
SEQEND
8
0
0
TEXT
8
12632256
10
-1.082000
20
-0.185000
40
0.048000
41
1.041667
50
90.000000
1
J2
0
POLYLINE
8
0
66
1
40
0.008000
41
0.008000
0
VERTEX
8
0
10
0.589000
20
0.788000
0
VERTEX
8
0
10
0.789000
20
0.788000
0
VERTEX
8
0
10
0.789000
20
0.888000
0
VERTEX
8
0
10
0.589000
20
0.888000
0
VERTEX
8
0
10
0.589000
20
0.788000
0
SEQEND
8
0
0
TEXT
8
12632256
10
0.635000
20
0.951000
40
0.048000
41
1.041667
1
J4
0
POLYLINE
8
0
66
1
40
0.008000
41
0.008000
0
VERTEX
8
0
10
0.667000
20
0.620000
0
VERTEX
8
0
10
0.677000
20
0.617000
0
VERTEX
8
0
10
0.687000
20
0.609000
0
VERTEX
8
0
10
0.695000
20
0.595000
0
VERTEX
8
0
10
0.702000
20
0.577000
0
VERTEX
8
0
10
0.708000
20
0.555000
0
VERTEX
8
0
10
0.713000
20
0.529000
0
VERTEX
8
0
10
0.716000
20
0.501000
0
VERTEX
8
0
10
0.717000
20
0.470000
0
SEQEND
8
0
0
POLYLINE
8
0
66
1
40
0.008000
41
0.008000
0
VERTEX
8
0
10
0.667000
20
0.320000
0
VERTEX
8
0
10
0.672000
20
0.321000
0
VERTEX
8
0
10
0.677000
20
0.323000
0
VERTEX
8
0
10
0.687000
20
0.332000
0
VERTEX
8
0
10
0.695000
20
0.345000
0
VERTEX
8
0
10
0.702000
20
0.364000
0
VERTEX
8
0
10
0.708000
20
0.386000
0
VERTEX
8
0
10
0.713000
20
0.411000
0
VERTEX
8
0
10
0.716000
20
0.439000
0
VERTEX
8
0
10
0.717000
20
0.470000
0
SEQEND
8
0
0
POLYLINE
8
0
66
1
40
0.008000
41
0.008000
0
VERTEX
8
0
10
0.667000
20
0.320000
0
VERTEX
8
0
10
0.662000
20
0.321000
0
VERTEX
8
0
10
0.657000
20
0.323000
0
VERTEX
8
0
10
0.647000
20
0.332000
0
VERTEX
8
0
10
0.639000
20
0.345000
0
VERTEX
8
0
10
0.632000
20
0.364000
0
VERTEX
8
0
10
0.626000
20
0.386000
0
VERTEX
8
0
10
0.621000
20
0.411000
0
VERTEX
8
0
10
0.618000
20
0.439000
0
VERTEX
8
0
10
0.617000
20
0.470000
0
SEQEND
8
0
0
POLYLINE
8
0
66
1
40
0.008000
41
0.008000
0
VERTEX
8
0
10
0.667000
20
0.620000
0
VERTEX
8
0
10
0.657000
20
0.617000
0
VERTEX
8
0
10
0.647000
20
0.609000
0
VERTEX
8
0
10
0.639000
20
0.595000
0
VERTEX
8
0
10
0.632000
20
0.577000
0
VERTEX
8
0
10
0.626000
20
0.555000
0
VERTEX
8
0
10
0.621000
20
0.529000
0
VERTEX
8
0
10
0.618000
20
0.501000
0
VERTEX
8
0
10
0.617000
20
0.470000
0
SEQEND
8
0
0
TEXT
8
12632256
10
0.779000
20
0.431000
40
0.048000
41
1.041667
50
90.000000
1
C3
0
TEXT
8
12632256
10
-0.563000
20
0.019000
40
0.040000
41
1.250000
50
-90.000000
1
CONTROL
0
TEXT
8
12632256
10
-0.634000
20
-0.003000
40
0.040000
41
1.250000
50
-90.000000
1
DAMPER
0
TEXT
8
12632256
10
-0.638000
20
0.555000
40
0.040000
41
1.250000
50
-90.000000
1
FEEDBACK
0
TEXT
8
12632256
10
-0.651000
20
0.653000
40
0.064000
41
1.093750
50
-90.000000
1
+
0
TEXT
8
12632256
10
-0.647000
20
0.086000
40
0.064000
41
1.093750
50
-90.000000
1
+
0
TEXT
8
12632256
10
-0.651000
20
-0.318000
40
0.064000
41
1.093750
50
-90.000000
1
-
0
TEXT
8
12632256
10
-0.690000
20
-0.497000
40
0.048000
41
1.250000
1
9 VAC
0
TEXT
8
12632256
10
0.642000
20
-0.173000
40
0.040000
41
1.250000
50
90.000000
1
-IN PWM+
0
TEXT
8
12632256
10
-0.871000
20
-0.377000
40
0.064000
41
1.093750
50
-90.000000
1
ACOPLE
0
TEXT
8
12632256
10
-0.958000
20
-0.346000
40
0.064000
41
1.093750
50
-90.000000
1
DAMPER
0
POLYLINE
8
0
66
1
40
0.000000
41
0.000000
0
VERTEX
8
0
10
-0.859000
20
0.689000
0
VERTEX
8
0
10
-0.030000
20
0.689000
0
VERTEX
8
0
10
-0.030000
20
1.027000
0
VERTEX
8
0
10
-0.859000
20
1.027000
0
VERTEX
8
0
10
-0.859000
20
0.689000
0
SEQEND
8
0
0
TEXT
8
12632256
10
0.517000
20
0.682000
40
0.040000
41
1.250000
1
FEDDBACK
0
TEXT
8
12632256
10
0.592000
20
0.630000
40
0.040000
41
1.250000
1
PIC
0
TEXT
8
12632256
10
0.592000
20
0.997000
40
0.040000
41
1.250000
1
-  +
0
ENDSEC
0
EOF

