  0
SECTION
  2
HEADER
  9
$ACADVER
  1
AC2.10
  0
ENDSEC
  0
SECTION
  2
TABLES
  0
TABLE
  2
LAYER
 70
     8
  0
LAYER
  2
0
 62
     7
 70
0
  6
CONTINUOUS
  0
LAYER
  2
1
 62
     1
 70
0
  6
CONTINUOUS
  0
LAYER
  2
2
 62
     2
 70
0
  6
CONTINUOUS
  0
LAYER
  2
3
 62
     3
 70
0
  6
CONTINUOUS
  0
LAYER
  2
4
 62
     4
 70
0
  6
CONTINUOUS
  0
LAYER
  2
5
 62
     5
 70
0
  6
CONTINUOUS
  0
LAYER
  2
6
 62
     6
 70
0
  6
CONTINUOUS
  0
LAYER
  2
7
 62
     7
 70
0
  6
CONTINUOUS
  0
ENDTAB
  0
TABLE
  2
STYLE
 70
     1
  0
STYLE
 70
     0
  2
STANDARD
  3
TXT
 40
0.00
 41
1.00
 42
1.00
 50
0.00
 71
     0
  0
ENDTAB
  0
ENDSEC
  0
SECTION
  2
BLOCKS
  0
BLOCK
  8
0
  2
EPAD
 70
0
 10
0.0
 20
0.0
  0
POLYLINE
  8
0
 66
1
 70
1
 40
0.5
 41
0.5
  0
VERTEX
  8
0
 10
-0.25
 20
0.0
 42
1.0
  0
VERTEX
  8
0
 10
0.25
 20
0.0
 42
1.0
  0
SEQEND
  8
0
  0
ENDBLK
  8
0
  0
BLOCK
  8
0
  2
RPAD
 70
0
 10
0.0
 20
0.0
  0
TRACE
  8
0
 10
-0.5
 20
-0.5
 11
-0.5
 21
0.5
 12
0.5
 22
-0.5
 13
0.5
 23
0.5
  0
ENDBLK
  8
0
  0
ENDSEC
0
SECTION
2
ENTITIES
0
INSERT
8
0
2
EPAD
10
-2.143000
20
-1.057000
41
0.250000
42
0.250000
0
CIRCLE
8
0
10
-2.143000
20
-1.057000
40
0.030000
0
INSERT
8
0
2
EPAD
10
-2.133000
20
1.072000
41
0.250000
42
0.250000
0
CIRCLE
8
0
10
-2.133000
20
1.072000
40
0.030000
0
INSERT
8
0
2
EPAD
10
2.153000
20
1.064000
41
0.250000
42
0.250000
0
CIRCLE
8
0
10
2.153000
20
1.064000
40
0.030000
0
INSERT
8
0
2
EPAD
10
2.124000
20
-1.068000
41
0.250000
42
0.250000
0
CIRCLE
8
0
10
2.124000
20
-1.068000
40
0.030000
0
INSERT
8
0
2
RPAD
10
-0.173000
20
-1.037000
41
0.080000
42
0.080000
50
0.000000
0
CIRCLE
8
0
10
-0.173000
20
-1.037000
40
0.025000
0
INSERT
8
0
2
RPAD
10
-0.073000
20
-1.037000
41
0.080000
42
0.080000
50
0.000000
0
CIRCLE
8
0
10
-0.073000
20
-1.037000
40
0.025000
0
INSERT
8
0
2
RPAD
10
0.026000
20
-1.037000
41
0.080000
42
0.080000
50
0.000000
0
CIRCLE
8
0
10
0.026000
20
-1.037000
40
0.025000
0
INSERT
8
0
2
RPAD
10
0.126000
20
-1.037000
41
0.080000
42
0.080000
50
0.000000
0
CIRCLE
8
0
10
0.126000
20
-1.037000
40
0.025000
0
INSERT
8
0
2
RPAD
10
0.226000
20
-1.037000
41
0.080000
42
0.080000
50
0.000000
0
CIRCLE
8
0
10
0.226000
20
-1.037000
40
0.025000
0
INSERT
8
0
2
RPAD
10
0.326000
20
-1.037000
41
0.080000
42
0.080000
50
0.000000
0
CIRCLE
8
0
10
0.326000
20
-1.037000
40
0.025000
0
INSERT
8
0
2
RPAD
10
0.426000
20
-1.037000
41
0.080000
42
0.080000
50
0.000000
0
CIRCLE
8
0
10
0.426000
20
-1.037000
40
0.025000
0
INSERT
8
0
2
RPAD
10
0.526000
20
-1.037000
41
0.080000
42
0.080000
50
0.000000
0
CIRCLE
8
0
10
0.526000
20
-1.037000
40
0.025000
0
INSERT
8
0
2
RPAD
10
0.626000
20
-1.037000
41
0.080000
42
0.080000
50
0.000000
0
CIRCLE
8
0
10
0.626000
20
-1.037000
40
0.025000
0
INSERT
8
0
2
EPAD
10
-0.543000
20
0.950000
41
0.120000
42
0.120000
0
CIRCLE
8
0
10
-0.543000
20
0.950000
40
0.030000
0
INSERT
8
0
2
EPAD
10
-0.343000
20
0.950000
41
0.120000
42
0.120000
0
CIRCLE
8
0
10
-0.343000
20
0.950000
40
0.030000
0
INSERT
8
0
2
EPAD
10
-0.143000
20
0.950000
41
0.120000
42
0.120000
0
CIRCLE
8
0
10
-0.143000
20
0.950000
40
0.030000
0
INSERT
8
0
2
EPAD
10
0.056000
20
0.950000
41
0.120000
42
0.120000
0
CIRCLE
8
0
10
0.056000
20
0.950000
40
0.030000
0
INSERT
8
0
2
EPAD
10
0.256000
20
0.950000
41
0.120000
42
0.120000
0
CIRCLE
8
0
10
0.256000
20
0.950000
40
0.030000
0
INSERT
8
0
2
EPAD
10
0.456000
20
0.950000
41
0.120000
42
0.120000
0
CIRCLE
8
0
10
0.456000
20
0.950000
40
0.030000
0
INSERT
8
0
2
EPAD
10
0.656000
20
0.950000
41
0.120000
42
0.120000
0
CIRCLE
8
0
10
0.656000
20
0.950000
40
0.030000
0
INSERT
8
0
2
EPAD
10
0.856000
20
0.950000
41
0.120000
42
0.120000
0
CIRCLE
8
0
10
0.856000
20
0.950000
40
0.030000
0
INSERT
8
0
2
EPAD
10
-1.398000
20
-0.309000
41
0.070000
42
0.070000
0
CIRCLE
8
0
10
-1.398000
20
-0.309000
40
0.025000
0
INSERT
8
0
2
EPAD
10
-1.398000
20
-0.709000
41
0.070000
42
0.070000
0
CIRCLE
8
0
10
-1.398000
20
-0.709000
40
0.025000
0
INSERT
8
0
2
EPAD
10
-1.000000
20
0.151000
41
0.070000
42
0.070000
0
CIRCLE
8
0
10
-1.000000
20
0.151000
40
0.025000
0
INSERT
8
0
2
EPAD
10
-1.000000
20
-0.248000
41
0.070000
42
0.070000
0
CIRCLE
8
0
10
-1.000000
20
-0.248000
40
0.025000
0
INSERT
8
0
2
EPAD
10
-0.665000
20
-0.352000
41
0.070000
42
0.070000
0
CIRCLE
8
0
10
-0.665000
20
-0.352000
40
0.025000
0
INSERT
8
0
2
EPAD
10
-0.665000
20
-0.752000
41
0.070000
42
0.070000
0
CIRCLE
8
0
10
-0.665000
20
-0.752000
40
0.025000
0
INSERT
8
0
2
EPAD
10
-0.220000
20
0.151000
41
0.070000
42
0.070000
0
CIRCLE
8
0
10
-0.220000
20
0.151000
40
0.025000
0
INSERT
8
0
2
EPAD
10
-0.220000
20
-0.248000
41
0.070000
42
0.070000
0
CIRCLE
8
0
10
-0.220000
20
-0.248000
40
0.025000
0
INSERT
8
0
2
EPAD
10
0.113000
20
-0.360000
41
0.070000
42
0.070000
0
CIRCLE
8
0
10
0.113000
20
-0.360000
40
0.025000
0
INSERT
8
0
2
EPAD
10
0.113000
20
-0.760000
41
0.070000
42
0.070000
0
CIRCLE
8
0
10
0.113000
20
-0.760000
40
0.025000
0
INSERT
8
0
2
EPAD
10
0.554000
20
0.155000
41
0.070000
42
0.070000
0
CIRCLE
8
0
10
0.554000
20
0.155000
40
0.025000
0
INSERT
8
0
2
EPAD
10
0.554000
20
-0.244000
41
0.070000
42
0.070000
0
CIRCLE
8
0
10
0.554000
20
-0.244000
40
0.025000
0
INSERT
8
0
2
EPAD
10
-2.061000
20
-0.273000
41
0.070000
42
0.070000
0
CIRCLE
8
0
10
-2.061000
20
-0.273000
40
0.025000
0
INSERT
8
0
2
EPAD
10
-2.061000
20
-0.673000
41
0.070000
42
0.070000
0
CIRCLE
8
0
10
-2.061000
20
-0.673000
40
0.025000
0
INSERT
8
0
2
EPAD
10
-1.673000
20
0.277000
41
0.070000
42
0.070000
0
CIRCLE
8
0
10
-1.673000
20
0.277000
40
0.025000
0
INSERT
8
0
2
EPAD
10
-1.673000
20
-0.122000
41
0.070000
42
0.070000
0
CIRCLE
8
0
10
-1.673000
20
-0.122000
40
0.025000
0
INSERT
8
0
2
EPAD
10
0.889000
20
-0.411000
41
0.070000
42
0.070000
0
CIRCLE
8
0
10
0.889000
20
-0.411000
40
0.025000
0
INSERT
8
0
2
EPAD
10
0.889000
20
-0.811000
41
0.070000
42
0.070000
0
CIRCLE
8
0
10
0.889000
20
-0.811000
40
0.025000
0
INSERT
8
0
2
EPAD
10
1.365000
20
0.183000
41
0.070000
42
0.070000
0
CIRCLE
8
0
10
1.365000
20
0.183000
40
0.025000
0
INSERT
8
0
2
EPAD
10
1.365000
20
-0.216000
41
0.070000
42
0.070000
0
CIRCLE
8
0
10
1.365000
20
-0.216000
40
0.025000
0
INSERT
8
0
2
EPAD
10
1.763000
20
-0.395000
41
0.070000
42
0.070000
0
CIRCLE
8
0
10
1.763000
20
-0.395000
40
0.025000
0
INSERT
8
0
2
EPAD
10
1.763000
20
-0.795000
41
0.070000
42
0.070000
0
CIRCLE
8
0
10
1.763000
20
-0.795000
40
0.025000
0
INSERT
8
0
2
EPAD
10
2.184000
20
0.210000
41
0.070000
42
0.070000
0
CIRCLE
8
0
10
2.184000
20
0.210000
40
0.025000
0
INSERT
8
0
2
EPAD
10
2.184000
20
-0.189000
41
0.070000
42
0.070000
0
CIRCLE
8
0
10
2.184000
20
-0.189000
40
0.025000
0
INSERT
8
0
2
RPAD
10
-1.394000
20
-0.143000
41
0.050000
42
0.050000
50
0.000000
0
CIRCLE
8
0
10
-1.394000
20
-0.143000
40
0.030000
0
INSERT
8
0
2
EPAD
10
-1.294000
20
-0.143000
41
0.050000
42
0.050000
0
CIRCLE
8
0
10
-1.294000
20
-0.143000
40
0.030000
0
INSERT
8
0
2
EPAD
10
-1.194000
20
-0.143000
41
0.050000
42
0.050000
0
CIRCLE
8
0
10
-1.194000
20
-0.143000
40
0.030000
0
INSERT
8
0
2
EPAD
10
-1.194000
20
0.156000
41
0.050000
42
0.050000
0
CIRCLE
8
0
10
-1.194000
20
0.156000
40
0.030000
0
INSERT
8
0
2
EPAD
10
-1.294000
20
0.156000
41
0.050000
42
0.050000
0
CIRCLE
8
0
10
-1.294000
20
0.156000
40
0.030000
0
INSERT
8
0
2
EPAD
10
-1.394000
20
0.156000
41
0.050000
42
0.050000
0
CIRCLE
8
0
10
-1.394000
20
0.156000
40
0.030000
0
INSERT
8
0
2
RPAD
10
-2.061000
20
-0.120000
41
0.050000
42
0.050000
50
0.000000
0
CIRCLE
8
0
10
-2.061000
20
-0.120000
40
0.030000
0
INSERT
8
0
2
EPAD
10
-1.961000
20
-0.120000
41
0.050000
42
0.050000
0
CIRCLE
8
0
10
-1.961000
20
-0.120000
40
0.030000
0
INSERT
8
0
2
EPAD
10
-1.861000
20
-0.120000
41
0.050000
42
0.050000
0
CIRCLE
8
0
10
-1.861000
20
-0.120000
40
0.030000
0
INSERT
8
0
2
EPAD
10
-1.861000
20
0.179000
41
0.050000
42
0.050000
0
CIRCLE
8
0
10
-1.861000
20
0.179000
40
0.030000
0
INSERT
8
0
2
EPAD
10
-1.961000
20
0.179000
41
0.050000
42
0.050000
0
CIRCLE
8
0
10
-1.961000
20
0.179000
40
0.030000
0
INSERT
8
0
2
EPAD
10
-2.061000
20
0.179000
41
0.050000
42
0.050000
0
CIRCLE
8
0
10
-2.061000
20
0.179000
40
0.030000
0
INSERT
8
0
2
RPAD
10
-1.203000
20
0.474000
41
0.080000
42
0.080000
50
180.000000
0
CIRCLE
8
0
10
-1.203000
20
0.474000
40
0.025000
0
INSERT
8
0
2
RPAD
10
-1.303000
20
0.474000
41
0.080000
42
0.080000
50
180.000000
0
CIRCLE
8
0
10
-1.303000
20
0.474000
40
0.025000
0
INSERT
8
0
2
RPAD
10
-1.403000
20
0.474000
41
0.080000
42
0.080000
50
180.000000
0
CIRCLE
8
0
10
-1.403000
20
0.474000
40
0.025000
0
INSERT
8
0
2
RPAD
10
-1.857000
20
0.482000
41
0.080000
42
0.080000
50
180.000000
0
CIRCLE
8
0
10
-1.857000
20
0.482000
40
0.025000
0
INSERT
8
0
2
RPAD
10
-1.957000
20
0.482000
41
0.080000
42
0.080000
50
180.000000
0
CIRCLE
8
0
10
-1.957000
20
0.482000
40
0.025000
0
INSERT
8
0
2
RPAD
10
-2.057000
20
0.482000
41
0.080000
42
0.080000
50
180.000000
0
CIRCLE
8
0
10
-2.057000
20
0.482000
40
0.025000
0
INSERT
8
0
2
RPAD
10
-0.669000
20
-0.139000
41
0.050000
42
0.050000
50
0.000000
0
CIRCLE
8
0
10
-0.669000
20
-0.139000
40
0.030000
0
INSERT
8
0
2
EPAD
10
-0.569000
20
-0.139000
41
0.050000
42
0.050000
0
CIRCLE
8
0
10
-0.569000
20
-0.139000
40
0.030000
0
INSERT
8
0
2
EPAD
10
-0.469000
20
-0.139000
41
0.050000
42
0.050000
0
CIRCLE
8
0
10
-0.469000
20
-0.139000
40
0.030000
0
INSERT
8
0
2
EPAD
10
-0.469000
20
0.160000
41
0.050000
42
0.050000
0
CIRCLE
8
0
10
-0.469000
20
0.160000
40
0.030000
0
INSERT
8
0
2
EPAD
10
-0.569000
20
0.160000
41
0.050000
42
0.050000
0
CIRCLE
8
0
10
-0.569000
20
0.160000
40
0.030000
0
INSERT
8
0
2
EPAD
10
-0.669000
20
0.160000
41
0.050000
42
0.050000
0
CIRCLE
8
0
10
-0.669000
20
0.160000
40
0.030000
0
INSERT
8
0
2
RPAD
10
-0.485000
20
0.470000
41
0.080000
42
0.080000
50
180.000000
0
CIRCLE
8
0
10
-0.485000
20
0.470000
40
0.025000
0
INSERT
8
0
2
RPAD
10
-0.585000
20
0.470000
41
0.080000
42
0.080000
50
180.000000
0
CIRCLE
8
0
10
-0.585000
20
0.470000
40
0.025000
0
INSERT
8
0
2
RPAD
10
-0.685000
20
0.470000
41
0.080000
42
0.080000
50
180.000000
0
CIRCLE
8
0
10
-0.685000
20
0.470000
40
0.025000
0
INSERT
8
0
2
RPAD
10
0.113000
20
-0.147000
41
0.050000
42
0.050000
50
0.000000
0
CIRCLE
8
0
10
0.113000
20
-0.147000
40
0.030000
0
INSERT
8
0
2
EPAD
10
0.213000
20
-0.147000
41
0.050000
42
0.050000
0
CIRCLE
8
0
10
0.213000
20
-0.147000
40
0.030000
0
INSERT
8
0
2
EPAD
10
0.313000
20
-0.147000
41
0.050000
42
0.050000
0
CIRCLE
8
0
10
0.313000
20
-0.147000
40
0.030000
0
INSERT
8
0
2
EPAD
10
0.313000
20
0.152000
41
0.050000
42
0.050000
0
CIRCLE
8
0
10
0.313000
20
0.152000
40
0.030000
0
INSERT
8
0
2
EPAD
10
0.213000
20
0.152000
41
0.050000
42
0.050000
0
CIRCLE
8
0
10
0.213000
20
0.152000
40
0.030000
0
INSERT
8
0
2
EPAD
10
0.113000
20
0.152000
41
0.050000
42
0.050000
0
CIRCLE
8
0
10
0.113000
20
0.152000
40
0.030000
0
INSERT
8
0
2
RPAD
10
0.296000
20
0.470000
41
0.080000
42
0.080000
50
180.000000
0
CIRCLE
8
0
10
0.296000
20
0.470000
40
0.025000
0
INSERT
8
0
2
RPAD
10
0.196000
20
0.470000
41
0.080000
42
0.080000
50
180.000000
0
CIRCLE
8
0
10
0.196000
20
0.470000
40
0.025000
0
INSERT
8
0
2
RPAD
10
0.096000
20
0.470000
41
0.080000
42
0.080000
50
180.000000
0
CIRCLE
8
0
10
0.096000
20
0.470000
40
0.025000
0
INSERT
8
0
2
RPAD
10
0.901000
20
-0.159000
41
0.050000
42
0.050000
50
0.000000
0
CIRCLE
8
0
10
0.901000
20
-0.159000
40
0.030000
0
INSERT
8
0
2
EPAD
10
1.001000
20
-0.159000
41
0.050000
42
0.050000
0
CIRCLE
8
0
10
1.001000
20
-0.159000
40
0.030000
0
INSERT
8
0
2
EPAD
10
1.101000
20
-0.159000
41
0.050000
42
0.050000
0
CIRCLE
8
0
10
1.101000
20
-0.159000
40
0.030000
0
INSERT
8
0
2
EPAD
10
1.101000
20
0.140000
41
0.050000
42
0.050000
0
CIRCLE
8
0
10
1.101000
20
0.140000
40
0.030000
0
INSERT
8
0
2
EPAD
10
1.001000
20
0.140000
41
0.050000
42
0.050000
0
CIRCLE
8
0
10
1.001000
20
0.140000
40
0.030000
0
INSERT
8
0
2
EPAD
10
0.901000
20
0.140000
41
0.050000
42
0.050000
0
CIRCLE
8
0
10
0.901000
20
0.140000
40
0.030000
0
INSERT
8
0
2
RPAD
10
1.070000
20
0.466000
41
0.080000
42
0.080000
50
180.000000
0
CIRCLE
8
0
10
1.070000
20
0.466000
40
0.025000
0
INSERT
8
0
2
RPAD
10
0.970000
20
0.466000
41
0.080000
42
0.080000
50
180.000000
0
CIRCLE
8
0
10
0.970000
20
0.466000
40
0.025000
0
INSERT
8
0
2
RPAD
10
0.870000
20
0.466000
41
0.080000
42
0.080000
50
180.000000
0
CIRCLE
8
0
10
0.870000
20
0.466000
40
0.025000
0
INSERT
8
0
2
RPAD
10
1.743000
20
-0.159000
41
0.050000
42
0.050000
50
0.000000
0
CIRCLE
8
0
10
1.743000
20
-0.159000
40
0.030000
0
INSERT
8
0
2
EPAD
10
1.843000
20
-0.159000
41
0.050000
42
0.050000
0
CIRCLE
8
0
10
1.843000
20
-0.159000
40
0.030000
0
INSERT
8
0
2
EPAD
10
1.943000
20
-0.159000
41
0.050000
42
0.050000
0
CIRCLE
8
0
10
1.943000
20
-0.159000
40
0.030000
0
INSERT
8
0
2
EPAD
10
1.943000
20
0.140000
41
0.050000
42
0.050000
0
CIRCLE
8
0
10
1.943000
20
0.140000
40
0.030000
0
INSERT
8
0
2
EPAD
10
1.843000
20
0.140000
41
0.050000
42
0.050000
0
CIRCLE
8
0
10
1.843000
20
0.140000
40
0.030000
0
INSERT
8
0
2
EPAD
10
1.743000
20
0.140000
41
0.050000
42
0.050000
0
CIRCLE
8
0
10
1.743000
20
0.140000
40
0.030000
0
INSERT
8
0
2
RPAD
10
1.910000
20
0.466000
41
0.080000
42
0.080000
50
180.000000
0
CIRCLE
8
0
10
1.910000
20
0.466000
40
0.025000
0
INSERT
8
0
2
RPAD
10
1.810000
20
0.466000
41
0.080000
42
0.080000
50
180.000000
0
CIRCLE
8
0
10
1.810000
20
0.466000
40
0.025000
0
INSERT
8
0
2
RPAD
10
1.710000
20
0.466000
41
0.080000
42
0.080000
50
180.000000
0
CIRCLE
8
0
10
1.710000
20
0.466000
40
0.025000
0
POLYLINE
8
0
66
1
40
0.008000
41
0.008000
0
VERTEX
8
0
10
-2.305000
20
-1.218000
0
VERTEX
8
0
10
2.305000
20
-1.218000
0
VERTEX
8
0
10
2.305000
20
1.218000
0
VERTEX
8
0
10
-2.305000
20
1.218000
0
VERTEX
8
0
10
-2.305000
20
-1.218000
0
SEQEND
8
0
0
POLYLINE
8
0
66
1
40
0.008000
41
0.008000
0
VERTEX
8
0
10
-0.223000
20
-1.087000
0
VERTEX
8
0
10
0.676000
20
-1.087000
0
VERTEX
8
0
10
0.676000
20
-0.987000
0
VERTEX
8
0
10
-0.223000
20
-0.987000
0
VERTEX
8
0
10
-0.223000
20
-1.087000
0
SEQEND
8
0
0
TEXT
8
12632256
10
0.172000
20
-1.174000
40
0.048000
41
1.041667
1
J7
0
POLYLINE
8
0
66
1
40
0.008000
41
0.008000
0
VERTEX
8
0
10
-0.643000
20
1.150000
0
VERTEX
8
0
10
-0.643000
20
0.750000
0
SEQEND
8
0
0
POLYLINE
8
0
66
1
40
0.008000
41
0.008000
0
VERTEX
8
0
10
0.956000
20
1.150000
0
VERTEX
8
0
10
0.956000
20
0.750000
0
VERTEX
8
0
10
-0.643000
20
0.750000
0
SEQEND
8
0
0
POLYLINE
8
0
66
1
40
0.008000
41
0.008000
0
VERTEX
8
0
10
-0.643000
20
1.150000
0
VERTEX
8
0
10
0.956000
20
1.150000
0
SEQEND
8
0
0
TEXT
8
12632256
10
0.106000
20
1.160000
40
0.048000
41
1.041667
1
J8
0
POLYLINE
8
0
66
1
40
0.008000
41
0.008000
0
VERTEX
8
0
10
-1.398000
20
-0.359000
0
VERTEX
8
0
10
-1.398000
20
-0.409000
0
SEQEND
8
0
0
POLYLINE
8
0
66
1
40
0.008000
41
0.008000
0
VERTEX
8
0
10
-1.423000
20
-0.609000
0
VERTEX
8
0
10
-1.373000
20
-0.609000
0
VERTEX
8
0
10
-1.373000
20
-0.409000
0
VERTEX
8
0
10
-1.423000
20
-0.409000
0
VERTEX
8
0
10
-1.423000
20
-0.609000
0
SEQEND
8
0
0
POLYLINE
8
0
66
1
40
0.008000
41
0.008000
0
VERTEX
8
0
10
-1.398000
20
-0.609000
0
VERTEX
8
0
10
-1.398000
20
-0.659000
0
SEQEND
8
0
0
TEXT
8
12632256
10
-1.315000
20
-0.559000
40
0.048000
41
1.041667
50
90.000000
1
R1
0
POLYLINE
8
0
66
1
40
0.008000
41
0.008000
0
VERTEX
8
0
10
-1.000000
20
0.101000
0
VERTEX
8
0
10
-1.000000
20
0.051000
0
SEQEND
8
0
0
POLYLINE
8
0
66
1
40
0.008000
41
0.008000
0
VERTEX
8
0
10
-1.025000
20
-0.148000
0
VERTEX
8
0
10
-0.975000
20
-0.148000
0
VERTEX
8
0
10
-0.975000
20
0.051000
0
VERTEX
8
0
10
-1.025000
20
0.051000
0
VERTEX
8
0
10
-1.025000
20
-0.148000
0
SEQEND
8
0
0
POLYLINE
8
0
66
1
40
0.008000
41
0.008000
0
VERTEX
8
0
10
-1.000000
20
-0.148000
0
VERTEX
8
0
10
-1.000000
20
-0.198000
0
SEQEND
8
0
0
TEXT
8
12632256
10
-0.917000
20
-0.098000
40
0.048000
41
1.041667
50
90.000000
1
R2
0
POLYLINE
8
0
66
1
40
0.008000
41
0.008000
0
VERTEX
8
0
10
-0.665000
20
-0.402000
0
VERTEX
8
0
10
-0.665000
20
-0.452000
0
SEQEND
8
0
0
POLYLINE
8
0
66
1
40
0.008000
41
0.008000
0
VERTEX
8
0
10
-0.690000
20
-0.652000
0
VERTEX
8
0
10
-0.640000
20
-0.652000
0
VERTEX
8
0
10
-0.640000
20
-0.452000
0
VERTEX
8
0
10
-0.690000
20
-0.452000
0
VERTEX
8
0
10
-0.690000
20
-0.652000
0
SEQEND
8
0
0
POLYLINE
8
0
66
1
40
0.008000
41
0.008000
0
VERTEX
8
0
10
-0.665000
20
-0.652000
0
VERTEX
8
0
10
-0.665000
20
-0.702000
0
SEQEND
8
0
0
TEXT
8
12632256
10
-0.582000
20
-0.602000
40
0.048000
41
1.041667
50
90.000000
1
R3
0
POLYLINE
8
0
66
1
40
0.008000
41
0.008000
0
VERTEX
8
0
10
-0.220000
20
0.101000
0
VERTEX
8
0
10
-0.220000
20
0.051000
0
SEQEND
8
0
0
POLYLINE
8
0
66
1
40
0.008000
41
0.008000
0
VERTEX
8
0
10
-0.245000
20
-0.148000
0
VERTEX
8
0
10
-0.195000
20
-0.148000
0
VERTEX
8
0
10
-0.195000
20
0.051000
0
VERTEX
8
0
10
-0.245000
20
0.051000
0
VERTEX
8
0
10
-0.245000
20
-0.148000
0
SEQEND
8
0
0
POLYLINE
8
0
66
1
40
0.008000
41
0.008000
0
VERTEX
8
0
10
-0.220000
20
-0.148000
0
VERTEX
8
0
10
-0.220000
20
-0.198000
0
SEQEND
8
0
0
TEXT
8
12632256
10
-0.137000
20
-0.098000
40
0.048000
41
1.041667
50
90.000000
1
R4
0
POLYLINE
8
0
66
1
40
0.008000
41
0.008000
0
VERTEX
8
0
10
0.113000
20
-0.410000
0
VERTEX
8
0
10
0.113000
20
-0.460000
0
SEQEND
8
0
0
POLYLINE
8
0
66
1
40
0.008000
41
0.008000
0
VERTEX
8
0
10
0.088000
20
-0.660000
0
VERTEX
8
0
10
0.138000
20
-0.660000
0
VERTEX
8
0
10
0.138000
20
-0.460000
0
VERTEX
8
0
10
0.088000
20
-0.460000
0
VERTEX
8
0
10
0.088000
20
-0.660000
0
SEQEND
8
0
0
POLYLINE
8
0
66
1
40
0.008000
41
0.008000
0
VERTEX
8
0
10
0.113000
20
-0.660000
0
VERTEX
8
0
10
0.113000
20
-0.710000
0
SEQEND
8
0
0
TEXT
8
12632256
10
0.196000
20
-0.610000
40
0.048000
41
1.041667
50
90.000000
1
R5
0
POLYLINE
8
0
66
1
40
0.008000
41
0.008000
0
VERTEX
8
0
10
0.554000
20
0.105000
0
VERTEX
8
0
10
0.554000
20
0.055000
0
SEQEND
8
0
0
POLYLINE
8
0
66
1
40
0.008000
41
0.008000
0
VERTEX
8
0
10
0.529000
20
-0.144000
0
VERTEX
8
0
10
0.579000
20
-0.144000
0
VERTEX
8
0
10
0.579000
20
0.055000
0
VERTEX
8
0
10
0.529000
20
0.055000
0
VERTEX
8
0
10
0.529000
20
-0.144000
0
SEQEND
8
0
0
POLYLINE
8
0
66
1
40
0.008000
41
0.008000
0
VERTEX
8
0
10
0.554000
20
-0.144000
0
VERTEX
8
0
10
0.554000
20
-0.194000
0
SEQEND
8
0
0
TEXT
8
12632256
10
0.637000
20
-0.094000
40
0.048000
41
1.041667
50
90.000000
1
R6
0
POLYLINE
8
0
66
1
40
0.008000
41
0.008000
0
VERTEX
8
0
10
-2.061000
20
-0.323000
0
VERTEX
8
0
10
-2.061000
20
-0.373000
0
SEQEND
8
0
0
POLYLINE
8
0
66
1
40
0.008000
41
0.008000
0
VERTEX
8
0
10
-2.086000
20
-0.573000
0
VERTEX
8
0
10
-2.036000
20
-0.573000
0
VERTEX
8
0
10
-2.036000
20
-0.373000
0
VERTEX
8
0
10
-2.086000
20
-0.373000
0
VERTEX
8
0
10
-2.086000
20
-0.573000
0
SEQEND
8
0
0
POLYLINE
8
0
66
1
40
0.008000
41
0.008000
0
VERTEX
8
0
10
-2.061000
20
-0.573000
0
VERTEX
8
0
10
-2.061000
20
-0.623000
0
SEQEND
8
0
0
TEXT
8
12632256
10
-1.978000
20
-0.523000
40
0.048000
41
1.041667
50
90.000000
1
R7
0
POLYLINE
8
0
66
1
40
0.008000
41
0.008000
0
VERTEX
8
0
10
-1.673000
20
0.227000
0
VERTEX
8
0
10
-1.673000
20
0.177000
0
SEQEND
8
0
0
POLYLINE
8
0
66
1
40
0.008000
41
0.008000
0
VERTEX
8
0
10
-1.698000
20
-0.022000
0
VERTEX
8
0
10
-1.648000
20
-0.022000
0
VERTEX
8
0
10
-1.648000
20
0.177000
0
VERTEX
8
0
10
-1.698000
20
0.177000
0
VERTEX
8
0
10
-1.698000
20
-0.022000
0
SEQEND
8
0
0
POLYLINE
8
0
66
1
40
0.008000
41
0.008000
0
VERTEX
8
0
10
-1.673000
20
-0.022000
0
VERTEX
8
0
10
-1.673000
20
-0.072000
0
SEQEND
8
0
0
TEXT
8
12632256
10
-1.590000
20
0.027000
40
0.048000
41
1.041667
50
90.000000
1
R8
0
POLYLINE
8
0
66
1
40
0.008000
41
0.008000
0
VERTEX
8
0
10
0.889000
20
-0.461000
0
VERTEX
8
0
10
0.889000
20
-0.511000
0
SEQEND
8
0
0
POLYLINE
8
0
66
1
40
0.008000
41
0.008000
0
VERTEX
8
0
10
0.864000
20
-0.711000
0
VERTEX
8
0
10
0.914000
20
-0.711000
0
VERTEX
8
0
10
0.914000
20
-0.511000
0
VERTEX
8
0
10
0.864000
20
-0.511000
0
VERTEX
8
0
10
0.864000
20
-0.711000
0
SEQEND
8
0
0
POLYLINE
8
0
66
1
40
0.008000
41
0.008000
0
VERTEX
8
0
10
0.889000
20
-0.711000
0
VERTEX
8
0
10
0.889000
20
-0.761000
0
SEQEND
8
0
0
TEXT
8
12632256
10
0.972000
20
-0.661000
40
0.048000
41
1.041667
50
90.000000
1
R9
0
POLYLINE
8
0
66
1
40
0.008000
41
0.008000
0
VERTEX
8
0
10
1.365000
20
0.133000
0
VERTEX
8
0
10
1.365000
20
0.083000
0
SEQEND
8
0
0
POLYLINE
8
0
66
1
40
0.008000
41
0.008000
0
VERTEX
8
0
10
1.340000
20
-0.116000
0
VERTEX
8
0
10
1.390000
20
-0.116000
0
VERTEX
8
0
10
1.390000
20
0.083000
0
VERTEX
8
0
10
1.340000
20
0.083000
0
VERTEX
8
0
10
1.340000
20
-0.116000
0
SEQEND
8
0
0
POLYLINE
8
0
66
1
40
0.008000
41
0.008000
0
VERTEX
8
0
10
1.365000
20
-0.116000
0
VERTEX
8
0
10
1.365000
20
-0.166000
0
SEQEND
8
0
0
TEXT
8
12632256
10
1.448000
20
-0.091000
40
0.048000
41
1.041667
50
90.000000
1
R10
0
POLYLINE
8
0
66
1
40
0.008000
41
0.008000
0
VERTEX
8
0
10
1.763000
20
-0.445000
0
VERTEX
8
0
10
1.763000
20
-0.495000
0
SEQEND
8
0
0
POLYLINE
8
0
66
1
40
0.008000
41
0.008000
0
VERTEX
8
0
10
1.738000
20
-0.695000
0
VERTEX
8
0
10
1.788000
20
-0.695000
0
VERTEX
8
0
10
1.788000
20
-0.495000
0
VERTEX
8
0
10
1.738000
20
-0.495000
0
VERTEX
8
0
10
1.738000
20
-0.695000
0
SEQEND
8
0
0
POLYLINE
8
0
66
1
40
0.008000
41
0.008000
0
VERTEX
8
0
10
1.763000
20
-0.695000
0
VERTEX
8
0
10
1.763000
20
-0.745000
0
SEQEND
8
0
0
TEXT
8
12632256
10
1.846000
20
-0.670000
40
0.048000
41
1.041667
50
90.000000
1
R11
0
POLYLINE
8
0
66
1
40
0.008000
41
0.008000
0
VERTEX
8
0
10
2.184000
20
0.160000
0
VERTEX
8
0
10
2.184000
20
0.110000
0
SEQEND
8
0
0
POLYLINE
8
0
66
1
40
0.008000
41
0.008000
0
VERTEX
8
0
10
2.159000
20
-0.089000
0
VERTEX
8
0
10
2.209000
20
-0.089000
0
VERTEX
8
0
10
2.209000
20
0.110000
0
VERTEX
8
0
10
2.159000
20
0.110000
0
VERTEX
8
0
10
2.159000
20
-0.089000
0
SEQEND
8
0
0
POLYLINE
8
0
66
1
40
0.008000
41
0.008000
0
VERTEX
8
0
10
2.184000
20
-0.089000
0
VERTEX
8
0
10
2.184000
20
-0.139000
0
SEQEND
8
0
0
TEXT
8
12632256
10
2.267000
20
-0.064000
40
0.048000
41
1.041667
50
90.000000
1
R12
0
POLYLINE
8
0
66
1
40
0.008000
41
0.008000
0
VERTEX
8
0
10
-1.444000
20
-0.093000
0
VERTEX
8
0
10
-1.444000
20
-0.043000
0
SEQEND
8
0
0
POLYLINE
8
0
66
1
40
0.008000
41
0.008000
0
VERTEX
8
0
10
-1.394000
20
0.006000
0
VERTEX
8
0
10
-1.395000
20
0.016000
0
VERTEX
8
0
10
-1.398000
20
0.026000
0
VERTEX
8
0
10
-1.402000
20
0.034000
0
VERTEX
8
0
10
-1.408000
20
0.042000
0
VERTEX
8
0
10
-1.415000
20
0.048000
0
VERTEX
8
0
10
-1.424000
20
0.052000
0
VERTEX
8
0
10
-1.434000
20
0.055000
0
VERTEX
8
0
10
-1.444000
20
0.056000
0
SEQEND
8
0
0
POLYLINE
8
0
66
1
40
0.008000
41
0.008000
0
VERTEX
8
0
10
-1.394000
20
0.006000
0
VERTEX
8
0
10
-1.395000
20
-0.004000
0
VERTEX
8
0
10
-1.398000
20
-0.013000
0
VERTEX
8
0
10
-1.402000
20
-0.022000
0
VERTEX
8
0
10
-1.408000
20
-0.029000
0
VERTEX
8
0
10
-1.415000
20
-0.035000
0
VERTEX
8
0
10
-1.424000
20
-0.039000
0
VERTEX
8
0
10
-1.434000
20
-0.042000
0
VERTEX
8
0
10
-1.444000
20
-0.043000
0
SEQEND
8
0
0
POLYLINE
8
0
66
1
40
0.008000
41
0.008000
0
VERTEX
8
0
10
-1.444000
20
0.056000
0
VERTEX
8
0
10
-1.444000
20
0.106000
0
SEQEND
8
0
0
POLYLINE
8
0
66
1
40
0.008000
41
0.008000
0
VERTEX
8
0
10
-1.144000
20
-0.093000
0
VERTEX
8
0
10
-1.144000
20
0.106000
0
SEQEND
8
0
0
POLYLINE
8
0
66
1
40
0.008000
41
0.008000
0
VERTEX
8
0
10
-1.444000
20
-0.093000
0
VERTEX
8
0
10
-1.144000
20
-0.093000
0
SEQEND
8
0
0
POLYLINE
8
0
66
1
40
0.008000
41
0.008000
0
VERTEX
8
0
10
-1.444000
20
0.106000
0
VERTEX
8
0
10
-1.144000
20
0.106000
0
SEQEND
8
0
0
TEXT
8
12632256
10
-1.454000
20
-0.043000
40
0.048000
41
1.041667
50
90.000000
1
U1
0
POLYLINE
8
0
66
1
40
0.008000
41
0.008000
0
VERTEX
8
0
10
-2.111000
20
-0.070000
0
VERTEX
8
0
10
-2.111000
20
-0.020000
0
SEQEND
8
0
0
POLYLINE
8
0
66
1
40
0.008000
41
0.008000
0
VERTEX
8
0
10
-2.061000
20
0.029000
0
VERTEX
8
0
10
-2.062000
20
0.039000
0
VERTEX
8
0
10
-2.065000
20
0.049000
0
VERTEX
8
0
10
-2.069000
20
0.057000
0
VERTEX
8
0
10
-2.075000
20
0.064000
0
VERTEX
8
0
10
-2.082000
20
0.071000
0
VERTEX
8
0
10
-2.091000
20
0.075000
0
VERTEX
8
0
10
-2.101000
20
0.078000
0
VERTEX
8
0
10
-2.111000
20
0.079000
0
SEQEND
8
0
0
POLYLINE
8
0
66
1
40
0.008000
41
0.008000
0
VERTEX
8
0
10
-2.061000
20
0.029000
0
VERTEX
8
0
10
-2.062000
20
0.019000
0
VERTEX
8
0
10
-2.065000
20
0.009000
0
VERTEX
8
0
10
-2.069000
20
0.001000
0
VERTEX
8
0
10
-2.075000
20
-0.006000
0
VERTEX
8
0
10
-2.082000
20
-0.012000
0
VERTEX
8
0
10
-2.091000
20
-0.016000
0
VERTEX
8
0
10
-2.101000
20
-0.019000
0
VERTEX
8
0
10
-2.111000
20
-0.020000
0
SEQEND
8
0
0
POLYLINE
8
0
66
1
40
0.008000
41
0.008000
0
VERTEX
8
0
10
-2.111000
20
0.079000
0
VERTEX
8
0
10
-2.111000
20
0.129000
0
SEQEND
8
0
0
POLYLINE
8
0
66
1
40
0.008000
41
0.008000
0
VERTEX
8
0
10
-1.811000
20
-0.070000
0
VERTEX
8
0
10
-1.811000
20
0.129000
0
SEQEND
8
0
0
POLYLINE
8
0
66
1
40
0.008000
41
0.008000
0
VERTEX
8
0
10
-2.111000
20
-0.070000
0
VERTEX
8
0
10
-1.811000
20
-0.070000
0
SEQEND
8
0
0
POLYLINE
8
0
66
1
40
0.008000
41
0.008000
0
VERTEX
8
0
10
-2.111000
20
0.129000
0
VERTEX
8
0
10
-1.811000
20
0.129000
0
SEQEND
8
0
0
TEXT
8
12632256
10
-2.121000
20
-0.020000
40
0.048000
41
1.041667
50
90.000000
1
U2
0
POLYLINE
8
0
66
1
40
0.008000
41
0.008000
0
VERTEX
8
0
10
-1.453000
20
0.424000
0
VERTEX
8
0
10
-1.153000
20
0.424000
0
VERTEX
8
0
10
-1.153000
20
0.524000
0
VERTEX
8
0
10
-1.453000
20
0.524000
0
VERTEX
8
0
10
-1.453000
20
0.424000
0
SEQEND
8
0
0
POLYLINE
8
0
66
1
40
0.008000
41
0.008000
0
VERTEX
8
0
10
-1.153000
20
0.424000
0
VERTEX
8
0
10
-1.153000
20
0.374000
0
VERTEX
8
0
10
-1.453000
20
0.374000
0
VERTEX
8
0
10
-1.453000
20
0.424000
0
SEQEND
8
0
0
POLYLINE
8
0
66
1
40
0.008000
41
0.008000
0
VERTEX
8
0
10
-1.153000
20
0.424000
0
VERTEX
8
0
10
-1.203000
20
0.374000
0
SEQEND
8
0
0
POLYLINE
8
0
66
1
40
0.008000
41
0.008000
0
VERTEX
8
0
10
-1.203000
20
0.424000
0
VERTEX
8
0
10
-1.253000
20
0.374000
0
SEQEND
8
0
0
POLYLINE
8
0
66
1
40
0.008000
41
0.008000
0
VERTEX
8
0
10
-1.253000
20
0.424000
0
VERTEX
8
0
10
-1.303000
20
0.374000
0
SEQEND
8
0
0
POLYLINE
8
0
66
1
40
0.008000
41
0.008000
0
VERTEX
8
0
10
-1.303000
20
0.424000
0
VERTEX
8
0
10
-1.353000
20
0.374000
0
SEQEND
8
0
0
POLYLINE
8
0
66
1
40
0.008000
41
0.008000
0
VERTEX
8
0
10
-1.353000
20
0.424000
0
VERTEX
8
0
10
-1.403000
20
0.374000
0
SEQEND
8
0
0
POLYLINE
8
0
66
1
40
0.008000
41
0.008000
0
VERTEX
8
0
10
-1.403000
20
0.424000
0
VERTEX
8
0
10
-1.453000
20
0.374000
0
SEQEND
8
0
0
TEXT
8
12632256
10
-1.353000
20
0.316000
40
0.048000
41
1.041667
1
U3
0
POLYLINE
8
0
66
1
40
0.008000
41
0.008000
0
VERTEX
8
0
10
-2.107000
20
0.432000
0
VERTEX
8
0
10
-1.807000
20
0.432000
0
VERTEX
8
0
10
-1.807000
20
0.532000
0
VERTEX
8
0
10
-2.107000
20
0.532000
0
VERTEX
8
0
10
-2.107000
20
0.432000
0
SEQEND
8
0
0
POLYLINE
8
0
66
1
40
0.008000
41
0.008000
0
VERTEX
8
0
10
-1.807000
20
0.432000
0
VERTEX
8
0
10
-1.807000
20
0.382000
0
VERTEX
8
0
10
-2.107000
20
0.382000
0
VERTEX
8
0
10
-2.107000
20
0.432000
0
SEQEND
8
0
0
POLYLINE
8
0
66
1
40
0.008000
41
0.008000
0
VERTEX
8
0
10
-1.807000
20
0.432000
0
VERTEX
8
0
10
-1.857000
20
0.382000
0
SEQEND
8
0
0
POLYLINE
8
0
66
1
40
0.008000
41
0.008000
0
VERTEX
8
0
10
-1.857000
20
0.432000
0
VERTEX
8
0
10
-1.907000
20
0.382000
0
SEQEND
8
0
0
POLYLINE
8
0
66
1
40
0.008000
41
0.008000
0
VERTEX
8
0
10
-1.907000
20
0.432000
0
VERTEX
8
0
10
-1.957000
20
0.382000
0
SEQEND
8
0
0
POLYLINE
8
0
66
1
40
0.008000
41
0.008000
0
VERTEX
8
0
10
-1.957000
20
0.432000
0
VERTEX
8
0
10
-2.007000
20
0.382000
0
SEQEND
8
0
0
POLYLINE
8
0
66
1
40
0.008000
41
0.008000
0
VERTEX
8
0
10
-2.007000
20
0.432000
0
VERTEX
8
0
10
-2.057000
20
0.382000
0
SEQEND
8
0
0
POLYLINE
8
0
66
1
40
0.008000
41
0.008000
0
VERTEX
8
0
10
-2.057000
20
0.432000
0
VERTEX
8
0
10
-2.107000
20
0.382000
0
SEQEND
8
0
0
TEXT
8
12632256
10
-2.007000
20
0.324000
40
0.048000
41
1.041667
1
U4
0
POLYLINE
8
0
66
1
40
0.008000
41
0.008000
0
VERTEX
8
0
10
-0.719000
20
-0.089000
0
VERTEX
8
0
10
-0.719000
20
-0.039000
0
SEQEND
8
0
0
POLYLINE
8
0
66
1
40
0.008000
41
0.008000
0
VERTEX
8
0
10
-0.669000
20
0.010000
0
VERTEX
8
0
10
-0.670000
20
0.020000
0
VERTEX
8
0
10
-0.673000
20
0.030000
0
VERTEX
8
0
10
-0.677000
20
0.038000
0
VERTEX
8
0
10
-0.683000
20
0.046000
0
VERTEX
8
0
10
-0.690000
20
0.052000
0
VERTEX
8
0
10
-0.699000
20
0.056000
0
VERTEX
8
0
10
-0.709000
20
0.059000
0
VERTEX
8
0
10
-0.719000
20
0.060000
0
SEQEND
8
0
0
POLYLINE
8
0
66
1
40
0.008000
41
0.008000
0
VERTEX
8
0
10
-0.669000
20
0.010000
0
VERTEX
8
0
10
-0.670000
20
0.000000
0
VERTEX
8
0
10
-0.673000
20
-0.009000
0
VERTEX
8
0
10
-0.677000
20
-0.018000
0
VERTEX
8
0
10
-0.683000
20
-0.025000
0
VERTEX
8
0
10
-0.690000
20
-0.031000
0
VERTEX
8
0
10
-0.699000
20
-0.035000
0
VERTEX
8
0
10
-0.709000
20
-0.038000
0
VERTEX
8
0
10
-0.719000
20
-0.039000
0
SEQEND
8
0
0
POLYLINE
8
0
66
1
40
0.008000
41
0.008000
0
VERTEX
8
0
10
-0.719000
20
0.060000
0
VERTEX
8
0
10
-0.719000
20
0.110000
0
SEQEND
8
0
0
POLYLINE
8
0
66
1
40
0.008000
41
0.008000
0
VERTEX
8
0
10
-0.419000
20
-0.089000
0
VERTEX
8
0
10
-0.419000
20
0.110000
0
SEQEND
8
0
0
POLYLINE
8
0
66
1
40
0.008000
41
0.008000
0
VERTEX
8
0
10
-0.719000
20
-0.089000
0
VERTEX
8
0
10
-0.419000
20
-0.089000
0
SEQEND
8
0
0
POLYLINE
8
0
66
1
40
0.008000
41
0.008000
0
VERTEX
8
0
10
-0.719000
20
0.110000
0
VERTEX
8
0
10
-0.419000
20
0.110000
0
SEQEND
8
0
0
TEXT
8
12632256
10
-0.729000
20
-0.039000
40
0.048000
41
1.041667
50
90.000000
1
U5
0
POLYLINE
8
0
66
1
40
0.008000
41
0.008000
0
VERTEX
8
0
10
-0.735000
20
0.420000
0
VERTEX
8
0
10
-0.435000
20
0.420000
0
VERTEX
8
0
10
-0.435000
20
0.520000
0
VERTEX
8
0
10
-0.735000
20
0.520000
0
VERTEX
8
0
10
-0.735000
20
0.420000
0
SEQEND
8
0
0
POLYLINE
8
0
66
1
40
0.008000
41
0.008000
0
VERTEX
8
0
10
-0.435000
20
0.420000
0
VERTEX
8
0
10
-0.435000
20
0.370000
0
VERTEX
8
0
10
-0.735000
20
0.370000
0
VERTEX
8
0
10
-0.735000
20
0.420000
0
SEQEND
8
0
0
POLYLINE
8
0
66
1
40
0.008000
41
0.008000
0
VERTEX
8
0
10
-0.435000
20
0.420000
0
VERTEX
8
0
10
-0.485000
20
0.370000
0
SEQEND
8
0
0
POLYLINE
8
0
66
1
40
0.008000
41
0.008000
0
VERTEX
8
0
10
-0.485000
20
0.420000
0
VERTEX
8
0
10
-0.535000
20
0.370000
0
SEQEND
8
0
0
POLYLINE
8
0
66
1
40
0.008000
41
0.008000
0
VERTEX
8
0
10
-0.535000
20
0.420000
0
VERTEX
8
0
10
-0.585000
20
0.370000
0
SEQEND
8
0
0
POLYLINE
8
0
66
1
40
0.008000
41
0.008000
0
VERTEX
8
0
10
-0.585000
20
0.420000
0
VERTEX
8
0
10
-0.635000
20
0.370000
0
SEQEND
8
0
0
POLYLINE
8
0
66
1
40
0.008000
41
0.008000
0
VERTEX
8
0
10
-0.635000
20
0.420000
0
VERTEX
8
0
10
-0.685000
20
0.370000
0
SEQEND
8
0
0
POLYLINE
8
0
66
1
40
0.008000
41
0.008000
0
VERTEX
8
0
10
-0.685000
20
0.420000
0
VERTEX
8
0
10
-0.735000
20
0.370000
0
SEQEND
8
0
0
TEXT
8
12632256
10
-0.635000
20
0.312000
40
0.048000
41
1.041667
1
U6
0
POLYLINE
8
0
66
1
40
0.008000
41
0.008000
0
VERTEX
8
0
10
0.063000
20
-0.097000
0
VERTEX
8
0
10
0.063000
20
-0.047000
0
SEQEND
8
0
0
POLYLINE
8
0
66
1
40
0.008000
41
0.008000
0
VERTEX
8
0
10
0.113000
20
0.002000
0
VERTEX
8
0
10
0.112000
20
0.012000
0
VERTEX
8
0
10
0.109000
20
0.022000
0
VERTEX
8
0
10
0.105000
20
0.030000
0
VERTEX
8
0
10
0.099000
20
0.038000
0
VERTEX
8
0
10
0.092000
20
0.044000
0
VERTEX
8
0
10
0.083000
20
0.048000
0
VERTEX
8
0
10
0.073000
20
0.051000
0
VERTEX
8
0
10
0.063000
20
0.052000
0
SEQEND
8
0
0
POLYLINE
8
0
66
1
40
0.008000
41
0.008000
0
VERTEX
8
0
10
0.113000
20
0.002000
0
VERTEX
8
0
10
0.112000
20
-0.008000
0
VERTEX
8
0
10
0.109000
20
-0.017000
0
VERTEX
8
0
10
0.105000
20
-0.026000
0
VERTEX
8
0
10
0.099000
20
-0.033000
0
VERTEX
8
0
10
0.092000
20
-0.039000
0
VERTEX
8
0
10
0.083000
20
-0.043000
0
VERTEX
8
0
10
0.073000
20
-0.046000
0
VERTEX
8
0
10
0.063000
20
-0.047000
0
SEQEND
8
0
0
POLYLINE
8
0
66
1
40
0.008000
41
0.008000
0
VERTEX
8
0
10
0.063000
20
0.052000
0
VERTEX
8
0
10
0.063000
20
0.102000
0
SEQEND
8
0
0
POLYLINE
8
0
66
1
40
0.008000
41
0.008000
0
VERTEX
8
0
10
0.363000
20
-0.097000
0
VERTEX
8
0
10
0.363000
20
0.102000
0
SEQEND
8
0
0
POLYLINE
8
0
66
1
40
0.008000
41
0.008000
0
VERTEX
8
0
10
0.063000
20
-0.097000
0
VERTEX
8
0
10
0.363000
20
-0.097000
0
SEQEND
8
0
0
POLYLINE
8
0
66
1
40
0.008000
41
0.008000
0
VERTEX
8
0
10
0.063000
20
0.102000
0
VERTEX
8
0
10
0.363000
20
0.102000
0
SEQEND
8
0
0
TEXT
8
12632256
10
0.053000
20
-0.047000
40
0.048000
41
1.041667
50
90.000000
1
U7
0
POLYLINE
8
0
66
1
40
0.008000
41
0.008000
0
VERTEX
8
0
10
0.046000
20
0.420000
0
VERTEX
8
0
10
0.346000
20
0.420000
0
VERTEX
8
0
10
0.346000
20
0.520000
0
VERTEX
8
0
10
0.046000
20
0.520000
0
VERTEX
8
0
10
0.046000
20
0.420000
0
SEQEND
8
0
0
POLYLINE
8
0
66
1
40
0.008000
41
0.008000
0
VERTEX
8
0
10
0.346000
20
0.420000
0
VERTEX
8
0
10
0.346000
20
0.370000
0
VERTEX
8
0
10
0.046000
20
0.370000
0
VERTEX
8
0
10
0.046000
20
0.420000
0
SEQEND
8
0
0
POLYLINE
8
0
66
1
40
0.008000
41
0.008000
0
VERTEX
8
0
10
0.346000
20
0.420000
0
VERTEX
8
0
10
0.296000
20
0.370000
0
SEQEND
8
0
0
POLYLINE
8
0
66
1
40
0.008000
41
0.008000
0
VERTEX
8
0
10
0.296000
20
0.420000
0
VERTEX
8
0
10
0.246000
20
0.370000
0
SEQEND
8
0
0
POLYLINE
8
0
66
1
40
0.008000
41
0.008000
0
VERTEX
8
0
10
0.246000
20
0.420000
0
VERTEX
8
0
10
0.196000
20
0.370000
0
SEQEND
8
0
0
POLYLINE
8
0
66
1
40
0.008000
41
0.008000
0
VERTEX
8
0
10
0.196000
20
0.420000
0
VERTEX
8
0
10
0.146000
20
0.370000
0
SEQEND
8
0
0
POLYLINE
8
0
66
1
40
0.008000
41
0.008000
0
VERTEX
8
0
10
0.146000
20
0.420000
0
VERTEX
8
0
10
0.096000
20
0.370000
0
SEQEND
8
0
0
POLYLINE
8
0
66
1
40
0.008000
41
0.008000
0
VERTEX
8
0
10
0.096000
20
0.420000
0
VERTEX
8
0
10
0.046000
20
0.370000
0
SEQEND
8
0
0
TEXT
8
12632256
10
0.146000
20
0.312000
40
0.048000
41
1.041667
1
U8
0
POLYLINE
8
0
66
1
40
0.008000
41
0.008000
0
VERTEX
8
0
10
0.851000
20
-0.109000
0
VERTEX
8
0
10
0.851000
20
-0.059000
0
SEQEND
8
0
0
POLYLINE
8
0
66
1
40
0.008000
41
0.008000
0
VERTEX
8
0
10
0.901000
20
-0.009000
0
VERTEX
8
0
10
0.900000
20
0.001000
0
VERTEX
8
0
10
0.897000
20
0.010000
0
VERTEX
8
0
10
0.893000
20
0.018000
0
VERTEX
8
0
10
0.887000
20
0.026000
0
VERTEX
8
0
10
0.880000
20
0.032000
0
VERTEX
8
0
10
0.871000
20
0.036000
0
VERTEX
8
0
10
0.861000
20
0.039000
0
VERTEX
8
0
10
0.851000
20
0.040000
0
SEQEND
8
0
0
POLYLINE
8
0
66
1
40
0.008000
41
0.008000
0
VERTEX
8
0
10
0.901000
20
-0.009000
0
VERTEX
8
0
10
0.900000
20
-0.019000
0
VERTEX
8
0
10
0.897000
20
-0.029000
0
VERTEX
8
0
10
0.893000
20
-0.038000
0
VERTEX
8
0
10
0.887000
20
-0.045000
0
VERTEX
8
0
10
0.880000
20
-0.051000
0
VERTEX
8
0
10
0.871000
20
-0.055000
0
VERTEX
8
0
10
0.861000
20
-0.058000
0
VERTEX
8
0
10
0.851000
20
-0.059000
0
SEQEND
8
0
0
POLYLINE
8
0
66
1
40
0.008000
41
0.008000
0
VERTEX
8
0
10
0.851000
20
0.040000
0
VERTEX
8
0
10
0.851000
20
0.090000
0
SEQEND
8
0
0
POLYLINE
8
0
66
1
40
0.008000
41
0.008000
0
VERTEX
8
0
10
1.151000
20
-0.109000
0
VERTEX
8
0
10
1.151000
20
0.090000
0
SEQEND
8
0
0
POLYLINE
8
0
66
1
40
0.008000
41
0.008000
0
VERTEX
8
0
10
0.851000
20
-0.109000
0
VERTEX
8
0
10
1.151000
20
-0.109000
0
SEQEND
8
0
0
POLYLINE
8
0
66
1
40
0.008000
41
0.008000
0
VERTEX
8
0
10
0.851000
20
0.090000
0
VERTEX
8
0
10
1.151000
20
0.090000
0
SEQEND
8
0
0
TEXT
8
12632256
10
0.841000
20
-0.059000
40
0.048000
41
1.041667
50
90.000000
1
U9
0
POLYLINE
8
0
66
1
40
0.008000
41
0.008000
0
VERTEX
8
0
10
0.820000
20
0.416000
0
VERTEX
8
0
10
1.120000
20
0.416000
0
VERTEX
8
0
10
1.120000
20
0.516000
0
VERTEX
8
0
10
0.820000
20
0.516000
0
VERTEX
8
0
10
0.820000
20
0.416000
0
SEQEND
8
0
0
POLYLINE
8
0
66
1
40
0.008000
41
0.008000
0
VERTEX
8
0
10
1.120000
20
0.416000
0
VERTEX
8
0
10
1.120000
20
0.366000
0
VERTEX
8
0
10
0.820000
20
0.366000
0
VERTEX
8
0
10
0.820000
20
0.416000
0
SEQEND
8
0
0
POLYLINE
8
0
66
1
40
0.008000
41
0.008000
0
VERTEX
8
0
10
1.120000
20
0.416000
0
VERTEX
8
0
10
1.070000
20
0.366000
0
SEQEND
8
0
0
POLYLINE
8
0
66
1
40
0.008000
41
0.008000
0
VERTEX
8
0
10
1.070000
20
0.416000
0
VERTEX
8
0
10
1.020000
20
0.366000
0
SEQEND
8
0
0
POLYLINE
8
0
66
1
40
0.008000
41
0.008000
0
VERTEX
8
0
10
1.020000
20
0.416000
0
VERTEX
8
0
10
0.970000
20
0.366000
0
SEQEND
8
0
0
POLYLINE
8
0
66
1
40
0.008000
41
0.008000
0
VERTEX
8
0
10
0.970000
20
0.416000
0
VERTEX
8
0
10
0.920000
20
0.366000
0
SEQEND
8
0
0
POLYLINE
8
0
66
1
40
0.008000
41
0.008000
0
VERTEX
8
0
10
0.920000
20
0.416000
0
VERTEX
8
0
10
0.870000
20
0.366000
0
SEQEND
8
0
0
POLYLINE
8
0
66
1
40
0.008000
41
0.008000
0
VERTEX
8
0
10
0.870000
20
0.416000
0
VERTEX
8
0
10
0.820000
20
0.366000
0
SEQEND
8
0
0
TEXT
8
12632256
10
0.895000
20
0.308000
40
0.048000
41
1.041667
1
U10
0
POLYLINE
8
0
66
1
40
0.008000
41
0.008000
0
VERTEX
8
0
10
1.693000
20
-0.109000
0
VERTEX
8
0
10
1.693000
20
-0.059000
0
SEQEND
8
0
0
POLYLINE
8
0
66
1
40
0.008000
41
0.008000
0
VERTEX
8
0
10
1.743000
20
-0.009000
0
VERTEX
8
0
10
1.742000
20
0.001000
0
VERTEX
8
0
10
1.739000
20
0.010000
0
VERTEX
8
0
10
1.735000
20
0.018000
0
VERTEX
8
0
10
1.729000
20
0.026000
0
VERTEX
8
0
10
1.722000
20
0.032000
0
VERTEX
8
0
10
1.713000
20
0.036000
0
VERTEX
8
0
10
1.703000
20
0.039000
0
VERTEX
8
0
10
1.693000
20
0.040000
0
SEQEND
8
0
0
POLYLINE
8
0
66
1
40
0.008000
41
0.008000
0
VERTEX
8
0
10
1.743000
20
-0.009000
0
VERTEX
8
0
10
1.742000
20
-0.019000
0
VERTEX
8
0
10
1.739000
20
-0.029000
0
VERTEX
8
0
10
1.735000
20
-0.038000
0
VERTEX
8
0
10
1.729000
20
-0.045000
0
VERTEX
8
0
10
1.722000
20
-0.051000
0
VERTEX
8
0
10
1.713000
20
-0.055000
0
VERTEX
8
0
10
1.703000
20
-0.058000
0
VERTEX
8
0
10
1.693000
20
-0.059000
0
SEQEND
8
0
0
POLYLINE
8
0
66
1
40
0.008000
41
0.008000
0
VERTEX
8
0
10
1.693000
20
0.040000
0
VERTEX
8
0
10
1.693000
20
0.090000
0
SEQEND
8
0
0
POLYLINE
8
0
66
1
40
0.008000
41
0.008000
0
VERTEX
8
0
10
1.993000
20
-0.109000
0
VERTEX
8
0
10
1.993000
20
0.090000
0
SEQEND
8
0
0
POLYLINE
8
0
66
1
40
0.008000
41
0.008000
0
VERTEX
8
0
10
1.693000
20
-0.109000
0
VERTEX
8
0
10
1.993000
20
-0.109000
0
SEQEND
8
0
0
POLYLINE
8
0
66
1
40
0.008000
41
0.008000
0
VERTEX
8
0
10
1.693000
20
0.090000
0
VERTEX
8
0
10
1.993000
20
0.090000
0
SEQEND
8
0
0
TEXT
8
12632256
10
1.683000
20
-0.084000
40
0.048000
41
1.041667
50
90.000000
1
U11
0
POLYLINE
8
0
66
1
40
0.008000
41
0.008000
0
VERTEX
8
0
10
1.660000
20
0.416000
0
VERTEX
8
0
10
1.960000
20
0.416000
0
VERTEX
8
0
10
1.960000
20
0.516000
0
VERTEX
8
0
10
1.660000
20
0.516000
0
VERTEX
8
0
10
1.660000
20
0.416000
0
SEQEND
8
0
0
POLYLINE
8
0
66
1
40
0.008000
41
0.008000
0
VERTEX
8
0
10
1.960000
20
0.416000
0
VERTEX
8
0
10
1.960000
20
0.366000
0
VERTEX
8
0
10
1.660000
20
0.366000
0
VERTEX
8
0
10
1.660000
20
0.416000
0
SEQEND
8
0
0
POLYLINE
8
0
66
1
40
0.008000
41
0.008000
0
VERTEX
8
0
10
1.960000
20
0.416000
0
VERTEX
8
0
10
1.910000
20
0.366000
0
SEQEND
8
0
0
POLYLINE
8
0
66
1
40
0.008000
41
0.008000
0
VERTEX
8
0
10
1.910000
20
0.416000
0
VERTEX
8
0
10
1.860000
20
0.366000
0
SEQEND
8
0
0
POLYLINE
8
0
66
1
40
0.008000
41
0.008000
0
VERTEX
8
0
10
1.860000
20
0.416000
0
VERTEX
8
0
10
1.810000
20
0.366000
0
SEQEND
8
0
0
POLYLINE
8
0
66
1
40
0.008000
41
0.008000
0
VERTEX
8
0
10
1.810000
20
0.416000
0
VERTEX
8
0
10
1.760000
20
0.366000
0
SEQEND
8
0
0
POLYLINE
8
0
66
1
40
0.008000
41
0.008000
0
VERTEX
8
0
10
1.760000
20
0.416000
0
VERTEX
8
0
10
1.710000
20
0.366000
0
SEQEND
8
0
0
POLYLINE
8
0
66
1
40
0.008000
41
0.008000
0
VERTEX
8
0
10
1.710000
20
0.416000
0
VERTEX
8
0
10
1.660000
20
0.366000
0
SEQEND
8
0
0
TEXT
8
12632256
10
1.735000
20
0.308000
40
0.048000
41
1.041667
1
U13
0
TEXT
8
12632256
10
-0.532000
20
0.572000
40
0.064000
41
1.250000
50
90.000000
1
L1
0
TEXT
8
12632256
10
-0.312000
20
0.521000
40
0.040000
41
1.250000
50
90.000000
1
OUT1
0
TEXT
8
12632256
10
-0.129000
20
0.523000
40
0.040000
41
1.250000
50
90.000000
1
OUT2
0
TEXT
8
12632256
10
0.081000
20
0.541000
40
0.040000
41
1.250000
50
90.000000
1
OUT3
0
TEXT
8
12632256
10
0.274000
20
0.537000
40
0.040000
41
1.250000
50
90.000000
1
OUT4
0
TEXT
8
12632256
10
0.459000
20
0.517000
40
0.040000
41
1.250000
50
90.000000
1
OUT5
0
TEXT
8
12632256
10
0.675000
20
0.517000
40
0.040000
41
1.250000
50
90.000000
1
OUT6
0
POLYLINE
8
0
66
1
40
0.000000
41
0.000000
0
VERTEX
8
0
10
-1.946000
20
-1.200000
0
VERTEX
8
0
10
-0.266000
20
-1.200000
0
VERTEX
8
0
10
-0.266000
20
-0.780000
0
VERTEX
8
0
10
-1.946000
20
-0.780000
0
VERTEX
8
0
10
-1.946000
20
-1.200000
0
SEQEND
8
0
0
TEXT
8
12632256
10
-2.220000
20
0.703000
40
0.040000
41
1.250000
1
JDPE
0
TEXT
8
12632256
10
0.640000
20
-0.904000
40
0.040000
41
1.250000
50
90.000000
1
GND
0
TEXT
8
12632256
10
0.537000
20
-0.886000
40
0.040000
41
1.250000
50
90.000000
1
GND
0
TEXT
8
12632256
10
0.447000
20
-0.885000
40
0.040000
41
1.250000
50
90.000000
1
GND
0
TEXT
8
12632256
10
-0.163000
20
-0.852000
40
0.048000
41
1.041667
50
90.000000
1
IN1
0
TEXT
8
12632256
10
-0.052000
20
-0.856000
40
0.048000
41
1.041667
50
90.000000
1
IN2
0
TEXT
8
12632256
10
0.041000
20
-0.860000
40
0.048000
41
1.041667
50
90.000000
1
IN3
0
TEXT
8
12632256
10
0.266000
20
-0.868000
40
0.048000
41
1.041667
50
90.000000
1
IN5
0
TEXT
8
12632256
10
0.352000
20
-0.872000
40
0.048000
41
1.041667
50
90.000000
1
IN6
0
TEXT
8
12632256
10
1.051000
20
-0.977000
40
0.072000
41
1.250000
1
ETAPA DE
0
TEXT
8
12632256
10
0.905000
20
-1.118000
40
0.072000
41
1.250000
1
POTENCIA AC
0
ENDSEC
0
EOF

