  0
SECTION
  2
HEADER
  9
$ACADVER
  1
AC2.10
  0
ENDSEC
  0
SECTION
  2
TABLES
  0
TABLE
  2
LAYER
 70
     8
  0
LAYER
  2
0
 62
     7
 70
0
  6
CONTINUOUS
  0
LAYER
  2
1
 62
     1
 70
0
  6
CONTINUOUS
  0
LAYER
  2
2
 62
     2
 70
0
  6
CONTINUOUS
  0
LAYER
  2
3
 62
     3
 70
0
  6
CONTINUOUS
  0
LAYER
  2
4
 62
     4
 70
0
  6
CONTINUOUS
  0
LAYER
  2
5
 62
     5
 70
0
  6
CONTINUOUS
  0
LAYER
  2
6
 62
     6
 70
0
  6
CONTINUOUS
  0
LAYER
  2
7
 62
     7
 70
0
  6
CONTINUOUS
  0
ENDTAB
  0
TABLE
  2
STYLE
 70
     1
  0
STYLE
 70
     0
  2
STANDARD
  3
TXT
 40
0.00
 41
1.00
 42
1.00
 50
0.00
 71
     0
  0
ENDTAB
  0
ENDSEC
  0
SECTION
  2
BLOCKS
  0
BLOCK
  8
0
  2
EPAD
 70
0
 10
0.0
 20
0.0
  0
POLYLINE
  8
0
 66
1
 70
1
 40
0.5
 41
0.5
  0
VERTEX
  8
0
 10
-0.25
 20
0.0
 42
1.0
  0
VERTEX
  8
0
 10
0.25
 20
0.0
 42
1.0
  0
SEQEND
  8
0
  0
ENDBLK
  8
0
  0
BLOCK
  8
0
  2
RPAD
 70
0
 10
0.0
 20
0.0
  0
TRACE
  8
0
 10
-0.5
 20
-0.5
 11
-0.5
 21
0.5
 12
0.5
 22
-0.5
 13
0.5
 23
0.5
  0
ENDBLK
  8
0
  0
ENDSEC
0
SECTION
2
ENTITIES
0
POLYLINE
8
0
66
1
40
0.025000
41
0.025000
0
VERTEX
8
0
10
0.244000
20
-2.041000
0
VERTEX
8
0
10
0.090000
20
-1.887000
0
VERTEX
8
0
10
0.084000
20
-1.887000
0
SEQEND
8
0
0
POLYLINE
8
0
66
1
40
0.025000
41
0.025000
0
VERTEX
8
0
10
0.962000
20
-2.000000
0
VERTEX
8
0
10
0.962000
20
-1.516000
0
VERTEX
8
0
10
0.862000
20
-1.416000
0
VERTEX
8
0
10
0.384000
20
-1.416000
0
VERTEX
8
0
10
0.374000
20
-1.426000
0
SEQEND
8
0
0
POLYLINE
8
0
66
1
40
0.025000
41
0.025000
0
VERTEX
8
0
10
0.233000
20
-1.431000
0
VERTEX
8
0
10
0.233000
20
-1.137000
0
VERTEX
8
0
10
0.527000
20
-0.844000
0
VERTEX
8
0
10
0.608000
20
-0.844000
0
VERTEX
8
0
10
0.826000
20
-0.626000
0
SEQEND
8
0
0
POLYLINE
8
0
66
1
40
0.025000
41
0.025000
0
VERTEX
8
0
10
-0.060000
20
0.153000
0
VERTEX
8
0
10
-0.060000
20
0.331000
0
VERTEX
8
0
10
-0.148000
20
0.419000
0
SEQEND
8
0
0
POLYLINE
8
0
66
1
40
0.050000
41
0.050000
0
VERTEX
8
0
10
-0.601000
20
1.945000
0
VERTEX
8
0
10
-0.760000
20
2.104000
0
VERTEX
8
0
10
-0.760000
20
2.180000
0
SEQEND
8
0
0
POLYLINE
8
0
66
1
40
0.050000
41
0.050000
0
VERTEX
8
0
10
0.124000
20
1.948000
0
VERTEX
8
0
10
0.058000
20
1.948000
0
VERTEX
8
0
10
-0.048000
20
2.055000
0
VERTEX
8
0
10
-0.048000
20
2.132000
0
VERTEX
8
0
10
-0.035000
20
2.144000
0
SEQEND
8
0
0
POLYLINE
8
0
66
1
40
0.050000
41
0.050000
0
VERTEX
8
0
10
0.961000
20
1.612000
0
VERTEX
8
0
10
0.961000
20
1.891000
0
VERTEX
8
0
10
0.915000
20
1.936000
0
VERTEX
8
0
10
0.810000
20
1.936000
0
VERTEX
8
0
10
0.710000
20
2.037000
0
VERTEX
8
0
10
0.710000
20
2.156000
0
VERTEX
8
0
10
0.704000
20
2.162000
0
SEQEND
8
0
0
POLYLINE
8
0
66
1
40
0.025000
41
0.025000
0
VERTEX
8
0
10
-0.330000
20
-1.985000
0
VERTEX
8
0
10
-0.330000
20
-1.896000
0
VERTEX
8
0
10
-0.570000
20
-1.655000
0
VERTEX
8
0
10
-0.570000
20
-1.599000
0
VERTEX
8
0
10
-0.604000
20
-1.565000
0
VERTEX
8
0
10
-0.700000
20
-1.565000
0
VERTEX
8
0
10
-0.750000
20
-1.515000
0
VERTEX
8
0
10
-0.750000
20
-0.975000
0
VERTEX
8
0
10
-0.799000
20
-0.926000
0
SEQEND
8
0
0
POLYLINE
8
0
66
1
40
0.050000
41
0.050000
0
VERTEX
8
0
10
-0.398000
20
2.298000
0
VERTEX
8
0
10
-0.397000
20
2.413000
0
SEQEND
8
0
0
POLYLINE
8
0
66
1
40
0.050000
41
0.050000
0
VERTEX
8
0
10
0.351000
20
2.283000
0
VERTEX
8
0
10
0.351000
20
2.369000
0
VERTEX
8
0
10
0.345000
20
2.375000
0
SEQEND
8
0
0
POLYLINE
8
0
66
1
40
0.050000
41
0.050000
0
VERTEX
8
0
10
1.511000
20
1.699000
0
VERTEX
8
0
10
1.286000
20
1.699000
0
VERTEX
8
0
10
1.080000
20
1.493000
0
VERTEX
8
0
10
1.080000
20
1.126000
0
VERTEX
8
0
10
1.163000
20
1.044000
0
SEQEND
8
0
0
POLYLINE
8
0
66
1
40
0.025000
41
0.025000
0
VERTEX
8
0
10
0.900000
20
-1.282000
0
VERTEX
8
0
10
0.426000
20
-1.282000
0
VERTEX
8
0
10
0.341000
20
-1.198000
0
SEQEND
8
0
0
POLYLINE
8
0
66
1
40
0.025000
41
0.025000
0
VERTEX
8
0
10
0.182000
20
-1.006000
0
VERTEX
8
0
10
0.182000
20
-0.963000
0
VERTEX
8
0
10
0.040000
20
-0.821000
0
SEQEND
8
0
0
POLYLINE
8
0
66
1
40
0.025000
41
0.025000
0
VERTEX
8
0
10
-0.539000
20
-1.112000
0
VERTEX
8
0
10
-0.076000
20
-1.112000
0
VERTEX
8
0
10
0.040000
20
-0.995000
0
VERTEX
8
0
10
0.040000
20
-0.821000
0
VERTEX
8
0
10
0.040000
20
-0.695000
0
VERTEX
8
0
10
0.027000
20
-0.683000
0
SEQEND
8
0
0
POLYLINE
8
0
66
1
40
0.025000
41
0.025000
0
VERTEX
8
0
10
-1.555000
20
-1.709000
0
VERTEX
8
0
10
-1.555000
20
-0.829000
0
VERTEX
8
0
10
-1.467000
20
-0.741000
0
VERTEX
8
0
10
-1.467000
20
-0.674000
0
VERTEX
8
0
10
-1.299000
20
-0.506000
0
VERTEX
8
0
10
-1.222000
20
-0.506000
0
VERTEX
8
0
10
-1.099000
20
-0.383000
0
VERTEX
8
0
10
-0.902000
20
-0.383000
0
VERTEX
8
0
10
-0.888000
20
-0.369000
0
SEQEND
8
0
0
POLYLINE
8
0
66
1
40
0.025000
41
0.025000
0
VERTEX
8
0
10
-1.138000
20
-0.612000
0
VERTEX
8
0
10
-0.707000
20
-0.612000
0
VERTEX
8
0
10
-0.692000
20
-0.626000
0
SEQEND
8
0
0
POLYLINE
8
0
66
1
40
0.025000
41
0.025000
0
VERTEX
8
0
10
-0.578000
20
-0.186000
0
VERTEX
8
0
10
-0.563000
20
-0.172000
0
VERTEX
8
0
10
-0.563000
20
-0.029000
0
SEQEND
8
0
0
POLYLINE
8
0
66
1
40
0.025000
41
0.025000
0
VERTEX
8
0
10
-1.086000
20
0.026000
0
VERTEX
8
0
10
-0.789000
20
-0.270000
0
VERTEX
8
0
10
-0.446000
20
-0.270000
0
SEQEND
8
0
0
POLYLINE
8
0
66
1
40
0.025000
41
0.025000
0
VERTEX
8
0
10
-1.352000
20
-1.309000
0
VERTEX
8
0
10
-1.302000
20
-1.309000
0
VERTEX
8
0
10
-1.281000
20
-1.331000
0
VERTEX
8
0
10
-1.281000
20
-2.110000
0
VERTEX
8
0
10
-1.119000
20
-2.273000
0
SEQEND
8
0
0
POLYLINE
8
0
66
1
40
0.025000
41
0.025000
0
VERTEX
8
0
10
-1.154000
20
0.152000
0
VERTEX
8
0
10
-0.061000
20
0.152000
0
VERTEX
8
0
10
-0.060000
20
0.153000
0
SEQEND
8
0
0
POLYLINE
8
0
66
1
40
0.025000
41
0.025000
0
VERTEX
8
0
10
-0.631000
20
-0.386000
0
VERTEX
8
0
10
-0.762000
20
-0.386000
0
VERTEX
8
0
10
-1.123000
20
-0.025000
0
VERTEX
8
0
10
-1.264000
20
-0.025000
0
VERTEX
8
0
10
-1.546000
20
0.257000
0
SEQEND
8
0
0
POLYLINE
8
0
66
1
40
0.050000
41
0.050000
0
VERTEX
8
0
10
0.345000
20
2.375000
0
VERTEX
8
0
10
0.404000
20
2.433000
0
VERTEX
8
0
10
1.022000
20
2.433000
0
VERTEX
8
0
10
1.085000
20
2.370000
0
VERTEX
8
0
10
1.085000
20
2.289000
0
VERTEX
8
0
10
1.084000
20
2.275000
0
SEQEND
8
0
0
POLYLINE
8
0
66
1
40
0.050000
41
0.050000
0
VERTEX
8
0
10
0.345000
20
2.375000
0
VERTEX
8
0
10
0.292000
20
2.428000
0
VERTEX
8
0
10
-0.387000
20
2.428000
0
VERTEX
8
0
10
-0.397000
20
2.419000
0
VERTEX
8
0
10
-0.397000
20
2.413000
0
VERTEX
8
0
10
-0.408000
20
2.424000
0
VERTEX
8
0
10
-1.017000
20
2.424000
0
VERTEX
8
0
10
-1.110000
20
2.291000
0
SEQEND
8
0
0
POLYLINE
8
0
66
1
40
0.025000
41
0.025000
0
VERTEX
8
0
10
-0.479000
20
-2.011000
0
VERTEX
8
0
10
-0.534000
20
-2.066000
0
VERTEX
8
0
10
-0.857000
20
-2.066000
0
VERTEX
8
0
10
-0.946000
20
-1.976000
0
VERTEX
8
0
10
-0.946000
20
-1.873000
0
VERTEX
8
0
10
-0.998000
20
-1.821000
0
VERTEX
8
0
10
-1.123000
20
-1.821000
0
VERTEX
8
0
10
-1.192000
20
-1.752000
0
VERTEX
8
0
10
-1.192000
20
-1.562000
0
VERTEX
8
0
10
-1.184000
20
-1.554000
0
SEQEND
8
0
0
POLYLINE
8
0
66
1
40
0.025000
41
0.025000
0
VERTEX
8
0
10
-0.836000
20
-1.417000
0
VERTEX
8
0
10
-1.010000
20
-1.591000
0
VERTEX
8
0
10
-1.042000
20
-1.591000
0
VERTEX
8
0
10
-1.043000
20
-1.623000
0
SEQEND
8
0
0
POLYLINE
8
0
66
1
40
0.025000
41
0.025000
0
VERTEX
8
0
10
0.885000
20
-0.434000
0
VERTEX
8
0
10
0.945000
20
-0.434000
0
VERTEX
8
0
10
1.088000
20
-0.292000
0
VERTEX
8
0
10
1.088000
20
0.393000
0
VERTEX
8
0
10
1.183000
20
0.489000
0
SEQEND
8
0
0
POLYLINE
8
0
66
1
40
0.025000
41
0.025000
0
VERTEX
8
0
10
1.024000
20
-0.565000
0
VERTEX
8
0
10
1.201000
20
-0.388000
0
VERTEX
8
0
10
1.201000
20
0.359000
0
SEQEND
8
0
0
POLYLINE
8
0
66
1
40
0.025000
41
0.025000
0
VERTEX
8
0
10
1.224000
20
0.614000
0
VERTEX
8
0
10
1.276000
20
0.562000
0
VERTEX
8
0
10
1.276000
20
-0.556000
0
VERTEX
8
0
10
1.276000
20
-0.588000
0
VERTEX
8
0
10
1.253000
20
-0.611000
0
SEQEND
8
0
0
INSERT
8
0
2
EPAD
10
0.244000
20
-2.041000
41
0.080000
42
0.080000
0
CIRCLE
8
0
10
0.244000
20
-2.041000
40
0.025000
0
INSERT
8
0
2
EPAD
10
0.084000
20
-1.887000
41
0.080000
42
0.080000
0
CIRCLE
8
0
10
0.084000
20
-1.887000
40
0.025000
0
INSERT
8
0
2
EPAD
10
0.962000
20
-2.000000
41
0.080000
42
0.080000
0
CIRCLE
8
0
10
0.962000
20
-2.000000
40
0.025000
0
INSERT
8
0
2
EPAD
10
0.374000
20
-1.426000
41
0.080000
42
0.080000
0
CIRCLE
8
0
10
0.374000
20
-1.426000
40
0.025000
0
INSERT
8
0
2
EPAD
10
0.233000
20
-1.431000
41
0.080000
42
0.080000
0
CIRCLE
8
0
10
0.233000
20
-1.431000
40
0.025000
0
INSERT
8
0
2
EPAD
10
0.826000
20
-0.626000
41
0.080000
42
0.080000
0
CIRCLE
8
0
10
0.826000
20
-0.626000
40
0.025000
0
INSERT
8
0
2
EPAD
10
-0.060000
20
0.153000
41
0.080000
42
0.080000
0
CIRCLE
8
0
10
-0.060000
20
0.153000
40
0.025000
0
INSERT
8
0
2
EPAD
10
-0.148000
20
0.419000
41
0.080000
42
0.080000
0
CIRCLE
8
0
10
-0.148000
20
0.419000
40
0.025000
0
INSERT
8
0
2
EPAD
10
-0.601000
20
1.945000
41
0.080000
42
0.080000
0
CIRCLE
8
0
10
-0.601000
20
1.945000
40
0.025000
0
INSERT
8
0
2
EPAD
10
-0.760000
20
2.180000
41
0.080000
42
0.080000
0
CIRCLE
8
0
10
-0.760000
20
2.180000
40
0.025000
0
INSERT
8
0
2
EPAD
10
0.124000
20
1.948000
41
0.080000
42
0.080000
0
CIRCLE
8
0
10
0.124000
20
1.948000
40
0.025000
0
INSERT
8
0
2
EPAD
10
-0.035000
20
2.144000
41
0.080000
42
0.080000
0
CIRCLE
8
0
10
-0.035000
20
2.144000
40
0.025000
0
INSERT
8
0
2
EPAD
10
0.961000
20
1.612000
41
0.080000
42
0.080000
0
CIRCLE
8
0
10
0.961000
20
1.612000
40
0.025000
0
INSERT
8
0
2
EPAD
10
0.704000
20
2.162000
41
0.080000
42
0.080000
0
CIRCLE
8
0
10
0.704000
20
2.162000
40
0.025000
0
INSERT
8
0
2
EPAD
10
-0.539000
20
-1.112000
41
0.080000
42
0.080000
0
CIRCLE
8
0
10
-0.539000
20
-1.112000
40
0.025000
0
INSERT
8
0
2
EPAD
10
0.027000
20
-0.683000
41
0.080000
42
0.080000
0
CIRCLE
8
0
10
0.027000
20
-0.683000
40
0.025000
0
INSERT
8
0
2
EPAD
10
-0.330000
20
-1.985000
41
0.080000
42
0.080000
0
CIRCLE
8
0
10
-0.330000
20
-1.985000
40
0.025000
0
INSERT
8
0
2
EPAD
10
-0.799000
20
-0.926000
41
0.080000
42
0.080000
0
CIRCLE
8
0
10
-0.799000
20
-0.926000
40
0.025000
0
INSERT
8
0
2
EPAD
10
-0.398000
20
2.298000
41
0.080000
42
0.080000
0
CIRCLE
8
0
10
-0.398000
20
2.298000
40
0.025000
0
INSERT
8
0
2
EPAD
10
0.351000
20
2.283000
41
0.080000
42
0.080000
0
CIRCLE
8
0
10
0.351000
20
2.283000
40
0.025000
0
INSERT
8
0
2
EPAD
10
1.511000
20
1.699000
41
0.080000
42
0.080000
0
CIRCLE
8
0
10
1.511000
20
1.699000
40
0.025000
0
INSERT
8
0
2
EPAD
10
1.163000
20
1.044000
41
0.080000
42
0.080000
0
CIRCLE
8
0
10
1.163000
20
1.044000
40
0.025000
0
INSERT
8
0
2
EPAD
10
0.900000
20
-1.282000
41
0.080000
42
0.080000
0
CIRCLE
8
0
10
0.900000
20
-1.282000
40
0.025000
0
INSERT
8
0
2
EPAD
10
0.341000
20
-1.198000
41
0.080000
42
0.080000
0
CIRCLE
8
0
10
0.341000
20
-1.198000
40
0.025000
0
INSERT
8
0
2
EPAD
10
0.182000
20
-1.006000
41
0.080000
42
0.080000
0
CIRCLE
8
0
10
0.182000
20
-1.006000
40
0.025000
0
INSERT
8
0
2
EPAD
10
-1.555000
20
-1.709000
41
0.080000
42
0.080000
0
CIRCLE
8
0
10
-1.555000
20
-1.709000
40
0.025000
0
INSERT
8
0
2
EPAD
10
-0.888000
20
-0.369000
41
0.080000
42
0.080000
0
CIRCLE
8
0
10
-0.888000
20
-0.369000
40
0.025000
0
INSERT
8
0
2
EPAD
10
-1.138000
20
-0.612000
41
0.080000
42
0.080000
0
CIRCLE
8
0
10
-1.138000
20
-0.612000
40
0.025000
0
INSERT
8
0
2
EPAD
10
-0.692000
20
-0.626000
41
0.080000
42
0.080000
0
CIRCLE
8
0
10
-0.692000
20
-0.626000
40
0.025000
0
INSERT
8
0
2
EPAD
10
-0.578000
20
-0.186000
41
0.080000
42
0.080000
0
CIRCLE
8
0
10
-0.578000
20
-0.186000
40
0.025000
0
INSERT
8
0
2
EPAD
10
-0.563000
20
-0.029000
41
0.080000
42
0.080000
0
CIRCLE
8
0
10
-0.563000
20
-0.029000
40
0.025000
0
INSERT
8
0
2
EPAD
10
-1.086000
20
0.026000
41
0.080000
42
0.080000
0
CIRCLE
8
0
10
-1.086000
20
0.026000
40
0.025000
0
INSERT
8
0
2
EPAD
10
-0.446000
20
-0.270000
41
0.080000
42
0.080000
0
CIRCLE
8
0
10
-0.446000
20
-0.270000
40
0.025000
0
INSERT
8
0
2
EPAD
10
-1.352000
20
-1.309000
41
0.080000
42
0.080000
0
CIRCLE
8
0
10
-1.352000
20
-1.309000
40
0.025000
0
INSERT
8
0
2
EPAD
10
-1.119000
20
-2.273000
41
0.080000
42
0.080000
0
CIRCLE
8
0
10
-1.119000
20
-2.273000
40
0.025000
0
INSERT
8
0
2
EPAD
10
-1.154000
20
0.152000
41
0.080000
42
0.080000
0
CIRCLE
8
0
10
-1.154000
20
0.152000
40
0.025000
0
INSERT
8
0
2
EPAD
10
-0.631000
20
-0.386000
41
0.080000
42
0.080000
0
CIRCLE
8
0
10
-0.631000
20
-0.386000
40
0.025000
0
INSERT
8
0
2
EPAD
10
-1.546000
20
0.257000
41
0.080000
42
0.080000
0
CIRCLE
8
0
10
-1.546000
20
0.257000
40
0.025000
0
INSERT
8
0
2
EPAD
10
1.084000
20
2.275000
41
0.080000
42
0.080000
0
CIRCLE
8
0
10
1.084000
20
2.275000
40
0.025000
0
INSERT
8
0
2
EPAD
10
-1.110000
20
2.291000
41
0.080000
42
0.080000
0
CIRCLE
8
0
10
-1.110000
20
2.291000
40
0.025000
0
INSERT
8
0
2
EPAD
10
-0.479000
20
-2.011000
41
0.080000
42
0.080000
0
CIRCLE
8
0
10
-0.479000
20
-2.011000
40
0.025000
0
INSERT
8
0
2
EPAD
10
-1.184000
20
-1.554000
41
0.080000
42
0.080000
0
CIRCLE
8
0
10
-1.184000
20
-1.554000
40
0.025000
0
INSERT
8
0
2
EPAD
10
-0.836000
20
-1.417000
41
0.080000
42
0.080000
0
CIRCLE
8
0
10
-0.836000
20
-1.417000
40
0.025000
0
INSERT
8
0
2
EPAD
10
-1.043000
20
-1.623000
41
0.080000
42
0.080000
0
CIRCLE
8
0
10
-1.043000
20
-1.623000
40
0.025000
0
INSERT
8
0
2
EPAD
10
0.885000
20
-0.434000
41
0.080000
42
0.080000
0
CIRCLE
8
0
10
0.885000
20
-0.434000
40
0.025000
0
INSERT
8
0
2
EPAD
10
1.183000
20
0.489000
41
0.080000
42
0.080000
0
CIRCLE
8
0
10
1.183000
20
0.489000
40
0.025000
0
INSERT
8
0
2
EPAD
10
1.024000
20
-0.565000
41
0.080000
42
0.080000
0
CIRCLE
8
0
10
1.024000
20
-0.565000
40
0.025000
0
INSERT
8
0
2
EPAD
10
1.201000
20
0.359000
41
0.080000
42
0.080000
0
CIRCLE
8
0
10
1.201000
20
0.359000
40
0.025000
0
INSERT
8
0
2
EPAD
10
1.224000
20
0.614000
41
0.080000
42
0.080000
0
CIRCLE
8
0
10
1.224000
20
0.614000
40
0.025000
0
INSERT
8
0
2
EPAD
10
1.253000
20
-0.611000
41
0.080000
42
0.080000
0
CIRCLE
8
0
10
1.253000
20
-0.611000
40
0.025000
0
INSERT
8
0
2
EPAD
10
-1.553000
20
-2.319000
41
0.250000
42
0.250000
0
CIRCLE
8
0
10
-1.553000
20
-2.319000
40
0.030000
0
INSERT
8
0
2
EPAD
10
0.378000
20
-2.110000
41
0.100000
42
0.100000
0
CIRCLE
8
0
10
0.378000
20
-2.110000
40
0.025000
0
INSERT
8
0
2
EPAD
10
0.578000
20
-2.310000
41
0.100000
42
0.100000
0
CIRCLE
8
0
10
0.578000
20
-2.310000
40
0.025000
0
INSERT
8
0
2
EPAD
10
0.378000
20
-2.310000
41
0.100000
42
0.100000
0
CIRCLE
8
0
10
0.378000
20
-2.310000
40
0.025000
0
INSERT
8
0
2
EPAD
10
0.578000
20
-2.110000
41
0.100000
42
0.100000
0
CIRCLE
8
0
10
0.578000
20
-2.110000
40
0.025000
0
INSERT
8
0
2
EPAD
10
-0.108000
20
-2.268000
41
0.120000
42
0.120000
0
CIRCLE
8
0
10
-0.108000
20
-2.268000
40
0.030000
0
INSERT
8
0
2
EPAD
10
0.091000
20
-2.268000
41
0.120000
42
0.120000
0
CIRCLE
8
0
10
0.091000
20
-2.268000
40
0.030000
0
INSERT
8
0
2
RPAD
10
1.547000
20
-1.837000
41
0.080000
42
0.080000
50
90.000000
0
CIRCLE
8
0
10
1.547000
20
-1.837000
40
0.025000
0
INSERT
8
0
2
RPAD
10
1.547000
20
-1.737000
41
0.080000
42
0.080000
50
90.000000
0
CIRCLE
8
0
10
1.547000
20
-1.737000
40
0.025000
0
INSERT
8
0
2
RPAD
10
1.547000
20
-1.637000
41
0.080000
42
0.080000
50
90.000000
0
CIRCLE
8
0
10
1.547000
20
-1.637000
40
0.025000
0
INSERT
8
0
2
EPAD
10
1.417000
20
-1.241000
41
0.150000
42
0.150000
0
CIRCLE
8
0
10
1.417000
20
-1.241000
40
0.030000
0
INSERT
8
0
2
EPAD
10
1.417000
20
-2.225000
41
0.150000
42
0.150000
0
CIRCLE
8
0
10
1.417000
20
-2.225000
40
0.030000
0
INSERT
8
0
2
EPAD
10
1.071000
20
-1.541000
41
0.090000
42
0.090000
0
CIRCLE
8
0
10
1.071000
20
-1.541000
40
0.025000
0
INSERT
8
0
2
EPAD
10
1.071000
20
-1.941000
41
0.090000
42
0.090000
0
CIRCLE
8
0
10
1.071000
20
-1.941000
40
0.025000
0
INSERT
8
0
2
EPAD
10
0.307000
20
-1.842000
41
0.070000
42
0.070000
0
CIRCLE
8
0
10
0.307000
20
-1.842000
40
0.025000
0
INSERT
8
0
2
EPAD
10
0.707000
20
-1.842000
41
0.070000
42
0.070000
0
CIRCLE
8
0
10
0.707000
20
-1.842000
40
0.025000
0
INSERT
8
0
2
EPAD
10
0.436000
20
-1.626000
41
0.080000
42
0.080000
0
CIRCLE
8
0
10
0.436000
20
-1.626000
40
0.025000
0
INSERT
8
0
2
EPAD
10
0.561000
20
-1.626000
41
0.080000
42
0.080000
0
CIRCLE
8
0
10
0.561000
20
-1.626000
40
0.025000
0
INSERT
8
0
2
EPAD
10
0.805000
20
-1.585000
41
0.080000
42
0.080000
0
CIRCLE
8
0
10
0.805000
20
-1.585000
40
0.025000
0
INSERT
8
0
2
EPAD
10
0.805000
20
-1.685000
41
0.080000
42
0.080000
0
CIRCLE
8
0
10
0.805000
20
-1.685000
40
0.025000
0
INSERT
8
0
2
EPAD
10
0.848000
20
-2.065000
41
0.070000
42
0.070000
0
CIRCLE
8
0
10
0.848000
20
-2.065000
40
0.025000
0
INSERT
8
0
2
EPAD
10
0.848000
20
-1.965000
41
0.070000
42
0.070000
0
CIRCLE
8
0
10
0.848000
20
-1.965000
40
0.025000
0
INSERT
8
0
2
RPAD
10
-0.962000
20
-0.523000
41
0.050000
42
0.050000
50
0.000000
0
CIRCLE
8
0
10
-0.962000
20
-0.523000
40
0.030000
0
INSERT
8
0
2
EPAD
10
-0.862000
20
-0.523000
41
0.050000
42
0.050000
0
CIRCLE
8
0
10
-0.862000
20
-0.523000
40
0.030000
0
INSERT
8
0
2
EPAD
10
-0.762000
20
-0.523000
41
0.050000
42
0.050000
0
CIRCLE
8
0
10
-0.762000
20
-0.523000
40
0.030000
0
INSERT
8
0
2
EPAD
10
-0.662000
20
-0.523000
41
0.050000
42
0.050000
0
CIRCLE
8
0
10
-0.662000
20
-0.523000
40
0.030000
0
INSERT
8
0
2
EPAD
10
-0.562000
20
-0.523000
41
0.050000
42
0.050000
0
CIRCLE
8
0
10
-0.562000
20
-0.523000
40
0.030000
0
INSERT
8
0
2
EPAD
10
-0.462000
20
-0.523000
41
0.050000
42
0.050000
0
CIRCLE
8
0
10
-0.462000
20
-0.523000
40
0.030000
0
INSERT
8
0
2
EPAD
10
-0.362000
20
-0.523000
41
0.050000
42
0.050000
0
CIRCLE
8
0
10
-0.362000
20
-0.523000
40
0.030000
0
INSERT
8
0
2
EPAD
10
-0.262000
20
-0.523000
41
0.050000
42
0.050000
0
CIRCLE
8
0
10
-0.262000
20
-0.523000
40
0.030000
0
INSERT
8
0
2
EPAD
10
-0.162000
20
-0.523000
41
0.050000
42
0.050000
0
CIRCLE
8
0
10
-0.162000
20
-0.523000
40
0.030000
0
INSERT
8
0
2
EPAD
10
-0.062000
20
-0.523000
41
0.050000
42
0.050000
0
CIRCLE
8
0
10
-0.062000
20
-0.523000
40
0.030000
0
INSERT
8
0
2
EPAD
10
0.037000
20
-0.523000
41
0.050000
42
0.050000
0
CIRCLE
8
0
10
0.037000
20
-0.523000
40
0.030000
0
INSERT
8
0
2
EPAD
10
0.137000
20
-0.523000
41
0.050000
42
0.050000
0
CIRCLE
8
0
10
0.137000
20
-0.523000
40
0.030000
0
INSERT
8
0
2
EPAD
10
0.237000
20
-0.523000
41
0.050000
42
0.050000
0
CIRCLE
8
0
10
0.237000
20
-0.523000
40
0.030000
0
INSERT
8
0
2
EPAD
10
0.337000
20
-0.523000
41
0.050000
42
0.050000
0
CIRCLE
8
0
10
0.337000
20
-0.523000
40
0.030000
0
INSERT
8
0
2
EPAD
10
0.437000
20
-0.523000
41
0.050000
42
0.050000
0
CIRCLE
8
0
10
0.437000
20
-0.523000
40
0.030000
0
INSERT
8
0
2
EPAD
10
0.537000
20
-0.523000
41
0.050000
42
0.050000
0
CIRCLE
8
0
10
0.537000
20
-0.523000
40
0.030000
0
INSERT
8
0
2
EPAD
10
0.637000
20
-0.523000
41
0.050000
42
0.050000
0
CIRCLE
8
0
10
0.637000
20
-0.523000
40
0.030000
0
INSERT
8
0
2
EPAD
10
0.737000
20
-0.523000
41
0.050000
42
0.050000
0
CIRCLE
8
0
10
0.737000
20
-0.523000
40
0.030000
0
INSERT
8
0
2
EPAD
10
0.837000
20
-0.523000
41
0.050000
42
0.050000
0
CIRCLE
8
0
10
0.837000
20
-0.523000
40
0.030000
0
INSERT
8
0
2
EPAD
10
0.937000
20
-0.523000
41
0.050000
42
0.050000
0
CIRCLE
8
0
10
0.937000
20
-0.523000
40
0.030000
0
INSERT
8
0
2
EPAD
10
0.937000
20
0.076000
41
0.050000
42
0.050000
0
CIRCLE
8
0
10
0.937000
20
0.076000
40
0.030000
0
INSERT
8
0
2
EPAD
10
0.837000
20
0.076000
41
0.050000
42
0.050000
0
CIRCLE
8
0
10
0.837000
20
0.076000
40
0.030000
0
INSERT
8
0
2
EPAD
10
0.737000
20
0.076000
41
0.050000
42
0.050000
0
CIRCLE
8
0
10
0.737000
20
0.076000
40
0.030000
0
INSERT
8
0
2
EPAD
10
0.637000
20
0.076000
41
0.050000
42
0.050000
0
CIRCLE
8
0
10
0.637000
20
0.076000
40
0.030000
0
INSERT
8
0
2
EPAD
10
0.537000
20
0.076000
41
0.050000
42
0.050000
0
CIRCLE
8
0
10
0.537000
20
0.076000
40
0.030000
0
INSERT
8
0
2
EPAD
10
0.437000
20
0.076000
41
0.050000
42
0.050000
0
CIRCLE
8
0
10
0.437000
20
0.076000
40
0.030000
0
INSERT
8
0
2
EPAD
10
0.337000
20
0.076000
41
0.050000
42
0.050000
0
CIRCLE
8
0
10
0.337000
20
0.076000
40
0.030000
0
INSERT
8
0
2
EPAD
10
0.237000
20
0.076000
41
0.050000
42
0.050000
0
CIRCLE
8
0
10
0.237000
20
0.076000
40
0.030000
0
INSERT
8
0
2
EPAD
10
0.137000
20
0.076000
41
0.050000
42
0.050000
0
CIRCLE
8
0
10
0.137000
20
0.076000
40
0.030000
0
INSERT
8
0
2
EPAD
10
0.037000
20
0.076000
41
0.050000
42
0.050000
0
CIRCLE
8
0
10
0.037000
20
0.076000
40
0.030000
0
INSERT
8
0
2
EPAD
10
-0.062000
20
0.076000
41
0.050000
42
0.050000
0
CIRCLE
8
0
10
-0.062000
20
0.076000
40
0.030000
0
INSERT
8
0
2
EPAD
10
-0.162000
20
0.076000
41
0.050000
42
0.050000
0
CIRCLE
8
0
10
-0.162000
20
0.076000
40
0.030000
0
INSERT
8
0
2
EPAD
10
-0.262000
20
0.076000
41
0.050000
42
0.050000
0
CIRCLE
8
0
10
-0.262000
20
0.076000
40
0.030000
0
INSERT
8
0
2
EPAD
10
-0.362000
20
0.076000
41
0.050000
42
0.050000
0
CIRCLE
8
0
10
-0.362000
20
0.076000
40
0.030000
0
INSERT
8
0
2
EPAD
10
-0.462000
20
0.076000
41
0.050000
42
0.050000
0
CIRCLE
8
0
10
-0.462000
20
0.076000
40
0.030000
0
INSERT
8
0
2
EPAD
10
-0.562000
20
0.076000
41
0.050000
42
0.050000
0
CIRCLE
8
0
10
-0.562000
20
0.076000
40
0.030000
0
INSERT
8
0
2
EPAD
10
-0.662000
20
0.076000
41
0.050000
42
0.050000
0
CIRCLE
8
0
10
-0.662000
20
0.076000
40
0.030000
0
INSERT
8
0
2
EPAD
10
-0.762000
20
0.076000
41
0.050000
42
0.050000
0
CIRCLE
8
0
10
-0.762000
20
0.076000
40
0.030000
0
INSERT
8
0
2
EPAD
10
-0.862000
20
0.076000
41
0.050000
42
0.050000
0
CIRCLE
8
0
10
-0.862000
20
0.076000
40
0.030000
0
INSERT
8
0
2
EPAD
10
-0.962000
20
0.076000
41
0.050000
42
0.050000
0
CIRCLE
8
0
10
-0.962000
20
0.076000
40
0.030000
0
INSERT
8
0
2
EPAD
10
-1.438000
20
-0.908000
41
0.120000
42
0.120000
0
CIRCLE
8
0
10
-1.438000
20
-0.908000
40
0.030000
0
INSERT
8
0
2
EPAD
10
-1.438000
20
-1.108000
41
0.120000
42
0.120000
0
CIRCLE
8
0
10
-1.438000
20
-1.108000
40
0.030000
0
INSERT
8
0
2
EPAD
10
-1.438000
20
-1.308000
41
0.120000
42
0.120000
0
CIRCLE
8
0
10
-1.438000
20
-1.308000
40
0.030000
0
INSERT
8
0
2
EPAD
10
-1.438000
20
-1.508000
41
0.120000
42
0.120000
0
CIRCLE
8
0
10
-1.438000
20
-1.508000
40
0.030000
0
INSERT
8
0
2
EPAD
10
-1.438000
20
-1.708000
41
0.120000
42
0.120000
0
CIRCLE
8
0
10
-1.438000
20
-1.708000
40
0.030000
0
INSERT
8
0
2
RPAD
10
-0.675000
20
-1.298000
41
0.050000
42
0.050000
50
0.000000
0
CIRCLE
8
0
10
-0.675000
20
-1.298000
40
0.030000
0
INSERT
8
0
2
EPAD
10
-0.575000
20
-1.298000
41
0.050000
42
0.050000
0
CIRCLE
8
0
10
-0.575000
20
-1.298000
40
0.030000
0
INSERT
8
0
2
EPAD
10
-0.475000
20
-1.298000
41
0.050000
42
0.050000
0
CIRCLE
8
0
10
-0.475000
20
-1.298000
40
0.030000
0
INSERT
8
0
2
EPAD
10
-0.375000
20
-1.298000
41
0.050000
42
0.050000
0
CIRCLE
8
0
10
-0.375000
20
-1.298000
40
0.030000
0
INSERT
8
0
2
EPAD
10
-0.275000
20
-1.298000
41
0.050000
42
0.050000
0
CIRCLE
8
0
10
-0.275000
20
-1.298000
40
0.030000
0
INSERT
8
0
2
EPAD
10
-0.175000
20
-1.298000
41
0.050000
42
0.050000
0
CIRCLE
8
0
10
-0.175000
20
-1.298000
40
0.030000
0
INSERT
8
0
2
EPAD
10
-0.075000
20
-1.298000
41
0.050000
42
0.050000
0
CIRCLE
8
0
10
-0.075000
20
-1.298000
40
0.030000
0
INSERT
8
0
2
EPAD
10
-0.075000
20
-0.998000
41
0.050000
42
0.050000
0
CIRCLE
8
0
10
-0.075000
20
-0.998000
40
0.030000
0
INSERT
8
0
2
EPAD
10
-0.175000
20
-0.998000
41
0.050000
42
0.050000
0
CIRCLE
8
0
10
-0.175000
20
-0.998000
40
0.030000
0
INSERT
8
0
2
EPAD
10
-0.275000
20
-0.998000
41
0.050000
42
0.050000
0
CIRCLE
8
0
10
-0.275000
20
-0.998000
40
0.030000
0
INSERT
8
0
2
EPAD
10
-0.375000
20
-0.998000
41
0.050000
42
0.050000
0
CIRCLE
8
0
10
-0.375000
20
-0.998000
40
0.030000
0
INSERT
8
0
2
EPAD
10
-0.475000
20
-0.998000
41
0.050000
42
0.050000
0
CIRCLE
8
0
10
-0.475000
20
-0.998000
40
0.030000
0
INSERT
8
0
2
EPAD
10
-0.575000
20
-0.998000
41
0.050000
42
0.050000
0
CIRCLE
8
0
10
-0.575000
20
-0.998000
40
0.030000
0
INSERT
8
0
2
EPAD
10
-0.675000
20
-0.998000
41
0.050000
42
0.050000
0
CIRCLE
8
0
10
-0.675000
20
-0.998000
40
0.030000
0
INSERT
8
0
2
RPAD
10
-0.217000
20
0.560000
41
0.050000
42
0.050000
50
0.000000
0
CIRCLE
8
0
10
-0.217000
20
0.560000
40
0.030000
0
INSERT
8
0
2
EPAD
10
-0.117000
20
0.560000
41
0.050000
42
0.050000
0
CIRCLE
8
0
10
-0.117000
20
0.560000
40
0.030000
0
INSERT
8
0
2
EPAD
10
-0.017000
20
0.560000
41
0.050000
42
0.050000
0
CIRCLE
8
0
10
-0.017000
20
0.560000
40
0.030000
0
INSERT
8
0
2
EPAD
10
-0.017000
20
0.860000
41
0.050000
42
0.050000
0
CIRCLE
8
0
10
-0.017000
20
0.860000
40
0.030000
0
INSERT
8
0
2
EPAD
10
-0.117000
20
0.860000
41
0.050000
42
0.050000
0
CIRCLE
8
0
10
-0.117000
20
0.860000
40
0.030000
0
INSERT
8
0
2
EPAD
10
-0.217000
20
0.860000
41
0.050000
42
0.050000
0
CIRCLE
8
0
10
-0.217000
20
0.860000
40
0.030000
0
INSERT
8
0
2
RPAD
10
0.046000
20
1.391000
41
0.080000
42
0.080000
50
180.000000
0
CIRCLE
8
0
10
0.046000
20
1.391000
40
0.025000
0
INSERT
8
0
2
RPAD
10
-0.053000
20
1.391000
41
0.080000
42
0.080000
50
180.000000
0
CIRCLE
8
0
10
-0.053000
20
1.391000
40
0.025000
0
INSERT
8
0
2
RPAD
10
-0.153000
20
1.391000
41
0.080000
42
0.080000
50
180.000000
0
CIRCLE
8
0
10
-0.153000
20
1.391000
40
0.025000
0
INSERT
8
0
2
RPAD
10
-0.787000
20
0.558000
41
0.050000
42
0.050000
50
0.000000
0
CIRCLE
8
0
10
-0.787000
20
0.558000
40
0.030000
0
INSERT
8
0
2
EPAD
10
-0.687000
20
0.558000
41
0.050000
42
0.050000
0
CIRCLE
8
0
10
-0.687000
20
0.558000
40
0.030000
0
INSERT
8
0
2
EPAD
10
-0.587000
20
0.558000
41
0.050000
42
0.050000
0
CIRCLE
8
0
10
-0.587000
20
0.558000
40
0.030000
0
INSERT
8
0
2
EPAD
10
-0.587000
20
0.858000
41
0.050000
42
0.050000
0
CIRCLE
8
0
10
-0.587000
20
0.858000
40
0.030000
0
INSERT
8
0
2
EPAD
10
-0.687000
20
0.858000
41
0.050000
42
0.050000
0
CIRCLE
8
0
10
-0.687000
20
0.858000
40
0.030000
0
INSERT
8
0
2
EPAD
10
-0.787000
20
0.858000
41
0.050000
42
0.050000
0
CIRCLE
8
0
10
-0.787000
20
0.858000
40
0.030000
0
INSERT
8
0
2
RPAD
10
-0.575000
20
1.391000
41
0.080000
42
0.080000
50
180.000000
0
CIRCLE
8
0
10
-0.575000
20
1.391000
40
0.025000
0
INSERT
8
0
2
RPAD
10
-0.675000
20
1.391000
41
0.080000
42
0.080000
50
180.000000
0
CIRCLE
8
0
10
-0.675000
20
1.391000
40
0.025000
0
INSERT
8
0
2
RPAD
10
-0.775000
20
1.391000
41
0.080000
42
0.080000
50
180.000000
0
CIRCLE
8
0
10
-0.775000
20
1.391000
40
0.025000
0
INSERT
8
0
2
RPAD
10
-1.395000
20
0.551000
41
0.050000
42
0.050000
50
0.000000
0
CIRCLE
8
0
10
-1.395000
20
0.551000
40
0.030000
0
INSERT
8
0
2
EPAD
10
-1.295000
20
0.551000
41
0.050000
42
0.050000
0
CIRCLE
8
0
10
-1.295000
20
0.551000
40
0.030000
0
INSERT
8
0
2
EPAD
10
-1.195000
20
0.551000
41
0.050000
42
0.050000
0
CIRCLE
8
0
10
-1.195000
20
0.551000
40
0.030000
0
INSERT
8
0
2
EPAD
10
-1.195000
20
0.851000
41
0.050000
42
0.050000
0
CIRCLE
8
0
10
-1.195000
20
0.851000
40
0.030000
0
INSERT
8
0
2
EPAD
10
-1.295000
20
0.851000
41
0.050000
42
0.050000
0
CIRCLE
8
0
10
-1.295000
20
0.851000
40
0.030000
0
INSERT
8
0
2
EPAD
10
-1.395000
20
0.851000
41
0.050000
42
0.050000
0
CIRCLE
8
0
10
-1.395000
20
0.851000
40
0.030000
0
INSERT
8
0
2
RPAD
10
-1.209000
20
1.391000
41
0.080000
42
0.080000
50
180.000000
0
CIRCLE
8
0
10
-1.209000
20
1.391000
40
0.025000
0
INSERT
8
0
2
RPAD
10
-1.309000
20
1.391000
41
0.080000
42
0.080000
50
180.000000
0
CIRCLE
8
0
10
-1.309000
20
1.391000
40
0.025000
0
INSERT
8
0
2
RPAD
10
-1.409000
20
1.391000
41
0.080000
42
0.080000
50
180.000000
0
CIRCLE
8
0
10
-1.409000
20
1.391000
40
0.025000
0
INSERT
8
0
2
RPAD
10
0.332000
20
0.562000
41
0.050000
42
0.050000
50
0.000000
0
CIRCLE
8
0
10
0.332000
20
0.562000
40
0.030000
0
INSERT
8
0
2
EPAD
10
0.432000
20
0.562000
41
0.050000
42
0.050000
0
CIRCLE
8
0
10
0.432000
20
0.562000
40
0.030000
0
INSERT
8
0
2
EPAD
10
0.532000
20
0.562000
41
0.050000
42
0.050000
0
CIRCLE
8
0
10
0.532000
20
0.562000
40
0.030000
0
INSERT
8
0
2
EPAD
10
0.532000
20
0.862000
41
0.050000
42
0.050000
0
CIRCLE
8
0
10
0.532000
20
0.862000
40
0.030000
0
INSERT
8
0
2
EPAD
10
0.432000
20
0.862000
41
0.050000
42
0.050000
0
CIRCLE
8
0
10
0.432000
20
0.862000
40
0.030000
0
INSERT
8
0
2
EPAD
10
0.332000
20
0.862000
41
0.050000
42
0.050000
0
CIRCLE
8
0
10
0.332000
20
0.862000
40
0.030000
0
INSERT
8
0
2
RPAD
10
0.663000
20
1.395000
41
0.080000
42
0.080000
50
180.000000
0
CIRCLE
8
0
10
0.663000
20
1.395000
40
0.025000
0
INSERT
8
0
2
RPAD
10
0.563000
20
1.395000
41
0.080000
42
0.080000
50
180.000000
0
CIRCLE
8
0
10
0.563000
20
1.395000
40
0.025000
0
INSERT
8
0
2
RPAD
10
0.463000
20
1.395000
41
0.080000
42
0.080000
50
180.000000
0
CIRCLE
8
0
10
0.463000
20
1.395000
40
0.025000
0
INSERT
8
0
2
EPAD
10
0.119000
20
-1.423000
41
0.070000
42
0.070000
0
CIRCLE
8
0
10
0.119000
20
-1.423000
40
0.025000
0
INSERT
8
0
2
EPAD
10
-0.280000
20
-1.423000
41
0.070000
42
0.070000
0
CIRCLE
8
0
10
-0.280000
20
-1.423000
40
0.025000
0
INSERT
8
0
2
EPAD
10
-0.386000
20
-1.585000
41
0.080000
42
0.080000
0
CIRCLE
8
0
10
-0.386000
20
-1.585000
40
0.025000
0
INSERT
8
0
2
EPAD
10
-0.486000
20
-1.585000
41
0.080000
42
0.080000
0
CIRCLE
8
0
10
-0.486000
20
-1.585000
40
0.025000
0
INSERT
8
0
2
EPAD
10
0.122000
20
-1.558000
41
0.070000
42
0.070000
0
CIRCLE
8
0
10
0.122000
20
-1.558000
40
0.025000
0
INSERT
8
0
2
EPAD
10
-0.277000
20
-1.558000
41
0.070000
42
0.070000
0
CIRCLE
8
0
10
-0.277000
20
-1.558000
40
0.025000
0
INSERT
8
0
2
EPAD
10
-0.153000
20
-1.764000
41
0.070000
42
0.070000
0
CIRCLE
8
0
10
-0.153000
20
-1.764000
40
0.025000
0
INSERT
8
0
2
EPAD
10
-0.053000
20
-1.764000
41
0.070000
42
0.070000
0
CIRCLE
8
0
10
-0.053000
20
-1.764000
40
0.025000
0
INSERT
8
0
2
EPAD
10
-0.639000
20
-1.487000
41
0.070000
42
0.070000
0
CIRCLE
8
0
10
-0.639000
20
-1.487000
40
0.025000
0
INSERT
8
0
2
EPAD
10
-1.039000
20
-1.487000
41
0.070000
42
0.070000
0
CIRCLE
8
0
10
-1.039000
20
-1.487000
40
0.025000
0
INSERT
8
0
2
EPAD
10
-1.046000
20
-1.707000
41
0.070000
42
0.070000
0
CIRCLE
8
0
10
-1.046000
20
-1.707000
40
0.025000
0
INSERT
8
0
2
EPAD
10
-0.646000
20
-1.707000
41
0.070000
42
0.070000
0
CIRCLE
8
0
10
-0.646000
20
-1.707000
40
0.025000
0
INSERT
8
0
2
EPAD
10
-1.011000
20
-1.324000
41
0.070000
42
0.070000
0
CIRCLE
8
0
10
-1.011000
20
-1.324000
40
0.025000
0
INSERT
8
0
2
EPAD
10
-0.911000
20
-1.324000
41
0.070000
42
0.070000
0
CIRCLE
8
0
10
-0.911000
20
-1.324000
40
0.025000
0
INSERT
8
0
2
EPAD
10
-0.766000
20
-2.265000
41
0.120000
42
0.120000
0
CIRCLE
8
0
10
-0.766000
20
-2.265000
40
0.030000
0
INSERT
8
0
2
EPAD
10
-0.566000
20
-2.265000
41
0.120000
42
0.120000
0
CIRCLE
8
0
10
-0.566000
20
-2.265000
40
0.030000
0
INSERT
8
0
2
EPAD
10
-0.366000
20
-2.265000
41
0.120000
42
0.120000
0
CIRCLE
8
0
10
-0.366000
20
-2.265000
40
0.030000
0
INSERT
8
0
2
EPAD
10
-0.699000
20
-0.870000
41
0.070000
42
0.070000
0
CIRCLE
8
0
10
-0.699000
20
-0.870000
40
0.025000
0
INSERT
8
0
2
EPAD
10
-0.299000
20
-0.870000
41
0.070000
42
0.070000
0
CIRCLE
8
0
10
-0.299000
20
-0.870000
40
0.025000
0
INSERT
8
0
2
EPAD
10
-0.302000
20
-0.750000
41
0.070000
42
0.070000
0
CIRCLE
8
0
10
-0.302000
20
-0.750000
40
0.025000
0
INSERT
8
0
2
EPAD
10
-0.702000
20
-0.750000
41
0.070000
42
0.070000
0
CIRCLE
8
0
10
-0.702000
20
-0.750000
40
0.025000
0
INSERT
8
0
2
EPAD
10
0.659000
20
0.971000
41
0.070000
42
0.070000
0
CIRCLE
8
0
10
0.659000
20
0.971000
40
0.025000
0
INSERT
8
0
2
EPAD
10
0.659000
20
0.571000
41
0.070000
42
0.070000
0
CIRCLE
8
0
10
0.659000
20
0.571000
40
0.025000
0
INSERT
8
0
2
EPAD
10
0.332000
20
0.302000
41
0.070000
42
0.070000
0
CIRCLE
8
0
10
0.332000
20
0.302000
40
0.025000
0
INSERT
8
0
2
EPAD
10
0.732000
20
0.302000
41
0.070000
42
0.070000
0
CIRCLE
8
0
10
0.732000
20
0.302000
40
0.025000
0
INSERT
8
0
2
EPAD
10
-0.420000
20
0.959000
41
0.070000
42
0.070000
0
CIRCLE
8
0
10
-0.420000
20
0.959000
40
0.025000
0
INSERT
8
0
2
EPAD
10
-0.420000
20
0.559000
41
0.070000
42
0.070000
0
CIRCLE
8
0
10
-0.420000
20
0.559000
40
0.025000
0
INSERT
8
0
2
EPAD
10
-0.802000
20
0.314000
41
0.070000
42
0.070000
0
CIRCLE
8
0
10
-0.802000
20
0.314000
40
0.025000
0
INSERT
8
0
2
EPAD
10
-0.402000
20
0.314000
41
0.070000
42
0.070000
0
CIRCLE
8
0
10
-0.402000
20
0.314000
40
0.025000
0
INSERT
8
0
2
EPAD
10
0.118000
20
0.966000
41
0.070000
42
0.070000
0
CIRCLE
8
0
10
0.118000
20
0.966000
40
0.025000
0
INSERT
8
0
2
EPAD
10
0.118000
20
0.566000
41
0.070000
42
0.070000
0
CIRCLE
8
0
10
0.118000
20
0.566000
40
0.025000
0
INSERT
8
0
2
EPAD
10
-0.228000
20
0.309000
41
0.070000
42
0.070000
0
CIRCLE
8
0
10
-0.228000
20
0.309000
40
0.025000
0
INSERT
8
0
2
EPAD
10
0.171000
20
0.309000
41
0.070000
42
0.070000
0
CIRCLE
8
0
10
0.171000
20
0.309000
40
0.025000
0
INSERT
8
0
2
EPAD
10
-1.022000
20
0.959000
41
0.070000
42
0.070000
0
CIRCLE
8
0
10
-1.022000
20
0.959000
40
0.025000
0
INSERT
8
0
2
EPAD
10
-1.022000
20
0.559000
41
0.070000
42
0.070000
0
CIRCLE
8
0
10
-1.022000
20
0.559000
40
0.025000
0
INSERT
8
0
2
EPAD
10
-1.395000
20
0.310000
41
0.070000
42
0.070000
0
CIRCLE
8
0
10
-1.395000
20
0.310000
40
0.025000
0
INSERT
8
0
2
EPAD
10
-0.995000
20
0.310000
41
0.070000
42
0.070000
0
CIRCLE
8
0
10
-0.995000
20
0.310000
40
0.025000
0
INSERT
8
0
2
EPAD
10
-1.296000
20
1.093000
41
0.090000
42
0.090000
0
CIRCLE
8
0
10
-1.296000
20
1.093000
40
0.025000
0
INSERT
8
0
2
EPAD
10
-0.662000
20
1.088000
41
0.090000
42
0.090000
0
CIRCLE
8
0
10
-0.662000
20
1.088000
40
0.025000
0
INSERT
8
0
2
EPAD
10
-0.040000
20
1.084000
41
0.090000
42
0.090000
0
CIRCLE
8
0
10
-0.040000
20
1.084000
40
0.025000
0
INSERT
8
0
2
EPAD
10
0.576000
20
1.084000
41
0.090000
42
0.090000
0
CIRCLE
8
0
10
0.576000
20
1.084000
40
0.025000
0
INSERT
8
0
2
EPAD
10
1.374000
20
1.810000
41
0.080000
42
0.080000
0
CIRCLE
8
0
10
1.374000
20
1.810000
40
0.025000
0
INSERT
8
0
2
EPAD
10
0.774000
20
1.810000
41
0.080000
42
0.080000
0
CIRCLE
8
0
10
0.774000
20
1.810000
40
0.025000
0
INSERT
8
0
2
EPAD
10
0.395000
20
1.574000
41
0.070000
42
0.070000
0
CIRCLE
8
0
10
0.395000
20
1.574000
40
0.025000
0
INSERT
8
0
2
EPAD
10
0.795000
20
1.574000
41
0.070000
42
0.070000
0
CIRCLE
8
0
10
0.795000
20
1.574000
40
0.025000
0
INSERT
8
0
2
EPAD
10
0.884000
20
2.172000
41
0.120000
42
0.120000
0
CIRCLE
8
0
10
0.884000
20
2.172000
40
0.030000
0
INSERT
8
0
2
EPAD
10
1.084000
20
2.172000
41
0.120000
42
0.120000
0
CIRCLE
8
0
10
1.084000
20
2.172000
40
0.030000
0
INSERT
8
0
2
EPAD
10
1.284000
20
2.172000
41
0.120000
42
0.120000
0
CIRCLE
8
0
10
1.284000
20
2.172000
40
0.030000
0
INSERT
8
0
2
EPAD
10
0.646000
20
1.806000
41
0.080000
42
0.080000
0
CIRCLE
8
0
10
0.646000
20
1.806000
40
0.025000
0
INSERT
8
0
2
EPAD
10
0.046000
20
1.806000
41
0.080000
42
0.080000
0
CIRCLE
8
0
10
0.046000
20
1.806000
40
0.025000
0
INSERT
8
0
2
EPAD
10
-0.082000
20
1.806000
41
0.080000
42
0.080000
0
CIRCLE
8
0
10
-0.082000
20
1.806000
40
0.025000
0
INSERT
8
0
2
EPAD
10
-0.682000
20
1.806000
41
0.080000
42
0.080000
0
CIRCLE
8
0
10
-0.682000
20
1.806000
40
0.025000
0
INSERT
8
0
2
EPAD
10
-0.873000
20
1.798000
41
0.080000
42
0.080000
0
CIRCLE
8
0
10
-0.873000
20
1.798000
40
0.025000
0
INSERT
8
0
2
EPAD
10
-1.473000
20
1.798000
41
0.080000
42
0.080000
0
CIRCLE
8
0
10
-1.473000
20
1.798000
40
0.025000
0
INSERT
8
0
2
EPAD
10
0.490000
20
-0.728000
41
0.070000
42
0.070000
0
CIRCLE
8
0
10
0.490000
20
-0.728000
40
0.025000
0
INSERT
8
0
2
EPAD
10
0.890000
20
-0.728000
41
0.070000
42
0.070000
0
CIRCLE
8
0
10
0.890000
20
-0.728000
40
0.025000
0
INSERT
8
0
2
RPAD
10
0.590000
20
-1.055000
41
0.080000
42
0.080000
50
0.000000
0
CIRCLE
8
0
10
0.590000
20
-1.055000
40
0.025000
0
INSERT
8
0
2
RPAD
10
0.690000
20
-1.055000
41
0.080000
42
0.080000
50
0.000000
0
CIRCLE
8
0
10
0.690000
20
-1.055000
40
0.025000
0
INSERT
8
0
2
RPAD
10
0.790000
20
-1.055000
41
0.080000
42
0.080000
50
0.000000
0
CIRCLE
8
0
10
0.790000
20
-1.055000
40
0.025000
0
INSERT
8
0
2
EPAD
10
0.088000
20
-1.104000
41
0.070000
42
0.070000
0
CIRCLE
8
0
10
0.088000
20
-1.104000
40
0.025000
0
INSERT
8
0
2
EPAD
10
0.088000
20
-1.204000
41
0.070000
42
0.070000
0
CIRCLE
8
0
10
0.088000
20
-1.204000
40
0.025000
0
INSERT
8
0
2
EPAD
10
-1.547000
20
0.052000
41
0.080000
42
0.080000
0
CIRCLE
8
0
10
-1.547000
20
0.052000
40
0.010000
0
INSERT
8
0
2
EPAD
10
-1.547000
20
-0.047000
41
0.080000
42
0.080000
0
CIRCLE
8
0
10
-1.547000
20
-0.047000
40
0.010000
0
INSERT
8
0
2
EPAD
10
-1.547000
20
-0.147000
41
0.080000
42
0.080000
0
CIRCLE
8
0
10
-1.547000
20
-0.147000
40
0.010000
0
INSERT
8
0
2
EPAD
10
-1.547000
20
-0.247000
41
0.080000
42
0.080000
0
CIRCLE
8
0
10
-1.547000
20
-0.247000
40
0.010000
0
INSERT
8
0
2
EPAD
10
-1.547000
20
-0.347000
41
0.080000
42
0.080000
0
CIRCLE
8
0
10
-1.547000
20
-0.347000
40
0.010000
0
INSERT
8
0
2
EPAD
10
-1.547000
20
-0.447000
41
0.080000
42
0.080000
0
CIRCLE
8
0
10
-1.547000
20
-0.447000
40
0.010000
0
INSERT
8
0
2
EPAD
10
-1.547000
20
-0.547000
41
0.080000
42
0.080000
0
CIRCLE
8
0
10
-1.547000
20
-0.547000
40
0.010000
0
INSERT
8
0
2
EPAD
10
-1.547000
20
-0.647000
41
0.080000
42
0.080000
0
CIRCLE
8
0
10
-1.547000
20
-0.647000
40
0.010000
0
INSERT
8
0
2
EPAD
10
-0.599000
20
2.196000
41
0.120000
42
0.120000
0
CIRCLE
8
0
10
-0.599000
20
2.196000
40
0.030000
0
INSERT
8
0
2
EPAD
10
-0.399000
20
2.196000
41
0.120000
42
0.120000
0
CIRCLE
8
0
10
-0.399000
20
2.196000
40
0.030000
0
INSERT
8
0
2
EPAD
10
-0.199000
20
2.196000
41
0.120000
42
0.120000
0
CIRCLE
8
0
10
-0.199000
20
2.196000
40
0.030000
0
INSERT
8
0
2
EPAD
10
0.152000
20
2.180000
41
0.120000
42
0.120000
0
CIRCLE
8
0
10
0.152000
20
2.180000
40
0.030000
0
INSERT
8
0
2
EPAD
10
0.352000
20
2.180000
41
0.120000
42
0.120000
0
CIRCLE
8
0
10
0.352000
20
2.180000
40
0.030000
0
INSERT
8
0
2
EPAD
10
0.552000
20
2.180000
41
0.120000
42
0.120000
0
CIRCLE
8
0
10
0.552000
20
2.180000
40
0.030000
0
INSERT
8
0
2
EPAD
10
-1.304000
20
2.188000
41
0.120000
42
0.120000
0
CIRCLE
8
0
10
-1.304000
20
2.188000
40
0.030000
0
INSERT
8
0
2
EPAD
10
-1.104000
20
2.188000
41
0.120000
42
0.120000
0
CIRCLE
8
0
10
-1.104000
20
2.188000
40
0.030000
0
INSERT
8
0
2
EPAD
10
-0.904000
20
2.188000
41
0.120000
42
0.120000
0
CIRCLE
8
0
10
-0.904000
20
2.188000
40
0.030000
0
INSERT
8
0
2
EPAD
10
1.438000
20
1.440000
41
0.120000
42
0.120000
0
CIRCLE
8
0
10
1.438000
20
1.440000
40
0.030000
0
INSERT
8
0
2
EPAD
10
1.438000
20
1.240000
41
0.120000
42
0.120000
0
CIRCLE
8
0
10
1.438000
20
1.240000
40
0.030000
0
INSERT
8
0
2
EPAD
10
1.438000
20
1.040000
41
0.120000
42
0.120000
0
CIRCLE
8
0
10
1.438000
20
1.040000
40
0.030000
0
INSERT
8
0
2
EPAD
10
-0.910000
20
-0.704000
41
0.070000
42
0.070000
0
CIRCLE
8
0
10
-0.910000
20
-0.704000
40
0.025000
0
INSERT
8
0
2
EPAD
10
-0.910000
20
-1.104000
41
0.070000
42
0.070000
0
CIRCLE
8
0
10
-0.910000
20
-1.104000
40
0.025000
0
INSERT
8
0
2
EPAD
10
-0.815000
20
-1.104000
41
0.070000
42
0.070000
0
CIRCLE
8
0
10
-0.815000
20
-1.104000
40
0.025000
0
INSERT
8
0
2
EPAD
10
-0.815000
20
-0.704000
41
0.070000
42
0.070000
0
CIRCLE
8
0
10
-0.815000
20
-0.704000
40
0.025000
0
INSERT
8
0
2
EPAD
10
-1.358000
20
0.230000
41
0.070000
42
0.070000
0
CIRCLE
8
0
10
-1.358000
20
0.230000
40
0.025000
0
INSERT
8
0
2
EPAD
10
-1.358000
20
-0.169000
41
0.070000
42
0.070000
0
CIRCLE
8
0
10
-1.358000
20
-0.169000
40
0.025000
0
INSERT
8
0
2
EPAD
10
-1.253000
20
0.232000
41
0.070000
42
0.070000
0
CIRCLE
8
0
10
-1.253000
20
0.232000
40
0.025000
0
INSERT
8
0
2
EPAD
10
-1.253000
20
-0.167000
41
0.070000
42
0.070000
0
CIRCLE
8
0
10
-1.253000
20
-0.167000
40
0.025000
0
INSERT
8
0
2
EPAD
10
-1.234000
20
-0.311000
41
0.070000
42
0.070000
0
CIRCLE
8
0
10
-1.234000
20
-0.311000
40
0.025000
0
INSERT
8
0
2
EPAD
10
-1.234000
20
-0.711000
41
0.070000
42
0.070000
0
CIRCLE
8
0
10
-1.234000
20
-0.711000
40
0.025000
0
INSERT
8
0
2
EPAD
10
-1.356000
20
-0.307000
41
0.070000
42
0.070000
0
CIRCLE
8
0
10
-1.356000
20
-0.307000
40
0.025000
0
INSERT
8
0
2
EPAD
10
-1.356000
20
-0.707000
41
0.070000
42
0.070000
0
CIRCLE
8
0
10
-1.356000
20
-0.707000
40
0.025000
0
INSERT
8
0
2
EPAD
10
0.980000
20
-0.913000
41
0.080000
42
0.080000
0
CIRCLE
8
0
10
0.980000
20
-0.913000
40
0.025000
0
INSERT
8
0
2
EPAD
10
1.180000
20
-0.913000
41
0.080000
42
0.080000
0
CIRCLE
8
0
10
1.180000
20
-0.913000
40
0.025000
0
INSERT
8
0
2
EPAD
10
1.080000
20
-0.693000
41
0.080000
42
0.080000
0
CIRCLE
8
0
10
1.080000
20
-0.693000
40
0.025000
0
INSERT
8
0
2
EPAD
10
-0.844000
20
1.578000
41
0.070000
42
0.070000
0
CIRCLE
8
0
10
-0.844000
20
1.578000
40
0.025000
0
INSERT
8
0
2
EPAD
10
-0.444000
20
1.578000
41
0.070000
42
0.070000
0
CIRCLE
8
0
10
-0.444000
20
1.578000
40
0.025000
0
INSERT
8
0
2
EPAD
10
-1.533000
20
1.582000
41
0.070000
42
0.070000
0
CIRCLE
8
0
10
-1.533000
20
1.582000
40
0.025000
0
INSERT
8
0
2
EPAD
10
-1.133000
20
1.582000
41
0.070000
42
0.070000
0
CIRCLE
8
0
10
-1.133000
20
1.582000
40
0.025000
0
INSERT
8
0
2
EPAD
10
-0.222000
20
1.582000
41
0.070000
42
0.070000
0
CIRCLE
8
0
10
-0.222000
20
1.582000
40
0.025000
0
INSERT
8
0
2
EPAD
10
0.177000
20
1.582000
41
0.070000
42
0.070000
0
CIRCLE
8
0
10
0.177000
20
1.582000
40
0.025000
0
INSERT
8
0
2
EPAD
10
0.190000
20
-0.299000
41
0.080000
42
0.080000
0
CIRCLE
8
0
10
0.190000
20
-0.299000
40
0.025000
0
INSERT
8
0
2
EPAD
10
0.390000
20
-0.299000
41
0.080000
42
0.080000
0
CIRCLE
8
0
10
0.390000
20
-0.299000
40
0.025000
0
INSERT
8
0
2
EPAD
10
0.869000
20
-0.323000
41
0.070000
42
0.070000
0
CIRCLE
8
0
10
0.869000
20
-0.323000
40
0.025000
0
INSERT
8
0
2
EPAD
10
0.669000
20
-0.323000
41
0.070000
42
0.070000
0
CIRCLE
8
0
10
0.669000
20
-0.323000
40
0.025000
0
INSERT
8
0
2
EPAD
10
0.198000
20
-0.653000
41
0.070000
42
0.070000
0
CIRCLE
8
0
10
0.198000
20
-0.653000
40
0.025000
0
INSERT
8
0
2
EPAD
10
0.198000
20
-0.853000
41
0.070000
42
0.070000
0
CIRCLE
8
0
10
0.198000
20
-0.853000
40
0.025000
0
INSERT
8
0
2
EPAD
10
0.336000
20
-0.652000
41
0.070000
42
0.070000
0
CIRCLE
8
0
10
0.336000
20
-0.652000
40
0.025000
0
INSERT
8
0
2
EPAD
10
0.336000
20
-0.852000
41
0.070000
42
0.070000
0
CIRCLE
8
0
10
0.336000
20
-0.852000
40
0.025000
0
INSERT
8
0
2
EPAD
10
-1.561000
20
2.322000
41
0.250000
42
0.250000
0
CIRCLE
8
0
10
-1.561000
20
2.322000
40
0.030000
0
INSERT
8
0
2
EPAD
10
1.533000
20
2.330000
41
0.250000
42
0.250000
0
CIRCLE
8
0
10
1.533000
20
2.330000
40
0.030000
0
INSERT
8
0
2
EPAD
10
0.994000
20
-2.319000
41
0.250000
42
0.250000
0
CIRCLE
8
0
10
0.994000
20
-2.319000
40
0.030000
0
INSERT
8
0
2
EPAD
10
-1.118000
20
-0.786000
41
0.080000
42
0.080000
0
CIRCLE
8
0
10
-1.118000
20
-0.786000
40
0.010000
0
INSERT
8
0
2
EPAD
10
-1.018000
20
-0.786000
41
0.080000
42
0.080000
0
CIRCLE
8
0
10
-1.018000
20
-0.786000
40
0.010000
0
INSERT
8
0
2
RPAD
10
1.414000
20
0.788000
41
0.080000
42
0.080000
50
270.000000
0
CIRCLE
8
0
10
1.414000
20
0.788000
40
0.025000
0
INSERT
8
0
2
RPAD
10
1.414000
20
0.688000
41
0.080000
42
0.080000
50
270.000000
0
CIRCLE
8
0
10
1.414000
20
0.688000
40
0.025000
0
INSERT
8
0
2
RPAD
10
1.414000
20
0.588000
41
0.080000
42
0.080000
50
270.000000
0
CIRCLE
8
0
10
1.414000
20
0.588000
40
0.025000
0
INSERT
8
0
2
RPAD
10
1.414000
20
0.488000
41
0.080000
42
0.080000
50
270.000000
0
CIRCLE
8
0
10
1.414000
20
0.488000
40
0.025000
0
INSERT
8
0
2
RPAD
10
1.414000
20
0.388000
41
0.080000
42
0.080000
50
270.000000
0
CIRCLE
8
0
10
1.414000
20
0.388000
40
0.025000
0
INSERT
8
0
2
RPAD
10
1.414000
20
0.288000
41
0.080000
42
0.080000
50
270.000000
0
CIRCLE
8
0
10
1.414000
20
0.288000
40
0.025000
0
INSERT
8
0
2
RPAD
10
1.414000
20
0.188000
41
0.080000
42
0.080000
50
270.000000
0
CIRCLE
8
0
10
1.414000
20
0.188000
40
0.025000
0
INSERT
8
0
2
RPAD
10
1.414000
20
0.088000
41
0.080000
42
0.080000
50
270.000000
0
CIRCLE
8
0
10
1.414000
20
0.088000
40
0.025000
0
INSERT
8
0
2
RPAD
10
1.414000
20
-0.011000
41
0.080000
42
0.080000
50
270.000000
0
CIRCLE
8
0
10
1.414000
20
-0.011000
40
0.025000
0
INSERT
8
0
2
RPAD
10
1.414000
20
-0.111000
41
0.080000
42
0.080000
50
270.000000
0
CIRCLE
8
0
10
1.414000
20
-0.111000
40
0.025000
0
INSERT
8
0
2
RPAD
10
1.414000
20
-0.211000
41
0.080000
42
0.080000
50
270.000000
0
CIRCLE
8
0
10
1.414000
20
-0.211000
40
0.025000
0
INSERT
8
0
2
RPAD
10
1.414000
20
-0.311000
41
0.080000
42
0.080000
50
270.000000
0
CIRCLE
8
0
10
1.414000
20
-0.311000
40
0.025000
0
INSERT
8
0
2
RPAD
10
1.414000
20
-0.411000
41
0.080000
42
0.080000
50
270.000000
0
CIRCLE
8
0
10
1.414000
20
-0.411000
40
0.025000
0
INSERT
8
0
2
RPAD
10
1.414000
20
-0.511000
41
0.080000
42
0.080000
50
270.000000
0
CIRCLE
8
0
10
1.414000
20
-0.511000
40
0.025000
0
INSERT
8
0
2
RPAD
10
1.414000
20
-0.611000
41
0.080000
42
0.080000
50
270.000000
0
CIRCLE
8
0
10
1.414000
20
-0.611000
40
0.025000
0
INSERT
8
0
2
RPAD
10
1.414000
20
-0.711000
41
0.080000
42
0.080000
50
270.000000
0
CIRCLE
8
0
10
1.414000
20
-0.711000
40
0.025000
0
POLYLINE
8
0
66
1
40
0.008000
41
0.008000
0
VERTEX
8
0
10
-1.706000
20
-2.488000
0
VERTEX
8
0
10
1.706000
20
-2.488000
0
VERTEX
8
0
10
1.706000
20
2.480000
0
VERTEX
8
0
10
-1.706000
20
2.480000
0
VERTEX
8
0
10
-1.706000
20
-2.488000
0
SEQEND
8
0
0
CIRCLE
8
12632256
10
0.478000
20
-2.210000
40
0.213000
0
POLYLINE
8
0
66
1
40
0.008000
41
0.008000
0
VERTEX
8
0
10
0.398000
20
-2.020000
0
VERTEX
8
0
10
0.398000
20
-2.060000
0
SEQEND
8
0
0
POLYLINE
8
0
66
1
40
0.008000
41
0.008000
0
VERTEX
8
0
10
0.378000
20
-2.040000
0
VERTEX
8
0
10
0.418000
20
-2.040000
0
SEQEND
8
0
0
TEXT
8
12632256
10
0.403000
20
-1.987000
40
0.048000
41
1.041667
1
BR1
0
POLYLINE
8
0
66
1
40
0.008000
41
0.008000
0
VERTEX
8
0
10
-0.208000
20
-2.068000
0
VERTEX
8
0
10
-0.208000
20
-2.468000
0
SEQEND
8
0
0
POLYLINE
8
0
66
1
40
0.008000
41
0.008000
0
VERTEX
8
0
10
0.191000
20
-2.068000
0
VERTEX
8
0
10
0.191000
20
-2.468000
0
SEQEND
8
0
0
POLYLINE
8
0
66
1
40
0.008000
41
0.008000
0
VERTEX
8
0
10
-0.208000
20
-2.468000
0
VERTEX
8
0
10
0.191000
20
-2.468000
0
SEQEND
8
0
0
POLYLINE
8
0
66
1
40
0.008000
41
0.008000
0
VERTEX
8
0
10
-0.208000
20
-2.068000
0
VERTEX
8
0
10
0.191000
20
-2.068000
0
SEQEND
8
0
0
TEXT
8
12632256
10
-0.070000
20
-1.966000
40
0.048000
41
1.041667
1
J8
0
POLYLINE
8
0
66
1
40
0.008000
41
0.008000
0
VERTEX
8
0
10
1.497000
20
-1.887000
0
VERTEX
8
0
10
1.597000
20
-1.887000
0
VERTEX
8
0
10
1.597000
20
-1.587000
0
VERTEX
8
0
10
1.497000
20
-1.587000
0
VERTEX
8
0
10
1.497000
20
-1.887000
0
VERTEX
8
0
10
1.447000
20
-1.887000
0
VERTEX
8
0
10
1.447000
20
-1.587000
0
VERTEX
8
0
10
1.497000
20
-1.587000
0
SEQEND
8
0
0
POLYLINE
8
0
66
1
40
0.008000
41
0.008000
0
VERTEX
8
0
10
1.497000
20
-1.887000
0
VERTEX
8
0
10
1.447000
20
-1.837000
0
SEQEND
8
0
0
POLYLINE
8
0
66
1
40
0.008000
41
0.008000
0
VERTEX
8
0
10
1.497000
20
-1.837000
0
VERTEX
8
0
10
1.447000
20
-1.787000
0
SEQEND
8
0
0
POLYLINE
8
0
66
1
40
0.008000
41
0.008000
0
VERTEX
8
0
10
1.497000
20
-1.787000
0
VERTEX
8
0
10
1.447000
20
-1.737000
0
SEQEND
8
0
0
POLYLINE
8
0
66
1
40
0.008000
41
0.008000
0
VERTEX
8
0
10
1.497000
20
-1.737000
0
VERTEX
8
0
10
1.447000
20
-1.687000
0
SEQEND
8
0
0
POLYLINE
8
0
66
1
40
0.008000
41
0.008000
0
VERTEX
8
0
10
1.497000
20
-1.687000
0
VERTEX
8
0
10
1.447000
20
-1.637000
0
SEQEND
8
0
0
POLYLINE
8
0
66
1
40
0.008000
41
0.008000
0
VERTEX
8
0
10
1.497000
20
-1.637000
0
VERTEX
8
0
10
1.447000
20
-1.587000
0
SEQEND
8
0
0
TEXT
8
12632256
10
1.437000
20
-1.812000
40
0.048000
41
1.041667
50
90.000000
1
U12
0
POLYLINE
8
0
66
1
40
0.008000
41
0.008000
0
VERTEX
8
0
10
1.173000
20
-2.426000
0
VERTEX
8
0
10
1.662000
20
-2.426000
0
VERTEX
8
0
10
1.662000
20
-1.048000
0
VERTEX
8
0
10
1.173000
20
-1.048000
0
VERTEX
8
0
10
1.173000
20
-2.426000
0
SEQEND
8
0
0
POLYLINE
8
0
66
1
40
0.008000
41
0.008000
0
VERTEX
8
0
10
1.018000
20
-1.843000
0
VERTEX
8
0
10
1.123000
20
-1.843000
0
VERTEX
8
0
10
1.123000
20
-1.639000
0
VERTEX
8
0
10
1.018000
20
-1.639000
0
VERTEX
8
0
10
1.018000
20
-1.843000
0
SEQEND
8
0
0
POLYLINE
8
0
66
1
40
0.008000
41
0.008000
0
VERTEX
8
0
10
1.019000
20
-1.811000
0
VERTEX
8
0
10
1.122000
20
-1.811000
0
SEQEND
8
0
0
POLYLINE
8
0
66
1
40
0.008000
41
0.008000
0
VERTEX
8
0
10
1.071000
20
-1.871000
0
VERTEX
8
0
10
1.071000
20
-1.843000
0
SEQEND
8
0
0
POLYLINE
8
0
66
1
40
0.008000
41
0.008000
0
VERTEX
8
0
10
1.071000
20
-1.639000
0
VERTEX
8
0
10
1.071000
20
-1.611000
0
SEQEND
8
0
0
TEXT
8
12632256
10
1.008000
20
-1.791000
40
0.048000
41
1.041667
50
90.000000
1
D2
0
POLYLINE
8
0
66
1
40
0.008000
41
0.008000
0
VERTEX
8
0
10
0.357000
20
-1.842000
0
VERTEX
8
0
10
0.407000
20
-1.842000
0
SEQEND
8
0
0
POLYLINE
8
0
66
1
40
0.008000
41
0.008000
0
VERTEX
8
0
10
0.407000
20
-1.867000
0
VERTEX
8
0
10
0.607000
20
-1.867000
0
VERTEX
8
0
10
0.607000
20
-1.817000
0
VERTEX
8
0
10
0.407000
20
-1.817000
0
VERTEX
8
0
10
0.407000
20
-1.867000
0
SEQEND
8
0
0
POLYLINE
8
0
66
1
40
0.008000
41
0.008000
0
VERTEX
8
0
10
0.607000
20
-1.842000
0
VERTEX
8
0
10
0.657000
20
-1.842000
0
SEQEND
8
0
0
TEXT
8
12632256
10
0.432000
20
-1.807000
40
0.048000
41
1.041667
1
R20
0
CIRCLE
8
12632256
10
0.496000
20
-1.626000
40
0.115000
0
POLYLINE
8
0
66
1
40
0.008000
41
0.008000
0
VERTEX
8
0
10
0.411000
20
-1.576000
0
VERTEX
8
0
10
0.461000
20
-1.576000
0
SEQEND
8
0
0
POLYLINE
8
0
66
1
40
0.008000
41
0.008000
0
VERTEX
8
0
10
0.436000
20
-1.551000
0
VERTEX
8
0
10
0.436000
20
-1.601000
0
SEQEND
8
0
0
TEXT
8
12632256
10
0.421000
20
-1.501000
40
0.048000
41
1.041667
1
C11
0
CIRCLE
8
12632256
10
0.805000
20
-1.635000
40
0.100000
0
POLYLINE
8
0
66
1
40
0.008000
41
0.008000
0
VERTEX
8
0
10
0.855000
20
-1.560000
0
VERTEX
8
0
10
0.855000
20
-1.610000
0
SEQEND
8
0
0
POLYLINE
8
0
66
1
40
0.008000
41
0.008000
0
VERTEX
8
0
10
0.880000
20
-1.585000
0
VERTEX
8
0
10
0.830000
20
-1.585000
0
SEQEND
8
0
0
TEXT
8
12632256
10
0.963000
20
-1.710000
40
0.048000
41
1.041667
50
90.000000
1
C12
0
POLYLINE
8
0
66
1
40
0.008000
41
0.008000
0
VERTEX
8
0
10
0.848000
20
-2.115000
0
VERTEX
8
0
10
0.838000
20
-2.113000
0
VERTEX
8
0
10
0.828000
20
-2.107000
0
VERTEX
8
0
10
0.820000
20
-2.098000
0
VERTEX
8
0
10
0.812000
20
-2.086000
0
VERTEX
8
0
10
0.806000
20
-2.071000
0
VERTEX
8
0
10
0.802000
20
-2.054000
0
VERTEX
8
0
10
0.799000
20
-2.035000
0
VERTEX
8
0
10
0.798000
20
-2.015000
0
SEQEND
8
0
0
POLYLINE
8
0
66
1
40
0.008000
41
0.008000
0
VERTEX
8
0
10
0.848000
20
-1.915000
0
VERTEX
8
0
10
0.838000
20
-1.917000
0
VERTEX
8
0
10
0.828000
20
-1.923000
0
VERTEX
8
0
10
0.820000
20
-1.932000
0
VERTEX
8
0
10
0.812000
20
-1.944000
0
VERTEX
8
0
10
0.806000
20
-1.959000
0
VERTEX
8
0
10
0.802000
20
-1.976000
0
VERTEX
8
0
10
0.799000
20
-1.995000
0
VERTEX
8
0
10
0.798000
20
-2.015000
0
SEQEND
8
0
0
POLYLINE
8
0
66
1
40
0.008000
41
0.008000
0
VERTEX
8
0
10
0.848000
20
-2.115000
0
VERTEX
8
0
10
0.858000
20
-2.113000
0
VERTEX
8
0
10
0.868000
20
-2.107000
0
VERTEX
8
0
10
0.876000
20
-2.098000
0
VERTEX
8
0
10
0.884000
20
-2.086000
0
VERTEX
8
0
10
0.890000
20
-2.071000
0
VERTEX
8
0
10
0.894000
20
-2.054000
0
VERTEX
8
0
10
0.897000
20
-2.035000
0
VERTEX
8
0
10
0.898000
20
-2.015000
0
SEQEND
8
0
0
POLYLINE
8
0
66
1
40
0.008000
41
0.008000
0
VERTEX
8
0
10
0.848000
20
-1.915000
0
VERTEX
8
0
10
0.858000
20
-1.917000
0
VERTEX
8
0
10
0.868000
20
-1.923000
0
VERTEX
8
0
10
0.876000
20
-1.932000
0
VERTEX
8
0
10
0.884000
20
-1.944000
0
VERTEX
8
0
10
0.890000
20
-1.959000
0
VERTEX
8
0
10
0.894000
20
-1.976000
0
VERTEX
8
0
10
0.897000
20
-1.995000
0
VERTEX
8
0
10
0.898000
20
-2.015000
0
SEQEND
8
0
0
TEXT
8
12632256
10
0.788000
20
-2.090000
40
0.048000
41
1.041667
50
90.000000
1
C13
0
POLYLINE
8
0
66
1
40
0.008000
41
0.008000
0
VERTEX
8
0
10
-0.912000
20
-0.223000
0
VERTEX
8
0
10
-0.914000
20
-0.203000
0
VERTEX
8
0
10
-0.920000
20
-0.184000
0
VERTEX
8
0
10
-0.929000
20
-0.167000
0
VERTEX
8
0
10
-0.941000
20
-0.152000
0
VERTEX
8
0
10
-0.956000
20
-0.140000
0
VERTEX
8
0
10
-0.973000
20
-0.131000
0
VERTEX
8
0
10
-0.992000
20
-0.125000
0
VERTEX
8
0
10
-1.012000
20
-0.123000
0
SEQEND
8
0
0
POLYLINE
8
0
66
1
40
0.008000
41
0.008000
0
VERTEX
8
0
10
-0.912000
20
-0.223000
0
VERTEX
8
0
10
-0.914000
20
-0.244000
0
VERTEX
8
0
10
-0.920000
20
-0.263000
0
VERTEX
8
0
10
-0.929000
20
-0.280000
0
VERTEX
8
0
10
-0.941000
20
-0.294000
0
VERTEX
8
0
10
-0.956000
20
-0.306000
0
VERTEX
8
0
10
-0.973000
20
-0.315000
0
VERTEX
8
0
10
-0.992000
20
-0.321000
0
VERTEX
8
0
10
-1.012000
20
-0.323000
0
SEQEND
8
0
0
POLYLINE
8
0
66
1
40
0.008000
41
0.008000
0
VERTEX
8
0
10
-1.012000
20
-0.123000
0
VERTEX
8
0
10
-1.012000
20
0.026000
0
SEQEND
8
0
0
POLYLINE
8
0
66
1
40
0.008000
41
0.008000
0
VERTEX
8
0
10
0.987000
20
0.026000
0
VERTEX
8
0
10
0.987000
20
-0.473000
0
SEQEND
8
0
0
POLYLINE
8
0
66
1
40
0.008000
41
0.008000
0
VERTEX
8
0
10
-1.012000
20
-0.473000
0
VERTEX
8
0
10
-1.012000
20
-0.323000
0
SEQEND
8
0
0
POLYLINE
8
0
66
1
40
0.008000
41
0.008000
0
VERTEX
8
0
10
-1.012000
20
0.026000
0
VERTEX
8
0
10
0.987000
20
0.026000
0
SEQEND
8
0
0
POLYLINE
8
0
66
1
40
0.008000
41
0.008000
0
VERTEX
8
0
10
-1.012000
20
-0.473000
0
VERTEX
8
0
10
0.987000
20
-0.473000
0
SEQEND
8
0
0
TEXT
8
12632256
10
-1.022000
20
-0.273000
40
0.048000
41
1.041667
50
90.000000
1
U3
0
POLYLINE
8
0
66
1
40
0.008000
41
0.008000
0
VERTEX
8
0
10
-1.238000
20
-0.808000
0
VERTEX
8
0
10
-1.638000
20
-0.808000
0
SEQEND
8
0
0
POLYLINE
8
0
66
1
40
0.008000
41
0.008000
0
VERTEX
8
0
10
-1.238000
20
-1.808000
0
VERTEX
8
0
10
-1.638000
20
-1.808000
0
SEQEND
8
0
0
POLYLINE
8
0
66
1
40
0.008000
41
0.008000
0
VERTEX
8
0
10
-1.238000
20
-1.808000
0
VERTEX
8
0
10
-1.238000
20
-0.808000
0
SEQEND
8
0
0
POLYLINE
8
0
66
1
40
0.008000
41
0.008000
0
VERTEX
8
0
10
-1.638000
20
-0.808000
0
VERTEX
8
0
10
-1.638000
20
-1.808000
0
SEQEND
8
0
0
TEXT
8
12632256
10
-1.645000
20
-0.876000
40
0.048000
41
1.041667
50
90.000000
1
J3
0
POLYLINE
8
0
66
1
40
0.008000
41
0.008000
0
VERTEX
8
0
10
-0.725000
20
-1.098000
0
VERTEX
8
0
10
-0.725000
20
-1.048000
0
SEQEND
8
0
0
POLYLINE
8
0
66
1
40
0.008000
41
0.008000
0
VERTEX
8
0
10
-0.725000
20
-1.248000
0
VERTEX
8
0
10
-0.725000
20
-1.198000
0
SEQEND
8
0
0
POLYLINE
8
0
66
1
40
0.008000
41
0.008000
0
VERTEX
8
0
10
-0.675000
20
-1.148000
0
VERTEX
8
0
10
-0.676000
20
-1.138000
0
VERTEX
8
0
10
-0.679000
20
-1.128000
0
VERTEX
8
0
10
-0.683000
20
-1.120000
0
VERTEX
8
0
10
-0.689000
20
-1.112000
0
VERTEX
8
0
10
-0.696000
20
-1.106000
0
VERTEX
8
0
10
-0.705000
20
-1.102000
0
VERTEX
8
0
10
-0.715000
20
-1.099000
0
VERTEX
8
0
10
-0.725000
20
-1.098000
0
SEQEND
8
0
0
POLYLINE
8
0
66
1
40
0.008000
41
0.008000
0
VERTEX
8
0
10
-0.675000
20
-1.148000
0
VERTEX
8
0
10
-0.676000
20
-1.158000
0
VERTEX
8
0
10
-0.679000
20
-1.168000
0
VERTEX
8
0
10
-0.683000
20
-1.177000
0
VERTEX
8
0
10
-0.689000
20
-1.184000
0
VERTEX
8
0
10
-0.696000
20
-1.190000
0
VERTEX
8
0
10
-0.705000
20
-1.194000
0
VERTEX
8
0
10
-0.715000
20
-1.197000
0
VERTEX
8
0
10
-0.725000
20
-1.198000
0
SEQEND
8
0
0
POLYLINE
8
0
66
1
40
0.008000
41
0.008000
0
VERTEX
8
0
10
-0.725000
20
-1.248000
0
VERTEX
8
0
10
-0.025000
20
-1.248000
0
VERTEX
8
0
10
-0.025000
20
-1.048000
0
VERTEX
8
0
10
-0.725000
20
-1.048000
0
SEQEND
8
0
0
TEXT
8
12632256
10
-0.735000
20
-1.198000
40
0.048000
41
1.041667
50
90.000000
1
U1
0
POLYLINE
8
0
66
1
40
0.008000
41
0.008000
0
VERTEX
8
0
10
-0.267000
20
0.610000
0
VERTEX
8
0
10
-0.267000
20
0.660000
0
SEQEND
8
0
0
POLYLINE
8
0
66
1
40
0.008000
41
0.008000
0
VERTEX
8
0
10
-0.217000
20
0.710000
0
VERTEX
8
0
10
-0.218000
20
0.720000
0
VERTEX
8
0
10
-0.221000
20
0.730000
0
VERTEX
8
0
10
-0.225000
20
0.738000
0
VERTEX
8
0
10
-0.231000
20
0.746000
0
VERTEX
8
0
10
-0.238000
20
0.752000
0
VERTEX
8
0
10
-0.247000
20
0.756000
0
VERTEX
8
0
10
-0.257000
20
0.759000
0
VERTEX
8
0
10
-0.267000
20
0.760000
0
SEQEND
8
0
0
POLYLINE
8
0
66
1
40
0.008000
41
0.008000
0
VERTEX
8
0
10
-0.217000
20
0.710000
0
VERTEX
8
0
10
-0.218000
20
0.700000
0
VERTEX
8
0
10
-0.221000
20
0.690000
0
VERTEX
8
0
10
-0.225000
20
0.681000
0
VERTEX
8
0
10
-0.231000
20
0.674000
0
VERTEX
8
0
10
-0.238000
20
0.668000
0
VERTEX
8
0
10
-0.247000
20
0.664000
0
VERTEX
8
0
10
-0.257000
20
0.661000
0
VERTEX
8
0
10
-0.267000
20
0.660000
0
SEQEND
8
0
0
POLYLINE
8
0
66
1
40
0.008000
41
0.008000
0
VERTEX
8
0
10
-0.267000
20
0.760000
0
VERTEX
8
0
10
-0.267000
20
0.810000
0
SEQEND
8
0
0
POLYLINE
8
0
66
1
40
0.008000
41
0.008000
0
VERTEX
8
0
10
0.032000
20
0.610000
0
VERTEX
8
0
10
0.032000
20
0.810000
0
SEQEND
8
0
0
POLYLINE
8
0
66
1
40
0.008000
41
0.008000
0
VERTEX
8
0
10
-0.267000
20
0.610000
0
VERTEX
8
0
10
0.032000
20
0.610000
0
SEQEND
8
0
0
POLYLINE
8
0
66
1
40
0.008000
41
0.008000
0
VERTEX
8
0
10
-0.267000
20
0.810000
0
VERTEX
8
0
10
0.032000
20
0.810000
0
SEQEND
8
0
0
TEXT
8
12632256
10
-0.277000
20
0.660000
40
0.048000
41
1.041667
50
90.000000
1
U4
0
POLYLINE
8
0
66
1
40
0.008000
41
0.008000
0
VERTEX
8
0
10
-0.203000
20
1.341000
0
VERTEX
8
0
10
0.096000
20
1.341000
0
VERTEX
8
0
10
0.096000
20
1.441000
0
VERTEX
8
0
10
-0.203000
20
1.441000
0
VERTEX
8
0
10
-0.203000
20
1.341000
0
SEQEND
8
0
0
POLYLINE
8
0
66
1
40
0.008000
41
0.008000
0
VERTEX
8
0
10
0.096000
20
1.341000
0
VERTEX
8
0
10
0.096000
20
1.291000
0
VERTEX
8
0
10
-0.203000
20
1.291000
0
VERTEX
8
0
10
-0.203000
20
1.341000
0
SEQEND
8
0
0
POLYLINE
8
0
66
1
40
0.008000
41
0.008000
0
VERTEX
8
0
10
0.096000
20
1.341000
0
VERTEX
8
0
10
0.046000
20
1.291000
0
SEQEND
8
0
0
POLYLINE
8
0
66
1
40
0.008000
41
0.008000
0
VERTEX
8
0
10
0.046000
20
1.341000
0
VERTEX
8
0
10
-0.003000
20
1.291000
0
SEQEND
8
0
0
POLYLINE
8
0
66
1
40
0.008000
41
0.008000
0
VERTEX
8
0
10
-0.003000
20
1.341000
0
VERTEX
8
0
10
-0.053000
20
1.291000
0
SEQEND
8
0
0
POLYLINE
8
0
66
1
40
0.008000
41
0.008000
0
VERTEX
8
0
10
-0.053000
20
1.341000
0
VERTEX
8
0
10
-0.103000
20
1.291000
0
SEQEND
8
0
0
POLYLINE
8
0
66
1
40
0.008000
41
0.008000
0
VERTEX
8
0
10
-0.103000
20
1.341000
0
VERTEX
8
0
10
-0.153000
20
1.291000
0
SEQEND
8
0
0
POLYLINE
8
0
66
1
40
0.008000
41
0.008000
0
VERTEX
8
0
10
-0.153000
20
1.341000
0
VERTEX
8
0
10
-0.203000
20
1.291000
0
SEQEND
8
0
0
TEXT
8
12632256
10
-0.103000
20
1.233000
40
0.048000
41
1.041667
1
U5
0
POLYLINE
8
0
66
1
40
0.008000
41
0.008000
0
VERTEX
8
0
10
-0.837000
20
0.608000
0
VERTEX
8
0
10
-0.837000
20
0.658000
0
SEQEND
8
0
0
POLYLINE
8
0
66
1
40
0.008000
41
0.008000
0
VERTEX
8
0
10
-0.787000
20
0.708000
0
VERTEX
8
0
10
-0.788000
20
0.718000
0
VERTEX
8
0
10
-0.791000
20
0.728000
0
VERTEX
8
0
10
-0.795000
20
0.736000
0
VERTEX
8
0
10
-0.801000
20
0.744000
0
VERTEX
8
0
10
-0.808000
20
0.750000
0
VERTEX
8
0
10
-0.817000
20
0.754000
0
VERTEX
8
0
10
-0.827000
20
0.757000
0
VERTEX
8
0
10
-0.837000
20
0.758000
0
SEQEND
8
0
0
POLYLINE
8
0
66
1
40
0.008000
41
0.008000
0
VERTEX
8
0
10
-0.787000
20
0.708000
0
VERTEX
8
0
10
-0.788000
20
0.698000
0
VERTEX
8
0
10
-0.791000
20
0.688000
0
VERTEX
8
0
10
-0.795000
20
0.679000
0
VERTEX
8
0
10
-0.801000
20
0.672000
0
VERTEX
8
0
10
-0.808000
20
0.666000
0
VERTEX
8
0
10
-0.817000
20
0.662000
0
VERTEX
8
0
10
-0.827000
20
0.659000
0
VERTEX
8
0
10
-0.837000
20
0.658000
0
SEQEND
8
0
0
POLYLINE
8
0
66
1
40
0.008000
41
0.008000
0
VERTEX
8
0
10
-0.837000
20
0.758000
0
VERTEX
8
0
10
-0.837000
20
0.808000
0
SEQEND
8
0
0
POLYLINE
8
0
66
1
40
0.008000
41
0.008000
0
VERTEX
8
0
10
-0.537000
20
0.608000
0
VERTEX
8
0
10
-0.537000
20
0.808000
0
SEQEND
8
0
0
POLYLINE
8
0
66
1
40
0.008000
41
0.008000
0
VERTEX
8
0
10
-0.837000
20
0.608000
0
VERTEX
8
0
10
-0.537000
20
0.608000
0
SEQEND
8
0
0
POLYLINE
8
0
66
1
40
0.008000
41
0.008000
0
VERTEX
8
0
10
-0.837000
20
0.808000
0
VERTEX
8
0
10
-0.537000
20
0.808000
0
SEQEND
8
0
0
TEXT
8
12632256
10
-0.847000
20
0.658000
40
0.048000
41
1.041667
50
90.000000
1
U6
0
POLYLINE
8
0
66
1
40
0.008000
41
0.008000
0
VERTEX
8
0
10
-0.825000
20
1.341000
0
VERTEX
8
0
10
-0.525000
20
1.341000
0
VERTEX
8
0
10
-0.525000
20
1.441000
0
VERTEX
8
0
10
-0.825000
20
1.441000
0
VERTEX
8
0
10
-0.825000
20
1.341000
0
SEQEND
8
0
0
POLYLINE
8
0
66
1
40
0.008000
41
0.008000
0
VERTEX
8
0
10
-0.525000
20
1.341000
0
VERTEX
8
0
10
-0.525000
20
1.291000
0
VERTEX
8
0
10
-0.825000
20
1.291000
0
VERTEX
8
0
10
-0.825000
20
1.341000
0
SEQEND
8
0
0
POLYLINE
8
0
66
1
40
0.008000
41
0.008000
0
VERTEX
8
0
10
-0.525000
20
1.341000
0
VERTEX
8
0
10
-0.575000
20
1.291000
0
SEQEND
8
0
0
POLYLINE
8
0
66
1
40
0.008000
41
0.008000
0
VERTEX
8
0
10
-0.575000
20
1.341000
0
VERTEX
8
0
10
-0.625000
20
1.291000
0
SEQEND
8
0
0
POLYLINE
8
0
66
1
40
0.008000
41
0.008000
0
VERTEX
8
0
10
-0.625000
20
1.341000
0
VERTEX
8
0
10
-0.675000
20
1.291000
0
SEQEND
8
0
0
POLYLINE
8
0
66
1
40
0.008000
41
0.008000
0
VERTEX
8
0
10
-0.675000
20
1.341000
0
VERTEX
8
0
10
-0.725000
20
1.291000
0
SEQEND
8
0
0
POLYLINE
8
0
66
1
40
0.008000
41
0.008000
0
VERTEX
8
0
10
-0.725000
20
1.341000
0
VERTEX
8
0
10
-0.775000
20
1.291000
0
SEQEND
8
0
0
POLYLINE
8
0
66
1
40
0.008000
41
0.008000
0
VERTEX
8
0
10
-0.775000
20
1.341000
0
VERTEX
8
0
10
-0.825000
20
1.291000
0
SEQEND
8
0
0
TEXT
8
12632256
10
-0.725000
20
1.233000
40
0.048000
41
1.041667
1
U7
0
POLYLINE
8
0
66
1
40
0.008000
41
0.008000
0
VERTEX
8
0
10
-1.445000
20
0.601000
0
VERTEX
8
0
10
-1.445000
20
0.651000
0
SEQEND
8
0
0
POLYLINE
8
0
66
1
40
0.008000
41
0.008000
0
VERTEX
8
0
10
-1.395000
20
0.701000
0
VERTEX
8
0
10
-1.396000
20
0.711000
0
VERTEX
8
0
10
-1.399000
20
0.721000
0
VERTEX
8
0
10
-1.403000
20
0.729000
0
VERTEX
8
0
10
-1.409000
20
0.736000
0
VERTEX
8
0
10
-1.416000
20
0.743000
0
VERTEX
8
0
10
-1.425000
20
0.747000
0
VERTEX
8
0
10
-1.435000
20
0.750000
0
VERTEX
8
0
10
-1.445000
20
0.751000
0
SEQEND
8
0
0
POLYLINE
8
0
66
1
40
0.008000
41
0.008000
0
VERTEX
8
0
10
-1.395000
20
0.701000
0
VERTEX
8
0
10
-1.396000
20
0.691000
0
VERTEX
8
0
10
-1.399000
20
0.681000
0
VERTEX
8
0
10
-1.403000
20
0.672000
0
VERTEX
8
0
10
-1.409000
20
0.665000
0
VERTEX
8
0
10
-1.416000
20
0.659000
0
VERTEX
8
0
10
-1.425000
20
0.655000
0
VERTEX
8
0
10
-1.435000
20
0.652000
0
VERTEX
8
0
10
-1.445000
20
0.651000
0
SEQEND
8
0
0
POLYLINE
8
0
66
1
40
0.008000
41
0.008000
0
VERTEX
8
0
10
-1.445000
20
0.751000
0
VERTEX
8
0
10
-1.445000
20
0.801000
0
SEQEND
8
0
0
POLYLINE
8
0
66
1
40
0.008000
41
0.008000
0
VERTEX
8
0
10
-1.145000
20
0.601000
0
VERTEX
8
0
10
-1.145000
20
0.801000
0
SEQEND
8
0
0
POLYLINE
8
0
66
1
40
0.008000
41
0.008000
0
VERTEX
8
0
10
-1.445000
20
0.601000
0
VERTEX
8
0
10
-1.145000
20
0.601000
0
SEQEND
8
0
0
POLYLINE
8
0
66
1
40
0.008000
41
0.008000
0
VERTEX
8
0
10
-1.445000
20
0.801000
0
VERTEX
8
0
10
-1.145000
20
0.801000
0
SEQEND
8
0
0
TEXT
8
12632256
10
-1.455000
20
0.651000
40
0.048000
41
1.041667
50
90.000000
1
U8
0
POLYLINE
8
0
66
1
40
0.008000
41
0.008000
0
VERTEX
8
0
10
-1.459000
20
1.341000
0
VERTEX
8
0
10
-1.159000
20
1.341000
0
VERTEX
8
0
10
-1.159000
20
1.441000
0
VERTEX
8
0
10
-1.459000
20
1.441000
0
VERTEX
8
0
10
-1.459000
20
1.341000
0
SEQEND
8
0
0
POLYLINE
8
0
66
1
40
0.008000
41
0.008000
0
VERTEX
8
0
10
-1.159000
20
1.341000
0
VERTEX
8
0
10
-1.159000
20
1.291000
0
VERTEX
8
0
10
-1.459000
20
1.291000
0
VERTEX
8
0
10
-1.459000
20
1.341000
0
SEQEND
8
0
0
POLYLINE
8
0
66
1
40
0.008000
41
0.008000
0
VERTEX
8
0
10
-1.159000
20
1.341000
0
VERTEX
8
0
10
-1.209000
20
1.291000
0
SEQEND
8
0
0
POLYLINE
8
0
66
1
40
0.008000
41
0.008000
0
VERTEX
8
0
10
-1.209000
20
1.341000
0
VERTEX
8
0
10
-1.259000
20
1.291000
0
SEQEND
8
0
0
POLYLINE
8
0
66
1
40
0.008000
41
0.008000
0
VERTEX
8
0
10
-1.259000
20
1.341000
0
VERTEX
8
0
10
-1.309000
20
1.291000
0
SEQEND
8
0
0
POLYLINE
8
0
66
1
40
0.008000
41
0.008000
0
VERTEX
8
0
10
-1.309000
20
1.341000
0
VERTEX
8
0
10
-1.359000
20
1.291000
0
SEQEND
8
0
0
POLYLINE
8
0
66
1
40
0.008000
41
0.008000
0
VERTEX
8
0
10
-1.359000
20
1.341000
0
VERTEX
8
0
10
-1.409000
20
1.291000
0
SEQEND
8
0
0
POLYLINE
8
0
66
1
40
0.008000
41
0.008000
0
VERTEX
8
0
10
-1.409000
20
1.341000
0
VERTEX
8
0
10
-1.459000
20
1.291000
0
SEQEND
8
0
0
TEXT
8
12632256
10
-1.359000
20
1.233000
40
0.048000
41
1.041667
1
U9
0
POLYLINE
8
0
66
1
40
0.008000
41
0.008000
0
VERTEX
8
0
10
0.282000
20
0.612000
0
VERTEX
8
0
10
0.282000
20
0.662000
0
SEQEND
8
0
0
POLYLINE
8
0
66
1
40
0.008000
41
0.008000
0
VERTEX
8
0
10
0.332000
20
0.712000
0
VERTEX
8
0
10
0.331000
20
0.722000
0
VERTEX
8
0
10
0.328000
20
0.732000
0
VERTEX
8
0
10
0.324000
20
0.740000
0
VERTEX
8
0
10
0.318000
20
0.748000
0
VERTEX
8
0
10
0.311000
20
0.754000
0
VERTEX
8
0
10
0.302000
20
0.758000
0
VERTEX
8
0
10
0.292000
20
0.761000
0
VERTEX
8
0
10
0.282000
20
0.762000
0
SEQEND
8
0
0
POLYLINE
8
0
66
1
40
0.008000
41
0.008000
0
VERTEX
8
0
10
0.332000
20
0.712000
0
VERTEX
8
0
10
0.331000
20
0.702000
0
VERTEX
8
0
10
0.328000
20
0.692000
0
VERTEX
8
0
10
0.324000
20
0.683000
0
VERTEX
8
0
10
0.318000
20
0.676000
0
VERTEX
8
0
10
0.311000
20
0.670000
0
VERTEX
8
0
10
0.302000
20
0.666000
0
VERTEX
8
0
10
0.292000
20
0.663000
0
VERTEX
8
0
10
0.282000
20
0.662000
0
SEQEND
8
0
0
POLYLINE
8
0
66
1
40
0.008000
41
0.008000
0
VERTEX
8
0
10
0.282000
20
0.762000
0
VERTEX
8
0
10
0.282000
20
0.812000
0
SEQEND
8
0
0
POLYLINE
8
0
66
1
40
0.008000
41
0.008000
0
VERTEX
8
0
10
0.582000
20
0.612000
0
VERTEX
8
0
10
0.582000
20
0.812000
0
SEQEND
8
0
0
POLYLINE
8
0
66
1
40
0.008000
41
0.008000
0
VERTEX
8
0
10
0.282000
20
0.612000
0
VERTEX
8
0
10
0.582000
20
0.612000
0
SEQEND
8
0
0
POLYLINE
8
0
66
1
40
0.008000
41
0.008000
0
VERTEX
8
0
10
0.282000
20
0.812000
0
VERTEX
8
0
10
0.582000
20
0.812000
0
SEQEND
8
0
0
TEXT
8
12632256
10
0.272000
20
0.637000
40
0.048000
41
1.041667
50
90.000000
1
U10
0
POLYLINE
8
0
66
1
40
0.008000
41
0.008000
0
VERTEX
8
0
10
0.413000
20
1.345000
0
VERTEX
8
0
10
0.713000
20
1.345000
0
VERTEX
8
0
10
0.713000
20
1.445000
0
VERTEX
8
0
10
0.413000
20
1.445000
0
VERTEX
8
0
10
0.413000
20
1.345000
0
SEQEND
8
0
0
POLYLINE
8
0
66
1
40
0.008000
41
0.008000
0
VERTEX
8
0
10
0.713000
20
1.345000
0
VERTEX
8
0
10
0.713000
20
1.295000
0
VERTEX
8
0
10
0.413000
20
1.295000
0
VERTEX
8
0
10
0.413000
20
1.345000
0
SEQEND
8
0
0
POLYLINE
8
0
66
1
40
0.008000
41
0.008000
0
VERTEX
8
0
10
0.713000
20
1.345000
0
VERTEX
8
0
10
0.663000
20
1.295000
0
SEQEND
8
0
0
POLYLINE
8
0
66
1
40
0.008000
41
0.008000
0
VERTEX
8
0
10
0.663000
20
1.345000
0
VERTEX
8
0
10
0.613000
20
1.295000
0
SEQEND
8
0
0
POLYLINE
8
0
66
1
40
0.008000
41
0.008000
0
VERTEX
8
0
10
0.613000
20
1.345000
0
VERTEX
8
0
10
0.563000
20
1.295000
0
SEQEND
8
0
0
POLYLINE
8
0
66
1
40
0.008000
41
0.008000
0
VERTEX
8
0
10
0.563000
20
1.345000
0
VERTEX
8
0
10
0.513000
20
1.295000
0
SEQEND
8
0
0
POLYLINE
8
0
66
1
40
0.008000
41
0.008000
0
VERTEX
8
0
10
0.513000
20
1.345000
0
VERTEX
8
0
10
0.463000
20
1.295000
0
SEQEND
8
0
0
POLYLINE
8
0
66
1
40
0.008000
41
0.008000
0
VERTEX
8
0
10
0.463000
20
1.345000
0
VERTEX
8
0
10
0.413000
20
1.295000
0
SEQEND
8
0
0
TEXT
8
12632256
10
0.488000
20
1.237000
40
0.048000
41
1.041667
1
U11
0
POLYLINE
8
0
66
1
40
0.008000
41
0.008000
0
VERTEX
8
0
10
0.069000
20
-1.423000
0
VERTEX
8
0
10
0.019000
20
-1.423000
0
SEQEND
8
0
0
POLYLINE
8
0
66
1
40
0.008000
41
0.008000
0
VERTEX
8
0
10
-0.180000
20
-1.448000
0
VERTEX
8
0
10
0.019000
20
-1.448000
0
VERTEX
8
0
10
0.019000
20
-1.398000
0
VERTEX
8
0
10
-0.180000
20
-1.398000
0
VERTEX
8
0
10
-0.180000
20
-1.448000
0
SEQEND
8
0
0
POLYLINE
8
0
66
1
40
0.008000
41
0.008000
0
VERTEX
8
0
10
-0.180000
20
-1.423000
0
VERTEX
8
0
10
-0.230000
20
-1.423000
0
SEQEND
8
0
0
TEXT
8
12632256
10
-0.155000
20
-1.506000
40
0.048000
41
1.041667
1
R41
0
CIRCLE
8
12632256
10
-0.436000
20
-1.585000
40
0.100000
0
POLYLINE
8
0
66
1
40
0.008000
41
0.008000
0
VERTEX
8
0
10
-0.361000
20
-1.635000
0
VERTEX
8
0
10
-0.411000
20
-1.635000
0
SEQEND
8
0
0
POLYLINE
8
0
66
1
40
0.008000
41
0.008000
0
VERTEX
8
0
10
-0.386000
20
-1.660000
0
VERTEX
8
0
10
-0.386000
20
-1.610000
0
SEQEND
8
0
0
TEXT
8
12632256
10
-0.511000
20
-1.743000
40
0.048000
41
1.041667
1
C32
0
POLYLINE
8
0
66
1
40
0.008000
41
0.008000
0
VERTEX
8
0
10
0.072000
20
-1.558000
0
VERTEX
8
0
10
0.022000
20
-1.558000
0
SEQEND
8
0
0
POLYLINE
8
0
66
1
40
0.008000
41
0.008000
0
VERTEX
8
0
10
-0.177000
20
-1.583000
0
VERTEX
8
0
10
0.022000
20
-1.583000
0
VERTEX
8
0
10
0.022000
20
-1.533000
0
VERTEX
8
0
10
-0.177000
20
-1.533000
0
VERTEX
8
0
10
-0.177000
20
-1.583000
0
SEQEND
8
0
0
POLYLINE
8
0
66
1
40
0.008000
41
0.008000
0
VERTEX
8
0
10
-0.177000
20
-1.558000
0
VERTEX
8
0
10
-0.227000
20
-1.558000
0
SEQEND
8
0
0
TEXT
8
12632256
10
-0.152000
20
-1.641000
40
0.048000
41
1.041667
1
R50
0
POLYLINE
8
0
66
1
40
0.008000
41
0.008000
0
VERTEX
8
0
10
-0.203000
20
-1.764000
0
VERTEX
8
0
10
-0.201000
20
-1.754000
0
VERTEX
8
0
10
-0.195000
20
-1.744000
0
VERTEX
8
0
10
-0.186000
20
-1.736000
0
VERTEX
8
0
10
-0.174000
20
-1.728000
0
VERTEX
8
0
10
-0.159000
20
-1.722000
0
VERTEX
8
0
10
-0.142000
20
-1.718000
0
VERTEX
8
0
10
-0.123000
20
-1.715000
0
VERTEX
8
0
10
-0.103000
20
-1.714000
0
SEQEND
8
0
0
POLYLINE
8
0
66
1
40
0.008000
41
0.008000
0
VERTEX
8
0
10
-0.003000
20
-1.764000
0
VERTEX
8
0
10
-0.005000
20
-1.754000
0
VERTEX
8
0
10
-0.011000
20
-1.744000
0
VERTEX
8
0
10
-0.020000
20
-1.736000
0
VERTEX
8
0
10
-0.032000
20
-1.728000
0
VERTEX
8
0
10
-0.047000
20
-1.722000
0
VERTEX
8
0
10
-0.064000
20
-1.718000
0
VERTEX
8
0
10
-0.083000
20
-1.715000
0
VERTEX
8
0
10
-0.103000
20
-1.714000
0
SEQEND
8
0
0
POLYLINE
8
0
66
1
40
0.008000
41
0.008000
0
VERTEX
8
0
10
-0.203000
20
-1.764000
0
VERTEX
8
0
10
-0.201000
20
-1.774000
0
VERTEX
8
0
10
-0.195000
20
-1.784000
0
VERTEX
8
0
10
-0.186000
20
-1.792000
0
VERTEX
8
0
10
-0.174000
20
-1.800000
0
VERTEX
8
0
10
-0.159000
20
-1.806000
0
VERTEX
8
0
10
-0.142000
20
-1.810000
0
VERTEX
8
0
10
-0.123000
20
-1.813000
0
VERTEX
8
0
10
-0.103000
20
-1.814000
0
SEQEND
8
0
0
POLYLINE
8
0
66
1
40
0.008000
41
0.008000
0
VERTEX
8
0
10
-0.003000
20
-1.764000
0
VERTEX
8
0
10
-0.005000
20
-1.774000
0
VERTEX
8
0
10
-0.011000
20
-1.784000
0
VERTEX
8
0
10
-0.020000
20
-1.792000
0
VERTEX
8
0
10
-0.032000
20
-1.800000
0
VERTEX
8
0
10
-0.047000
20
-1.806000
0
VERTEX
8
0
10
-0.064000
20
-1.810000
0
VERTEX
8
0
10
-0.083000
20
-1.813000
0
VERTEX
8
0
10
-0.103000
20
-1.814000
0
SEQEND
8
0
0
TEXT
8
12632256
10
-0.178000
20
-1.704000
40
0.048000
41
1.041667
1
C30
0
POLYLINE
8
0
66
1
40
0.008000
41
0.008000
0
VERTEX
8
0
10
-0.689000
20
-1.487000
0
VERTEX
8
0
10
-0.739000
20
-1.487000
0
SEQEND
8
0
0
POLYLINE
8
0
66
1
40
0.008000
41
0.008000
0
VERTEX
8
0
10
-0.939000
20
-1.512000
0
VERTEX
8
0
10
-0.739000
20
-1.512000
0
VERTEX
8
0
10
-0.739000
20
-1.462000
0
VERTEX
8
0
10
-0.939000
20
-1.462000
0
VERTEX
8
0
10
-0.939000
20
-1.512000
0
SEQEND
8
0
0
POLYLINE
8
0
66
1
40
0.008000
41
0.008000
0
VERTEX
8
0
10
-0.939000
20
-1.487000
0
VERTEX
8
0
10
-0.989000
20
-1.487000
0
SEQEND
8
0
0
TEXT
8
12632256
10
-0.914000
20
-1.570000
40
0.048000
41
1.041667
1
R30
0
POLYLINE
8
0
66
1
40
0.008000
41
0.008000
0
VERTEX
8
0
10
-0.996000
20
-1.707000
0
VERTEX
8
0
10
-0.946000
20
-1.707000
0
SEQEND
8
0
0
POLYLINE
8
0
66
1
40
0.008000
41
0.008000
0
VERTEX
8
0
10
-0.946000
20
-1.732000
0
VERTEX
8
0
10
-0.746000
20
-1.732000
0
VERTEX
8
0
10
-0.746000
20
-1.682000
0
VERTEX
8
0
10
-0.946000
20
-1.682000
0
VERTEX
8
0
10
-0.946000
20
-1.732000
0
SEQEND
8
0
0
POLYLINE
8
0
66
1
40
0.008000
41
0.008000
0
VERTEX
8
0
10
-0.746000
20
-1.707000
0
VERTEX
8
0
10
-0.696000
20
-1.707000
0
SEQEND
8
0
0
TEXT
8
12632256
10
-0.921000
20
-1.672000
40
0.048000
41
1.041667
1
R40
0
POLYLINE
8
0
66
1
40
0.008000
41
0.008000
0
VERTEX
8
0
10
-1.061000
20
-1.324000
0
VERTEX
8
0
10
-1.059000
20
-1.314000
0
VERTEX
8
0
10
-1.053000
20
-1.304000
0
VERTEX
8
0
10
-1.044000
20
-1.296000
0
VERTEX
8
0
10
-1.032000
20
-1.288000
0
VERTEX
8
0
10
-1.017000
20
-1.282000
0
VERTEX
8
0
10
-1.000000
20
-1.278000
0
VERTEX
8
0
10
-0.981000
20
-1.275000
0
VERTEX
8
0
10
-0.961000
20
-1.274000
0
SEQEND
8
0
0
POLYLINE
8
0
66
1
40
0.008000
41
0.008000
0
VERTEX
8
0
10
-0.861000
20
-1.324000
0
VERTEX
8
0
10
-0.863000
20
-1.314000
0
VERTEX
8
0
10
-0.869000
20
-1.304000
0
VERTEX
8
0
10
-0.878000
20
-1.296000
0
VERTEX
8
0
10
-0.890000
20
-1.288000
0
VERTEX
8
0
10
-0.905000
20
-1.282000
0
VERTEX
8
0
10
-0.922000
20
-1.278000
0
VERTEX
8
0
10
-0.941000
20
-1.275000
0
VERTEX
8
0
10
-0.961000
20
-1.274000
0
SEQEND
8
0
0
POLYLINE
8
0
66
1
40
0.008000
41
0.008000
0
VERTEX
8
0
10
-1.061000
20
-1.324000
0
VERTEX
8
0
10
-1.059000
20
-1.334000
0
VERTEX
8
0
10
-1.053000
20
-1.344000
0
VERTEX
8
0
10
-1.044000
20
-1.352000
0
VERTEX
8
0
10
-1.032000
20
-1.360000
0
VERTEX
8
0
10
-1.017000
20
-1.366000
0
VERTEX
8
0
10
-1.000000
20
-1.370000
0
VERTEX
8
0
10
-0.981000
20
-1.373000
0
VERTEX
8
0
10
-0.961000
20
-1.374000
0
SEQEND
8
0
0
POLYLINE
8
0
66
1
40
0.008000
41
0.008000
0
VERTEX
8
0
10
-0.861000
20
-1.324000
0
VERTEX
8
0
10
-0.863000
20
-1.334000
0
VERTEX
8
0
10
-0.869000
20
-1.344000
0
VERTEX
8
0
10
-0.878000
20
-1.352000
0
VERTEX
8
0
10
-0.890000
20
-1.360000
0
VERTEX
8
0
10
-0.905000
20
-1.366000
0
VERTEX
8
0
10
-0.922000
20
-1.370000
0
VERTEX
8
0
10
-0.941000
20
-1.373000
0
VERTEX
8
0
10
-0.961000
20
-1.374000
0
SEQEND
8
0
0
TEXT
8
12632256
10
-1.036000
20
-1.264000
40
0.048000
41
1.041667
1
C20
0
POLYLINE
8
0
66
1
40
0.008000
41
0.008000
0
VERTEX
8
0
10
-0.866000
20
-2.065000
0
VERTEX
8
0
10
-0.866000
20
-2.465000
0
SEQEND
8
0
0
POLYLINE
8
0
66
1
40
0.008000
41
0.008000
0
VERTEX
8
0
10
-0.266000
20
-2.065000
0
VERTEX
8
0
10
-0.266000
20
-2.465000
0
SEQEND
8
0
0
POLYLINE
8
0
66
1
40
0.008000
41
0.008000
0
VERTEX
8
0
10
-0.866000
20
-2.465000
0
VERTEX
8
0
10
-0.266000
20
-2.465000
0
SEQEND
8
0
0
POLYLINE
8
0
66
1
40
0.008000
41
0.008000
0
VERTEX
8
0
10
-0.266000
20
-2.065000
0
VERTEX
8
0
10
-0.866000
20
-2.065000
0
SEQEND
8
0
0
TEXT
8
12632256
10
-1.049000
20
-2.302000
40
0.048000
41
1.041667
1
J11
0
POLYLINE
8
0
66
1
40
0.008000
41
0.008000
0
VERTEX
8
0
10
-0.649000
20
-0.870000
0
VERTEX
8
0
10
-0.599000
20
-0.870000
0
SEQEND
8
0
0
POLYLINE
8
0
66
1
40
0.008000
41
0.008000
0
VERTEX
8
0
10
-0.599000
20
-0.895000
0
VERTEX
8
0
10
-0.399000
20
-0.895000
0
VERTEX
8
0
10
-0.399000
20
-0.845000
0
VERTEX
8
0
10
-0.599000
20
-0.845000
0
VERTEX
8
0
10
-0.599000
20
-0.895000
0
SEQEND
8
0
0
POLYLINE
8
0
66
1
40
0.008000
41
0.008000
0
VERTEX
8
0
10
-0.399000
20
-0.870000
0
VERTEX
8
0
10
-0.349000
20
-0.870000
0
SEQEND
8
0
0
TEXT
8
12632256
10
-0.549000
20
-0.835000
40
0.048000
41
1.041667
1
R5
0
POLYLINE
8
0
66
1
40
0.008000
41
0.008000
0
VERTEX
8
0
10
-0.352000
20
-0.750000
0
VERTEX
8
0
10
-0.402000
20
-0.750000
0
SEQEND
8
0
0
POLYLINE
8
0
66
1
40
0.008000
41
0.008000
0
VERTEX
8
0
10
-0.602000
20
-0.775000
0
VERTEX
8
0
10
-0.402000
20
-0.775000
0
VERTEX
8
0
10
-0.402000
20
-0.725000
0
VERTEX
8
0
10
-0.602000
20
-0.725000
0
VERTEX
8
0
10
-0.602000
20
-0.775000
0
SEQEND
8
0
0
POLYLINE
8
0
66
1
40
0.008000
41
0.008000
0
VERTEX
8
0
10
-0.602000
20
-0.750000
0
VERTEX
8
0
10
-0.652000
20
-0.750000
0
SEQEND
8
0
0
TEXT
8
12632256
10
-0.569000
20
-0.696000
40
0.048000
41
1.041667
1
R60
0
POLYLINE
8
0
66
1
40
0.008000
41
0.008000
0
VERTEX
8
0
10
0.659000
20
0.921000
0
VERTEX
8
0
10
0.659000
20
0.871000
0
SEQEND
8
0
0
POLYLINE
8
0
66
1
40
0.008000
41
0.008000
0
VERTEX
8
0
10
0.634000
20
0.671000
0
VERTEX
8
0
10
0.684000
20
0.671000
0
VERTEX
8
0
10
0.684000
20
0.871000
0
VERTEX
8
0
10
0.634000
20
0.871000
0
VERTEX
8
0
10
0.634000
20
0.671000
0
SEQEND
8
0
0
POLYLINE
8
0
66
1
40
0.008000
41
0.008000
0
VERTEX
8
0
10
0.659000
20
0.671000
0
VERTEX
8
0
10
0.659000
20
0.621000
0
SEQEND
8
0
0
TEXT
8
12632256
10
0.742000
20
0.696000
40
0.048000
41
1.041667
50
90.000000
1
R11
0
POLYLINE
8
0
66
1
40
0.008000
41
0.008000
0
VERTEX
8
0
10
0.382000
20
0.302000
0
VERTEX
8
0
10
0.432000
20
0.302000
0
SEQEND
8
0
0
POLYLINE
8
0
66
1
40
0.008000
41
0.008000
0
VERTEX
8
0
10
0.432000
20
0.277000
0
VERTEX
8
0
10
0.632000
20
0.277000
0
VERTEX
8
0
10
0.632000
20
0.327000
0
VERTEX
8
0
10
0.432000
20
0.327000
0
VERTEX
8
0
10
0.432000
20
0.277000
0
SEQEND
8
0
0
POLYLINE
8
0
66
1
40
0.008000
41
0.008000
0
VERTEX
8
0
10
0.632000
20
0.302000
0
VERTEX
8
0
10
0.682000
20
0.302000
0
SEQEND
8
0
0
TEXT
8
12632256
10
0.457000
20
0.337000
40
0.048000
41
1.041667
1
R16
0
POLYLINE
8
0
66
1
40
0.008000
41
0.008000
0
VERTEX
8
0
10
-0.420000
20
0.909000
0
VERTEX
8
0
10
-0.420000
20
0.859000
0
SEQEND
8
0
0
POLYLINE
8
0
66
1
40
0.008000
41
0.008000
0
VERTEX
8
0
10
-0.445000
20
0.659000
0
VERTEX
8
0
10
-0.395000
20
0.659000
0
VERTEX
8
0
10
-0.395000
20
0.859000
0
VERTEX
8
0
10
-0.445000
20
0.859000
0
VERTEX
8
0
10
-0.445000
20
0.659000
0
SEQEND
8
0
0
POLYLINE
8
0
66
1
40
0.008000
41
0.008000
0
VERTEX
8
0
10
-0.420000
20
0.659000
0
VERTEX
8
0
10
-0.420000
20
0.609000
0
SEQEND
8
0
0
TEXT
8
12632256
10
-0.337000
20
0.709000
40
0.048000
41
1.041667
50
90.000000
1
R9
0
POLYLINE
8
0
66
1
40
0.008000
41
0.008000
0
VERTEX
8
0
10
-0.752000
20
0.314000
0
VERTEX
8
0
10
-0.702000
20
0.314000
0
SEQEND
8
0
0
POLYLINE
8
0
66
1
40
0.008000
41
0.008000
0
VERTEX
8
0
10
-0.702000
20
0.289000
0
VERTEX
8
0
10
-0.502000
20
0.289000
0
VERTEX
8
0
10
-0.502000
20
0.339000
0
VERTEX
8
0
10
-0.702000
20
0.339000
0
VERTEX
8
0
10
-0.702000
20
0.289000
0
SEQEND
8
0
0
POLYLINE
8
0
66
1
40
0.008000
41
0.008000
0
VERTEX
8
0
10
-0.502000
20
0.314000
0
VERTEX
8
0
10
-0.452000
20
0.314000
0
SEQEND
8
0
0
TEXT
8
12632256
10
-0.677000
20
0.349000
40
0.048000
41
1.041667
1
R10
0
POLYLINE
8
0
66
1
40
0.008000
41
0.008000
0
VERTEX
8
0
10
0.118000
20
0.916000
0
VERTEX
8
0
10
0.118000
20
0.866000
0
SEQEND
8
0
0
POLYLINE
8
0
66
1
40
0.008000
41
0.008000
0
VERTEX
8
0
10
0.093000
20
0.666000
0
VERTEX
8
0
10
0.143000
20
0.666000
0
VERTEX
8
0
10
0.143000
20
0.866000
0
VERTEX
8
0
10
0.093000
20
0.866000
0
VERTEX
8
0
10
0.093000
20
0.666000
0
SEQEND
8
0
0
POLYLINE
8
0
66
1
40
0.008000
41
0.008000
0
VERTEX
8
0
10
0.118000
20
0.666000
0
VERTEX
8
0
10
0.118000
20
0.616000
0
SEQEND
8
0
0
TEXT
8
12632256
10
0.201000
20
0.716000
40
0.048000
41
1.041667
50
90.000000
1
R7
0
POLYLINE
8
0
66
1
40
0.008000
41
0.008000
0
VERTEX
8
0
10
-0.178000
20
0.309000
0
VERTEX
8
0
10
-0.128000
20
0.309000
0
SEQEND
8
0
0
POLYLINE
8
0
66
1
40
0.008000
41
0.008000
0
VERTEX
8
0
10
-0.128000
20
0.284000
0
VERTEX
8
0
10
0.071000
20
0.284000
0
VERTEX
8
0
10
0.071000
20
0.334000
0
VERTEX
8
0
10
-0.128000
20
0.334000
0
VERTEX
8
0
10
-0.128000
20
0.284000
0
SEQEND
8
0
0
POLYLINE
8
0
66
1
40
0.008000
41
0.008000
0
VERTEX
8
0
10
0.071000
20
0.309000
0
VERTEX
8
0
10
0.121000
20
0.309000
0
SEQEND
8
0
0
TEXT
8
12632256
10
-0.078000
20
0.344000
40
0.048000
41
1.041667
1
R8
0
POLYLINE
8
0
66
1
40
0.008000
41
0.008000
0
VERTEX
8
0
10
-1.022000
20
0.909000
0
VERTEX
8
0
10
-1.022000
20
0.859000
0
SEQEND
8
0
0
POLYLINE
8
0
66
1
40
0.008000
41
0.008000
0
VERTEX
8
0
10
-1.047000
20
0.659000
0
VERTEX
8
0
10
-0.997000
20
0.659000
0
VERTEX
8
0
10
-0.997000
20
0.859000
0
VERTEX
8
0
10
-1.047000
20
0.859000
0
VERTEX
8
0
10
-1.047000
20
0.659000
0
SEQEND
8
0
0
POLYLINE
8
0
66
1
40
0.008000
41
0.008000
0
VERTEX
8
0
10
-1.022000
20
0.659000
0
VERTEX
8
0
10
-1.022000
20
0.609000
0
SEQEND
8
0
0
TEXT
8
12632256
10
-0.939000
20
0.684000
40
0.048000
41
1.041667
50
90.000000
1
R17
0
POLYLINE
8
0
66
1
40
0.008000
41
0.008000
0
VERTEX
8
0
10
-1.345000
20
0.310000
0
VERTEX
8
0
10
-1.295000
20
0.310000
0
SEQEND
8
0
0
POLYLINE
8
0
66
1
40
0.008000
41
0.008000
0
VERTEX
8
0
10
-1.295000
20
0.285000
0
VERTEX
8
0
10
-1.095000
20
0.285000
0
VERTEX
8
0
10
-1.095000
20
0.335000
0
VERTEX
8
0
10
-1.295000
20
0.335000
0
VERTEX
8
0
10
-1.295000
20
0.285000
0
SEQEND
8
0
0
POLYLINE
8
0
66
1
40
0.008000
41
0.008000
0
VERTEX
8
0
10
-1.095000
20
0.310000
0
VERTEX
8
0
10
-1.045000
20
0.310000
0
SEQEND
8
0
0
TEXT
8
12632256
10
-1.270000
20
0.345000
40
0.048000
41
1.041667
1
R18
0
POLYLINE
8
0
66
1
40
0.008000
41
0.008000
0
VERTEX
8
0
10
-1.014000
20
1.043000
0
VERTEX
8
0
10
-1.014000
20
1.476000
0
SEQEND
8
0
0
POLYLINE
8
0
66
1
40
0.008000
41
0.008000
0
VERTEX
8
0
10
-1.014000
20
1.043000
0
VERTEX
8
0
10
-1.604000
20
1.043000
0
VERTEX
8
0
10
-1.604000
20
1.476000
0
SEQEND
8
0
0
POLYLINE
8
0
66
1
40
0.008000
41
0.008000
0
VERTEX
8
0
10
-1.053000
20
1.476000
0
VERTEX
8
0
10
-1.053000
20
1.279000
0
SEQEND
8
0
0
POLYLINE
8
0
66
1
40
0.008000
41
0.008000
0
VERTEX
8
0
10
-1.565000
20
1.476000
0
VERTEX
8
0
10
-1.565000
20
1.279000
0
SEQEND
8
0
0
POLYLINE
8
0
66
1
40
0.008000
41
0.008000
0
VERTEX
8
0
10
-1.014000
20
1.279000
0
VERTEX
8
0
10
-1.600000
20
1.279000
0
SEQEND
8
0
0
POLYLINE
8
0
66
1
40
0.008000
41
0.008000
0
VERTEX
8
0
10
-1.014000
20
1.480000
0
VERTEX
8
0
10
-1.053000
20
1.480000
0
SEQEND
8
0
0
POLYLINE
8
0
66
1
40
0.008000
41
0.008000
0
VERTEX
8
0
10
-1.565000
20
1.480000
0
VERTEX
8
0
10
-1.604000
20
1.480000
0
SEQEND
8
0
0
POLYLINE
8
0
66
1
40
0.008000
41
0.008000
0
VERTEX
8
0
10
-1.081000
20
1.047000
0
VERTEX
8
0
10
-1.081000
20
1.275000
0
SEQEND
8
0
0
POLYLINE
8
0
66
1
40
0.008000
41
0.008000
0
VERTEX
8
0
10
-1.155000
20
1.050000
0
VERTEX
8
0
10
-1.155000
20
1.279000
0
SEQEND
8
0
0
POLYLINE
8
0
66
1
40
0.008000
41
0.008000
0
VERTEX
8
0
10
-1.435000
20
1.047000
0
VERTEX
8
0
10
-1.435000
20
1.279000
0
SEQEND
8
0
0
POLYLINE
8
0
66
1
40
0.008000
41
0.008000
0
VERTEX
8
0
10
-1.514000
20
1.050000
0
VERTEX
8
0
10
-1.514000
20
1.279000
0
SEQEND
8
0
0
POLYLINE
8
0
66
1
40
0.008000
41
0.008000
0
VERTEX
8
0
10
-1.226000
20
1.050000
0
VERTEX
8
0
10
-1.226000
20
1.078000
0
SEQEND
8
0
0
POLYLINE
8
0
66
1
40
0.008000
41
0.008000
0
VERTEX
8
0
10
-1.230000
20
1.082000
0
VERTEX
8
0
10
-1.266000
20
1.082000
0
VERTEX
8
0
10
-1.266000
20
1.125000
0
VERTEX
8
0
10
-1.329000
20
1.125000
0
VERTEX
8
0
10
-1.329000
20
1.086000
0
VERTEX
8
0
10
-1.329000
20
1.082000
0
VERTEX
8
0
10
-1.372000
20
1.082000
0
SEQEND
8
0
0
POLYLINE
8
0
66
1
40
0.008000
41
0.008000
0
VERTEX
8
0
10
-1.372000
20
1.086000
0
VERTEX
8
0
10
-1.372000
20
1.047000
0
SEQEND
8
0
0
POLYLINE
8
0
66
1
40
0.008000
41
0.008000
0
VERTEX
8
0
10
-0.380000
20
1.038000
0
VERTEX
8
0
10
-0.380000
20
1.471000
0
SEQEND
8
0
0
POLYLINE
8
0
66
1
40
0.008000
41
0.008000
0
VERTEX
8
0
10
-0.380000
20
1.038000
0
VERTEX
8
0
10
-0.970000
20
1.038000
0
VERTEX
8
0
10
-0.970000
20
1.471000
0
SEQEND
8
0
0
POLYLINE
8
0
66
1
40
0.008000
41
0.008000
0
VERTEX
8
0
10
-0.419000
20
1.471000
0
VERTEX
8
0
10
-0.419000
20
1.274000
0
SEQEND
8
0
0
POLYLINE
8
0
66
1
40
0.008000
41
0.008000
0
VERTEX
8
0
10
-0.931000
20
1.471000
0
VERTEX
8
0
10
-0.931000
20
1.274000
0
SEQEND
8
0
0
POLYLINE
8
0
66
1
40
0.008000
41
0.008000
0
VERTEX
8
0
10
-0.380000
20
1.274000
0
VERTEX
8
0
10
-0.966000
20
1.274000
0
SEQEND
8
0
0
POLYLINE
8
0
66
1
40
0.008000
41
0.008000
0
VERTEX
8
0
10
-0.380000
20
1.475000
0
VERTEX
8
0
10
-0.419000
20
1.475000
0
SEQEND
8
0
0
POLYLINE
8
0
66
1
40
0.008000
41
0.008000
0
VERTEX
8
0
10
-0.931000
20
1.475000
0
VERTEX
8
0
10
-0.970000
20
1.475000
0
SEQEND
8
0
0
POLYLINE
8
0
66
1
40
0.008000
41
0.008000
0
VERTEX
8
0
10
-0.447000
20
1.042000
0
VERTEX
8
0
10
-0.447000
20
1.270000
0
SEQEND
8
0
0
POLYLINE
8
0
66
1
40
0.008000
41
0.008000
0
VERTEX
8
0
10
-0.521000
20
1.045000
0
VERTEX
8
0
10
-0.521000
20
1.274000
0
SEQEND
8
0
0
POLYLINE
8
0
66
1
40
0.008000
41
0.008000
0
VERTEX
8
0
10
-0.801000
20
1.042000
0
VERTEX
8
0
10
-0.801000
20
1.274000
0
SEQEND
8
0
0
POLYLINE
8
0
66
1
40
0.008000
41
0.008000
0
VERTEX
8
0
10
-0.880000
20
1.045000
0
VERTEX
8
0
10
-0.880000
20
1.274000
0
SEQEND
8
0
0
POLYLINE
8
0
66
1
40
0.008000
41
0.008000
0
VERTEX
8
0
10
-0.592000
20
1.045000
0
VERTEX
8
0
10
-0.592000
20
1.073000
0
SEQEND
8
0
0
POLYLINE
8
0
66
1
40
0.008000
41
0.008000
0
VERTEX
8
0
10
-0.596000
20
1.077000
0
VERTEX
8
0
10
-0.632000
20
1.077000
0
VERTEX
8
0
10
-0.632000
20
1.120000
0
VERTEX
8
0
10
-0.695000
20
1.120000
0
VERTEX
8
0
10
-0.695000
20
1.081000
0
VERTEX
8
0
10
-0.695000
20
1.077000
0
VERTEX
8
0
10
-0.738000
20
1.077000
0
SEQEND
8
0
0
POLYLINE
8
0
66
1
40
0.008000
41
0.008000
0
VERTEX
8
0
10
-0.738000
20
1.081000
0
VERTEX
8
0
10
-0.738000
20
1.042000
0
SEQEND
8
0
0
POLYLINE
8
0
66
1
40
0.008000
41
0.008000
0
VERTEX
8
0
10
0.241000
20
1.034000
0
VERTEX
8
0
10
0.241000
20
1.467000
0
SEQEND
8
0
0
POLYLINE
8
0
66
1
40
0.008000
41
0.008000
0
VERTEX
8
0
10
0.241000
20
1.034000
0
VERTEX
8
0
10
-0.348000
20
1.034000
0
VERTEX
8
0
10
-0.348000
20
1.467000
0
SEQEND
8
0
0
POLYLINE
8
0
66
1
40
0.008000
41
0.008000
0
VERTEX
8
0
10
0.202000
20
1.467000
0
VERTEX
8
0
10
0.202000
20
1.270000
0
SEQEND
8
0
0
POLYLINE
8
0
66
1
40
0.008000
41
0.008000
0
VERTEX
8
0
10
-0.309000
20
1.467000
0
VERTEX
8
0
10
-0.309000
20
1.270000
0
SEQEND
8
0
0
POLYLINE
8
0
66
1
40
0.008000
41
0.008000
0
VERTEX
8
0
10
0.241000
20
1.270000
0
VERTEX
8
0
10
-0.344000
20
1.270000
0
SEQEND
8
0
0
POLYLINE
8
0
66
1
40
0.008000
41
0.008000
0
VERTEX
8
0
10
0.241000
20
1.471000
0
VERTEX
8
0
10
0.202000
20
1.471000
0
SEQEND
8
0
0
POLYLINE
8
0
66
1
40
0.008000
41
0.008000
0
VERTEX
8
0
10
-0.309000
20
1.471000
0
VERTEX
8
0
10
-0.348000
20
1.471000
0
SEQEND
8
0
0
POLYLINE
8
0
66
1
40
0.008000
41
0.008000
0
VERTEX
8
0
10
0.174000
20
1.038000
0
VERTEX
8
0
10
0.174000
20
1.266000
0
SEQEND
8
0
0
POLYLINE
8
0
66
1
40
0.008000
41
0.008000
0
VERTEX
8
0
10
0.100000
20
1.041000
0
VERTEX
8
0
10
0.100000
20
1.270000
0
SEQEND
8
0
0
POLYLINE
8
0
66
1
40
0.008000
41
0.008000
0
VERTEX
8
0
10
-0.179000
20
1.038000
0
VERTEX
8
0
10
-0.179000
20
1.270000
0
SEQEND
8
0
0
POLYLINE
8
0
66
1
40
0.008000
41
0.008000
0
VERTEX
8
0
10
-0.258000
20
1.041000
0
VERTEX
8
0
10
-0.258000
20
1.270000
0
SEQEND
8
0
0
POLYLINE
8
0
66
1
40
0.008000
41
0.008000
0
VERTEX
8
0
10
0.029000
20
1.041000
0
VERTEX
8
0
10
0.029000
20
1.069000
0
SEQEND
8
0
0
POLYLINE
8
0
66
1
40
0.008000
41
0.008000
0
VERTEX
8
0
10
0.025000
20
1.073000
0
VERTEX
8
0
10
-0.010000
20
1.073000
0
VERTEX
8
0
10
-0.010000
20
1.116000
0
VERTEX
8
0
10
-0.073000
20
1.116000
0
VERTEX
8
0
10
-0.073000
20
1.077000
0
VERTEX
8
0
10
-0.073000
20
1.073000
0
VERTEX
8
0
10
-0.116000
20
1.073000
0
SEQEND
8
0
0
POLYLINE
8
0
66
1
40
0.008000
41
0.008000
0
VERTEX
8
0
10
-0.116000
20
1.077000
0
VERTEX
8
0
10
-0.116000
20
1.038000
0
SEQEND
8
0
0
POLYLINE
8
0
66
1
40
0.008000
41
0.008000
0
VERTEX
8
0
10
0.858000
20
1.034000
0
VERTEX
8
0
10
0.858000
20
1.467000
0
SEQEND
8
0
0
POLYLINE
8
0
66
1
40
0.008000
41
0.008000
0
VERTEX
8
0
10
0.858000
20
1.034000
0
VERTEX
8
0
10
0.268000
20
1.034000
0
VERTEX
8
0
10
0.268000
20
1.467000
0
SEQEND
8
0
0
POLYLINE
8
0
66
1
40
0.008000
41
0.008000
0
VERTEX
8
0
10
0.819000
20
1.467000
0
VERTEX
8
0
10
0.819000
20
1.270000
0
SEQEND
8
0
0
POLYLINE
8
0
66
1
40
0.008000
41
0.008000
0
VERTEX
8
0
10
0.307000
20
1.467000
0
VERTEX
8
0
10
0.307000
20
1.270000
0
SEQEND
8
0
0
POLYLINE
8
0
66
1
40
0.008000
41
0.008000
0
VERTEX
8
0
10
0.858000
20
1.270000
0
VERTEX
8
0
10
0.272000
20
1.270000
0
SEQEND
8
0
0
POLYLINE
8
0
66
1
40
0.008000
41
0.008000
0
VERTEX
8
0
10
0.858000
20
1.471000
0
VERTEX
8
0
10
0.819000
20
1.471000
0
SEQEND
8
0
0
POLYLINE
8
0
66
1
40
0.008000
41
0.008000
0
VERTEX
8
0
10
0.307000
20
1.471000
0
VERTEX
8
0
10
0.268000
20
1.471000
0
SEQEND
8
0
0
POLYLINE
8
0
66
1
40
0.008000
41
0.008000
0
VERTEX
8
0
10
0.791000
20
1.038000
0
VERTEX
8
0
10
0.791000
20
1.266000
0
SEQEND
8
0
0
POLYLINE
8
0
66
1
40
0.008000
41
0.008000
0
VERTEX
8
0
10
0.717000
20
1.041000
0
VERTEX
8
0
10
0.717000
20
1.270000
0
SEQEND
8
0
0
POLYLINE
8
0
66
1
40
0.008000
41
0.008000
0
VERTEX
8
0
10
0.437000
20
1.038000
0
VERTEX
8
0
10
0.437000
20
1.270000
0
SEQEND
8
0
0
POLYLINE
8
0
66
1
40
0.008000
41
0.008000
0
VERTEX
8
0
10
0.358000
20
1.041000
0
VERTEX
8
0
10
0.358000
20
1.270000
0
SEQEND
8
0
0
POLYLINE
8
0
66
1
40
0.008000
41
0.008000
0
VERTEX
8
0
10
0.646000
20
1.041000
0
VERTEX
8
0
10
0.646000
20
1.069000
0
SEQEND
8
0
0
POLYLINE
8
0
66
1
40
0.008000
41
0.008000
0
VERTEX
8
0
10
0.642000
20
1.073000
0
VERTEX
8
0
10
0.606000
20
1.073000
0
VERTEX
8
0
10
0.606000
20
1.116000
0
VERTEX
8
0
10
0.543000
20
1.116000
0
VERTEX
8
0
10
0.543000
20
1.077000
0
VERTEX
8
0
10
0.543000
20
1.073000
0
VERTEX
8
0
10
0.500000
20
1.073000
0
SEQEND
8
0
0
POLYLINE
8
0
66
1
40
0.008000
41
0.008000
0
VERTEX
8
0
10
0.500000
20
1.077000
0
VERTEX
8
0
10
0.500000
20
1.038000
0
SEQEND
8
0
0
POLYLINE
8
0
66
1
40
0.008000
41
0.008000
0
VERTEX
8
0
10
0.724000
20
1.710000
0
VERTEX
8
0
10
1.424000
20
1.710000
0
VERTEX
8
0
10
1.424000
20
1.910000
0
VERTEX
8
0
10
0.724000
20
1.910000
0
VERTEX
8
0
10
0.724000
20
1.710000
0
SEQEND
8
0
0
TEXT
8
12632256
10
0.999000
20
1.652000
40
0.048000
41
1.041667
1
C17
0
POLYLINE
8
0
66
1
40
0.008000
41
0.008000
0
VERTEX
8
0
10
0.445000
20
1.574000
0
VERTEX
8
0
10
0.495000
20
1.574000
0
SEQEND
8
0
0
POLYLINE
8
0
66
1
40
0.008000
41
0.008000
0
VERTEX
8
0
10
0.495000
20
1.549000
0
VERTEX
8
0
10
0.695000
20
1.549000
0
VERTEX
8
0
10
0.695000
20
1.599000
0
VERTEX
8
0
10
0.495000
20
1.599000
0
VERTEX
8
0
10
0.495000
20
1.549000
0
SEQEND
8
0
0
POLYLINE
8
0
66
1
40
0.008000
41
0.008000
0
VERTEX
8
0
10
0.695000
20
1.574000
0
VERTEX
8
0
10
0.745000
20
1.574000
0
SEQEND
8
0
0
TEXT
8
12632256
10
0.520000
20
1.609000
40
0.048000
41
1.041667
1
R25
0
POLYLINE
8
0
66
1
40
0.008000
41
0.008000
0
VERTEX
8
0
10
0.784000
20
2.372000
0
VERTEX
8
0
10
0.784000
20
1.972000
0
SEQEND
8
0
0
POLYLINE
8
0
66
1
40
0.008000
41
0.008000
0
VERTEX
8
0
10
1.384000
20
2.372000
0
VERTEX
8
0
10
1.384000
20
1.972000
0
SEQEND
8
0
0
POLYLINE
8
0
66
1
40
0.008000
41
0.008000
0
VERTEX
8
0
10
0.784000
20
1.972000
0
VERTEX
8
0
10
1.384000
20
1.972000
0
SEQEND
8
0
0
POLYLINE
8
0
66
1
40
0.008000
41
0.008000
0
VERTEX
8
0
10
1.384000
20
2.372000
0
VERTEX
8
0
10
0.784000
20
2.372000
0
SEQEND
8
0
0
TEXT
8
12632256
10
0.645000
20
2.236000
40
0.048000
41
1.041667
1
J13
0
POLYLINE
8
0
66
1
40
0.008000
41
0.008000
0
VERTEX
8
0
10
-0.003000
20
1.706000
0
VERTEX
8
0
10
0.696000
20
1.706000
0
VERTEX
8
0
10
0.696000
20
1.906000
0
VERTEX
8
0
10
-0.003000
20
1.906000
0
VERTEX
8
0
10
-0.003000
20
1.706000
0
SEQEND
8
0
0
TEXT
8
12632256
10
0.271000
20
1.648000
40
0.048000
41
1.041667
1
C15
0
POLYLINE
8
0
66
1
40
0.008000
41
0.008000
0
VERTEX
8
0
10
-0.732000
20
1.706000
0
VERTEX
8
0
10
-0.032000
20
1.706000
0
VERTEX
8
0
10
-0.032000
20
1.906000
0
VERTEX
8
0
10
-0.732000
20
1.906000
0
VERTEX
8
0
10
-0.732000
20
1.706000
0
SEQEND
8
0
0
TEXT
8
12632256
10
-0.457000
20
1.648000
40
0.048000
41
1.041667
1
C16
0
POLYLINE
8
0
66
1
40
0.008000
41
0.008000
0
VERTEX
8
0
10
-1.523000
20
1.698000
0
VERTEX
8
0
10
-0.823000
20
1.698000
0
VERTEX
8
0
10
-0.823000
20
1.898000
0
VERTEX
8
0
10
-1.523000
20
1.898000
0
VERTEX
8
0
10
-1.523000
20
1.698000
0
SEQEND
8
0
0
TEXT
8
12632256
10
-1.248000
20
1.640000
40
0.048000
41
1.041667
1
C18
0
POLYLINE
8
0
66
1
40
0.008000
41
0.008000
0
VERTEX
8
0
10
0.540000
20
-0.728000
0
VERTEX
8
0
10
0.590000
20
-0.728000
0
SEQEND
8
0
0
POLYLINE
8
0
66
1
40
0.008000
41
0.008000
0
VERTEX
8
0
10
0.590000
20
-0.753000
0
VERTEX
8
0
10
0.790000
20
-0.753000
0
VERTEX
8
0
10
0.790000
20
-0.703000
0
VERTEX
8
0
10
0.590000
20
-0.703000
0
VERTEX
8
0
10
0.590000
20
-0.753000
0
SEQEND
8
0
0
POLYLINE
8
0
66
1
40
0.008000
41
0.008000
0
VERTEX
8
0
10
0.790000
20
-0.728000
0
VERTEX
8
0
10
0.840000
20
-0.728000
0
SEQEND
8
0
0
TEXT
8
12632256
10
0.640000
20
-0.693000
40
0.048000
41
1.041667
1
R6
0
POLYLINE
8
0
66
1
40
0.008000
41
0.008000
0
VERTEX
8
0
10
0.540000
20
-1.105000
0
VERTEX
8
0
10
0.840000
20
-1.105000
0
VERTEX
8
0
10
0.840000
20
-1.005000
0
VERTEX
8
0
10
0.540000
20
-1.005000
0
VERTEX
8
0
10
0.540000
20
-1.105000
0
SEQEND
8
0
0
POLYLINE
8
0
66
1
40
0.008000
41
0.008000
0
VERTEX
8
0
10
0.540000
20
-1.005000
0
VERTEX
8
0
10
0.540000
20
-0.955000
0
VERTEX
8
0
10
0.840000
20
-0.955000
0
VERTEX
8
0
10
0.840000
20
-1.005000
0
SEQEND
8
0
0
POLYLINE
8
0
66
1
40
0.008000
41
0.008000
0
VERTEX
8
0
10
0.540000
20
-1.005000
0
VERTEX
8
0
10
0.590000
20
-0.955000
0
SEQEND
8
0
0
POLYLINE
8
0
66
1
40
0.008000
41
0.008000
0
VERTEX
8
0
10
0.590000
20
-1.005000
0
VERTEX
8
0
10
0.640000
20
-0.955000
0
SEQEND
8
0
0
POLYLINE
8
0
66
1
40
0.008000
41
0.008000
0
VERTEX
8
0
10
0.640000
20
-1.005000
0
VERTEX
8
0
10
0.690000
20
-0.955000
0
SEQEND
8
0
0
POLYLINE
8
0
66
1
40
0.008000
41
0.008000
0
VERTEX
8
0
10
0.690000
20
-1.005000
0
VERTEX
8
0
10
0.740000
20
-0.955000
0
SEQEND
8
0
0
POLYLINE
8
0
66
1
40
0.008000
41
0.008000
0
VERTEX
8
0
10
0.740000
20
-1.005000
0
VERTEX
8
0
10
0.790000
20
-0.955000
0
SEQEND
8
0
0
POLYLINE
8
0
66
1
40
0.008000
41
0.008000
0
VERTEX
8
0
10
0.790000
20
-1.005000
0
VERTEX
8
0
10
0.840000
20
-0.955000
0
SEQEND
8
0
0
TEXT
8
12632256
10
0.640000
20
-0.945000
40
0.048000
41
1.041667
1
Q1
0
POLYLINE
8
0
66
1
40
0.008000
41
0.008000
0
VERTEX
8
0
10
0.088000
20
-1.054000
0
VERTEX
8
0
10
0.098000
20
-1.056000
0
VERTEX
8
0
10
0.108000
20
-1.062000
0
VERTEX
8
0
10
0.116000
20
-1.071000
0
VERTEX
8
0
10
0.124000
20
-1.083000
0
VERTEX
8
0
10
0.130000
20
-1.098000
0
VERTEX
8
0
10
0.134000
20
-1.115000
0
VERTEX
8
0
10
0.137000
20
-1.134000
0
VERTEX
8
0
10
0.138000
20
-1.154000
0
SEQEND
8
0
0
POLYLINE
8
0
66
1
40
0.008000
41
0.008000
0
VERTEX
8
0
10
0.088000
20
-1.254000
0
VERTEX
8
0
10
0.098000
20
-1.252000
0
VERTEX
8
0
10
0.108000
20
-1.246000
0
VERTEX
8
0
10
0.116000
20
-1.237000
0
VERTEX
8
0
10
0.124000
20
-1.225000
0
VERTEX
8
0
10
0.130000
20
-1.210000
0
VERTEX
8
0
10
0.134000
20
-1.193000
0
VERTEX
8
0
10
0.137000
20
-1.174000
0
VERTEX
8
0
10
0.138000
20
-1.154000
0
SEQEND
8
0
0
POLYLINE
8
0
66
1
40
0.008000
41
0.008000
0
VERTEX
8
0
10
0.088000
20
-1.054000
0
VERTEX
8
0
10
0.078000
20
-1.056000
0
VERTEX
8
0
10
0.068000
20
-1.062000
0
VERTEX
8
0
10
0.060000
20
-1.071000
0
VERTEX
8
0
10
0.052000
20
-1.083000
0
VERTEX
8
0
10
0.046000
20
-1.098000
0
VERTEX
8
0
10
0.042000
20
-1.115000
0
VERTEX
8
0
10
0.039000
20
-1.134000
0
VERTEX
8
0
10
0.038000
20
-1.154000
0
SEQEND
8
0
0
POLYLINE
8
0
66
1
40
0.008000
41
0.008000
0
VERTEX
8
0
10
0.088000
20
-1.254000
0
VERTEX
8
0
10
0.078000
20
-1.252000
0
VERTEX
8
0
10
0.068000
20
-1.246000
0
VERTEX
8
0
10
0.060000
20
-1.237000
0
VERTEX
8
0
10
0.052000
20
-1.225000
0
VERTEX
8
0
10
0.046000
20
-1.210000
0
VERTEX
8
0
10
0.042000
20
-1.193000
0
VERTEX
8
0
10
0.039000
20
-1.174000
0
VERTEX
8
0
10
0.038000
20
-1.154000
0
SEQEND
8
0
0
TEXT
8
12632256
10
0.196000
20
-1.229000
40
0.048000
41
1.041667
50
90.000000
1
C31
0
POLYLINE
8
0
66
1
40
0.008000
41
0.008000
0
VERTEX
8
0
10
-1.647000
20
-0.747000
0
VERTEX
8
0
10
-1.397000
20
-0.747000
0
VERTEX
8
0
10
-1.397000
20
0.152000
0
VERTEX
8
0
10
-1.647000
20
0.152000
0
VERTEX
8
0
10
-1.647000
20
-0.747000
0
SEQEND
8
0
0
POLYLINE
8
0
66
1
40
0.008000
41
0.008000
0
VERTEX
8
0
10
-1.447000
20
0.152000
0
VERTEX
8
0
10
-1.447000
20
-0.747000
0
SEQEND
8
0
0
TEXT
8
12632256
10
-1.628000
20
0.188000
40
0.048000
41
1.041667
50
90.000000
1
J7
0
POLYLINE
8
0
66
1
40
0.008000
41
0.008000
0
VERTEX
8
0
10
-0.699000
20
2.396000
0
VERTEX
8
0
10
-0.699000
20
1.996000
0
SEQEND
8
0
0
POLYLINE
8
0
66
1
40
0.008000
41
0.008000
0
VERTEX
8
0
10
-0.099000
20
2.396000
0
VERTEX
8
0
10
-0.099000
20
1.996000
0
SEQEND
8
0
0
POLYLINE
8
0
66
1
40
0.008000
41
0.008000
0
VERTEX
8
0
10
-0.699000
20
1.996000
0
VERTEX
8
0
10
-0.099000
20
1.996000
0
SEQEND
8
0
0
POLYLINE
8
0
66
1
40
0.008000
41
0.008000
0
VERTEX
8
0
10
-0.099000
20
2.396000
0
VERTEX
8
0
10
-0.699000
20
2.396000
0
SEQEND
8
0
0
TEXT
8
12632256
10
-0.805000
20
2.243000
40
0.048000
41
1.041667
1
J5
0
POLYLINE
8
0
66
1
40
0.008000
41
0.008000
0
VERTEX
8
0
10
0.052000
20
2.380000
0
VERTEX
8
0
10
0.052000
20
1.980000
0
SEQEND
8
0
0
POLYLINE
8
0
66
1
40
0.008000
41
0.008000
0
VERTEX
8
0
10
0.652000
20
2.380000
0
VERTEX
8
0
10
0.652000
20
1.980000
0
SEQEND
8
0
0
POLYLINE
8
0
66
1
40
0.008000
41
0.008000
0
VERTEX
8
0
10
0.052000
20
1.980000
0
VERTEX
8
0
10
0.652000
20
1.980000
0
SEQEND
8
0
0
POLYLINE
8
0
66
1
40
0.008000
41
0.008000
0
VERTEX
8
0
10
0.652000
20
2.380000
0
VERTEX
8
0
10
0.052000
20
2.380000
0
SEQEND
8
0
0
TEXT
8
12632256
10
-0.061000
20
2.250000
40
0.048000
41
1.041667
1
J4
0
POLYLINE
8
0
66
1
40
0.008000
41
0.008000
0
VERTEX
8
0
10
-1.404000
20
2.388000
0
VERTEX
8
0
10
-1.404000
20
1.988000
0
SEQEND
8
0
0
POLYLINE
8
0
66
1
40
0.008000
41
0.008000
0
VERTEX
8
0
10
-0.804000
20
2.388000
0
VERTEX
8
0
10
-0.804000
20
1.988000
0
SEQEND
8
0
0
POLYLINE
8
0
66
1
40
0.008000
41
0.008000
0
VERTEX
8
0
10
-1.404000
20
1.988000
0
VERTEX
8
0
10
-0.804000
20
1.988000
0
SEQEND
8
0
0
POLYLINE
8
0
66
1
40
0.008000
41
0.008000
0
VERTEX
8
0
10
-0.804000
20
2.388000
0
VERTEX
8
0
10
-1.404000
20
2.388000
0
SEQEND
8
0
0
TEXT
8
12632256
10
-1.519000
20
2.110000
40
0.048000
41
1.041667
1
J6
0
POLYLINE
8
0
66
1
40
0.008000
41
0.008000
0
VERTEX
8
0
10
1.638000
20
1.540000
0
VERTEX
8
0
10
1.238000
20
1.540000
0
SEQEND
8
0
0
POLYLINE
8
0
66
1
40
0.008000
41
0.008000
0
VERTEX
8
0
10
1.638000
20
0.940000
0
VERTEX
8
0
10
1.238000
20
0.940000
0
SEQEND
8
0
0
POLYLINE
8
0
66
1
40
0.008000
41
0.008000
0
VERTEX
8
0
10
1.238000
20
1.540000
0
VERTEX
8
0
10
1.238000
20
0.940000
0
SEQEND
8
0
0
POLYLINE
8
0
66
1
40
0.008000
41
0.008000
0
VERTEX
8
0
10
1.638000
20
0.940000
0
VERTEX
8
0
10
1.638000
20
1.540000
0
SEQEND
8
0
0
TEXT
8
12632256
10
1.696000
20
1.165000
40
0.048000
41
1.041667
50
90.000000
1
J10
0
POLYLINE
8
0
66
1
40
0.008000
41
0.008000
0
VERTEX
8
0
10
-0.910000
20
-0.754000
0
VERTEX
8
0
10
-0.910000
20
-0.804000
0
SEQEND
8
0
0
POLYLINE
8
0
66
1
40
0.008000
41
0.008000
0
VERTEX
8
0
10
-0.935000
20
-1.004000
0
VERTEX
8
0
10
-0.885000
20
-1.004000
0
VERTEX
8
0
10
-0.885000
20
-0.804000
0
VERTEX
8
0
10
-0.935000
20
-0.804000
0
VERTEX
8
0
10
-0.935000
20
-1.004000
0
SEQEND
8
0
0
POLYLINE
8
0
66
1
40
0.008000
41
0.008000
0
VERTEX
8
0
10
-0.910000
20
-1.004000
0
VERTEX
8
0
10
-0.910000
20
-1.054000
0
SEQEND
8
0
0
TEXT
8
12632256
10
-0.953000
20
-0.966000
40
0.048000
41
1.041667
50
90.000000
1
R1
0
POLYLINE
8
0
66
1
40
0.008000
41
0.008000
0
VERTEX
8
0
10
-0.815000
20
-1.054000
0
VERTEX
8
0
10
-0.815000
20
-1.004000
0
SEQEND
8
0
0
POLYLINE
8
0
66
1
40
0.008000
41
0.008000
0
VERTEX
8
0
10
-0.840000
20
-1.004000
0
VERTEX
8
0
10
-0.790000
20
-1.004000
0
VERTEX
8
0
10
-0.790000
20
-0.804000
0
VERTEX
8
0
10
-0.840000
20
-0.804000
0
VERTEX
8
0
10
-0.840000
20
-1.004000
0
SEQEND
8
0
0
POLYLINE
8
0
66
1
40
0.008000
41
0.008000
0
VERTEX
8
0
10
-0.815000
20
-0.804000
0
VERTEX
8
0
10
-0.815000
20
-0.754000
0
SEQEND
8
0
0
TEXT
8
12632256
10
-0.835000
20
-0.950000
40
0.048000
41
1.041667
50
90.000000
1
R4
0
POLYLINE
8
0
66
1
40
0.008000
41
0.008000
0
VERTEX
8
0
10
-1.358000
20
0.180000
0
VERTEX
8
0
10
-1.358000
20
0.130000
0
SEQEND
8
0
0
POLYLINE
8
0
66
1
40
0.008000
41
0.008000
0
VERTEX
8
0
10
-1.383000
20
-0.069000
0
VERTEX
8
0
10
-1.333000
20
-0.069000
0
VERTEX
8
0
10
-1.333000
20
0.130000
0
VERTEX
8
0
10
-1.383000
20
0.130000
0
VERTEX
8
0
10
-1.383000
20
-0.069000
0
SEQEND
8
0
0
POLYLINE
8
0
66
1
40
0.008000
41
0.008000
0
VERTEX
8
0
10
-1.358000
20
-0.069000
0
VERTEX
8
0
10
-1.358000
20
-0.119000
0
SEQEND
8
0
0
TEXT
8
12632256
10
-1.279000
20
-0.033000
40
0.048000
41
1.041667
50
90.000000
1
R12
0
POLYLINE
8
0
66
1
40
0.008000
41
0.008000
0
VERTEX
8
0
10
-1.253000
20
0.182000
0
VERTEX
8
0
10
-1.253000
20
0.132000
0
SEQEND
8
0
0
POLYLINE
8
0
66
1
40
0.008000
41
0.008000
0
VERTEX
8
0
10
-1.278000
20
-0.067000
0
VERTEX
8
0
10
-1.228000
20
-0.067000
0
VERTEX
8
0
10
-1.228000
20
0.132000
0
VERTEX
8
0
10
-1.278000
20
0.132000
0
VERTEX
8
0
10
-1.278000
20
-0.067000
0
SEQEND
8
0
0
POLYLINE
8
0
66
1
40
0.008000
41
0.008000
0
VERTEX
8
0
10
-1.253000
20
-0.067000
0
VERTEX
8
0
10
-1.253000
20
-0.117000
0
SEQEND
8
0
0
TEXT
8
12632256
10
-1.170000
20
-0.042000
40
0.048000
41
1.041667
50
90.000000
1
R13
0
POLYLINE
8
0
66
1
40
0.008000
41
0.008000
0
VERTEX
8
0
10
-1.234000
20
-0.361000
0
VERTEX
8
0
10
-1.234000
20
-0.411000
0
SEQEND
8
0
0
POLYLINE
8
0
66
1
40
0.008000
41
0.008000
0
VERTEX
8
0
10
-1.259000
20
-0.611000
0
VERTEX
8
0
10
-1.209000
20
-0.611000
0
VERTEX
8
0
10
-1.209000
20
-0.411000
0
VERTEX
8
0
10
-1.259000
20
-0.411000
0
VERTEX
8
0
10
-1.259000
20
-0.611000
0
SEQEND
8
0
0
POLYLINE
8
0
66
1
40
0.008000
41
0.008000
0
VERTEX
8
0
10
-1.234000
20
-0.611000
0
VERTEX
8
0
10
-1.234000
20
-0.661000
0
SEQEND
8
0
0
TEXT
8
12632256
10
-1.151000
20
-0.586000
40
0.048000
41
1.041667
50
90.000000
1
R14
0
POLYLINE
8
0
66
1
40
0.008000
41
0.008000
0
VERTEX
8
0
10
-1.356000
20
-0.357000
0
VERTEX
8
0
10
-1.356000
20
-0.407000
0
SEQEND
8
0
0
POLYLINE
8
0
66
1
40
0.008000
41
0.008000
0
VERTEX
8
0
10
-1.381000
20
-0.607000
0
VERTEX
8
0
10
-1.331000
20
-0.607000
0
VERTEX
8
0
10
-1.331000
20
-0.407000
0
VERTEX
8
0
10
-1.381000
20
-0.407000
0
VERTEX
8
0
10
-1.381000
20
-0.607000
0
SEQEND
8
0
0
POLYLINE
8
0
66
1
40
0.008000
41
0.008000
0
VERTEX
8
0
10
-1.356000
20
-0.607000
0
VERTEX
8
0
10
-1.356000
20
-0.657000
0
SEQEND
8
0
0
TEXT
8
12632256
10
-1.273000
20
-0.582000
40
0.048000
41
1.041667
50
90.000000
1
R15
0
POLYLINE
8
0
66
1
40
0.008000
41
0.008000
0
VERTEX
8
0
10
0.930000
20
-0.988000
0
VERTEX
8
0
10
1.230000
20
-0.988000
0
VERTEX
8
0
10
1.230000
20
-0.838000
0
VERTEX
8
0
10
0.930000
20
-0.838000
0
VERTEX
8
0
10
0.930000
20
-0.988000
0
SEQEND
8
0
0
POLYLINE
8
0
66
1
40
0.008000
41
0.008000
0
VERTEX
8
0
10
1.030000
20
-0.688000
0
VERTEX
8
0
10
1.130000
20
-0.688000
0
SEQEND
8
0
0
POLYLINE
8
0
66
1
40
0.008000
41
0.008000
0
VERTEX
8
0
10
0.982000
20
-0.838000
0
VERTEX
8
0
10
1.175000
20
-0.838000
0
VERTEX
8
0
10
1.175000
20
-0.618000
0
VERTEX
8
0
10
0.982000
20
-0.618000
0
VERTEX
8
0
10
0.982000
20
-0.838000
0
SEQEND
8
0
0
TEXT
8
12632256
10
1.029000
20
-1.053000
40
0.048000
41
1.041667
1
RV1
0
POLYLINE
8
0
66
1
40
0.008000
41
0.008000
0
VERTEX
8
0
10
-0.794000
20
1.578000
0
VERTEX
8
0
10
-0.744000
20
1.578000
0
SEQEND
8
0
0
POLYLINE
8
0
66
1
40
0.008000
41
0.008000
0
VERTEX
8
0
10
-0.744000
20
1.553000
0
VERTEX
8
0
10
-0.544000
20
1.553000
0
VERTEX
8
0
10
-0.544000
20
1.603000
0
VERTEX
8
0
10
-0.744000
20
1.603000
0
VERTEX
8
0
10
-0.744000
20
1.553000
0
SEQEND
8
0
0
POLYLINE
8
0
66
1
40
0.008000
41
0.008000
0
VERTEX
8
0
10
-0.544000
20
1.578000
0
VERTEX
8
0
10
-0.494000
20
1.578000
0
SEQEND
8
0
0
TEXT
8
12632256
10
-0.719000
20
1.613000
40
0.048000
41
1.041667
1
R24
0
POLYLINE
8
0
66
1
40
0.008000
41
0.008000
0
VERTEX
8
0
10
-1.483000
20
1.582000
0
VERTEX
8
0
10
-1.433000
20
1.582000
0
SEQEND
8
0
0
POLYLINE
8
0
66
1
40
0.008000
41
0.008000
0
VERTEX
8
0
10
-1.433000
20
1.557000
0
VERTEX
8
0
10
-1.233000
20
1.557000
0
VERTEX
8
0
10
-1.233000
20
1.607000
0
VERTEX
8
0
10
-1.433000
20
1.607000
0
VERTEX
8
0
10
-1.433000
20
1.557000
0
SEQEND
8
0
0
POLYLINE
8
0
66
1
40
0.008000
41
0.008000
0
VERTEX
8
0
10
-1.233000
20
1.582000
0
VERTEX
8
0
10
-1.183000
20
1.582000
0
SEQEND
8
0
0
TEXT
8
12632256
10
-1.408000
20
1.617000
40
0.048000
41
1.041667
1
R26
0
POLYLINE
8
0
66
1
40
0.008000
41
0.008000
0
VERTEX
8
0
10
-0.172000
20
1.582000
0
VERTEX
8
0
10
-0.122000
20
1.582000
0
SEQEND
8
0
0
POLYLINE
8
0
66
1
40
0.008000
41
0.008000
0
VERTEX
8
0
10
-0.122000
20
1.557000
0
VERTEX
8
0
10
0.077000
20
1.557000
0
VERTEX
8
0
10
0.077000
20
1.607000
0
VERTEX
8
0
10
-0.122000
20
1.607000
0
VERTEX
8
0
10
-0.122000
20
1.557000
0
SEQEND
8
0
0
POLYLINE
8
0
66
1
40
0.008000
41
0.008000
0
VERTEX
8
0
10
0.077000
20
1.582000
0
VERTEX
8
0
10
0.127000
20
1.582000
0
SEQEND
8
0
0
TEXT
8
12632256
10
-0.097000
20
1.617000
40
0.048000
41
1.041667
1
R23
0
POLYLINE
8
0
66
1
40
0.008000
41
0.008000
0
VERTEX
8
0
10
0.140000
20
-0.199000
0
VERTEX
8
0
10
0.440000
20
-0.199000
0
VERTEX
8
0
10
0.490000
20
-0.249000
0
VERTEX
8
0
10
0.490000
20
-0.349000
0
VERTEX
8
0
10
0.440000
20
-0.399000
0
VERTEX
8
0
10
0.140000
20
-0.399000
0
VERTEX
8
0
10
0.090000
20
-0.349000
0
VERTEX
8
0
10
0.090000
20
-0.249000
0
VERTEX
8
0
10
0.140000
20
-0.199000
0
SEQEND
8
0
0
TEXT
8
12632256
10
0.240000
20
-0.189000
40
0.048000
41
1.041667
1
X1
0
POLYLINE
8
0
66
1
40
0.008000
41
0.008000
0
VERTEX
8
0
10
0.919000
20
-0.323000
0
VERTEX
8
0
10
0.916000
20
-0.333000
0
VERTEX
8
0
10
0.908000
20
-0.343000
0
VERTEX
8
0
10
0.894000
20
-0.351000
0
VERTEX
8
0
10
0.876000
20
-0.358000
0
VERTEX
8
0
10
0.854000
20
-0.365000
0
VERTEX
8
0
10
0.828000
20
-0.369000
0
VERTEX
8
0
10
0.800000
20
-0.372000
0
VERTEX
8
0
10
0.769000
20
-0.373000
0
SEQEND
8
0
0
POLYLINE
8
0
66
1
40
0.008000
41
0.008000
0
VERTEX
8
0
10
0.619000
20
-0.323000
0
VERTEX
8
0
10
0.622000
20
-0.333000
0
VERTEX
8
0
10
0.631000
20
-0.343000
0
VERTEX
8
0
10
0.644000
20
-0.351000
0
VERTEX
8
0
10
0.662000
20
-0.358000
0
VERTEX
8
0
10
0.684000
20
-0.365000
0
VERTEX
8
0
10
0.710000
20
-0.369000
0
VERTEX
8
0
10
0.738000
20
-0.372000
0
VERTEX
8
0
10
0.769000
20
-0.373000
0
SEQEND
8
0
0
POLYLINE
8
0
66
1
40
0.008000
41
0.008000
0
VERTEX
8
0
10
0.619000
20
-0.323000
0
VERTEX
8
0
10
0.622000
20
-0.313000
0
VERTEX
8
0
10
0.631000
20
-0.303000
0
VERTEX
8
0
10
0.644000
20
-0.295000
0
VERTEX
8
0
10
0.662000
20
-0.288000
0
VERTEX
8
0
10
0.684000
20
-0.281000
0
VERTEX
8
0
10
0.710000
20
-0.277000
0
VERTEX
8
0
10
0.738000
20
-0.274000
0
VERTEX
8
0
10
0.769000
20
-0.273000
0
SEQEND
8
0
0
POLYLINE
8
0
66
1
40
0.008000
41
0.008000
0
VERTEX
8
0
10
0.919000
20
-0.323000
0
VERTEX
8
0
10
0.916000
20
-0.313000
0
VERTEX
8
0
10
0.908000
20
-0.303000
0
VERTEX
8
0
10
0.894000
20
-0.295000
0
VERTEX
8
0
10
0.876000
20
-0.288000
0
VERTEX
8
0
10
0.854000
20
-0.281000
0
VERTEX
8
0
10
0.828000
20
-0.277000
0
VERTEX
8
0
10
0.800000
20
-0.274000
0
VERTEX
8
0
10
0.769000
20
-0.273000
0
SEQEND
8
0
0
TEXT
8
12632256
10
0.769000
20
-0.431000
40
0.048000
41
1.041667
1
C1
0
POLYLINE
8
0
66
1
40
0.008000
41
0.008000
0
VERTEX
8
0
10
0.198000
20
-0.603000
0
VERTEX
8
0
10
0.208000
20
-0.606000
0
VERTEX
8
0
10
0.218000
20
-0.614000
0
VERTEX
8
0
10
0.226000
20
-0.628000
0
VERTEX
8
0
10
0.234000
20
-0.646000
0
VERTEX
8
0
10
0.240000
20
-0.668000
0
VERTEX
8
0
10
0.244000
20
-0.694000
0
VERTEX
8
0
10
0.247000
20
-0.722000
0
VERTEX
8
0
10
0.248000
20
-0.753000
0
SEQEND
8
0
0
POLYLINE
8
0
66
1
40
0.008000
41
0.008000
0
VERTEX
8
0
10
0.198000
20
-0.903000
0
VERTEX
8
0
10
0.203000
20
-0.902000
0
VERTEX
8
0
10
0.208000
20
-0.900000
0
VERTEX
8
0
10
0.218000
20
-0.891000
0
VERTEX
8
0
10
0.226000
20
-0.878000
0
VERTEX
8
0
10
0.234000
20
-0.860000
0
VERTEX
8
0
10
0.240000
20
-0.837000
0
VERTEX
8
0
10
0.244000
20
-0.812000
0
VERTEX
8
0
10
0.247000
20
-0.784000
0
VERTEX
8
0
10
0.248000
20
-0.753000
0
SEQEND
8
0
0
POLYLINE
8
0
66
1
40
0.008000
41
0.008000
0
VERTEX
8
0
10
0.198000
20
-0.903000
0
VERTEX
8
0
10
0.193000
20
-0.902000
0
VERTEX
8
0
10
0.188000
20
-0.900000
0
VERTEX
8
0
10
0.178000
20
-0.891000
0
VERTEX
8
0
10
0.170000
20
-0.878000
0
VERTEX
8
0
10
0.162000
20
-0.860000
0
VERTEX
8
0
10
0.156000
20
-0.837000
0
VERTEX
8
0
10
0.152000
20
-0.812000
0
VERTEX
8
0
10
0.149000
20
-0.784000
0
VERTEX
8
0
10
0.148000
20
-0.753000
0
SEQEND
8
0
0
POLYLINE
8
0
66
1
40
0.008000
41
0.008000
0
VERTEX
8
0
10
0.198000
20
-0.603000
0
VERTEX
8
0
10
0.188000
20
-0.606000
0
VERTEX
8
0
10
0.178000
20
-0.614000
0
VERTEX
8
0
10
0.170000
20
-0.628000
0
VERTEX
8
0
10
0.162000
20
-0.646000
0
VERTEX
8
0
10
0.156000
20
-0.668000
0
VERTEX
8
0
10
0.152000
20
-0.694000
0
VERTEX
8
0
10
0.149000
20
-0.722000
0
VERTEX
8
0
10
0.148000
20
-0.753000
0
SEQEND
8
0
0
TEXT
8
12632256
10
0.153000
20
-0.808000
40
0.048000
41
1.041667
50
90.000000
1
C2
0
POLYLINE
8
0
66
1
40
0.008000
41
0.008000
0
VERTEX
8
0
10
0.336000
20
-0.602000
0
VERTEX
8
0
10
0.346000
20
-0.605000
0
VERTEX
8
0
10
0.356000
20
-0.613000
0
VERTEX
8
0
10
0.364000
20
-0.627000
0
VERTEX
8
0
10
0.372000
20
-0.645000
0
VERTEX
8
0
10
0.378000
20
-0.667000
0
VERTEX
8
0
10
0.382000
20
-0.693000
0
VERTEX
8
0
10
0.385000
20
-0.721000
0
VERTEX
8
0
10
0.386000
20
-0.752000
0
SEQEND
8
0
0
POLYLINE
8
0
66
1
40
0.008000
41
0.008000
0
VERTEX
8
0
10
0.336000
20
-0.902000
0
VERTEX
8
0
10
0.341000
20
-0.901000
0
VERTEX
8
0
10
0.346000
20
-0.899000
0
VERTEX
8
0
10
0.356000
20
-0.890000
0
VERTEX
8
0
10
0.364000
20
-0.877000
0
VERTEX
8
0
10
0.372000
20
-0.858000
0
VERTEX
8
0
10
0.378000
20
-0.836000
0
VERTEX
8
0
10
0.382000
20
-0.811000
0
VERTEX
8
0
10
0.385000
20
-0.783000
0
VERTEX
8
0
10
0.386000
20
-0.752000
0
SEQEND
8
0
0
POLYLINE
8
0
66
1
40
0.008000
41
0.008000
0
VERTEX
8
0
10
0.336000
20
-0.902000
0
VERTEX
8
0
10
0.331000
20
-0.901000
0
VERTEX
8
0
10
0.326000
20
-0.899000
0
VERTEX
8
0
10
0.316000
20
-0.890000
0
VERTEX
8
0
10
0.308000
20
-0.877000
0
VERTEX
8
0
10
0.300000
20
-0.858000
0
VERTEX
8
0
10
0.294000
20
-0.836000
0
VERTEX
8
0
10
0.290000
20
-0.811000
0
VERTEX
8
0
10
0.287000
20
-0.783000
0
VERTEX
8
0
10
0.286000
20
-0.752000
0
SEQEND
8
0
0
POLYLINE
8
0
66
1
40
0.008000
41
0.008000
0
VERTEX
8
0
10
0.336000
20
-0.602000
0
VERTEX
8
0
10
0.326000
20
-0.605000
0
VERTEX
8
0
10
0.316000
20
-0.613000
0
VERTEX
8
0
10
0.308000
20
-0.627000
0
VERTEX
8
0
10
0.300000
20
-0.645000
0
VERTEX
8
0
10
0.294000
20
-0.667000
0
VERTEX
8
0
10
0.290000
20
-0.693000
0
VERTEX
8
0
10
0.287000
20
-0.721000
0
VERTEX
8
0
10
0.286000
20
-0.752000
0
SEQEND
8
0
0
TEXT
8
12632256
10
0.444000
20
-0.752000
40
0.048000
41
1.041667
50
90.000000
1
C3
0
TEXT
8
12632256
10
-1.659000
20
0.461000
40
0.048000
41
1.041667
1
JDPE
0
POLYLINE
8
0
66
1
40
0.000000
41
0.000000
0
VERTEX
8
0
10
1.142000
20
0.282000
0
VERTEX
8
0
10
1.142000
20
1.823000
0
VERTEX
8
0
10
0.863000
20
1.823000
0
VERTEX
8
0
10
0.863000
20
0.282000
0
VERTEX
8
0
10
1.142000
20
0.282000
0
SEQEND
8
0
0
TEXT
8
12632256
10
-1.698000
20
0.029000
40
0.048000
41
1.041667
1
R
0
TEXT
8
12632256
10
-1.694000
20
-0.068000
40
0.048000
41
1.041667
1
L
0
TEXT
8
12632256
10
-1.694000
20
-0.170000
40
0.048000
41
1.041667
1
D
0
TEXT
8
12632256
10
-1.694000
20
-0.264000
40
0.048000
41
1.041667
1
U
0
TEXT
8
12632256
10
-1.698000
20
-0.361000
40
0.048000
41
1.041667
1
+
0
TEXT
8
12632256
10
-1.700000
20
-0.464000
40
0.048000
41
1.041667
1
+
0
TEXT
8
12632256
10
-1.700000
20
-0.575000
40
0.048000
41
1.041667
1
+
0
TEXT
8
12632256
10
-1.700000
20
-0.687000
40
0.048000
41
1.041667
1
+
0
TEXT
8
12632256
10
-0.482000
20
-1.203000
40
0.048000
41
1.041667
1
LM324
0
TEXT
8
12632256
10
-0.322000
20
-0.135000
40
0.048000
41
1.041667
1
PIC 18F4550
0
TEXT
8
12632256
10
0.783000
20
2.431000
40
0.048000
41
1.041667
1
LUZ
0
TEXT
8
12632256
10
1.062000
20
2.431000
40
0.048000
41
1.041667
1
N   L2
0
TEXT
8
12632256
10
0.312000
20
2.422000
40
0.048000
41
1.041667
1
N   L2
0
TEXT
8
12632256
10
-0.428000
20
2.437000
40
0.048000
41
1.041667
1
N   L2
0
TEXT
8
12632256
10
-1.122000
20
2.432000
40
0.048000
41
1.041667
1
N   L2
0
TEXT
8
12632256
10
0.002000
20
2.423000
40
0.048000
41
1.041667
1
MOTOR
0
TEXT
8
12632256
10
-0.772000
20
2.438000
40
0.048000
41
1.041667
1
ALARMA
0
TEXT
8
12632256
10
-1.445000
20
2.429000
40
0.048000
41
1.041667
1
DAMPER
0
TEXT
8
12632256
10
1.145000
20
1.444000
40
0.048000
41
1.041667
1
L1
0
TEXT
8
12632256
10
1.147000
20
1.211000
40
0.048000
41
1.041667
1
L2
0
TEXT
8
12632256
10
1.181000
20
0.958000
40
0.048000
41
1.041667
1
N
0
TEXT
8
12632256
10
-0.155000
20
-2.035000
40
0.048000
41
1.041667
1
10 VAC
0
TEXT
8
12632256
10
-0.873000
20
-2.056000
40
0.048000
41
1.041667
1
-   DAM  FEED
0
TEXT
8
12632256
10
-1.147000
20
-0.899000
40
0.048000
41
1.041667
1
T
0
TEXT
8
12632256
10
-1.197000
20
-1.094000
40
0.048000
41
1.041667
1
V12
0
TEXT
8
12632256
10
-1.197000
20
-1.297000
40
0.048000
41
1.041667
1
GND
0
TEXT
8
12632256
10
-1.172000
20
-1.455000
40
0.048000
41
1.041667
1
5V
0
TEXT
8
12632256
10
-1.172000
20
-1.702000
40
0.048000
41
1.041667
1
VF
0
TEXT
8
12632256
10
-1.693000
20
-0.961000
40
0.048000
41
1.041667
50
-90.000000
1
SENSOR DE FLUJO
0
TEXT
8
12632256
10
-1.189000
20
-2.448000
40
0.048000
41
1.041667
1
DAMPER
0
POLYLINE
8
0
66
1
40
0.008000
41
0.008000
0
VERTEX
8
0
10
-1.664000
20
-2.126000
0
VERTEX
8
0
10
-0.973000
20
-2.126000
0
VERTEX
8
0
10
-0.973000
20
-1.849000
0
VERTEX
8
0
10
-1.664000
20
-1.849000
0
VERTEX
8
0
10
-1.664000
20
-2.126000
0
SEQEND
8
0
0
TEXT
8
12632256
10
-1.461000
20
-1.916000
40
0.048000
41
1.041667
1
CABINA
0
TEXT
8
12632256
10
-1.547000
20
-1.995000
40
0.048000
41
1.041667
1
EXTRACTORA
0
TEXT
8
12632256
10
-1.408000
20
-2.077000
40
0.048000
41
1.041667
1
2016
0
POLYLINE
8
0
66
1
40
0.008000
41
0.008000
0
VERTEX
8
0
10
-1.218000
20
-0.886000
0
VERTEX
8
0
10
-0.918000
20
-0.886000
0
VERTEX
8
0
10
-0.918000
20
-0.636000
0
VERTEX
8
0
10
-1.218000
20
-0.636000
0
VERTEX
8
0
10
-1.218000
20
-0.886000
0
SEQEND
8
0
0
POLYLINE
8
0
66
1
40
0.008000
41
0.008000
0
VERTEX
8
0
10
-1.218000
20
-0.686000
0
VERTEX
8
0
10
-0.918000
20
-0.686000
0
SEQEND
8
0
0
TEXT
8
12632256
10
-1.118000
20
-0.626000
40
0.048000
41
1.041667
1
J1
0
POLYLINE
8
0
66
1
40
0.008000
41
0.008000
0
VERTEX
8
0
10
0.000000
20
-0.310000
0
VERTEX
8
0
10
-0.038000
20
-0.310000
0
SEQEND
8
0
0
POLYLINE
8
0
66
1
40
0.008000
41
0.008000
0
VERTEX
8
0
10
0.000000
20
-0.421000
0
VERTEX
8
0
10
-0.039000
20
-0.421000
0
SEQEND
8
0
0
POLYLINE
8
0
66
1
40
0.008000
41
0.008000
0
VERTEX
8
0
10
-0.080000
20
-0.295000
0
VERTEX
8
0
10
-0.080000
20
-0.275000
0
SEQEND
8
0
0
POLYLINE
8
0
66
1
40
0.008000
41
0.008000
0
VERTEX
8
0
10
-0.070000
20
-0.285000
0
VERTEX
8
0
10
-0.090000
20
-0.285000
0
SEQEND
8
0
0
TEXT
8
12632256
10
0.030000
20
-0.265000
40
0.048000
41
1.041667
71
2
1
C4
0
POLYLINE
8
0
66
1
40
0.008000
41
0.008000
0
VERTEX
8
0
10
-0.091000
20
-0.008000
0
VERTEX
8
0
10
-0.129000
20
-0.008000
0
SEQEND
8
0
0
POLYLINE
8
0
66
1
40
0.008000
41
0.008000
0
VERTEX
8
0
10
-0.091000
20
-0.119000
0
VERTEX
8
0
10
-0.130000
20
-0.119000
0
SEQEND
8
0
0
POLYLINE
8
0
66
1
40
0.008000
41
0.008000
0
VERTEX
8
0
10
-0.171000
20
0.006000
0
VERTEX
8
0
10
-0.171000
20
0.026000
0
SEQEND
8
0
0
POLYLINE
8
0
66
1
40
0.008000
41
0.008000
0
VERTEX
8
0
10
-0.161000
20
0.016000
0
VERTEX
8
0
10
-0.181000
20
0.016000
0
SEQEND
8
0
0
TEXT
8
12632256
10
-0.060000
20
0.036000
40
0.048000
41
1.041667
71
2
1
C5
0
POLYLINE
8
0
66
1
40
0.008000
41
0.008000
0
VERTEX
8
0
10
1.352000
20
-1.722000
0
VERTEX
8
0
10
1.352000
20
-1.684000
0
SEQEND
8
0
0
POLYLINE
8
0
66
1
40
0.008000
41
0.008000
0
VERTEX
8
0
10
1.241000
20
-1.722000
0
VERTEX
8
0
10
1.241000
20
-1.683000
0
SEQEND
8
0
0
POLYLINE
8
0
66
1
40
0.008000
41
0.008000
0
VERTEX
8
0
10
1.367000
20
-1.642000
0
VERTEX
8
0
10
1.387000
20
-1.642000
0
SEQEND
8
0
0
POLYLINE
8
0
66
1
40
0.008000
41
0.008000
0
VERTEX
8
0
10
1.377000
20
-1.652000
0
VERTEX
8
0
10
1.377000
20
-1.632000
0
SEQEND
8
0
0
TEXT
8
12632256
10
1.445000
20
-1.653000
40
0.048000
41
1.041667
50
90.000000
71
2
1
C6
0
POLYLINE
8
0
66
1
40
0.008000
41
0.008000
0
VERTEX
8
0
10
1.324000
20
-0.765000
0
VERTEX
8
0
10
1.535000
20
-0.765000
0
VERTEX
8
0
10
1.535000
20
0.838000
0
VERTEX
8
0
10
1.324000
20
0.838000
0
VERTEX
8
0
10
1.324000
20
-0.765000
0
SEQEND
8
0
0
POLYLINE
8
0
66
1
40
0.008000
41
0.008000
0
VERTEX
8
0
10
1.531000
20
0.738000
0
VERTEX
8
0
10
1.328000
20
0.738000
0
SEQEND
8
0
0
POLYLINE
8
0
66
1
40
0.008000
41
0.008000
0
VERTEX
8
0
10
1.368000
20
0.835000
0
VERTEX
8
0
10
1.368000
20
-0.762000
0
SEQEND
8
0
0
TEXT
8
12632256
10
1.335000
20
0.052000
40
0.024000
41
1.250000
50
270.000000
1
BACK
0
TEXT
8
12632256
10
1.687000
20
-0.072000
40
0.048000
41
1.041667
50
90.000000
1
LCD2
0
ENDSEC
0
EOF

