  0
SECTION
  2
HEADER
  9
$ACADVER
  1
AC2.10
  0
ENDSEC
  0
SECTION
  2
TABLES
  0
TABLE
  2
LAYER
 70
     8
  0
LAYER
  2
0
 62
     7
 70
0
  6
CONTINUOUS
  0
LAYER
  2
1
 62
     1
 70
0
  6
CONTINUOUS
  0
LAYER
  2
2
 62
     2
 70
0
  6
CONTINUOUS
  0
LAYER
  2
3
 62
     3
 70
0
  6
CONTINUOUS
  0
LAYER
  2
4
 62
     4
 70
0
  6
CONTINUOUS
  0
LAYER
  2
5
 62
     5
 70
0
  6
CONTINUOUS
  0
LAYER
  2
6
 62
     6
 70
0
  6
CONTINUOUS
  0
LAYER
  2
7
 62
     7
 70
0
  6
CONTINUOUS
  0
ENDTAB
  0
TABLE
  2
STYLE
 70
     1
  0
STYLE
 70
     0
  2
STANDARD
  3
TXT
 40
0.00
 41
1.00
 42
1.00
 50
0.00
 71
     0
  0
ENDTAB
  0
ENDSEC
  0
SECTION
  2
BLOCKS
  0
BLOCK
  8
0
  2
EPAD
 70
0
 10
0.0
 20
0.0
  0
POLYLINE
  8
0
 66
1
 70
1
 40
0.5
 41
0.5
  0
VERTEX
  8
0
 10
-0.25
 20
0.0
 42
1.0
  0
VERTEX
  8
0
 10
0.25
 20
0.0
 42
1.0
  0
SEQEND
  8
0
  0
ENDBLK
  8
0
  0
BLOCK
  8
0
  2
RPAD
 70
0
 10
0.0
 20
0.0
  0
TRACE
  8
0
 10
-0.5
 20
-0.5
 11
-0.5
 21
0.5
 12
0.5
 22
-0.5
 13
0.5
 23
0.5
  0
ENDBLK
  8
0
  0
ENDSEC
0
SECTION
2
ENTITIES
0
POLYLINE
8
0
66
1
40
0.025000
41
0.025000
0
VERTEX
8
0
10
-1.303000
20
-1.468000
0
VERTEX
8
0
10
-1.303000
20
-0.628000
0
VERTEX
8
0
10
-1.193000
20
-0.518000
0
VERTEX
8
0
10
-0.559000
20
-0.518000
0
VERTEX
8
0
10
-0.545000
20
-0.503000
0
SEQEND
8
0
0
POLYLINE
8
0
66
1
40
0.025000
41
0.025000
0
VERTEX
8
0
10
0.314000
20
-1.250000
0
VERTEX
8
0
10
0.059000
20
-0.996000
0
VERTEX
8
0
10
-0.082000
20
-0.996000
0
VERTEX
8
0
10
-0.134000
20
-0.944000
0
VERTEX
8
0
10
-0.134000
20
-0.613000
0
VERTEX
8
0
10
-0.029000
20
-0.508000
0
VERTEX
8
0
10
0.500000
20
-0.508000
0
VERTEX
8
0
10
0.509000
20
-0.499000
0
SEQEND
8
0
0
POLYLINE
8
0
66
1
40
0.025000
41
0.025000
0
VERTEX
8
0
10
0.165000
20
-1.343000
0
VERTEX
8
0
10
0.405000
20
-1.343000
0
VERTEX
8
0
10
0.606000
20
-1.142000
0
VERTEX
8
0
10
0.606000
20
-0.941000
0
VERTEX
8
0
10
0.693000
20
-0.853000
0
VERTEX
8
0
10
0.921000
20
-0.853000
0
VERTEX
8
0
10
1.021000
20
-0.754000
0
VERTEX
8
0
10
1.021000
20
-0.529000
0
SEQEND
8
0
0
POLYLINE
8
0
66
1
40
0.025000
41
0.025000
0
VERTEX
8
0
10
-1.295000
20
-0.399000
0
VERTEX
8
0
10
-1.044000
20
-0.399000
0
VERTEX
8
0
10
-0.909000
20
-0.264000
0
VERTEX
8
0
10
-0.474000
20
-0.264000
0
VERTEX
8
0
10
-0.428000
20
-0.310000
0
VERTEX
8
0
10
-0.428000
20
-0.313000
0
SEQEND
8
0
0
POLYLINE
8
0
66
1
40
0.025000
41
0.025000
0
VERTEX
8
0
10
-1.082000
20
-0.283000
0
VERTEX
8
0
10
-0.981000
20
-0.182000
0
VERTEX
8
0
10
-0.037000
20
-0.182000
0
VERTEX
8
0
10
0.060000
20
-0.280000
0
VERTEX
8
0
10
0.126000
20
-0.280000
0
SEQEND
8
0
0
POLYLINE
8
0
66
1
40
0.025000
41
0.025000
0
VERTEX
8
0
10
1.344000
20
-0.701000
0
VERTEX
8
0
10
1.407000
20
-0.764000
0
VERTEX
8
0
10
1.407000
20
-1.294000
0
SEQEND
8
0
0
POLYLINE
8
0
66
1
40
0.025000
41
0.025000
0
VERTEX
8
0
10
1.246000
20
-0.182000
0
VERTEX
8
0
10
1.476000
20
-0.182000
0
VERTEX
8
0
10
1.466000
20
-0.182000
0
SEQEND
8
0
0
POLYLINE
8
0
66
1
40
0.025000
41
0.025000
0
VERTEX
8
0
10
1.039000
20
-0.846000
0
VERTEX
8
0
10
1.164000
20
-0.846000
0
VERTEX
8
0
10
1.247000
20
-0.762000
0
VERTEX
8
0
10
1.247000
20
-0.566000
0
VERTEX
8
0
10
1.306000
20
-0.508000
0
VERTEX
8
0
10
1.459000
20
-0.508000
0
VERTEX
8
0
10
1.541000
20
-0.427000
0
VERTEX
8
0
10
1.541000
20
0.239000
0
VERTEX
8
0
10
1.450000
20
0.330000
0
VERTEX
8
0
10
1.452000
20
0.332000
0
SEQEND
8
0
0
POLYLINE
8
0
66
1
40
0.025000
41
0.025000
0
VERTEX
8
0
10
-0.961000
20
-1.616000
0
VERTEX
8
0
10
-0.925000
20
-1.610000
0
VERTEX
8
0
10
-0.595000
20
-1.610000
0
VERTEX
8
0
10
-0.431000
20
-1.446000
0
VERTEX
8
0
10
-0.277000
20
-1.446000
0
VERTEX
8
0
10
-0.086000
20
-1.254000
0
VERTEX
8
0
10
-0.086000
20
-1.095000
0
VERTEX
8
0
10
-0.235000
20
-0.946000
0
VERTEX
8
0
10
-0.235000
20
-0.890000
0
VERTEX
8
0
10
-0.223000
20
-0.855000
0
SEQEND
8
0
0
POLYLINE
8
0
66
1
40
0.025000
41
0.025000
0
VERTEX
8
0
10
-1.185000
20
-1.575000
0
VERTEX
8
0
10
-1.128000
20
-1.518000
0
VERTEX
8
0
10
-0.976000
20
-1.518000
0
SEQEND
8
0
0
POLYLINE
8
0
66
1
40
0.025000
41
0.025000
0
VERTEX
8
0
10
-1.185000
20
-1.575000
0
VERTEX
8
0
10
-1.114000
20
-1.767000
0
VERTEX
8
0
10
-0.424000
20
-1.767000
0
VERTEX
8
0
10
-0.302000
20
-1.646000
0
VERTEX
8
0
10
0.196000
20
-1.646000
0
VERTEX
8
0
10
0.222000
20
-1.671000
0
SEQEND
8
0
0
INSERT
8
0
2
EPAD
10
-1.303000
20
-1.468000
41
0.080000
42
0.080000
0
CIRCLE
8
0
10
-1.303000
20
-1.468000
40
0.025000
0
INSERT
8
0
2
EPAD
10
-0.545000
20
-0.503000
41
0.080000
42
0.080000
0
CIRCLE
8
0
10
-0.545000
20
-0.503000
40
0.025000
0
INSERT
8
0
2
EPAD
10
0.509000
20
-0.499000
41
0.080000
42
0.080000
0
CIRCLE
8
0
10
0.509000
20
-0.499000
40
0.025000
0
INSERT
8
0
2
EPAD
10
0.165000
20
-1.343000
41
0.080000
42
0.080000
0
CIRCLE
8
0
10
0.165000
20
-1.343000
40
0.025000
0
INSERT
8
0
2
EPAD
10
1.021000
20
-0.529000
41
0.080000
42
0.080000
0
CIRCLE
8
0
10
1.021000
20
-0.529000
40
0.025000
0
INSERT
8
0
2
EPAD
10
-1.295000
20
-0.399000
41
0.060000
42
0.060000
0
CIRCLE
8
0
10
-1.295000
20
-0.399000
40
0.025000
0
INSERT
8
0
2
EPAD
10
-0.428000
20
-0.313000
41
0.060000
42
0.060000
0
CIRCLE
8
0
10
-0.428000
20
-0.313000
40
0.025000
0
INSERT
8
0
2
EPAD
10
0.126000
20
-0.280000
41
0.080000
42
0.080000
0
CIRCLE
8
0
10
0.126000
20
-0.280000
40
0.025000
0
INSERT
8
0
2
EPAD
10
1.407000
20
-1.294000
41
0.080000
42
0.080000
0
CIRCLE
8
0
10
1.407000
20
-1.294000
40
0.025000
0
INSERT
8
0
2
EPAD
10
1.246000
20
-0.182000
41
0.060000
42
0.060000
0
CIRCLE
8
0
10
1.246000
20
-0.182000
40
0.025000
0
INSERT
8
0
2
EPAD
10
1.466000
20
-0.182000
41
0.060000
42
0.060000
0
CIRCLE
8
0
10
1.466000
20
-0.182000
40
0.025000
0
INSERT
8
0
2
EPAD
10
1.039000
20
-0.846000
41
0.060000
42
0.060000
0
CIRCLE
8
0
10
1.039000
20
-0.846000
40
0.025000
0
INSERT
8
0
2
EPAD
10
1.452000
20
0.332000
41
0.060000
42
0.060000
0
CIRCLE
8
0
10
1.452000
20
0.332000
40
0.025000
0
INSERT
8
0
2
EPAD
10
-0.961000
20
-1.616000
41
0.080000
42
0.080000
0
CIRCLE
8
0
10
-0.961000
20
-1.616000
40
0.025000
0
INSERT
8
0
2
EPAD
10
-0.976000
20
-1.518000
41
0.080000
42
0.080000
0
CIRCLE
8
0
10
-0.976000
20
-1.518000
40
0.025000
0
INSERT
8
0
2
EPAD
10
-1.185000
20
-1.575000
41
0.080000
42
0.080000
0
CIRCLE
8
0
10
-1.185000
20
-1.575000
40
0.025000
0
INSERT
8
0
2
EPAD
10
-1.631000
20
-2.000000
41
0.250000
42
0.250000
0
CIRCLE
8
0
10
-1.631000
20
-2.000000
40
0.030000
0
INSERT
8
0
2
EPAD
10
-0.215000
20
-1.803000
41
0.100000
42
0.100000
0
CIRCLE
8
0
10
-0.215000
20
-1.803000
40
0.025000
0
INSERT
8
0
2
EPAD
10
-0.015000
20
-2.003000
41
0.100000
42
0.100000
0
CIRCLE
8
0
10
-0.015000
20
-2.003000
40
0.025000
0
INSERT
8
0
2
EPAD
10
-0.215000
20
-2.003000
41
0.100000
42
0.100000
0
CIRCLE
8
0
10
-0.215000
20
-2.003000
40
0.025000
0
INSERT
8
0
2
EPAD
10
-0.015000
20
-1.803000
41
0.100000
42
0.100000
0
CIRCLE
8
0
10
-0.015000
20
-1.803000
40
0.025000
0
INSERT
8
0
2
EPAD
10
-0.670000
20
-1.908000
41
0.120000
42
0.120000
0
CIRCLE
8
0
10
-0.670000
20
-1.908000
40
0.030000
0
INSERT
8
0
2
EPAD
10
-0.470000
20
-1.908000
41
0.120000
42
0.120000
0
CIRCLE
8
0
10
-0.470000
20
-1.908000
40
0.030000
0
INSERT
8
0
2
EPAD
10
-0.182000
20
-1.498000
41
0.080000
42
0.080000
0
CIRCLE
8
0
10
-0.182000
20
-1.498000
40
0.025000
0
INSERT
8
0
2
EPAD
10
-0.057000
20
-1.498000
41
0.080000
42
0.080000
0
CIRCLE
8
0
10
-0.057000
20
-1.498000
40
0.025000
0
INSERT
8
0
2
EPAD
10
0.222000
20
-1.671000
41
0.070000
42
0.070000
0
CIRCLE
8
0
10
0.222000
20
-1.671000
40
0.025000
0
INSERT
8
0
2
EPAD
10
0.222000
20
-2.071000
41
0.070000
42
0.070000
0
CIRCLE
8
0
10
0.222000
20
-2.071000
40
0.025000
0
INSERT
8
0
2
RPAD
10
0.945000
20
-1.941000
41
0.080000
42
0.080000
50
0.000000
0
CIRCLE
8
0
10
0.945000
20
-1.941000
40
0.025000
0
INSERT
8
0
2
RPAD
10
1.045000
20
-1.941000
41
0.080000
42
0.080000
50
0.000000
0
CIRCLE
8
0
10
1.045000
20
-1.941000
40
0.025000
0
INSERT
8
0
2
RPAD
10
1.145000
20
-1.941000
41
0.080000
42
0.080000
50
0.000000
0
CIRCLE
8
0
10
1.145000
20
-1.941000
40
0.025000
0
INSERT
8
0
2
EPAD
10
1.236000
20
-1.470000
41
0.090000
42
0.090000
0
CIRCLE
8
0
10
1.236000
20
-1.470000
40
0.025000
0
INSERT
8
0
2
EPAD
10
0.836000
20
-1.470000
41
0.090000
42
0.090000
0
CIRCLE
8
0
10
0.836000
20
-1.470000
40
0.025000
0
INSERT
8
0
2
EPAD
10
1.541000
20
-1.825000
41
0.150000
42
0.150000
0
CIRCLE
8
0
10
1.541000
20
-1.825000
40
0.030000
0
INSERT
8
0
2
EPAD
10
0.556000
20
-1.825000
41
0.150000
42
0.150000
0
CIRCLE
8
0
10
0.556000
20
-1.825000
40
0.030000
0
INSERT
8
0
2
EPAD
10
1.407000
20
-1.462000
41
0.080000
42
0.080000
0
CIRCLE
8
0
10
1.407000
20
-1.462000
40
0.025000
0
INSERT
8
0
2
EPAD
10
1.507000
20
-1.462000
41
0.080000
42
0.080000
0
CIRCLE
8
0
10
1.507000
20
-1.462000
40
0.025000
0
INSERT
8
0
2
EPAD
10
0.624000
20
-1.423000
41
0.070000
42
0.070000
0
CIRCLE
8
0
10
0.624000
20
-1.423000
40
0.025000
0
INSERT
8
0
2
EPAD
10
0.424000
20
-1.423000
41
0.070000
42
0.070000
0
CIRCLE
8
0
10
0.424000
20
-1.423000
40
0.025000
0
INSERT
8
0
2
RPAD
10
-0.630000
20
-0.409000
41
0.050000
42
0.050000
50
0.000000
0
CIRCLE
8
0
10
-0.630000
20
-0.409000
40
0.030000
0
INSERT
8
0
2
EPAD
10
-0.530000
20
-0.409000
41
0.050000
42
0.050000
0
CIRCLE
8
0
10
-0.530000
20
-0.409000
40
0.030000
0
INSERT
8
0
2
EPAD
10
-0.430000
20
-0.409000
41
0.050000
42
0.050000
0
CIRCLE
8
0
10
-0.430000
20
-0.409000
40
0.030000
0
INSERT
8
0
2
EPAD
10
-0.330000
20
-0.409000
41
0.050000
42
0.050000
0
CIRCLE
8
0
10
-0.330000
20
-0.409000
40
0.030000
0
INSERT
8
0
2
EPAD
10
-0.230000
20
-0.409000
41
0.050000
42
0.050000
0
CIRCLE
8
0
10
-0.230000
20
-0.409000
40
0.030000
0
INSERT
8
0
2
EPAD
10
-0.130000
20
-0.409000
41
0.050000
42
0.050000
0
CIRCLE
8
0
10
-0.130000
20
-0.409000
40
0.030000
0
INSERT
8
0
2
EPAD
10
-0.030000
20
-0.409000
41
0.050000
42
0.050000
0
CIRCLE
8
0
10
-0.030000
20
-0.409000
40
0.030000
0
INSERT
8
0
2
EPAD
10
0.069000
20
-0.409000
41
0.050000
42
0.050000
0
CIRCLE
8
0
10
0.069000
20
-0.409000
40
0.030000
0
INSERT
8
0
2
EPAD
10
0.169000
20
-0.409000
41
0.050000
42
0.050000
0
CIRCLE
8
0
10
0.169000
20
-0.409000
40
0.030000
0
INSERT
8
0
2
EPAD
10
0.269000
20
-0.409000
41
0.050000
42
0.050000
0
CIRCLE
8
0
10
0.269000
20
-0.409000
40
0.030000
0
INSERT
8
0
2
EPAD
10
0.369000
20
-0.409000
41
0.050000
42
0.050000
0
CIRCLE
8
0
10
0.369000
20
-0.409000
40
0.030000
0
INSERT
8
0
2
EPAD
10
0.469000
20
-0.409000
41
0.050000
42
0.050000
0
CIRCLE
8
0
10
0.469000
20
-0.409000
40
0.030000
0
INSERT
8
0
2
EPAD
10
0.569000
20
-0.409000
41
0.050000
42
0.050000
0
CIRCLE
8
0
10
0.569000
20
-0.409000
40
0.030000
0
INSERT
8
0
2
EPAD
10
0.669000
20
-0.409000
41
0.050000
42
0.050000
0
CIRCLE
8
0
10
0.669000
20
-0.409000
40
0.030000
0
INSERT
8
0
2
EPAD
10
0.769000
20
-0.409000
41
0.050000
42
0.050000
0
CIRCLE
8
0
10
0.769000
20
-0.409000
40
0.030000
0
INSERT
8
0
2
EPAD
10
0.869000
20
-0.409000
41
0.050000
42
0.050000
0
CIRCLE
8
0
10
0.869000
20
-0.409000
40
0.030000
0
INSERT
8
0
2
EPAD
10
0.969000
20
-0.409000
41
0.050000
42
0.050000
0
CIRCLE
8
0
10
0.969000
20
-0.409000
40
0.030000
0
INSERT
8
0
2
EPAD
10
1.069000
20
-0.409000
41
0.050000
42
0.050000
0
CIRCLE
8
0
10
1.069000
20
-0.409000
40
0.030000
0
INSERT
8
0
2
EPAD
10
1.169000
20
-0.409000
41
0.050000
42
0.050000
0
CIRCLE
8
0
10
1.169000
20
-0.409000
40
0.030000
0
INSERT
8
0
2
EPAD
10
1.269000
20
-0.409000
41
0.050000
42
0.050000
0
CIRCLE
8
0
10
1.269000
20
-0.409000
40
0.030000
0
INSERT
8
0
2
EPAD
10
1.269000
20
0.190000
41
0.050000
42
0.050000
0
CIRCLE
8
0
10
1.269000
20
0.190000
40
0.030000
0
INSERT
8
0
2
EPAD
10
1.169000
20
0.190000
41
0.050000
42
0.050000
0
CIRCLE
8
0
10
1.169000
20
0.190000
40
0.030000
0
INSERT
8
0
2
EPAD
10
1.069000
20
0.190000
41
0.050000
42
0.050000
0
CIRCLE
8
0
10
1.069000
20
0.190000
40
0.030000
0
INSERT
8
0
2
EPAD
10
0.969000
20
0.190000
41
0.050000
42
0.050000
0
CIRCLE
8
0
10
0.969000
20
0.190000
40
0.030000
0
INSERT
8
0
2
EPAD
10
0.869000
20
0.190000
41
0.050000
42
0.050000
0
CIRCLE
8
0
10
0.869000
20
0.190000
40
0.030000
0
INSERT
8
0
2
EPAD
10
0.769000
20
0.190000
41
0.050000
42
0.050000
0
CIRCLE
8
0
10
0.769000
20
0.190000
40
0.030000
0
INSERT
8
0
2
EPAD
10
0.669000
20
0.190000
41
0.050000
42
0.050000
0
CIRCLE
8
0
10
0.669000
20
0.190000
40
0.030000
0
INSERT
8
0
2
EPAD
10
0.569000
20
0.190000
41
0.050000
42
0.050000
0
CIRCLE
8
0
10
0.569000
20
0.190000
40
0.030000
0
INSERT
8
0
2
EPAD
10
0.469000
20
0.190000
41
0.050000
42
0.050000
0
CIRCLE
8
0
10
0.469000
20
0.190000
40
0.030000
0
INSERT
8
0
2
EPAD
10
0.369000
20
0.190000
41
0.050000
42
0.050000
0
CIRCLE
8
0
10
0.369000
20
0.190000
40
0.030000
0
INSERT
8
0
2
EPAD
10
0.269000
20
0.190000
41
0.050000
42
0.050000
0
CIRCLE
8
0
10
0.269000
20
0.190000
40
0.030000
0
INSERT
8
0
2
EPAD
10
0.169000
20
0.190000
41
0.050000
42
0.050000
0
CIRCLE
8
0
10
0.169000
20
0.190000
40
0.030000
0
INSERT
8
0
2
EPAD
10
0.069000
20
0.190000
41
0.050000
42
0.050000
0
CIRCLE
8
0
10
0.069000
20
0.190000
40
0.030000
0
INSERT
8
0
2
EPAD
10
-0.030000
20
0.190000
41
0.050000
42
0.050000
0
CIRCLE
8
0
10
-0.030000
20
0.190000
40
0.030000
0
INSERT
8
0
2
EPAD
10
-0.130000
20
0.190000
41
0.050000
42
0.050000
0
CIRCLE
8
0
10
-0.130000
20
0.190000
40
0.030000
0
INSERT
8
0
2
EPAD
10
-0.230000
20
0.190000
41
0.050000
42
0.050000
0
CIRCLE
8
0
10
-0.230000
20
0.190000
40
0.030000
0
INSERT
8
0
2
EPAD
10
-0.330000
20
0.190000
41
0.050000
42
0.050000
0
CIRCLE
8
0
10
-0.330000
20
0.190000
40
0.030000
0
INSERT
8
0
2
EPAD
10
-0.430000
20
0.190000
41
0.050000
42
0.050000
0
CIRCLE
8
0
10
-0.430000
20
0.190000
40
0.030000
0
INSERT
8
0
2
EPAD
10
-0.530000
20
0.190000
41
0.050000
42
0.050000
0
CIRCLE
8
0
10
-0.530000
20
0.190000
40
0.030000
0
INSERT
8
0
2
EPAD
10
-0.630000
20
0.190000
41
0.050000
42
0.050000
0
CIRCLE
8
0
10
-0.630000
20
0.190000
40
0.030000
0
INSERT
8
0
2
EPAD
10
-1.564000
20
-0.728000
41
0.120000
42
0.120000
0
CIRCLE
8
0
10
-1.564000
20
-0.728000
40
0.030000
0
INSERT
8
0
2
EPAD
10
-1.564000
20
-0.928000
41
0.120000
42
0.120000
0
CIRCLE
8
0
10
-1.564000
20
-0.928000
40
0.030000
0
INSERT
8
0
2
EPAD
10
-1.564000
20
-1.128000
41
0.120000
42
0.120000
0
CIRCLE
8
0
10
-1.564000
20
-1.128000
40
0.030000
0
INSERT
8
0
2
EPAD
10
-1.564000
20
-1.328000
41
0.120000
42
0.120000
0
CIRCLE
8
0
10
-1.564000
20
-1.328000
40
0.030000
0
INSERT
8
0
2
EPAD
10
-1.564000
20
-1.528000
41
0.120000
42
0.120000
0
CIRCLE
8
0
10
-1.564000
20
-1.528000
40
0.030000
0
INSERT
8
0
2
EPAD
10
-1.562000
20
0.109000
41
0.120000
42
0.120000
0
CIRCLE
8
0
10
-1.562000
20
0.109000
40
0.030000
0
INSERT
8
0
2
EPAD
10
-1.562000
20
-0.090000
41
0.120000
42
0.120000
0
CIRCLE
8
0
10
-1.562000
20
-0.090000
40
0.030000
0
INSERT
8
0
2
EPAD
10
-1.562000
20
-0.290000
41
0.120000
42
0.120000
0
CIRCLE
8
0
10
-1.562000
20
-0.290000
40
0.030000
0
INSERT
8
0
2
EPAD
10
-1.562000
20
-0.490000
41
0.120000
42
0.120000
0
CIRCLE
8
0
10
-1.562000
20
-0.490000
40
0.030000
0
INSERT
8
0
2
EPAD
10
0.012000
20
-0.695000
41
0.080000
42
0.080000
0
CIRCLE
8
0
10
0.012000
20
-0.695000
40
0.010000
0
INSERT
8
0
2
EPAD
10
0.112000
20
-0.695000
41
0.080000
42
0.080000
0
CIRCLE
8
0
10
0.112000
20
-0.695000
40
0.010000
0
INSERT
8
0
2
EPAD
10
0.212000
20
-0.695000
41
0.080000
42
0.080000
0
CIRCLE
8
0
10
0.212000
20
-0.695000
40
0.010000
0
INSERT
8
0
2
EPAD
10
0.312000
20
-0.695000
41
0.080000
42
0.080000
0
CIRCLE
8
0
10
0.312000
20
-0.695000
40
0.010000
0
INSERT
8
0
2
EPAD
10
0.412000
20
-0.695000
41
0.080000
42
0.080000
0
CIRCLE
8
0
10
0.412000
20
-0.695000
40
0.010000
0
INSERT
8
0
2
EPAD
10
0.512000
20
-0.695000
41
0.080000
42
0.080000
0
CIRCLE
8
0
10
0.512000
20
-0.695000
40
0.010000
0
INSERT
8
0
2
EPAD
10
0.612000
20
-0.695000
41
0.080000
42
0.080000
0
CIRCLE
8
0
10
0.612000
20
-0.695000
40
0.010000
0
INSERT
8
0
2
EPAD
10
0.712000
20
-0.695000
41
0.080000
42
0.080000
0
CIRCLE
8
0
10
0.712000
20
-0.695000
40
0.010000
0
INSERT
8
0
2
RPAD
10
1.631000
20
-1.184000
41
0.080000
42
0.080000
50
90.000000
0
CIRCLE
8
0
10
1.631000
20
-1.184000
40
0.025000
0
INSERT
8
0
2
RPAD
10
1.631000
20
-1.084000
41
0.080000
42
0.080000
50
90.000000
0
CIRCLE
8
0
10
1.631000
20
-1.084000
40
0.025000
0
INSERT
8
0
2
RPAD
10
1.631000
20
-0.984000
41
0.080000
42
0.080000
50
90.000000
0
CIRCLE
8
0
10
1.631000
20
-0.984000
40
0.025000
0
INSERT
8
0
2
RPAD
10
1.631000
20
-0.884000
41
0.080000
42
0.080000
50
90.000000
0
CIRCLE
8
0
10
1.631000
20
-0.884000
40
0.025000
0
INSERT
8
0
2
RPAD
10
1.631000
20
-0.784000
41
0.080000
42
0.080000
50
90.000000
0
CIRCLE
8
0
10
1.631000
20
-0.784000
40
0.025000
0
INSERT
8
0
2
RPAD
10
1.631000
20
-0.684000
41
0.080000
42
0.080000
50
90.000000
0
CIRCLE
8
0
10
1.631000
20
-0.684000
40
0.025000
0
INSERT
8
0
2
RPAD
10
1.631000
20
-0.584000
41
0.080000
42
0.080000
50
90.000000
0
CIRCLE
8
0
10
1.631000
20
-0.584000
40
0.025000
0
INSERT
8
0
2
RPAD
10
1.631000
20
-0.484000
41
0.080000
42
0.080000
50
90.000000
0
CIRCLE
8
0
10
1.631000
20
-0.484000
40
0.025000
0
INSERT
8
0
2
RPAD
10
1.631000
20
-0.384000
41
0.080000
42
0.080000
50
90.000000
0
CIRCLE
8
0
10
1.631000
20
-0.384000
40
0.025000
0
INSERT
8
0
2
RPAD
10
1.631000
20
-0.284000
41
0.080000
42
0.080000
50
90.000000
0
CIRCLE
8
0
10
1.631000
20
-0.284000
40
0.025000
0
INSERT
8
0
2
RPAD
10
1.631000
20
-0.184000
41
0.080000
42
0.080000
50
90.000000
0
CIRCLE
8
0
10
1.631000
20
-0.184000
40
0.025000
0
INSERT
8
0
2
RPAD
10
1.631000
20
-0.084000
41
0.080000
42
0.080000
50
90.000000
0
CIRCLE
8
0
10
1.631000
20
-0.084000
40
0.025000
0
INSERT
8
0
2
RPAD
10
1.631000
20
0.015000
41
0.080000
42
0.080000
50
90.000000
0
CIRCLE
8
0
10
1.631000
20
0.015000
40
0.025000
0
INSERT
8
0
2
RPAD
10
1.631000
20
0.115000
41
0.080000
42
0.080000
50
90.000000
0
CIRCLE
8
0
10
1.631000
20
0.115000
40
0.025000
0
INSERT
8
0
2
RPAD
10
1.631000
20
0.215000
41
0.080000
42
0.080000
50
90.000000
0
CIRCLE
8
0
10
1.631000
20
0.215000
40
0.025000
0
INSERT
8
0
2
RPAD
10
1.631000
20
0.315000
41
0.080000
42
0.080000
50
90.000000
0
CIRCLE
8
0
10
1.631000
20
0.315000
40
0.025000
0
INSERT
8
0
2
RPAD
10
-0.976000
20
-1.256000
41
0.050000
42
0.050000
50
0.000000
0
CIRCLE
8
0
10
-0.976000
20
-1.256000
40
0.030000
0
INSERT
8
0
2
EPAD
10
-0.876000
20
-1.256000
41
0.050000
42
0.050000
0
CIRCLE
8
0
10
-0.876000
20
-1.256000
40
0.030000
0
INSERT
8
0
2
EPAD
10
-0.776000
20
-1.256000
41
0.050000
42
0.050000
0
CIRCLE
8
0
10
-0.776000
20
-1.256000
40
0.030000
0
INSERT
8
0
2
EPAD
10
-0.676000
20
-1.256000
41
0.050000
42
0.050000
0
CIRCLE
8
0
10
-0.676000
20
-1.256000
40
0.030000
0
INSERT
8
0
2
EPAD
10
-0.576000
20
-1.256000
41
0.050000
42
0.050000
0
CIRCLE
8
0
10
-0.576000
20
-1.256000
40
0.030000
0
INSERT
8
0
2
EPAD
10
-0.476000
20
-1.256000
41
0.050000
42
0.050000
0
CIRCLE
8
0
10
-0.476000
20
-1.256000
40
0.030000
0
INSERT
8
0
2
EPAD
10
-0.376000
20
-1.256000
41
0.050000
42
0.050000
0
CIRCLE
8
0
10
-0.376000
20
-1.256000
40
0.030000
0
INSERT
8
0
2
EPAD
10
-0.376000
20
-0.956000
41
0.050000
42
0.050000
0
CIRCLE
8
0
10
-0.376000
20
-0.956000
40
0.030000
0
INSERT
8
0
2
EPAD
10
-0.476000
20
-0.956000
41
0.050000
42
0.050000
0
CIRCLE
8
0
10
-0.476000
20
-0.956000
40
0.030000
0
INSERT
8
0
2
EPAD
10
-0.576000
20
-0.956000
41
0.050000
42
0.050000
0
CIRCLE
8
0
10
-0.576000
20
-0.956000
40
0.030000
0
INSERT
8
0
2
EPAD
10
-0.676000
20
-0.956000
41
0.050000
42
0.050000
0
CIRCLE
8
0
10
-0.676000
20
-0.956000
40
0.030000
0
INSERT
8
0
2
EPAD
10
-0.776000
20
-0.956000
41
0.050000
42
0.050000
0
CIRCLE
8
0
10
-0.776000
20
-0.956000
40
0.030000
0
INSERT
8
0
2
EPAD
10
-0.876000
20
-0.956000
41
0.050000
42
0.050000
0
CIRCLE
8
0
10
-0.876000
20
-0.956000
40
0.030000
0
INSERT
8
0
2
EPAD
10
-0.976000
20
-0.956000
41
0.050000
42
0.050000
0
CIRCLE
8
0
10
-0.976000
20
-0.956000
40
0.030000
0
INSERT
8
0
2
EPAD
10
-0.364000
20
-1.538000
41
0.070000
42
0.070000
0
CIRCLE
8
0
10
-0.364000
20
-1.538000
40
0.025000
0
INSERT
8
0
2
EPAD
10
-0.764000
20
-1.538000
41
0.070000
42
0.070000
0
CIRCLE
8
0
10
-0.764000
20
-1.538000
40
0.025000
0
INSERT
8
0
2
EPAD
10
-0.211000
20
-1.255000
41
0.080000
42
0.080000
0
CIRCLE
8
0
10
-0.211000
20
-1.255000
40
0.025000
0
INSERT
8
0
2
EPAD
10
-0.211000
20
-1.155000
41
0.080000
42
0.080000
0
CIRCLE
8
0
10
-0.211000
20
-1.155000
40
0.025000
0
INSERT
8
0
2
EPAD
10
-0.373000
20
-1.365000
41
0.070000
42
0.070000
0
CIRCLE
8
0
10
-0.373000
20
-1.365000
40
0.025000
0
INSERT
8
0
2
EPAD
10
-0.773000
20
-1.365000
41
0.070000
42
0.070000
0
CIRCLE
8
0
10
-0.773000
20
-1.365000
40
0.025000
0
INSERT
8
0
2
EPAD
10
-1.157000
20
-1.048000
41
0.070000
42
0.070000
0
CIRCLE
8
0
10
-1.157000
20
-1.048000
40
0.025000
0
INSERT
8
0
2
EPAD
10
-1.157000
20
-1.448000
41
0.070000
42
0.070000
0
CIRCLE
8
0
10
-1.157000
20
-1.448000
40
0.025000
0
INSERT
8
0
2
EPAD
10
-1.160000
20
-0.816000
41
0.070000
42
0.070000
0
CIRCLE
8
0
10
-1.160000
20
-0.816000
40
0.025000
0
INSERT
8
0
2
EPAD
10
-0.760000
20
-0.816000
41
0.070000
42
0.070000
0
CIRCLE
8
0
10
-0.760000
20
-0.816000
40
0.025000
0
INSERT
8
0
2
EPAD
10
-0.223000
20
-0.855000
41
0.070000
42
0.070000
0
CIRCLE
8
0
10
-0.223000
20
-0.855000
40
0.025000
0
INSERT
8
0
2
EPAD
10
-0.623000
20
-0.855000
41
0.070000
42
0.070000
0
CIRCLE
8
0
10
-0.623000
20
-0.855000
40
0.025000
0
INSERT
8
0
2
EPAD
10
-0.223000
20
-0.731000
41
0.070000
42
0.070000
0
CIRCLE
8
0
10
-0.223000
20
-0.731000
40
0.025000
0
INSERT
8
0
2
EPAD
10
-0.623000
20
-0.731000
41
0.070000
42
0.070000
0
CIRCLE
8
0
10
-0.623000
20
-0.731000
40
0.025000
0
INSERT
8
0
2
EPAD
10
-1.302000
20
-1.908000
41
0.120000
42
0.120000
0
CIRCLE
8
0
10
-1.302000
20
-1.908000
40
0.030000
0
INSERT
8
0
2
EPAD
10
-1.102000
20
-1.908000
41
0.120000
42
0.120000
0
CIRCLE
8
0
10
-1.102000
20
-1.908000
40
0.030000
0
INSERT
8
0
2
EPAD
10
-0.902000
20
-1.908000
41
0.120000
42
0.120000
0
CIRCLE
8
0
10
-0.902000
20
-1.908000
40
0.030000
0
INSERT
8
0
2
EPAD
10
-0.017000
20
-0.850000
41
0.070000
42
0.070000
0
CIRCLE
8
0
10
-0.017000
20
-0.850000
40
0.025000
0
INSERT
8
0
2
EPAD
10
-0.017000
20
-1.250000
41
0.070000
42
0.070000
0
CIRCLE
8
0
10
-0.017000
20
-1.250000
40
0.025000
0
INSERT
8
0
2
EPAD
10
0.095000
20
-0.850000
41
0.070000
42
0.070000
0
CIRCLE
8
0
10
0.095000
20
-0.850000
40
0.025000
0
INSERT
8
0
2
EPAD
10
0.095000
20
-1.250000
41
0.070000
42
0.070000
0
CIRCLE
8
0
10
0.095000
20
-1.250000
40
0.025000
0
INSERT
8
0
2
EPAD
10
0.205000
20
-0.850000
41
0.070000
42
0.070000
0
CIRCLE
8
0
10
0.205000
20
-0.850000
40
0.025000
0
INSERT
8
0
2
EPAD
10
0.205000
20
-1.250000
41
0.070000
42
0.070000
0
CIRCLE
8
0
10
0.205000
20
-1.250000
40
0.025000
0
INSERT
8
0
2
EPAD
10
0.314000
20
-0.850000
41
0.070000
42
0.070000
0
CIRCLE
8
0
10
0.314000
20
-0.850000
40
0.025000
0
INSERT
8
0
2
EPAD
10
0.314000
20
-1.250000
41
0.070000
42
0.070000
0
CIRCLE
8
0
10
0.314000
20
-1.250000
40
0.025000
0
INSERT
8
0
2
EPAD
10
0.529000
20
-0.231000
41
0.080000
42
0.080000
0
CIRCLE
8
0
10
0.529000
20
-0.231000
40
0.025000
0
INSERT
8
0
2
EPAD
10
0.729000
20
-0.231000
41
0.080000
42
0.080000
0
CIRCLE
8
0
10
0.729000
20
-0.231000
40
0.025000
0
INSERT
8
0
2
EPAD
10
0.559000
20
-0.056000
41
0.070000
42
0.070000
0
CIRCLE
8
0
10
0.559000
20
-0.056000
40
0.025000
0
INSERT
8
0
2
EPAD
10
0.459000
20
-0.056000
41
0.070000
42
0.070000
0
CIRCLE
8
0
10
0.459000
20
-0.056000
40
0.025000
0
INSERT
8
0
2
EPAD
10
0.736000
20
-0.048000
41
0.070000
42
0.070000
0
CIRCLE
8
0
10
0.736000
20
-0.048000
40
0.025000
0
INSERT
8
0
2
EPAD
10
0.836000
20
-0.048000
41
0.070000
42
0.070000
0
CIRCLE
8
0
10
0.836000
20
-0.048000
40
0.025000
0
INSERT
8
0
2
EPAD
10
0.936000
20
-0.222000
41
0.070000
42
0.070000
0
CIRCLE
8
0
10
0.936000
20
-0.222000
40
0.025000
0
INSERT
8
0
2
EPAD
10
1.136000
20
-0.222000
41
0.070000
42
0.070000
0
CIRCLE
8
0
10
1.136000
20
-0.222000
40
0.025000
0
INSERT
8
0
2
EPAD
10
-1.207000
20
-0.283000
41
0.070000
42
0.070000
0
CIRCLE
8
0
10
-1.207000
20
-0.283000
40
0.025000
0
INSERT
8
0
2
EPAD
10
-1.207000
20
0.116000
41
0.070000
42
0.070000
0
CIRCLE
8
0
10
-1.207000
20
0.116000
40
0.025000
0
INSERT
8
0
2
EPAD
10
-1.082000
20
-0.283000
41
0.070000
42
0.070000
0
CIRCLE
8
0
10
-1.082000
20
-0.283000
40
0.025000
0
INSERT
8
0
2
EPAD
10
-1.082000
20
0.116000
41
0.070000
42
0.070000
0
CIRCLE
8
0
10
-1.082000
20
0.116000
40
0.025000
0
INSERT
8
0
2
EPAD
10
0.899000
20
-0.561000
41
0.070000
42
0.070000
0
CIRCLE
8
0
10
0.899000
20
-0.561000
40
0.025000
0
INSERT
8
0
2
EPAD
10
0.899000
20
-0.961000
41
0.070000
42
0.070000
0
CIRCLE
8
0
10
0.899000
20
-0.961000
40
0.025000
0
INSERT
8
0
2
RPAD
10
0.748000
20
-1.052000
41
0.080000
42
0.080000
50
-90.000000
0
CIRCLE
8
0
10
0.748000
20
-1.052000
40
0.025000
0
INSERT
8
0
2
RPAD
10
0.748000
20
-1.152000
41
0.080000
42
0.080000
50
-90.000000
0
CIRCLE
8
0
10
0.748000
20
-1.152000
40
0.025000
0
INSERT
8
0
2
RPAD
10
0.748000
20
-1.252000
41
0.080000
42
0.080000
50
-90.000000
0
CIRCLE
8
0
10
0.748000
20
-1.252000
40
0.025000
0
INSERT
8
0
2
EPAD
10
1.344000
20
-0.701000
41
0.080000
42
0.080000
0
CIRCLE
8
0
10
1.344000
20
-0.701000
40
0.025000
0
INSERT
8
0
2
EPAD
10
1.144000
20
-0.701000
41
0.080000
42
0.080000
0
CIRCLE
8
0
10
1.144000
20
-0.701000
40
0.025000
0
INSERT
8
0
2
EPAD
10
1.244000
20
-0.921000
41
0.080000
42
0.080000
0
CIRCLE
8
0
10
1.244000
20
-0.921000
40
0.025000
0
INSERT
8
0
2
EPAD
10
-0.318000
20
0.682000
41
0.070000
42
0.070000
0
CIRCLE
8
0
10
-0.318000
20
0.682000
40
0.025000
0
INSERT
8
0
2
EPAD
10
-0.318000
20
0.282000
41
0.070000
42
0.070000
0
CIRCLE
8
0
10
-0.318000
20
0.282000
40
0.025000
0
INSERT
8
0
2
RPAD
10
0.846000
20
0.829000
41
0.050000
42
0.050000
50
0.000000
0
CIRCLE
8
0
10
0.846000
20
0.829000
40
0.030000
0
INSERT
8
0
2
EPAD
10
0.946000
20
0.829000
41
0.050000
42
0.050000
0
CIRCLE
8
0
10
0.946000
20
0.829000
40
0.030000
0
INSERT
8
0
2
EPAD
10
1.046000
20
0.829000
41
0.050000
42
0.050000
0
CIRCLE
8
0
10
1.046000
20
0.829000
40
0.030000
0
INSERT
8
0
2
EPAD
10
1.046000
20
1.129000
41
0.050000
42
0.050000
0
CIRCLE
8
0
10
1.046000
20
1.129000
40
0.030000
0
INSERT
8
0
2
EPAD
10
0.946000
20
1.129000
41
0.050000
42
0.050000
0
CIRCLE
8
0
10
0.946000
20
1.129000
40
0.030000
0
INSERT
8
0
2
EPAD
10
0.846000
20
1.129000
41
0.050000
42
0.050000
0
CIRCLE
8
0
10
0.846000
20
1.129000
40
0.030000
0
INSERT
8
0
2
EPAD
10
-0.430000
20
0.682000
41
0.070000
42
0.070000
0
CIRCLE
8
0
10
-0.430000
20
0.682000
40
0.025000
0
INSERT
8
0
2
EPAD
10
-0.430000
20
0.282000
41
0.070000
42
0.070000
0
CIRCLE
8
0
10
-0.430000
20
0.282000
40
0.025000
0
INSERT
8
0
2
EPAD
10
-0.539000
20
0.682000
41
0.070000
42
0.070000
0
CIRCLE
8
0
10
-0.539000
20
0.682000
40
0.025000
0
INSERT
8
0
2
EPAD
10
-0.539000
20
0.282000
41
0.070000
42
0.070000
0
CIRCLE
8
0
10
-0.539000
20
0.282000
40
0.025000
0
INSERT
8
0
2
EPAD
10
0.319000
20
0.438000
41
0.080000
42
0.080000
0
CIRCLE
8
0
10
0.319000
20
0.438000
40
0.010000
0
INSERT
8
0
2
EPAD
10
0.219000
20
0.438000
41
0.080000
42
0.080000
0
CIRCLE
8
0
10
0.219000
20
0.438000
40
0.010000
0
INSERT
8
0
2
EPAD
10
0.119000
20
0.438000
41
0.080000
42
0.080000
0
CIRCLE
8
0
10
0.119000
20
0.438000
40
0.010000
0
INSERT
8
0
2
EPAD
10
-0.649000
20
0.682000
41
0.070000
42
0.070000
0
CIRCLE
8
0
10
-0.649000
20
0.682000
40
0.025000
0
INSERT
8
0
2
EPAD
10
-0.649000
20
0.282000
41
0.070000
42
0.070000
0
CIRCLE
8
0
10
-0.649000
20
0.282000
40
0.025000
0
INSERT
8
0
2
EPAD
10
0.746000
20
1.236000
41
0.070000
42
0.070000
0
CIRCLE
8
0
10
0.746000
20
1.236000
40
0.025000
0
INSERT
8
0
2
EPAD
10
1.146000
20
1.236000
41
0.070000
42
0.070000
0
CIRCLE
8
0
10
1.146000
20
1.236000
40
0.025000
0
INSERT
8
0
2
RPAD
10
1.050000
20
1.526000
41
0.080000
42
0.080000
50
180.000000
0
CIRCLE
8
0
10
1.050000
20
1.526000
40
0.025000
0
INSERT
8
0
2
RPAD
10
0.950000
20
1.526000
41
0.080000
42
0.080000
50
180.000000
0
CIRCLE
8
0
10
0.950000
20
1.526000
40
0.025000
0
INSERT
8
0
2
RPAD
10
0.850000
20
1.526000
41
0.080000
42
0.080000
50
180.000000
0
CIRCLE
8
0
10
0.850000
20
1.526000
40
0.025000
0
INSERT
8
0
2
EPAD
10
1.076000
20
1.878000
41
0.120000
42
0.120000
0
CIRCLE
8
0
10
1.076000
20
1.878000
40
0.030000
0
INSERT
8
0
2
EPAD
10
1.276000
20
1.878000
41
0.120000
42
0.120000
0
CIRCLE
8
0
10
1.276000
20
1.878000
40
0.030000
0
INSERT
8
0
2
RPAD
10
0.237000
20
0.829000
41
0.050000
42
0.050000
50
0.000000
0
CIRCLE
8
0
10
0.237000
20
0.829000
40
0.030000
0
INSERT
8
0
2
EPAD
10
0.337000
20
0.829000
41
0.050000
42
0.050000
0
CIRCLE
8
0
10
0.337000
20
0.829000
40
0.030000
0
INSERT
8
0
2
EPAD
10
0.437000
20
0.829000
41
0.050000
42
0.050000
0
CIRCLE
8
0
10
0.437000
20
0.829000
40
0.030000
0
INSERT
8
0
2
EPAD
10
0.437000
20
1.129000
41
0.050000
42
0.050000
0
CIRCLE
8
0
10
0.437000
20
1.129000
40
0.030000
0
INSERT
8
0
2
EPAD
10
0.337000
20
1.129000
41
0.050000
42
0.050000
0
CIRCLE
8
0
10
0.337000
20
1.129000
40
0.030000
0
INSERT
8
0
2
EPAD
10
0.237000
20
1.129000
41
0.050000
42
0.050000
0
CIRCLE
8
0
10
0.237000
20
1.129000
40
0.030000
0
INSERT
8
0
2
EPAD
10
0.137000
20
1.236000
41
0.070000
42
0.070000
0
CIRCLE
8
0
10
0.137000
20
1.236000
40
0.025000
0
INSERT
8
0
2
EPAD
10
0.537000
20
1.236000
41
0.070000
42
0.070000
0
CIRCLE
8
0
10
0.537000
20
1.236000
40
0.025000
0
INSERT
8
0
2
RPAD
10
0.441000
20
1.526000
41
0.080000
42
0.080000
50
180.000000
0
CIRCLE
8
0
10
0.441000
20
1.526000
40
0.025000
0
INSERT
8
0
2
RPAD
10
0.341000
20
1.526000
41
0.080000
42
0.080000
50
180.000000
0
CIRCLE
8
0
10
0.341000
20
1.526000
40
0.025000
0
INSERT
8
0
2
RPAD
10
0.241000
20
1.526000
41
0.080000
42
0.080000
50
180.000000
0
CIRCLE
8
0
10
0.241000
20
1.526000
40
0.025000
0
INSERT
8
0
2
EPAD
10
0.467000
20
1.878000
41
0.120000
42
0.120000
0
CIRCLE
8
0
10
0.467000
20
1.878000
40
0.030000
0
INSERT
8
0
2
EPAD
10
0.667000
20
1.878000
41
0.120000
42
0.120000
0
CIRCLE
8
0
10
0.667000
20
1.878000
40
0.030000
0
INSERT
8
0
2
RPAD
10
-0.347000
20
0.829000
41
0.050000
42
0.050000
50
0.000000
0
CIRCLE
8
0
10
-0.347000
20
0.829000
40
0.030000
0
INSERT
8
0
2
EPAD
10
-0.247000
20
0.829000
41
0.050000
42
0.050000
0
CIRCLE
8
0
10
-0.247000
20
0.829000
40
0.030000
0
INSERT
8
0
2
EPAD
10
-0.147000
20
0.829000
41
0.050000
42
0.050000
0
CIRCLE
8
0
10
-0.147000
20
0.829000
40
0.030000
0
INSERT
8
0
2
EPAD
10
-0.147000
20
1.129000
41
0.050000
42
0.050000
0
CIRCLE
8
0
10
-0.147000
20
1.129000
40
0.030000
0
INSERT
8
0
2
EPAD
10
-0.247000
20
1.129000
41
0.050000
42
0.050000
0
CIRCLE
8
0
10
-0.247000
20
1.129000
40
0.030000
0
INSERT
8
0
2
EPAD
10
-0.347000
20
1.129000
41
0.050000
42
0.050000
0
CIRCLE
8
0
10
-0.347000
20
1.129000
40
0.030000
0
INSERT
8
0
2
EPAD
10
-0.447000
20
1.236000
41
0.070000
42
0.070000
0
CIRCLE
8
0
10
-0.447000
20
1.236000
40
0.025000
0
INSERT
8
0
2
EPAD
10
-0.047000
20
1.236000
41
0.070000
42
0.070000
0
CIRCLE
8
0
10
-0.047000
20
1.236000
40
0.025000
0
INSERT
8
0
2
RPAD
10
-0.143000
20
1.526000
41
0.080000
42
0.080000
50
180.000000
0
CIRCLE
8
0
10
-0.143000
20
1.526000
40
0.025000
0
INSERT
8
0
2
RPAD
10
-0.243000
20
1.526000
41
0.080000
42
0.080000
50
180.000000
0
CIRCLE
8
0
10
-0.243000
20
1.526000
40
0.025000
0
INSERT
8
0
2
RPAD
10
-0.343000
20
1.526000
41
0.080000
42
0.080000
50
180.000000
0
CIRCLE
8
0
10
-0.343000
20
1.526000
40
0.025000
0
INSERT
8
0
2
EPAD
10
-0.117000
20
1.878000
41
0.120000
42
0.120000
0
CIRCLE
8
0
10
-0.117000
20
1.878000
40
0.030000
0
INSERT
8
0
2
EPAD
10
0.082000
20
1.878000
41
0.120000
42
0.120000
0
CIRCLE
8
0
10
0.082000
20
1.878000
40
0.030000
0
INSERT
8
0
2
RPAD
10
-0.931000
20
0.829000
41
0.050000
42
0.050000
50
0.000000
0
CIRCLE
8
0
10
-0.931000
20
0.829000
40
0.030000
0
INSERT
8
0
2
EPAD
10
-0.831000
20
0.829000
41
0.050000
42
0.050000
0
CIRCLE
8
0
10
-0.831000
20
0.829000
40
0.030000
0
INSERT
8
0
2
EPAD
10
-0.731000
20
0.829000
41
0.050000
42
0.050000
0
CIRCLE
8
0
10
-0.731000
20
0.829000
40
0.030000
0
INSERT
8
0
2
EPAD
10
-0.731000
20
1.129000
41
0.050000
42
0.050000
0
CIRCLE
8
0
10
-0.731000
20
1.129000
40
0.030000
0
INSERT
8
0
2
EPAD
10
-0.831000
20
1.129000
41
0.050000
42
0.050000
0
CIRCLE
8
0
10
-0.831000
20
1.129000
40
0.030000
0
INSERT
8
0
2
EPAD
10
-0.931000
20
1.129000
41
0.050000
42
0.050000
0
CIRCLE
8
0
10
-0.931000
20
1.129000
40
0.030000
0
INSERT
8
0
2
EPAD
10
-1.067000
20
1.236000
41
0.070000
42
0.070000
0
CIRCLE
8
0
10
-1.067000
20
1.236000
40
0.025000
0
INSERT
8
0
2
EPAD
10
-0.667000
20
1.236000
41
0.070000
42
0.070000
0
CIRCLE
8
0
10
-0.667000
20
1.236000
40
0.025000
0
INSERT
8
0
2
RPAD
10
-0.727000
20
1.526000
41
0.080000
42
0.080000
50
180.000000
0
CIRCLE
8
0
10
-0.727000
20
1.526000
40
0.025000
0
INSERT
8
0
2
RPAD
10
-0.827000
20
1.526000
41
0.080000
42
0.080000
50
180.000000
0
CIRCLE
8
0
10
-0.827000
20
1.526000
40
0.025000
0
INSERT
8
0
2
RPAD
10
-0.927000
20
1.526000
41
0.080000
42
0.080000
50
180.000000
0
CIRCLE
8
0
10
-0.927000
20
1.526000
40
0.025000
0
INSERT
8
0
2
EPAD
10
-0.701000
20
1.878000
41
0.120000
42
0.120000
0
CIRCLE
8
0
10
-0.701000
20
1.878000
40
0.030000
0
INSERT
8
0
2
EPAD
10
-0.501000
20
1.878000
41
0.120000
42
0.120000
0
CIRCLE
8
0
10
-0.501000
20
1.878000
40
0.030000
0
INSERT
8
0
2
EPAD
10
-1.269000
20
1.885000
41
0.120000
42
0.120000
0
CIRCLE
8
0
10
-1.269000
20
1.885000
40
0.030000
0
INSERT
8
0
2
EPAD
10
-1.069000
20
1.885000
41
0.120000
42
0.120000
0
CIRCLE
8
0
10
-1.069000
20
1.885000
40
0.030000
0
INSERT
8
0
2
EPAD
10
1.518000
20
0.949000
41
0.120000
42
0.120000
0
CIRCLE
8
0
10
1.518000
20
0.949000
40
0.030000
0
INSERT
8
0
2
EPAD
10
1.518000
20
1.149000
41
0.120000
42
0.120000
0
CIRCLE
8
0
10
1.518000
20
1.149000
40
0.030000
0
INSERT
8
0
2
EPAD
10
1.518000
20
1.349000
41
0.120000
42
0.120000
0
CIRCLE
8
0
10
1.518000
20
1.349000
40
0.030000
0
INSERT
8
0
2
EPAD
10
0.893000
20
0.269000
41
0.070000
42
0.070000
0
CIRCLE
8
0
10
0.893000
20
0.269000
40
0.025000
0
INSERT
8
0
2
EPAD
10
0.893000
20
0.669000
41
0.070000
42
0.070000
0
CIRCLE
8
0
10
0.893000
20
0.669000
40
0.025000
0
INSERT
8
0
2
EPAD
10
0.768000
20
0.269000
41
0.070000
42
0.070000
0
CIRCLE
8
0
10
0.768000
20
0.269000
40
0.025000
0
INSERT
8
0
2
EPAD
10
0.768000
20
0.669000
41
0.070000
42
0.070000
0
CIRCLE
8
0
10
0.768000
20
0.669000
40
0.025000
0
INSERT
8
0
2
EPAD
10
-0.766000
20
-0.628000
41
0.070000
42
0.070000
0
CIRCLE
8
0
10
-0.766000
20
-0.628000
40
0.025000
0
INSERT
8
0
2
EPAD
10
-1.166000
20
-0.628000
41
0.070000
42
0.070000
0
CIRCLE
8
0
10
-1.166000
20
-0.628000
40
0.025000
0
INSERT
8
0
2
EPAD
10
-0.320000
20
0.042000
41
0.070000
42
0.070000
0
CIRCLE
8
0
10
-0.320000
20
0.042000
40
0.025000
0
INSERT
8
0
2
EPAD
10
0.079000
20
0.042000
41
0.070000
42
0.070000
0
CIRCLE
8
0
10
0.079000
20
0.042000
40
0.025000
0
INSERT
8
0
2
EPAD
10
-0.924000
20
-0.436000
41
0.080000
42
0.080000
0
CIRCLE
8
0
10
-0.924000
20
-0.436000
40
0.010000
0
INSERT
8
0
2
EPAD
10
-0.824000
20
-0.436000
41
0.080000
42
0.080000
0
CIRCLE
8
0
10
-0.824000
20
-0.436000
40
0.010000
0
INSERT
8
0
2
EPAD
10
-0.625000
20
-0.627000
41
0.070000
42
0.070000
0
CIRCLE
8
0
10
-0.625000
20
-0.627000
40
0.025000
0
INSERT
8
0
2
EPAD
10
-0.225000
20
-0.627000
41
0.070000
42
0.070000
0
CIRCLE
8
0
10
-0.225000
20
-0.627000
40
0.025000
0
INSERT
8
0
2
EPAD
10
1.068000
20
-1.174000
41
0.250000
42
0.250000
0
CIRCLE
8
0
10
1.068000
20
-1.174000
40
0.030000
0
INSERT
8
0
2
EPAD
10
-1.637000
20
1.995000
41
0.250000
42
0.250000
0
CIRCLE
8
0
10
-1.637000
20
1.995000
40
0.030000
0
INSERT
8
0
2
EPAD
10
1.641000
20
2.003000
41
0.250000
42
0.250000
0
CIRCLE
8
0
10
1.641000
20
2.003000
40
0.030000
0
INSERT
8
0
2
EPAD
10
0.172000
20
0.593000
41
0.070000
42
0.070000
0
CIRCLE
8
0
10
0.172000
20
0.593000
40
0.025000
0
INSERT
8
0
2
EPAD
10
-0.227000
20
0.593000
41
0.070000
42
0.070000
0
CIRCLE
8
0
10
-0.227000
20
0.593000
40
0.025000
0
INSERT
8
0
2
RPAD
10
-0.072000
20
0.451000
41
0.080000
42
0.080000
50
180.000000
0
CIRCLE
8
0
10
-0.072000
20
0.451000
40
0.025000
0
INSERT
8
0
2
RPAD
10
-0.172000
20
0.451000
41
0.080000
42
0.080000
50
180.000000
0
CIRCLE
8
0
10
-0.172000
20
0.451000
40
0.025000
0
POLYLINE
8
0
66
1
40
0.008000
41
0.008000
0
VERTEX
8
0
10
-1.798000
20
-2.161000
0
VERTEX
8
0
10
1.794000
20
-2.161000
0
VERTEX
8
0
10
1.794000
20
2.161000
0
VERTEX
8
0
10
-1.798000
20
2.161000
0
VERTEX
8
0
10
-1.798000
20
-2.161000
0
SEQEND
8
0
0
CIRCLE
8
12632256
10
-0.115000
20
-1.903000
40
0.213000
0
POLYLINE
8
0
66
1
40
0.008000
41
0.008000
0
VERTEX
8
0
10
-0.195000
20
-1.713000
0
VERTEX
8
0
10
-0.195000
20
-1.753000
0
SEQEND
8
0
0
POLYLINE
8
0
66
1
40
0.008000
41
0.008000
0
VERTEX
8
0
10
-0.215000
20
-1.733000
0
VERTEX
8
0
10
-0.175000
20
-1.733000
0
SEQEND
8
0
0
TEXT
8
12632256
10
-0.190000
20
-1.680000
40
0.048000
41
1.041667
1
BR1
0
POLYLINE
8
0
66
1
40
0.008000
41
0.008000
0
VERTEX
8
0
10
-0.770000
20
-1.708000
0
VERTEX
8
0
10
-0.770000
20
-2.108000
0
SEQEND
8
0
0
POLYLINE
8
0
66
1
40
0.008000
41
0.008000
0
VERTEX
8
0
10
-0.370000
20
-1.708000
0
VERTEX
8
0
10
-0.370000
20
-2.108000
0
SEQEND
8
0
0
POLYLINE
8
0
66
1
40
0.008000
41
0.008000
0
VERTEX
8
0
10
-0.770000
20
-2.108000
0
VERTEX
8
0
10
-0.370000
20
-2.108000
0
SEQEND
8
0
0
POLYLINE
8
0
66
1
40
0.008000
41
0.008000
0
VERTEX
8
0
10
-0.770000
20
-1.708000
0
VERTEX
8
0
10
-0.370000
20
-1.708000
0
SEQEND
8
0
0
TEXT
8
12632256
10
-0.605000
20
-2.143000
40
0.048000
41
1.041667
1
J8
0
CIRCLE
8
12632256
10
-0.122000
20
-1.498000
40
0.115000
0
POLYLINE
8
0
66
1
40
0.008000
41
0.008000
0
VERTEX
8
0
10
-0.207000
20
-1.448000
0
VERTEX
8
0
10
-0.157000
20
-1.448000
0
SEQEND
8
0
0
POLYLINE
8
0
66
1
40
0.008000
41
0.008000
0
VERTEX
8
0
10
-0.182000
20
-1.423000
0
VERTEX
8
0
10
-0.182000
20
-1.473000
0
SEQEND
8
0
0
TEXT
8
12632256
10
-0.364000
20
-1.638000
40
0.048000
41
1.041667
1
C11
0
POLYLINE
8
0
66
1
40
0.008000
41
0.008000
0
VERTEX
8
0
10
0.222000
20
-1.721000
0
VERTEX
8
0
10
0.222000
20
-1.771000
0
SEQEND
8
0
0
POLYLINE
8
0
66
1
40
0.008000
41
0.008000
0
VERTEX
8
0
10
0.197000
20
-1.971000
0
VERTEX
8
0
10
0.247000
20
-1.971000
0
VERTEX
8
0
10
0.247000
20
-1.771000
0
VERTEX
8
0
10
0.197000
20
-1.771000
0
VERTEX
8
0
10
0.197000
20
-1.971000
0
SEQEND
8
0
0
POLYLINE
8
0
66
1
40
0.008000
41
0.008000
0
VERTEX
8
0
10
0.222000
20
-1.971000
0
VERTEX
8
0
10
0.222000
20
-2.021000
0
SEQEND
8
0
0
TEXT
8
12632256
10
0.305000
20
-1.946000
40
0.048000
41
1.041667
50
90.000000
1
R20
0
POLYLINE
8
0
66
1
40
0.008000
41
0.008000
0
VERTEX
8
0
10
0.895000
20
-1.991000
0
VERTEX
8
0
10
1.195000
20
-1.991000
0
VERTEX
8
0
10
1.195000
20
-1.891000
0
VERTEX
8
0
10
0.895000
20
-1.891000
0
VERTEX
8
0
10
0.895000
20
-1.991000
0
SEQEND
8
0
0
POLYLINE
8
0
66
1
40
0.008000
41
0.008000
0
VERTEX
8
0
10
0.895000
20
-1.891000
0
VERTEX
8
0
10
0.895000
20
-1.841000
0
VERTEX
8
0
10
1.195000
20
-1.841000
0
VERTEX
8
0
10
1.195000
20
-1.891000
0
SEQEND
8
0
0
POLYLINE
8
0
66
1
40
0.008000
41
0.008000
0
VERTEX
8
0
10
0.895000
20
-1.891000
0
VERTEX
8
0
10
0.945000
20
-1.841000
0
SEQEND
8
0
0
POLYLINE
8
0
66
1
40
0.008000
41
0.008000
0
VERTEX
8
0
10
0.945000
20
-1.891000
0
VERTEX
8
0
10
0.995000
20
-1.841000
0
SEQEND
8
0
0
POLYLINE
8
0
66
1
40
0.008000
41
0.008000
0
VERTEX
8
0
10
0.995000
20
-1.891000
0
VERTEX
8
0
10
1.045000
20
-1.841000
0
SEQEND
8
0
0
POLYLINE
8
0
66
1
40
0.008000
41
0.008000
0
VERTEX
8
0
10
1.045000
20
-1.891000
0
VERTEX
8
0
10
1.095000
20
-1.841000
0
SEQEND
8
0
0
POLYLINE
8
0
66
1
40
0.008000
41
0.008000
0
VERTEX
8
0
10
1.095000
20
-1.891000
0
VERTEX
8
0
10
1.145000
20
-1.841000
0
SEQEND
8
0
0
POLYLINE
8
0
66
1
40
0.008000
41
0.008000
0
VERTEX
8
0
10
1.145000
20
-1.891000
0
VERTEX
8
0
10
1.195000
20
-1.841000
0
SEQEND
8
0
0
TEXT
8
12632256
10
0.970000
20
-1.831000
40
0.048000
41
1.041667
1
U12
0
POLYLINE
8
0
66
1
40
0.008000
41
0.008000
0
VERTEX
8
0
10
0.934000
20
-1.522000
0
VERTEX
8
0
10
1.138000
20
-1.522000
0
VERTEX
8
0
10
1.138000
20
-1.417000
0
VERTEX
8
0
10
0.934000
20
-1.417000
0
VERTEX
8
0
10
0.934000
20
-1.522000
0
SEQEND
8
0
0
POLYLINE
8
0
66
1
40
0.008000
41
0.008000
0
VERTEX
8
0
10
0.966000
20
-1.418000
0
VERTEX
8
0
10
0.966000
20
-1.521000
0
SEQEND
8
0
0
POLYLINE
8
0
66
1
40
0.008000
41
0.008000
0
VERTEX
8
0
10
0.906000
20
-1.470000
0
VERTEX
8
0
10
0.934000
20
-1.470000
0
SEQEND
8
0
0
POLYLINE
8
0
66
1
40
0.008000
41
0.008000
0
VERTEX
8
0
10
1.138000
20
-1.470000
0
VERTEX
8
0
10
1.166000
20
-1.470000
0
SEQEND
8
0
0
TEXT
8
12632256
10
0.986000
20
-1.407000
40
0.048000
41
1.041667
1
D2
0
POLYLINE
8
0
66
1
40
0.008000
41
0.008000
0
VERTEX
8
0
10
0.355000
20
-2.070000
0
VERTEX
8
0
10
1.733000
20
-2.070000
0
VERTEX
8
0
10
1.733000
20
-1.581000
0
VERTEX
8
0
10
0.355000
20
-1.581000
0
VERTEX
8
0
10
0.355000
20
-2.070000
0
SEQEND
8
0
0
CIRCLE
8
12632256
10
1.457000
20
-1.462000
40
0.100000
0
POLYLINE
8
0
66
1
40
0.008000
41
0.008000
0
VERTEX
8
0
10
1.382000
20
-1.412000
0
VERTEX
8
0
10
1.432000
20
-1.412000
0
SEQEND
8
0
0
POLYLINE
8
0
66
1
40
0.008000
41
0.008000
0
VERTEX
8
0
10
1.407000
20
-1.387000
0
VERTEX
8
0
10
1.407000
20
-1.437000
0
SEQEND
8
0
0
TEXT
8
12632256
10
1.217000
20
-1.395000
40
0.048000
41
1.041667
1
C12
0
POLYLINE
8
0
66
1
40
0.008000
41
0.008000
0
VERTEX
8
0
10
0.674000
20
-1.423000
0
VERTEX
8
0
10
0.671000
20
-1.433000
0
VERTEX
8
0
10
0.663000
20
-1.443000
0
VERTEX
8
0
10
0.649000
20
-1.451000
0
VERTEX
8
0
10
0.631000
20
-1.458000
0
VERTEX
8
0
10
0.609000
20
-1.465000
0
VERTEX
8
0
10
0.583000
20
-1.469000
0
VERTEX
8
0
10
0.555000
20
-1.472000
0
VERTEX
8
0
10
0.524000
20
-1.473000
0
SEQEND
8
0
0
POLYLINE
8
0
66
1
40
0.008000
41
0.008000
0
VERTEX
8
0
10
0.374000
20
-1.423000
0
VERTEX
8
0
10
0.377000
20
-1.433000
0
VERTEX
8
0
10
0.386000
20
-1.443000
0
VERTEX
8
0
10
0.400000
20
-1.451000
0
VERTEX
8
0
10
0.418000
20
-1.458000
0
VERTEX
8
0
10
0.440000
20
-1.465000
0
VERTEX
8
0
10
0.465000
20
-1.469000
0
VERTEX
8
0
10
0.493000
20
-1.472000
0
VERTEX
8
0
10
0.524000
20
-1.473000
0
SEQEND
8
0
0
POLYLINE
8
0
66
1
40
0.008000
41
0.008000
0
VERTEX
8
0
10
0.374000
20
-1.423000
0
VERTEX
8
0
10
0.377000
20
-1.413000
0
VERTEX
8
0
10
0.386000
20
-1.403000
0
VERTEX
8
0
10
0.400000
20
-1.395000
0
VERTEX
8
0
10
0.418000
20
-1.388000
0
VERTEX
8
0
10
0.440000
20
-1.381000
0
VERTEX
8
0
10
0.465000
20
-1.377000
0
VERTEX
8
0
10
0.493000
20
-1.374000
0
VERTEX
8
0
10
0.524000
20
-1.373000
0
SEQEND
8
0
0
POLYLINE
8
0
66
1
40
0.008000
41
0.008000
0
VERTEX
8
0
10
0.674000
20
-1.423000
0
VERTEX
8
0
10
0.671000
20
-1.413000
0
VERTEX
8
0
10
0.663000
20
-1.403000
0
VERTEX
8
0
10
0.649000
20
-1.395000
0
VERTEX
8
0
10
0.631000
20
-1.388000
0
VERTEX
8
0
10
0.609000
20
-1.381000
0
VERTEX
8
0
10
0.583000
20
-1.377000
0
VERTEX
8
0
10
0.555000
20
-1.374000
0
VERTEX
8
0
10
0.524000
20
-1.373000
0
SEQEND
8
0
0
TEXT
8
12632256
10
0.499000
20
-1.531000
40
0.048000
41
1.041667
1
C13
0
POLYLINE
8
0
66
1
40
0.008000
41
0.008000
0
VERTEX
8
0
10
-0.580000
20
-0.109000
0
VERTEX
8
0
10
-0.582000
20
-0.089000
0
VERTEX
8
0
10
-0.588000
20
-0.070000
0
VERTEX
8
0
10
-0.597000
20
-0.053000
0
VERTEX
8
0
10
-0.609000
20
-0.038000
0
VERTEX
8
0
10
-0.624000
20
-0.026000
0
VERTEX
8
0
10
-0.641000
20
-0.017000
0
VERTEX
8
0
10
-0.660000
20
-0.011000
0
VERTEX
8
0
10
-0.680000
20
-0.009000
0
SEQEND
8
0
0
POLYLINE
8
0
66
1
40
0.008000
41
0.008000
0
VERTEX
8
0
10
-0.580000
20
-0.109000
0
VERTEX
8
0
10
-0.582000
20
-0.130000
0
VERTEX
8
0
10
-0.588000
20
-0.149000
0
VERTEX
8
0
10
-0.597000
20
-0.166000
0
VERTEX
8
0
10
-0.609000
20
-0.180000
0
VERTEX
8
0
10
-0.624000
20
-0.192000
0
VERTEX
8
0
10
-0.641000
20
-0.201000
0
VERTEX
8
0
10
-0.660000
20
-0.207000
0
VERTEX
8
0
10
-0.680000
20
-0.209000
0
SEQEND
8
0
0
POLYLINE
8
0
66
1
40
0.008000
41
0.008000
0
VERTEX
8
0
10
-0.680000
20
-0.009000
0
VERTEX
8
0
10
-0.680000
20
0.140000
0
SEQEND
8
0
0
POLYLINE
8
0
66
1
40
0.008000
41
0.008000
0
VERTEX
8
0
10
1.319000
20
0.140000
0
VERTEX
8
0
10
1.319000
20
-0.359000
0
SEQEND
8
0
0
POLYLINE
8
0
66
1
40
0.008000
41
0.008000
0
VERTEX
8
0
10
-0.680000
20
-0.359000
0
VERTEX
8
0
10
-0.680000
20
-0.209000
0
SEQEND
8
0
0
POLYLINE
8
0
66
1
40
0.008000
41
0.008000
0
VERTEX
8
0
10
-0.680000
20
0.140000
0
VERTEX
8
0
10
1.319000
20
0.140000
0
SEQEND
8
0
0
POLYLINE
8
0
66
1
40
0.008000
41
0.008000
0
VERTEX
8
0
10
-0.680000
20
-0.359000
0
VERTEX
8
0
10
1.319000
20
-0.359000
0
SEQEND
8
0
0
TEXT
8
12632256
10
-0.690000
20
-0.159000
40
0.048000
41
1.041667
50
90.000000
1
U3
0
POLYLINE
8
0
66
1
40
0.008000
41
0.008000
0
VERTEX
8
0
10
-1.364000
20
-0.628000
0
VERTEX
8
0
10
-1.764000
20
-0.628000
0
SEQEND
8
0
0
POLYLINE
8
0
66
1
40
0.008000
41
0.008000
0
VERTEX
8
0
10
-1.364000
20
-1.628000
0
VERTEX
8
0
10
-1.764000
20
-1.628000
0
SEQEND
8
0
0
POLYLINE
8
0
66
1
40
0.008000
41
0.008000
0
VERTEX
8
0
10
-1.364000
20
-1.628000
0
VERTEX
8
0
10
-1.364000
20
-0.628000
0
SEQEND
8
0
0
POLYLINE
8
0
66
1
40
0.008000
41
0.008000
0
VERTEX
8
0
10
-1.764000
20
-0.628000
0
VERTEX
8
0
10
-1.764000
20
-1.628000
0
SEQEND
8
0
0
TEXT
8
12632256
10
-1.740000
20
-1.738000
40
0.048000
41
1.041667
50
90.000000
1
J3
0
POLYLINE
8
0
66
1
40
0.008000
41
0.008000
0
VERTEX
8
0
10
-1.362000
20
0.209000
0
VERTEX
8
0
10
-1.762000
20
0.209000
0
SEQEND
8
0
0
POLYLINE
8
0
66
1
40
0.008000
41
0.008000
0
VERTEX
8
0
10
-1.362000
20
-0.590000
0
VERTEX
8
0
10
-1.762000
20
-0.590000
0
VERTEX
8
0
10
-1.762000
20
0.209000
0
SEQEND
8
0
0
POLYLINE
8
0
66
1
40
0.008000
41
0.008000
0
VERTEX
8
0
10
-1.362000
20
0.209000
0
VERTEX
8
0
10
-1.362000
20
-0.590000
0
SEQEND
8
0
0
TEXT
8
12632256
10
-1.710000
20
0.316000
40
0.048000
41
1.041667
50
90.000000
1
J12
0
POLYLINE
8
0
66
1
40
0.008000
41
0.008000
0
VERTEX
8
0
10
-0.087000
20
-0.795000
0
VERTEX
8
0
10
0.812000
20
-0.795000
0
VERTEX
8
0
10
0.812000
20
-0.545000
0
VERTEX
8
0
10
-0.087000
20
-0.545000
0
VERTEX
8
0
10
-0.087000
20
-0.795000
0
SEQEND
8
0
0
POLYLINE
8
0
66
1
40
0.008000
41
0.008000
0
VERTEX
8
0
10
-0.087000
20
-0.595000
0
VERTEX
8
0
10
0.812000
20
-0.595000
0
SEQEND
8
0
0
TEXT
8
12632256
10
0.804000
20
-0.665000
40
0.048000
41
1.041667
1
J7
0
POLYLINE
8
0
66
1
40
0.008000
41
0.008000
0
VERTEX
8
0
10
1.510000
20
-1.234000
0
VERTEX
8
0
10
1.720000
20
-1.234000
0
VERTEX
8
0
10
1.720000
20
0.369000
0
VERTEX
8
0
10
1.510000
20
0.369000
0
VERTEX
8
0
10
1.510000
20
-1.234000
0
SEQEND
8
0
0
POLYLINE
8
0
66
1
40
0.008000
41
0.008000
0
VERTEX
8
0
10
1.514000
20
-1.134000
0
VERTEX
8
0
10
1.716000
20
-1.134000
0
SEQEND
8
0
0
POLYLINE
8
0
66
1
40
0.008000
41
0.008000
0
VERTEX
8
0
10
1.677000
20
-1.231000
0
VERTEX
8
0
10
1.677000
20
0.366000
0
SEQEND
8
0
0
TEXT
8
12632256
10
1.710000
20
-0.448000
40
0.024000
41
1.250000
50
90.000000
1
BACK
0
TEXT
8
12632256
10
1.778000
20
-0.532000
40
0.048000
41
1.041667
50
90.000000
1
LCD2
0
POLYLINE
8
0
66
1
40
0.008000
41
0.008000
0
VERTEX
8
0
10
-1.026000
20
-1.056000
0
VERTEX
8
0
10
-1.026000
20
-1.006000
0
SEQEND
8
0
0
POLYLINE
8
0
66
1
40
0.008000
41
0.008000
0
VERTEX
8
0
10
-1.026000
20
-1.206000
0
VERTEX
8
0
10
-1.026000
20
-1.156000
0
SEQEND
8
0
0
POLYLINE
8
0
66
1
40
0.008000
41
0.008000
0
VERTEX
8
0
10
-0.976000
20
-1.106000
0
VERTEX
8
0
10
-0.977000
20
-1.096000
0
VERTEX
8
0
10
-0.980000
20
-1.086000
0
VERTEX
8
0
10
-0.984000
20
-1.078000
0
VERTEX
8
0
10
-0.990000
20
-1.070000
0
VERTEX
8
0
10
-0.997000
20
-1.064000
0
VERTEX
8
0
10
-1.006000
20
-1.060000
0
VERTEX
8
0
10
-1.016000
20
-1.057000
0
VERTEX
8
0
10
-1.026000
20
-1.056000
0
SEQEND
8
0
0
POLYLINE
8
0
66
1
40
0.008000
41
0.008000
0
VERTEX
8
0
10
-0.976000
20
-1.106000
0
VERTEX
8
0
10
-0.977000
20
-1.116000
0
VERTEX
8
0
10
-0.980000
20
-1.126000
0
VERTEX
8
0
10
-0.984000
20
-1.135000
0
VERTEX
8
0
10
-0.990000
20
-1.142000
0
VERTEX
8
0
10
-0.997000
20
-1.148000
0
VERTEX
8
0
10
-1.006000
20
-1.152000
0
VERTEX
8
0
10
-1.016000
20
-1.155000
0
VERTEX
8
0
10
-1.026000
20
-1.156000
0
SEQEND
8
0
0
POLYLINE
8
0
66
1
40
0.008000
41
0.008000
0
VERTEX
8
0
10
-1.026000
20
-1.206000
0
VERTEX
8
0
10
-0.326000
20
-1.206000
0
VERTEX
8
0
10
-0.326000
20
-1.006000
0
VERTEX
8
0
10
-1.026000
20
-1.006000
0
SEQEND
8
0
0
TEXT
8
12632256
10
-1.036000
20
-1.156000
40
0.048000
41
1.041667
50
90.000000
1
U1
0
POLYLINE
8
0
66
1
40
0.008000
41
0.008000
0
VERTEX
8
0
10
-0.414000
20
-1.538000
0
VERTEX
8
0
10
-0.464000
20
-1.538000
0
SEQEND
8
0
0
POLYLINE
8
0
66
1
40
0.008000
41
0.008000
0
VERTEX
8
0
10
-0.664000
20
-1.563000
0
VERTEX
8
0
10
-0.464000
20
-1.563000
0
VERTEX
8
0
10
-0.464000
20
-1.513000
0
VERTEX
8
0
10
-0.664000
20
-1.513000
0
VERTEX
8
0
10
-0.664000
20
-1.563000
0
SEQEND
8
0
0
POLYLINE
8
0
66
1
40
0.008000
41
0.008000
0
VERTEX
8
0
10
-0.664000
20
-1.538000
0
VERTEX
8
0
10
-0.714000
20
-1.538000
0
SEQEND
8
0
0
TEXT
8
12632256
10
-0.639000
20
-1.621000
40
0.048000
41
1.041667
1
R41
0
CIRCLE
8
12632256
10
-0.211000
20
-1.205000
40
0.100000
0
POLYLINE
8
0
66
1
40
0.008000
41
0.008000
0
VERTEX
8
0
10
-0.261000
20
-1.280000
0
VERTEX
8
0
10
-0.261000
20
-1.230000
0
SEQEND
8
0
0
POLYLINE
8
0
66
1
40
0.008000
41
0.008000
0
VERTEX
8
0
10
-0.286000
20
-1.255000
0
VERTEX
8
0
10
-0.236000
20
-1.255000
0
SEQEND
8
0
0
TEXT
8
12632256
10
-0.041000
20
-1.307000
40
0.048000
41
1.041667
50
90.000000
1
C32
0
POLYLINE
8
0
66
1
40
0.008000
41
0.008000
0
VERTEX
8
0
10
-0.423000
20
-1.365000
0
VERTEX
8
0
10
-0.473000
20
-1.365000
0
SEQEND
8
0
0
POLYLINE
8
0
66
1
40
0.008000
41
0.008000
0
VERTEX
8
0
10
-0.673000
20
-1.390000
0
VERTEX
8
0
10
-0.473000
20
-1.390000
0
VERTEX
8
0
10
-0.473000
20
-1.340000
0
VERTEX
8
0
10
-0.673000
20
-1.340000
0
VERTEX
8
0
10
-0.673000
20
-1.390000
0
SEQEND
8
0
0
POLYLINE
8
0
66
1
40
0.008000
41
0.008000
0
VERTEX
8
0
10
-0.673000
20
-1.365000
0
VERTEX
8
0
10
-0.723000
20
-1.365000
0
SEQEND
8
0
0
TEXT
8
12632256
10
-0.648000
20
-1.448000
40
0.048000
41
1.041667
1
R50
0
POLYLINE
8
0
66
1
40
0.008000
41
0.008000
0
VERTEX
8
0
10
-1.157000
20
-1.098000
0
VERTEX
8
0
10
-1.157000
20
-1.148000
0
SEQEND
8
0
0
POLYLINE
8
0
66
1
40
0.008000
41
0.008000
0
VERTEX
8
0
10
-1.182000
20
-1.348000
0
VERTEX
8
0
10
-1.132000
20
-1.348000
0
VERTEX
8
0
10
-1.132000
20
-1.148000
0
VERTEX
8
0
10
-1.182000
20
-1.148000
0
VERTEX
8
0
10
-1.182000
20
-1.348000
0
SEQEND
8
0
0
POLYLINE
8
0
66
1
40
0.008000
41
0.008000
0
VERTEX
8
0
10
-1.157000
20
-1.348000
0
VERTEX
8
0
10
-1.157000
20
-1.398000
0
SEQEND
8
0
0
TEXT
8
12632256
10
-1.074000
20
-1.323000
40
0.048000
41
1.041667
50
90.000000
1
R30
0
POLYLINE
8
0
66
1
40
0.008000
41
0.008000
0
VERTEX
8
0
10
-1.110000
20
-0.816000
0
VERTEX
8
0
10
-1.060000
20
-0.816000
0
SEQEND
8
0
0
POLYLINE
8
0
66
1
40
0.008000
41
0.008000
0
VERTEX
8
0
10
-1.060000
20
-0.841000
0
VERTEX
8
0
10
-0.860000
20
-0.841000
0
VERTEX
8
0
10
-0.860000
20
-0.791000
0
VERTEX
8
0
10
-1.060000
20
-0.791000
0
VERTEX
8
0
10
-1.060000
20
-0.841000
0
SEQEND
8
0
0
POLYLINE
8
0
66
1
40
0.008000
41
0.008000
0
VERTEX
8
0
10
-0.860000
20
-0.816000
0
VERTEX
8
0
10
-0.810000
20
-0.816000
0
SEQEND
8
0
0
TEXT
8
12632256
10
-1.035000
20
-0.781000
40
0.048000
41
1.041667
1
R40
0
POLYLINE
8
0
66
1
40
0.008000
41
0.008000
0
VERTEX
8
0
10
-0.273000
20
-0.855000
0
VERTEX
8
0
10
-0.323000
20
-0.855000
0
SEQEND
8
0
0
POLYLINE
8
0
66
1
40
0.008000
41
0.008000
0
VERTEX
8
0
10
-0.523000
20
-0.880000
0
VERTEX
8
0
10
-0.323000
20
-0.880000
0
VERTEX
8
0
10
-0.323000
20
-0.830000
0
VERTEX
8
0
10
-0.523000
20
-0.830000
0
VERTEX
8
0
10
-0.523000
20
-0.880000
0
SEQEND
8
0
0
POLYLINE
8
0
66
1
40
0.008000
41
0.008000
0
VERTEX
8
0
10
-0.523000
20
-0.855000
0
VERTEX
8
0
10
-0.573000
20
-0.855000
0
SEQEND
8
0
0
TEXT
8
12632256
10
-0.335000
20
-0.942000
40
0.048000
41
1.041667
1
R5
0
POLYLINE
8
0
66
1
40
0.008000
41
0.008000
0
VERTEX
8
0
10
-0.273000
20
-0.731000
0
VERTEX
8
0
10
-0.323000
20
-0.731000
0
SEQEND
8
0
0
POLYLINE
8
0
66
1
40
0.008000
41
0.008000
0
VERTEX
8
0
10
-0.523000
20
-0.756000
0
VERTEX
8
0
10
-0.323000
20
-0.756000
0
VERTEX
8
0
10
-0.323000
20
-0.706000
0
VERTEX
8
0
10
-0.523000
20
-0.706000
0
VERTEX
8
0
10
-0.523000
20
-0.756000
0
SEQEND
8
0
0
POLYLINE
8
0
66
1
40
0.008000
41
0.008000
0
VERTEX
8
0
10
-0.523000
20
-0.731000
0
VERTEX
8
0
10
-0.573000
20
-0.731000
0
SEQEND
8
0
0
TEXT
8
12632256
10
-0.490000
20
-0.810000
40
0.048000
41
1.041667
1
R60
0
POLYLINE
8
0
66
1
40
0.008000
41
0.008000
0
VERTEX
8
0
10
-1.402000
20
-1.708000
0
VERTEX
8
0
10
-1.402000
20
-2.108000
0
SEQEND
8
0
0
POLYLINE
8
0
66
1
40
0.008000
41
0.008000
0
VERTEX
8
0
10
-0.802000
20
-1.708000
0
VERTEX
8
0
10
-0.802000
20
-2.108000
0
SEQEND
8
0
0
POLYLINE
8
0
66
1
40
0.008000
41
0.008000
0
VERTEX
8
0
10
-1.402000
20
-2.108000
0
VERTEX
8
0
10
-0.802000
20
-2.108000
0
SEQEND
8
0
0
POLYLINE
8
0
66
1
40
0.008000
41
0.008000
0
VERTEX
8
0
10
-0.802000
20
-1.708000
0
VERTEX
8
0
10
-1.402000
20
-1.708000
0
SEQEND
8
0
0
TEXT
8
12632256
10
-1.150000
20
-2.159000
40
0.048000
41
1.041667
1
J11
0
POLYLINE
8
0
66
1
40
0.008000
41
0.008000
0
VERTEX
8
0
10
-0.017000
20
-0.900000
0
VERTEX
8
0
10
-0.017000
20
-0.950000
0
SEQEND
8
0
0
POLYLINE
8
0
66
1
40
0.008000
41
0.008000
0
VERTEX
8
0
10
-0.042000
20
-1.150000
0
VERTEX
8
0
10
0.007000
20
-1.150000
0
VERTEX
8
0
10
0.007000
20
-0.950000
0
VERTEX
8
0
10
-0.042000
20
-0.950000
0
VERTEX
8
0
10
-0.042000
20
-1.150000
0
SEQEND
8
0
0
POLYLINE
8
0
66
1
40
0.008000
41
0.008000
0
VERTEX
8
0
10
-0.017000
20
-1.150000
0
VERTEX
8
0
10
-0.017000
20
-1.200000
0
SEQEND
8
0
0
TEXT
8
12632256
10
0.065000
20
-1.125000
40
0.048000
41
1.041667
50
90.000000
1
R12
0
POLYLINE
8
0
66
1
40
0.008000
41
0.008000
0
VERTEX
8
0
10
0.095000
20
-0.900000
0
VERTEX
8
0
10
0.095000
20
-0.950000
0
SEQEND
8
0
0
POLYLINE
8
0
66
1
40
0.008000
41
0.008000
0
VERTEX
8
0
10
0.070000
20
-1.150000
0
VERTEX
8
0
10
0.120000
20
-1.150000
0
VERTEX
8
0
10
0.120000
20
-0.950000
0
VERTEX
8
0
10
0.070000
20
-0.950000
0
VERTEX
8
0
10
0.070000
20
-1.150000
0
SEQEND
8
0
0
POLYLINE
8
0
66
1
40
0.008000
41
0.008000
0
VERTEX
8
0
10
0.095000
20
-1.150000
0
VERTEX
8
0
10
0.095000
20
-1.200000
0
SEQEND
8
0
0
TEXT
8
12632256
10
0.178000
20
-1.125000
40
0.048000
41
1.041667
50
90.000000
1
R13
0
POLYLINE
8
0
66
1
40
0.008000
41
0.008000
0
VERTEX
8
0
10
0.205000
20
-0.900000
0
VERTEX
8
0
10
0.205000
20
-0.950000
0
SEQEND
8
0
0
POLYLINE
8
0
66
1
40
0.008000
41
0.008000
0
VERTEX
8
0
10
0.180000
20
-1.150000
0
VERTEX
8
0
10
0.230000
20
-1.150000
0
VERTEX
8
0
10
0.230000
20
-0.950000
0
VERTEX
8
0
10
0.180000
20
-0.950000
0
VERTEX
8
0
10
0.180000
20
-1.150000
0
SEQEND
8
0
0
POLYLINE
8
0
66
1
40
0.008000
41
0.008000
0
VERTEX
8
0
10
0.205000
20
-1.150000
0
VERTEX
8
0
10
0.205000
20
-1.200000
0
SEQEND
8
0
0
TEXT
8
12632256
10
0.288000
20
-1.125000
40
0.048000
41
1.041667
50
90.000000
1
R14
0
POLYLINE
8
0
66
1
40
0.008000
41
0.008000
0
VERTEX
8
0
10
0.314000
20
-0.900000
0
VERTEX
8
0
10
0.314000
20
-0.950000
0
SEQEND
8
0
0
POLYLINE
8
0
66
1
40
0.008000
41
0.008000
0
VERTEX
8
0
10
0.289000
20
-1.150000
0
VERTEX
8
0
10
0.339000
20
-1.150000
0
VERTEX
8
0
10
0.339000
20
-0.950000
0
VERTEX
8
0
10
0.289000
20
-0.950000
0
VERTEX
8
0
10
0.289000
20
-1.150000
0
SEQEND
8
0
0
POLYLINE
8
0
66
1
40
0.008000
41
0.008000
0
VERTEX
8
0
10
0.314000
20
-1.150000
0
VERTEX
8
0
10
0.314000
20
-1.200000
0
SEQEND
8
0
0
TEXT
8
12632256
10
0.397000
20
-1.125000
40
0.048000
41
1.041667
50
90.000000
1
R15
0
POLYLINE
8
0
66
1
40
0.008000
41
0.008000
0
VERTEX
8
0
10
0.479000
20
-0.131000
0
VERTEX
8
0
10
0.779000
20
-0.131000
0
VERTEX
8
0
10
0.829000
20
-0.181000
0
VERTEX
8
0
10
0.829000
20
-0.281000
0
VERTEX
8
0
10
0.779000
20
-0.331000
0
VERTEX
8
0
10
0.479000
20
-0.331000
0
VERTEX
8
0
10
0.429000
20
-0.281000
0
VERTEX
8
0
10
0.429000
20
-0.181000
0
VERTEX
8
0
10
0.479000
20
-0.131000
0
SEQEND
8
0
0
TEXT
8
12632256
10
0.579000
20
-0.121000
40
0.048000
41
1.041667
1
X1
0
POLYLINE
8
0
66
1
40
0.008000
41
0.008000
0
VERTEX
8
0
10
0.609000
20
-0.056000
0
VERTEX
8
0
10
0.607000
20
-0.066000
0
VERTEX
8
0
10
0.601000
20
-0.076000
0
VERTEX
8
0
10
0.592000
20
-0.084000
0
VERTEX
8
0
10
0.580000
20
-0.092000
0
VERTEX
8
0
10
0.565000
20
-0.098000
0
VERTEX
8
0
10
0.548000
20
-0.102000
0
VERTEX
8
0
10
0.529000
20
-0.105000
0
VERTEX
8
0
10
0.509000
20
-0.106000
0
SEQEND
8
0
0
POLYLINE
8
0
66
1
40
0.008000
41
0.008000
0
VERTEX
8
0
10
0.409000
20
-0.056000
0
VERTEX
8
0
10
0.411000
20
-0.066000
0
VERTEX
8
0
10
0.417000
20
-0.076000
0
VERTEX
8
0
10
0.426000
20
-0.084000
0
VERTEX
8
0
10
0.438000
20
-0.092000
0
VERTEX
8
0
10
0.453000
20
-0.098000
0
VERTEX
8
0
10
0.470000
20
-0.102000
0
VERTEX
8
0
10
0.489000
20
-0.105000
0
VERTEX
8
0
10
0.509000
20
-0.106000
0
SEQEND
8
0
0
POLYLINE
8
0
66
1
40
0.008000
41
0.008000
0
VERTEX
8
0
10
0.609000
20
-0.056000
0
VERTEX
8
0
10
0.607000
20
-0.046000
0
VERTEX
8
0
10
0.601000
20
-0.036000
0
VERTEX
8
0
10
0.592000
20
-0.028000
0
VERTEX
8
0
10
0.580000
20
-0.020000
0
VERTEX
8
0
10
0.565000
20
-0.014000
0
VERTEX
8
0
10
0.548000
20
-0.010000
0
VERTEX
8
0
10
0.529000
20
-0.007000
0
VERTEX
8
0
10
0.509000
20
-0.006000
0
SEQEND
8
0
0
POLYLINE
8
0
66
1
40
0.008000
41
0.008000
0
VERTEX
8
0
10
0.409000
20
-0.056000
0
VERTEX
8
0
10
0.411000
20
-0.046000
0
VERTEX
8
0
10
0.417000
20
-0.036000
0
VERTEX
8
0
10
0.426000
20
-0.028000
0
VERTEX
8
0
10
0.438000
20
-0.020000
0
VERTEX
8
0
10
0.453000
20
-0.014000
0
VERTEX
8
0
10
0.470000
20
-0.010000
0
VERTEX
8
0
10
0.489000
20
-0.007000
0
VERTEX
8
0
10
0.509000
20
-0.006000
0
SEQEND
8
0
0
TEXT
8
12632256
10
0.432000
20
0.021000
40
0.048000
41
1.041667
1
C2
0
POLYLINE
8
0
66
1
40
0.008000
41
0.008000
0
VERTEX
8
0
10
0.686000
20
-0.048000
0
VERTEX
8
0
10
0.688000
20
-0.038000
0
VERTEX
8
0
10
0.694000
20
-0.029000
0
VERTEX
8
0
10
0.703000
20
-0.020000
0
VERTEX
8
0
10
0.715000
20
-0.013000
0
VERTEX
8
0
10
0.730000
20
-0.007000
0
VERTEX
8
0
10
0.747000
20
-0.003000
0
VERTEX
8
0
10
0.766000
20
0.000000
0
VERTEX
8
0
10
0.786000
20
0.001000
0
SEQEND
8
0
0
POLYLINE
8
0
66
1
40
0.008000
41
0.008000
0
VERTEX
8
0
10
0.886000
20
-0.048000
0
VERTEX
8
0
10
0.884000
20
-0.038000
0
VERTEX
8
0
10
0.878000
20
-0.029000
0
VERTEX
8
0
10
0.869000
20
-0.020000
0
VERTEX
8
0
10
0.857000
20
-0.013000
0
VERTEX
8
0
10
0.842000
20
-0.007000
0
VERTEX
8
0
10
0.825000
20
-0.003000
0
VERTEX
8
0
10
0.806000
20
0.000000
0
VERTEX
8
0
10
0.786000
20
0.001000
0
SEQEND
8
0
0
POLYLINE
8
0
66
1
40
0.008000
41
0.008000
0
VERTEX
8
0
10
0.686000
20
-0.048000
0
VERTEX
8
0
10
0.688000
20
-0.058000
0
VERTEX
8
0
10
0.694000
20
-0.068000
0
VERTEX
8
0
10
0.703000
20
-0.076000
0
VERTEX
8
0
10
0.715000
20
-0.084000
0
VERTEX
8
0
10
0.730000
20
-0.090000
0
VERTEX
8
0
10
0.747000
20
-0.094000
0
VERTEX
8
0
10
0.766000
20
-0.097000
0
VERTEX
8
0
10
0.786000
20
-0.098000
0
SEQEND
8
0
0
POLYLINE
8
0
66
1
40
0.008000
41
0.008000
0
VERTEX
8
0
10
0.886000
20
-0.048000
0
VERTEX
8
0
10
0.884000
20
-0.058000
0
VERTEX
8
0
10
0.878000
20
-0.068000
0
VERTEX
8
0
10
0.869000
20
-0.076000
0
VERTEX
8
0
10
0.857000
20
-0.084000
0
VERTEX
8
0
10
0.842000
20
-0.090000
0
VERTEX
8
0
10
0.825000
20
-0.094000
0
VERTEX
8
0
10
0.806000
20
-0.097000
0
VERTEX
8
0
10
0.786000
20
-0.098000
0
SEQEND
8
0
0
TEXT
8
12632256
10
0.786000
20
0.011000
40
0.048000
41
1.041667
1
C3
0
POLYLINE
8
0
66
1
40
0.008000
41
0.008000
0
VERTEX
8
0
10
0.886000
20
-0.222000
0
VERTEX
8
0
10
0.889000
20
-0.212000
0
VERTEX
8
0
10
0.897000
20
-0.202000
0
VERTEX
8
0
10
0.911000
20
-0.194000
0
VERTEX
8
0
10
0.929000
20
-0.186000
0
VERTEX
8
0
10
0.951000
20
-0.180000
0
VERTEX
8
0
10
0.977000
20
-0.176000
0
VERTEX
8
0
10
1.005000
20
-0.173000
0
VERTEX
8
0
10
1.036000
20
-0.172000
0
SEQEND
8
0
0
POLYLINE
8
0
66
1
40
0.008000
41
0.008000
0
VERTEX
8
0
10
1.186000
20
-0.222000
0
VERTEX
8
0
10
1.183000
20
-0.212000
0
VERTEX
8
0
10
1.174000
20
-0.202000
0
VERTEX
8
0
10
1.160000
20
-0.194000
0
VERTEX
8
0
10
1.142000
20
-0.186000
0
VERTEX
8
0
10
1.120000
20
-0.180000
0
VERTEX
8
0
10
1.095000
20
-0.176000
0
VERTEX
8
0
10
1.067000
20
-0.173000
0
VERTEX
8
0
10
1.036000
20
-0.172000
0
SEQEND
8
0
0
POLYLINE
8
0
66
1
40
0.008000
41
0.008000
0
VERTEX
8
0
10
1.186000
20
-0.222000
0
VERTEX
8
0
10
1.183000
20
-0.232000
0
VERTEX
8
0
10
1.174000
20
-0.242000
0
VERTEX
8
0
10
1.160000
20
-0.250000
0
VERTEX
8
0
10
1.142000
20
-0.258000
0
VERTEX
8
0
10
1.120000
20
-0.264000
0
VERTEX
8
0
10
1.095000
20
-0.268000
0
VERTEX
8
0
10
1.067000
20
-0.271000
0
VERTEX
8
0
10
1.036000
20
-0.272000
0
SEQEND
8
0
0
POLYLINE
8
0
66
1
40
0.008000
41
0.008000
0
VERTEX
8
0
10
0.886000
20
-0.222000
0
VERTEX
8
0
10
0.889000
20
-0.232000
0
VERTEX
8
0
10
0.897000
20
-0.242000
0
VERTEX
8
0
10
0.911000
20
-0.250000
0
VERTEX
8
0
10
0.929000
20
-0.258000
0
VERTEX
8
0
10
0.951000
20
-0.264000
0
VERTEX
8
0
10
0.977000
20
-0.268000
0
VERTEX
8
0
10
1.005000
20
-0.271000
0
VERTEX
8
0
10
1.036000
20
-0.272000
0
SEQEND
8
0
0
TEXT
8
12632256
10
0.986000
20
-0.162000
40
0.048000
41
1.041667
1
C1
0
POLYLINE
8
0
66
1
40
0.008000
41
0.008000
0
VERTEX
8
0
10
-1.207000
20
-0.233000
0
VERTEX
8
0
10
-1.207000
20
-0.183000
0
SEQEND
8
0
0
POLYLINE
8
0
66
1
40
0.008000
41
0.008000
0
VERTEX
8
0
10
-1.232000
20
-0.183000
0
VERTEX
8
0
10
-1.182000
20
-0.183000
0
VERTEX
8
0
10
-1.182000
20
0.016000
0
VERTEX
8
0
10
-1.232000
20
0.016000
0
VERTEX
8
0
10
-1.232000
20
-0.183000
0
SEQEND
8
0
0
POLYLINE
8
0
66
1
40
0.008000
41
0.008000
0
VERTEX
8
0
10
-1.207000
20
0.016000
0
VERTEX
8
0
10
-1.207000
20
0.066000
0
SEQEND
8
0
0
TEXT
8
12632256
10
-1.132000
20
-0.159000
40
0.048000
41
1.041667
50
90.000000
1
R27
0
POLYLINE
8
0
66
1
40
0.008000
41
0.008000
0
VERTEX
8
0
10
-1.082000
20
-0.233000
0
VERTEX
8
0
10
-1.082000
20
-0.183000
0
SEQEND
8
0
0
POLYLINE
8
0
66
1
40
0.008000
41
0.008000
0
VERTEX
8
0
10
-1.107000
20
-0.183000
0
VERTEX
8
0
10
-1.057000
20
-0.183000
0
VERTEX
8
0
10
-1.057000
20
0.016000
0
VERTEX
8
0
10
-1.107000
20
0.016000
0
VERTEX
8
0
10
-1.107000
20
-0.183000
0
SEQEND
8
0
0
POLYLINE
8
0
66
1
40
0.008000
41
0.008000
0
VERTEX
8
0
10
-1.082000
20
0.016000
0
VERTEX
8
0
10
-1.082000
20
0.066000
0
SEQEND
8
0
0
TEXT
8
12632256
10
-0.992000
20
-0.133000
40
0.048000
41
1.041667
50
90.000000
1
R3
0
POLYLINE
8
0
66
1
40
0.008000
41
0.008000
0
VERTEX
8
0
10
0.899000
20
-0.611000
0
VERTEX
8
0
10
0.899000
20
-0.661000
0
SEQEND
8
0
0
POLYLINE
8
0
66
1
40
0.008000
41
0.008000
0
VERTEX
8
0
10
0.874000
20
-0.861000
0
VERTEX
8
0
10
0.924000
20
-0.861000
0
VERTEX
8
0
10
0.924000
20
-0.661000
0
VERTEX
8
0
10
0.874000
20
-0.661000
0
VERTEX
8
0
10
0.874000
20
-0.861000
0
SEQEND
8
0
0
POLYLINE
8
0
66
1
40
0.008000
41
0.008000
0
VERTEX
8
0
10
0.899000
20
-0.861000
0
VERTEX
8
0
10
0.899000
20
-0.911000
0
SEQEND
8
0
0
TEXT
8
12632256
10
0.982000
20
-0.811000
40
0.048000
41
1.041667
50
90.000000
1
R6
0
POLYLINE
8
0
66
1
40
0.008000
41
0.008000
0
VERTEX
8
0
10
0.698000
20
-1.302000
0
VERTEX
8
0
10
0.798000
20
-1.302000
0
VERTEX
8
0
10
0.798000
20
-1.002000
0
VERTEX
8
0
10
0.698000
20
-1.002000
0
VERTEX
8
0
10
0.698000
20
-1.302000
0
SEQEND
8
0
0
POLYLINE
8
0
66
1
40
0.008000
41
0.008000
0
VERTEX
8
0
10
0.798000
20
-1.002000
0
VERTEX
8
0
10
0.848000
20
-1.002000
0
VERTEX
8
0
10
0.848000
20
-1.302000
0
VERTEX
8
0
10
0.798000
20
-1.302000
0
SEQEND
8
0
0
POLYLINE
8
0
66
1
40
0.008000
41
0.008000
0
VERTEX
8
0
10
0.798000
20
-1.002000
0
VERTEX
8
0
10
0.848000
20
-1.052000
0
SEQEND
8
0
0
POLYLINE
8
0
66
1
40
0.008000
41
0.008000
0
VERTEX
8
0
10
0.798000
20
-1.052000
0
VERTEX
8
0
10
0.848000
20
-1.102000
0
SEQEND
8
0
0
POLYLINE
8
0
66
1
40
0.008000
41
0.008000
0
VERTEX
8
0
10
0.798000
20
-1.102000
0
VERTEX
8
0
10
0.848000
20
-1.152000
0
SEQEND
8
0
0
POLYLINE
8
0
66
1
40
0.008000
41
0.008000
0
VERTEX
8
0
10
0.798000
20
-1.152000
0
VERTEX
8
0
10
0.848000
20
-1.202000
0
SEQEND
8
0
0
POLYLINE
8
0
66
1
40
0.008000
41
0.008000
0
VERTEX
8
0
10
0.798000
20
-1.202000
0
VERTEX
8
0
10
0.848000
20
-1.252000
0
SEQEND
8
0
0
POLYLINE
8
0
66
1
40
0.008000
41
0.008000
0
VERTEX
8
0
10
0.798000
20
-1.252000
0
VERTEX
8
0
10
0.848000
20
-1.302000
0
SEQEND
8
0
0
TEXT
8
12632256
10
0.906000
20
-1.202000
40
0.048000
41
1.041667
50
90.000000
1
Q1
0
POLYLINE
8
0
66
1
40
0.008000
41
0.008000
0
VERTEX
8
0
10
1.094000
20
-0.776000
0
VERTEX
8
0
10
1.394000
20
-0.776000
0
VERTEX
8
0
10
1.394000
20
-0.626000
0
VERTEX
8
0
10
1.094000
20
-0.626000
0
VERTEX
8
0
10
1.094000
20
-0.776000
0
SEQEND
8
0
0
POLYLINE
8
0
66
1
40
0.008000
41
0.008000
0
VERTEX
8
0
10
1.294000
20
-0.926000
0
VERTEX
8
0
10
1.194000
20
-0.926000
0
SEQEND
8
0
0
POLYLINE
8
0
66
1
40
0.008000
41
0.008000
0
VERTEX
8
0
10
1.149000
20
-0.996000
0
VERTEX
8
0
10
1.342000
20
-0.996000
0
VERTEX
8
0
10
1.342000
20
-0.776000
0
VERTEX
8
0
10
1.149000
20
-0.776000
0
VERTEX
8
0
10
1.149000
20
-0.996000
0
SEQEND
8
0
0
TEXT
8
12632256
10
1.169000
20
-0.616000
40
0.048000
41
1.041667
1
RV1
0
POLYLINE
8
0
66
1
40
0.008000
41
0.008000
0
VERTEX
8
0
10
-0.318000
20
0.632000
0
VERTEX
8
0
10
-0.318000
20
0.582000
0
SEQEND
8
0
0
POLYLINE
8
0
66
1
40
0.008000
41
0.008000
0
VERTEX
8
0
10
-0.343000
20
0.382000
0
VERTEX
8
0
10
-0.293000
20
0.382000
0
VERTEX
8
0
10
-0.293000
20
0.582000
0
VERTEX
8
0
10
-0.343000
20
0.582000
0
VERTEX
8
0
10
-0.343000
20
0.382000
0
SEQEND
8
0
0
POLYLINE
8
0
66
1
40
0.008000
41
0.008000
0
VERTEX
8
0
10
-0.318000
20
0.382000
0
VERTEX
8
0
10
-0.318000
20
0.332000
0
SEQEND
8
0
0
TEXT
8
12632256
10
-0.235000
20
0.407000
40
0.048000
41
1.041667
50
90.000000
1
R16
0
POLYLINE
8
0
66
1
40
0.008000
41
0.008000
0
VERTEX
8
0
10
0.796000
20
0.879000
0
VERTEX
8
0
10
0.796000
20
0.929000
0
SEQEND
8
0
0
POLYLINE
8
0
66
1
40
0.008000
41
0.008000
0
VERTEX
8
0
10
0.846000
20
0.979000
0
VERTEX
8
0
10
0.845000
20
0.989000
0
VERTEX
8
0
10
0.842000
20
0.999000
0
VERTEX
8
0
10
0.838000
20
1.007000
0
VERTEX
8
0
10
0.832000
20
1.014000
0
VERTEX
8
0
10
0.825000
20
1.021000
0
VERTEX
8
0
10
0.816000
20
1.025000
0
VERTEX
8
0
10
0.806000
20
1.028000
0
VERTEX
8
0
10
0.796000
20
1.029000
0
SEQEND
8
0
0
POLYLINE
8
0
66
1
40
0.008000
41
0.008000
0
VERTEX
8
0
10
0.846000
20
0.979000
0
VERTEX
8
0
10
0.845000
20
0.969000
0
VERTEX
8
0
10
0.842000
20
0.959000
0
VERTEX
8
0
10
0.838000
20
0.950000
0
VERTEX
8
0
10
0.832000
20
0.943000
0
VERTEX
8
0
10
0.825000
20
0.937000
0
VERTEX
8
0
10
0.816000
20
0.933000
0
VERTEX
8
0
10
0.806000
20
0.930000
0
VERTEX
8
0
10
0.796000
20
0.929000
0
SEQEND
8
0
0
POLYLINE
8
0
66
1
40
0.008000
41
0.008000
0
VERTEX
8
0
10
0.796000
20
1.029000
0
VERTEX
8
0
10
0.796000
20
1.079000
0
SEQEND
8
0
0
POLYLINE
8
0
66
1
40
0.008000
41
0.008000
0
VERTEX
8
0
10
1.096000
20
0.879000
0
VERTEX
8
0
10
1.096000
20
1.079000
0
SEQEND
8
0
0
POLYLINE
8
0
66
1
40
0.008000
41
0.008000
0
VERTEX
8
0
10
0.796000
20
0.879000
0
VERTEX
8
0
10
1.096000
20
0.879000
0
SEQEND
8
0
0
POLYLINE
8
0
66
1
40
0.008000
41
0.008000
0
VERTEX
8
0
10
0.796000
20
1.079000
0
VERTEX
8
0
10
1.096000
20
1.079000
0
SEQEND
8
0
0
TEXT
8
12632256
10
0.786000
20
0.904000
40
0.048000
41
1.041667
50
90.000000
1
U10
0
POLYLINE
8
0
66
1
40
0.008000
41
0.008000
0
VERTEX
8
0
10
-0.430000
20
0.632000
0
VERTEX
8
0
10
-0.430000
20
0.582000
0
SEQEND
8
0
0
POLYLINE
8
0
66
1
40
0.008000
41
0.008000
0
VERTEX
8
0
10
-0.455000
20
0.382000
0
VERTEX
8
0
10
-0.405000
20
0.382000
0
VERTEX
8
0
10
-0.405000
20
0.582000
0
VERTEX
8
0
10
-0.455000
20
0.582000
0
VERTEX
8
0
10
-0.455000
20
0.382000
0
SEQEND
8
0
0
POLYLINE
8
0
66
1
40
0.008000
41
0.008000
0
VERTEX
8
0
10
-0.430000
20
0.382000
0
VERTEX
8
0
10
-0.430000
20
0.332000
0
SEQEND
8
0
0
TEXT
8
12632256
10
-0.347000
20
0.432000
40
0.048000
41
1.041667
50
90.000000
1
R8
0
POLYLINE
8
0
66
1
40
0.008000
41
0.008000
0
VERTEX
8
0
10
-0.539000
20
0.632000
0
VERTEX
8
0
10
-0.539000
20
0.582000
0
SEQEND
8
0
0
POLYLINE
8
0
66
1
40
0.008000
41
0.008000
0
VERTEX
8
0
10
-0.564000
20
0.382000
0
VERTEX
8
0
10
-0.514000
20
0.382000
0
VERTEX
8
0
10
-0.514000
20
0.582000
0
VERTEX
8
0
10
-0.564000
20
0.582000
0
VERTEX
8
0
10
-0.564000
20
0.382000
0
SEQEND
8
0
0
POLYLINE
8
0
66
1
40
0.008000
41
0.008000
0
VERTEX
8
0
10
-0.539000
20
0.382000
0
VERTEX
8
0
10
-0.539000
20
0.332000
0
SEQEND
8
0
0
TEXT
8
12632256
10
-0.464000
20
0.385000
40
0.048000
41
1.041667
50
90.000000
1
R10
0
POLYLINE
8
0
66
1
40
0.008000
41
0.008000
0
VERTEX
8
0
10
0.019000
20
0.288000
0
VERTEX
8
0
10
0.419000
20
0.288000
0
VERTEX
8
0
10
0.419000
20
0.538000
0
VERTEX
8
0
10
0.019000
20
0.538000
0
VERTEX
8
0
10
0.019000
20
0.288000
0
SEQEND
8
0
0
POLYLINE
8
0
66
1
40
0.008000
41
0.008000
0
VERTEX
8
0
10
0.419000
20
0.338000
0
VERTEX
8
0
10
0.019000
20
0.338000
0
SEQEND
8
0
0
TEXT
8
12632256
10
0.439000
20
0.396000
40
0.048000
41
1.041667
1
J2
0
POLYLINE
8
0
66
1
40
0.008000
41
0.008000
0
VERTEX
8
0
10
-0.649000
20
0.632000
0
VERTEX
8
0
10
-0.649000
20
0.582000
0
SEQEND
8
0
0
POLYLINE
8
0
66
1
40
0.008000
41
0.008000
0
VERTEX
8
0
10
-0.674000
20
0.382000
0
VERTEX
8
0
10
-0.624000
20
0.382000
0
VERTEX
8
0
10
-0.624000
20
0.582000
0
VERTEX
8
0
10
-0.674000
20
0.582000
0
VERTEX
8
0
10
-0.674000
20
0.382000
0
SEQEND
8
0
0
POLYLINE
8
0
66
1
40
0.008000
41
0.008000
0
VERTEX
8
0
10
-0.649000
20
0.382000
0
VERTEX
8
0
10
-0.649000
20
0.332000
0
SEQEND
8
0
0
TEXT
8
12632256
10
-0.566000
20
0.407000
40
0.048000
41
1.041667
50
90.000000
1
R18
0
POLYLINE
8
0
66
1
40
0.008000
41
0.008000
0
VERTEX
8
0
10
0.796000
20
1.236000
0
VERTEX
8
0
10
0.846000
20
1.236000
0
SEQEND
8
0
0
POLYLINE
8
0
66
1
40
0.008000
41
0.008000
0
VERTEX
8
0
10
0.846000
20
1.211000
0
VERTEX
8
0
10
1.046000
20
1.211000
0
VERTEX
8
0
10
1.046000
20
1.261000
0
VERTEX
8
0
10
0.846000
20
1.261000
0
VERTEX
8
0
10
0.846000
20
1.211000
0
SEQEND
8
0
0
POLYLINE
8
0
66
1
40
0.008000
41
0.008000
0
VERTEX
8
0
10
1.046000
20
1.236000
0
VERTEX
8
0
10
1.096000
20
1.236000
0
SEQEND
8
0
0
TEXT
8
12632256
10
0.871000
20
1.271000
40
0.048000
41
1.041667
1
R11
0
POLYLINE
8
0
66
1
40
0.008000
41
0.008000
0
VERTEX
8
0
10
0.800000
20
1.476000
0
VERTEX
8
0
10
1.100000
20
1.476000
0
VERTEX
8
0
10
1.100000
20
1.576000
0
VERTEX
8
0
10
0.800000
20
1.576000
0
VERTEX
8
0
10
0.800000
20
1.476000
0
SEQEND
8
0
0
POLYLINE
8
0
66
1
40
0.008000
41
0.008000
0
VERTEX
8
0
10
1.100000
20
1.476000
0
VERTEX
8
0
10
1.100000
20
1.426000
0
VERTEX
8
0
10
0.800000
20
1.426000
0
VERTEX
8
0
10
0.800000
20
1.476000
0
SEQEND
8
0
0
POLYLINE
8
0
66
1
40
0.008000
41
0.008000
0
VERTEX
8
0
10
1.100000
20
1.476000
0
VERTEX
8
0
10
1.050000
20
1.426000
0
SEQEND
8
0
0
POLYLINE
8
0
66
1
40
0.008000
41
0.008000
0
VERTEX
8
0
10
1.050000
20
1.476000
0
VERTEX
8
0
10
1.000000
20
1.426000
0
SEQEND
8
0
0
POLYLINE
8
0
66
1
40
0.008000
41
0.008000
0
VERTEX
8
0
10
1.000000
20
1.476000
0
VERTEX
8
0
10
0.950000
20
1.426000
0
SEQEND
8
0
0
POLYLINE
8
0
66
1
40
0.008000
41
0.008000
0
VERTEX
8
0
10
0.950000
20
1.476000
0
VERTEX
8
0
10
0.900000
20
1.426000
0
SEQEND
8
0
0
POLYLINE
8
0
66
1
40
0.008000
41
0.008000
0
VERTEX
8
0
10
0.900000
20
1.476000
0
VERTEX
8
0
10
0.850000
20
1.426000
0
SEQEND
8
0
0
POLYLINE
8
0
66
1
40
0.008000
41
0.008000
0
VERTEX
8
0
10
0.850000
20
1.476000
0
VERTEX
8
0
10
0.800000
20
1.426000
0
SEQEND
8
0
0
TEXT
8
12632256
10
0.875000
20
1.368000
40
0.048000
41
1.041667
1
U11
0
POLYLINE
8
0
66
1
40
0.008000
41
0.008000
0
VERTEX
8
0
10
0.976000
20
2.078000
0
VERTEX
8
0
10
0.976000
20
1.678000
0
SEQEND
8
0
0
POLYLINE
8
0
66
1
40
0.008000
41
0.008000
0
VERTEX
8
0
10
1.376000
20
2.078000
0
VERTEX
8
0
10
1.376000
20
1.678000
0
SEQEND
8
0
0
POLYLINE
8
0
66
1
40
0.008000
41
0.008000
0
VERTEX
8
0
10
0.976000
20
1.678000
0
VERTEX
8
0
10
1.376000
20
1.678000
0
SEQEND
8
0
0
POLYLINE
8
0
66
1
40
0.008000
41
0.008000
0
VERTEX
8
0
10
0.976000
20
2.078000
0
VERTEX
8
0
10
1.376000
20
2.078000
0
SEQEND
8
0
0
TEXT
8
12632256
10
1.401000
20
1.824000
40
0.048000
41
1.041667
1
J9
0
POLYLINE
8
0
66
1
40
0.008000
41
0.008000
0
VERTEX
8
0
10
0.187000
20
0.879000
0
VERTEX
8
0
10
0.187000
20
0.929000
0
SEQEND
8
0
0
POLYLINE
8
0
66
1
40
0.008000
41
0.008000
0
VERTEX
8
0
10
0.237000
20
0.979000
0
VERTEX
8
0
10
0.236000
20
0.989000
0
VERTEX
8
0
10
0.233000
20
0.999000
0
VERTEX
8
0
10
0.229000
20
1.007000
0
VERTEX
8
0
10
0.223000
20
1.014000
0
VERTEX
8
0
10
0.216000
20
1.021000
0
VERTEX
8
0
10
0.207000
20
1.025000
0
VERTEX
8
0
10
0.197000
20
1.028000
0
VERTEX
8
0
10
0.187000
20
1.029000
0
SEQEND
8
0
0
POLYLINE
8
0
66
1
40
0.008000
41
0.008000
0
VERTEX
8
0
10
0.237000
20
0.979000
0
VERTEX
8
0
10
0.236000
20
0.969000
0
VERTEX
8
0
10
0.233000
20
0.959000
0
VERTEX
8
0
10
0.229000
20
0.950000
0
VERTEX
8
0
10
0.223000
20
0.943000
0
VERTEX
8
0
10
0.216000
20
0.937000
0
VERTEX
8
0
10
0.207000
20
0.933000
0
VERTEX
8
0
10
0.197000
20
0.930000
0
VERTEX
8
0
10
0.187000
20
0.929000
0
SEQEND
8
0
0
POLYLINE
8
0
66
1
40
0.008000
41
0.008000
0
VERTEX
8
0
10
0.187000
20
1.029000
0
VERTEX
8
0
10
0.187000
20
1.079000
0
SEQEND
8
0
0
POLYLINE
8
0
66
1
40
0.008000
41
0.008000
0
VERTEX
8
0
10
0.487000
20
0.879000
0
VERTEX
8
0
10
0.487000
20
1.079000
0
SEQEND
8
0
0
POLYLINE
8
0
66
1
40
0.008000
41
0.008000
0
VERTEX
8
0
10
0.187000
20
0.879000
0
VERTEX
8
0
10
0.487000
20
0.879000
0
SEQEND
8
0
0
POLYLINE
8
0
66
1
40
0.008000
41
0.008000
0
VERTEX
8
0
10
0.187000
20
1.079000
0
VERTEX
8
0
10
0.487000
20
1.079000
0
SEQEND
8
0
0
TEXT
8
12632256
10
0.177000
20
0.929000
40
0.048000
41
1.041667
50
90.000000
1
U4
0
POLYLINE
8
0
66
1
40
0.008000
41
0.008000
0
VERTEX
8
0
10
0.187000
20
1.236000
0
VERTEX
8
0
10
0.237000
20
1.236000
0
SEQEND
8
0
0
POLYLINE
8
0
66
1
40
0.008000
41
0.008000
0
VERTEX
8
0
10
0.237000
20
1.211000
0
VERTEX
8
0
10
0.437000
20
1.211000
0
VERTEX
8
0
10
0.437000
20
1.261000
0
VERTEX
8
0
10
0.237000
20
1.261000
0
VERTEX
8
0
10
0.237000
20
1.211000
0
SEQEND
8
0
0
POLYLINE
8
0
66
1
40
0.008000
41
0.008000
0
VERTEX
8
0
10
0.437000
20
1.236000
0
VERTEX
8
0
10
0.487000
20
1.236000
0
SEQEND
8
0
0
TEXT
8
12632256
10
0.287000
20
1.271000
40
0.048000
41
1.041667
1
R7
0
POLYLINE
8
0
66
1
40
0.008000
41
0.008000
0
VERTEX
8
0
10
0.191000
20
1.476000
0
VERTEX
8
0
10
0.491000
20
1.476000
0
VERTEX
8
0
10
0.491000
20
1.576000
0
VERTEX
8
0
10
0.191000
20
1.576000
0
VERTEX
8
0
10
0.191000
20
1.476000
0
SEQEND
8
0
0
POLYLINE
8
0
66
1
40
0.008000
41
0.008000
0
VERTEX
8
0
10
0.491000
20
1.476000
0
VERTEX
8
0
10
0.491000
20
1.426000
0
VERTEX
8
0
10
0.191000
20
1.426000
0
VERTEX
8
0
10
0.191000
20
1.476000
0
SEQEND
8
0
0
POLYLINE
8
0
66
1
40
0.008000
41
0.008000
0
VERTEX
8
0
10
0.491000
20
1.476000
0
VERTEX
8
0
10
0.441000
20
1.426000
0
SEQEND
8
0
0
POLYLINE
8
0
66
1
40
0.008000
41
0.008000
0
VERTEX
8
0
10
0.441000
20
1.476000
0
VERTEX
8
0
10
0.391000
20
1.426000
0
SEQEND
8
0
0
POLYLINE
8
0
66
1
40
0.008000
41
0.008000
0
VERTEX
8
0
10
0.391000
20
1.476000
0
VERTEX
8
0
10
0.341000
20
1.426000
0
SEQEND
8
0
0
POLYLINE
8
0
66
1
40
0.008000
41
0.008000
0
VERTEX
8
0
10
0.341000
20
1.476000
0
VERTEX
8
0
10
0.291000
20
1.426000
0
SEQEND
8
0
0
POLYLINE
8
0
66
1
40
0.008000
41
0.008000
0
VERTEX
8
0
10
0.291000
20
1.476000
0
VERTEX
8
0
10
0.241000
20
1.426000
0
SEQEND
8
0
0
POLYLINE
8
0
66
1
40
0.008000
41
0.008000
0
VERTEX
8
0
10
0.241000
20
1.476000
0
VERTEX
8
0
10
0.191000
20
1.426000
0
SEQEND
8
0
0
TEXT
8
12632256
10
0.291000
20
1.368000
40
0.048000
41
1.041667
1
U5
0
POLYLINE
8
0
66
1
40
0.008000
41
0.008000
0
VERTEX
8
0
10
0.367000
20
2.078000
0
VERTEX
8
0
10
0.367000
20
1.678000
0
SEQEND
8
0
0
POLYLINE
8
0
66
1
40
0.008000
41
0.008000
0
VERTEX
8
0
10
0.767000
20
2.078000
0
VERTEX
8
0
10
0.767000
20
1.678000
0
SEQEND
8
0
0
POLYLINE
8
0
66
1
40
0.008000
41
0.008000
0
VERTEX
8
0
10
0.367000
20
1.678000
0
VERTEX
8
0
10
0.767000
20
1.678000
0
SEQEND
8
0
0
POLYLINE
8
0
66
1
40
0.008000
41
0.008000
0
VERTEX
8
0
10
0.367000
20
2.078000
0
VERTEX
8
0
10
0.767000
20
2.078000
0
SEQEND
8
0
0
TEXT
8
12632256
10
0.785000
20
1.843000
40
0.048000
41
1.041667
1
J4
0
POLYLINE
8
0
66
1
40
0.008000
41
0.008000
0
VERTEX
8
0
10
-0.397000
20
0.879000
0
VERTEX
8
0
10
-0.397000
20
0.929000
0
SEQEND
8
0
0
POLYLINE
8
0
66
1
40
0.008000
41
0.008000
0
VERTEX
8
0
10
-0.347000
20
0.979000
0
VERTEX
8
0
10
-0.348000
20
0.989000
0
VERTEX
8
0
10
-0.351000
20
0.999000
0
VERTEX
8
0
10
-0.355000
20
1.007000
0
VERTEX
8
0
10
-0.361000
20
1.014000
0
VERTEX
8
0
10
-0.368000
20
1.021000
0
VERTEX
8
0
10
-0.377000
20
1.025000
0
VERTEX
8
0
10
-0.387000
20
1.028000
0
VERTEX
8
0
10
-0.397000
20
1.029000
0
SEQEND
8
0
0
POLYLINE
8
0
66
1
40
0.008000
41
0.008000
0
VERTEX
8
0
10
-0.347000
20
0.979000
0
VERTEX
8
0
10
-0.348000
20
0.969000
0
VERTEX
8
0
10
-0.351000
20
0.959000
0
VERTEX
8
0
10
-0.355000
20
0.950000
0
VERTEX
8
0
10
-0.361000
20
0.943000
0
VERTEX
8
0
10
-0.368000
20
0.937000
0
VERTEX
8
0
10
-0.377000
20
0.933000
0
VERTEX
8
0
10
-0.387000
20
0.930000
0
VERTEX
8
0
10
-0.397000
20
0.929000
0
SEQEND
8
0
0
POLYLINE
8
0
66
1
40
0.008000
41
0.008000
0
VERTEX
8
0
10
-0.397000
20
1.029000
0
VERTEX
8
0
10
-0.397000
20
1.079000
0
SEQEND
8
0
0
POLYLINE
8
0
66
1
40
0.008000
41
0.008000
0
VERTEX
8
0
10
-0.097000
20
0.879000
0
VERTEX
8
0
10
-0.097000
20
1.079000
0
SEQEND
8
0
0
POLYLINE
8
0
66
1
40
0.008000
41
0.008000
0
VERTEX
8
0
10
-0.397000
20
0.879000
0
VERTEX
8
0
10
-0.097000
20
0.879000
0
SEQEND
8
0
0
POLYLINE
8
0
66
1
40
0.008000
41
0.008000
0
VERTEX
8
0
10
-0.397000
20
1.079000
0
VERTEX
8
0
10
-0.097000
20
1.079000
0
SEQEND
8
0
0
TEXT
8
12632256
10
-0.407000
20
0.929000
40
0.048000
41
1.041667
50
90.000000
1
U6
0
POLYLINE
8
0
66
1
40
0.008000
41
0.008000
0
VERTEX
8
0
10
-0.397000
20
1.236000
0
VERTEX
8
0
10
-0.347000
20
1.236000
0
SEQEND
8
0
0
POLYLINE
8
0
66
1
40
0.008000
41
0.008000
0
VERTEX
8
0
10
-0.347000
20
1.211000
0
VERTEX
8
0
10
-0.147000
20
1.211000
0
VERTEX
8
0
10
-0.147000
20
1.261000
0
VERTEX
8
0
10
-0.347000
20
1.261000
0
VERTEX
8
0
10
-0.347000
20
1.211000
0
SEQEND
8
0
0
POLYLINE
8
0
66
1
40
0.008000
41
0.008000
0
VERTEX
8
0
10
-0.147000
20
1.236000
0
VERTEX
8
0
10
-0.097000
20
1.236000
0
SEQEND
8
0
0
TEXT
8
12632256
10
-0.297000
20
1.271000
40
0.048000
41
1.041667
1
R9
0
POLYLINE
8
0
66
1
40
0.008000
41
0.008000
0
VERTEX
8
0
10
-0.393000
20
1.476000
0
VERTEX
8
0
10
-0.093000
20
1.476000
0
VERTEX
8
0
10
-0.093000
20
1.576000
0
VERTEX
8
0
10
-0.393000
20
1.576000
0
VERTEX
8
0
10
-0.393000
20
1.476000
0
SEQEND
8
0
0
POLYLINE
8
0
66
1
40
0.008000
41
0.008000
0
VERTEX
8
0
10
-0.093000
20
1.476000
0
VERTEX
8
0
10
-0.093000
20
1.426000
0
VERTEX
8
0
10
-0.393000
20
1.426000
0
VERTEX
8
0
10
-0.393000
20
1.476000
0
SEQEND
8
0
0
POLYLINE
8
0
66
1
40
0.008000
41
0.008000
0
VERTEX
8
0
10
-0.093000
20
1.476000
0
VERTEX
8
0
10
-0.143000
20
1.426000
0
SEQEND
8
0
0
POLYLINE
8
0
66
1
40
0.008000
41
0.008000
0
VERTEX
8
0
10
-0.143000
20
1.476000
0
VERTEX
8
0
10
-0.193000
20
1.426000
0
SEQEND
8
0
0
POLYLINE
8
0
66
1
40
0.008000
41
0.008000
0
VERTEX
8
0
10
-0.193000
20
1.476000
0
VERTEX
8
0
10
-0.243000
20
1.426000
0
SEQEND
8
0
0
POLYLINE
8
0
66
1
40
0.008000
41
0.008000
0
VERTEX
8
0
10
-0.243000
20
1.476000
0
VERTEX
8
0
10
-0.293000
20
1.426000
0
SEQEND
8
0
0
POLYLINE
8
0
66
1
40
0.008000
41
0.008000
0
VERTEX
8
0
10
-0.293000
20
1.476000
0
VERTEX
8
0
10
-0.343000
20
1.426000
0
SEQEND
8
0
0
POLYLINE
8
0
66
1
40
0.008000
41
0.008000
0
VERTEX
8
0
10
-0.343000
20
1.476000
0
VERTEX
8
0
10
-0.393000
20
1.426000
0
SEQEND
8
0
0
TEXT
8
12632256
10
-0.293000
20
1.368000
40
0.048000
41
1.041667
1
U7
0
POLYLINE
8
0
66
1
40
0.008000
41
0.008000
0
VERTEX
8
0
10
-0.217000
20
2.078000
0
VERTEX
8
0
10
-0.217000
20
1.678000
0
SEQEND
8
0
0
POLYLINE
8
0
66
1
40
0.008000
41
0.008000
0
VERTEX
8
0
10
0.182000
20
2.078000
0
VERTEX
8
0
10
0.182000
20
1.678000
0
SEQEND
8
0
0
POLYLINE
8
0
66
1
40
0.008000
41
0.008000
0
VERTEX
8
0
10
-0.217000
20
1.678000
0
VERTEX
8
0
10
0.182000
20
1.678000
0
SEQEND
8
0
0
POLYLINE
8
0
66
1
40
0.008000
41
0.008000
0
VERTEX
8
0
10
-0.217000
20
2.078000
0
VERTEX
8
0
10
0.182000
20
2.078000
0
SEQEND
8
0
0
TEXT
8
12632256
10
0.199000
20
1.839000
40
0.048000
41
1.041667
1
J5
0
POLYLINE
8
0
66
1
40
0.008000
41
0.008000
0
VERTEX
8
0
10
-0.981000
20
0.879000
0
VERTEX
8
0
10
-0.981000
20
0.929000
0
SEQEND
8
0
0
POLYLINE
8
0
66
1
40
0.008000
41
0.008000
0
VERTEX
8
0
10
-0.931000
20
0.979000
0
VERTEX
8
0
10
-0.932000
20
0.989000
0
VERTEX
8
0
10
-0.935000
20
0.999000
0
VERTEX
8
0
10
-0.939000
20
1.007000
0
VERTEX
8
0
10
-0.945000
20
1.014000
0
VERTEX
8
0
10
-0.952000
20
1.021000
0
VERTEX
8
0
10
-0.961000
20
1.025000
0
VERTEX
8
0
10
-0.971000
20
1.028000
0
VERTEX
8
0
10
-0.981000
20
1.029000
0
SEQEND
8
0
0
POLYLINE
8
0
66
1
40
0.008000
41
0.008000
0
VERTEX
8
0
10
-0.931000
20
0.979000
0
VERTEX
8
0
10
-0.932000
20
0.969000
0
VERTEX
8
0
10
-0.935000
20
0.959000
0
VERTEX
8
0
10
-0.939000
20
0.950000
0
VERTEX
8
0
10
-0.945000
20
0.943000
0
VERTEX
8
0
10
-0.952000
20
0.937000
0
VERTEX
8
0
10
-0.961000
20
0.933000
0
VERTEX
8
0
10
-0.971000
20
0.930000
0
VERTEX
8
0
10
-0.981000
20
0.929000
0
SEQEND
8
0
0
POLYLINE
8
0
66
1
40
0.008000
41
0.008000
0
VERTEX
8
0
10
-0.981000
20
1.029000
0
VERTEX
8
0
10
-0.981000
20
1.079000
0
SEQEND
8
0
0
POLYLINE
8
0
66
1
40
0.008000
41
0.008000
0
VERTEX
8
0
10
-0.681000
20
0.879000
0
VERTEX
8
0
10
-0.681000
20
1.079000
0
SEQEND
8
0
0
POLYLINE
8
0
66
1
40
0.008000
41
0.008000
0
VERTEX
8
0
10
-0.981000
20
0.879000
0
VERTEX
8
0
10
-0.681000
20
0.879000
0
SEQEND
8
0
0
POLYLINE
8
0
66
1
40
0.008000
41
0.008000
0
VERTEX
8
0
10
-0.981000
20
1.079000
0
VERTEX
8
0
10
-0.681000
20
1.079000
0
SEQEND
8
0
0
TEXT
8
12632256
10
-0.991000
20
0.929000
40
0.048000
41
1.041667
50
90.000000
1
U8
0
POLYLINE
8
0
66
1
40
0.008000
41
0.008000
0
VERTEX
8
0
10
-1.017000
20
1.236000
0
VERTEX
8
0
10
-0.967000
20
1.236000
0
SEQEND
8
0
0
POLYLINE
8
0
66
1
40
0.008000
41
0.008000
0
VERTEX
8
0
10
-0.967000
20
1.211000
0
VERTEX
8
0
10
-0.767000
20
1.211000
0
VERTEX
8
0
10
-0.767000
20
1.261000
0
VERTEX
8
0
10
-0.967000
20
1.261000
0
VERTEX
8
0
10
-0.967000
20
1.211000
0
SEQEND
8
0
0
POLYLINE
8
0
66
1
40
0.008000
41
0.008000
0
VERTEX
8
0
10
-0.767000
20
1.236000
0
VERTEX
8
0
10
-0.717000
20
1.236000
0
SEQEND
8
0
0
TEXT
8
12632256
10
-0.942000
20
1.271000
40
0.048000
41
1.041667
1
R17
0
POLYLINE
8
0
66
1
40
0.008000
41
0.008000
0
VERTEX
8
0
10
-0.977000
20
1.476000
0
VERTEX
8
0
10
-0.677000
20
1.476000
0
VERTEX
8
0
10
-0.677000
20
1.576000
0
VERTEX
8
0
10
-0.977000
20
1.576000
0
VERTEX
8
0
10
-0.977000
20
1.476000
0
SEQEND
8
0
0
POLYLINE
8
0
66
1
40
0.008000
41
0.008000
0
VERTEX
8
0
10
-0.677000
20
1.476000
0
VERTEX
8
0
10
-0.677000
20
1.426000
0
VERTEX
8
0
10
-0.977000
20
1.426000
0
VERTEX
8
0
10
-0.977000
20
1.476000
0
SEQEND
8
0
0
POLYLINE
8
0
66
1
40
0.008000
41
0.008000
0
VERTEX
8
0
10
-0.677000
20
1.476000
0
VERTEX
8
0
10
-0.727000
20
1.426000
0
SEQEND
8
0
0
POLYLINE
8
0
66
1
40
0.008000
41
0.008000
0
VERTEX
8
0
10
-0.727000
20
1.476000
0
VERTEX
8
0
10
-0.777000
20
1.426000
0
SEQEND
8
0
0
POLYLINE
8
0
66
1
40
0.008000
41
0.008000
0
VERTEX
8
0
10
-0.777000
20
1.476000
0
VERTEX
8
0
10
-0.827000
20
1.426000
0
SEQEND
8
0
0
POLYLINE
8
0
66
1
40
0.008000
41
0.008000
0
VERTEX
8
0
10
-0.827000
20
1.476000
0
VERTEX
8
0
10
-0.877000
20
1.426000
0
SEQEND
8
0
0
POLYLINE
8
0
66
1
40
0.008000
41
0.008000
0
VERTEX
8
0
10
-0.877000
20
1.476000
0
VERTEX
8
0
10
-0.927000
20
1.426000
0
SEQEND
8
0
0
POLYLINE
8
0
66
1
40
0.008000
41
0.008000
0
VERTEX
8
0
10
-0.927000
20
1.476000
0
VERTEX
8
0
10
-0.977000
20
1.426000
0
SEQEND
8
0
0
TEXT
8
12632256
10
-0.877000
20
1.368000
40
0.048000
41
1.041667
1
U9
0
POLYLINE
8
0
66
1
40
0.008000
41
0.008000
0
VERTEX
8
0
10
-0.801000
20
2.078000
0
VERTEX
8
0
10
-0.801000
20
1.678000
0
SEQEND
8
0
0
POLYLINE
8
0
66
1
40
0.008000
41
0.008000
0
VERTEX
8
0
10
-0.401000
20
2.078000
0
VERTEX
8
0
10
-0.401000
20
1.678000
0
SEQEND
8
0
0
POLYLINE
8
0
66
1
40
0.008000
41
0.008000
0
VERTEX
8
0
10
-0.801000
20
1.678000
0
VERTEX
8
0
10
-0.401000
20
1.678000
0
SEQEND
8
0
0
POLYLINE
8
0
66
1
40
0.008000
41
0.008000
0
VERTEX
8
0
10
-0.801000
20
2.078000
0
VERTEX
8
0
10
-0.401000
20
2.078000
0
SEQEND
8
0
0
TEXT
8
12632256
10
-0.385000
20
1.832000
40
0.048000
41
1.041667
1
J13
0
POLYLINE
8
0
66
1
40
0.008000
41
0.008000
0
VERTEX
8
0
10
-1.369000
20
2.085000
0
VERTEX
8
0
10
-1.369000
20
1.685000
0
SEQEND
8
0
0
POLYLINE
8
0
66
1
40
0.008000
41
0.008000
0
VERTEX
8
0
10
-0.969000
20
2.085000
0
VERTEX
8
0
10
-0.969000
20
1.685000
0
SEQEND
8
0
0
POLYLINE
8
0
66
1
40
0.008000
41
0.008000
0
VERTEX
8
0
10
-1.369000
20
1.685000
0
VERTEX
8
0
10
-0.969000
20
1.685000
0
SEQEND
8
0
0
POLYLINE
8
0
66
1
40
0.008000
41
0.008000
0
VERTEX
8
0
10
-1.369000
20
2.085000
0
VERTEX
8
0
10
-0.969000
20
2.085000
0
SEQEND
8
0
0
TEXT
8
12632256
10
-0.952000
20
1.851000
40
0.048000
41
1.041667
1
J10
0
POLYLINE
8
0
66
1
40
0.008000
41
0.008000
0
VERTEX
8
0
10
1.318000
20
0.849000
0
VERTEX
8
0
10
1.718000
20
0.849000
0
SEQEND
8
0
0
POLYLINE
8
0
66
1
40
0.008000
41
0.008000
0
VERTEX
8
0
10
1.318000
20
1.449000
0
VERTEX
8
0
10
1.718000
20
1.449000
0
SEQEND
8
0
0
POLYLINE
8
0
66
1
40
0.008000
41
0.008000
0
VERTEX
8
0
10
1.718000
20
0.849000
0
VERTEX
8
0
10
1.718000
20
1.449000
0
SEQEND
8
0
0
POLYLINE
8
0
66
1
40
0.008000
41
0.008000
0
VERTEX
8
0
10
1.318000
20
1.449000
0
VERTEX
8
0
10
1.318000
20
0.849000
0
SEQEND
8
0
0
TEXT
8
12632256
10
1.646000
20
1.546000
40
0.048000
41
1.041667
50
90.000000
1
J14
0
POLYLINE
8
0
66
1
40
0.008000
41
0.008000
0
VERTEX
8
0
10
0.893000
20
0.319000
0
VERTEX
8
0
10
0.893000
20
0.369000
0
SEQEND
8
0
0
POLYLINE
8
0
66
1
40
0.008000
41
0.008000
0
VERTEX
8
0
10
0.868000
20
0.369000
0
VERTEX
8
0
10
0.918000
20
0.369000
0
VERTEX
8
0
10
0.918000
20
0.569000
0
VERTEX
8
0
10
0.868000
20
0.569000
0
VERTEX
8
0
10
0.868000
20
0.369000
0
SEQEND
8
0
0
POLYLINE
8
0
66
1
40
0.008000
41
0.008000
0
VERTEX
8
0
10
0.893000
20
0.569000
0
VERTEX
8
0
10
0.893000
20
0.619000
0
SEQEND
8
0
0
TEXT
8
12632256
10
0.858000
20
0.394000
40
0.048000
41
1.041667
50
90.000000
1
R28
0
POLYLINE
8
0
66
1
40
0.008000
41
0.008000
0
VERTEX
8
0
10
0.768000
20
0.319000
0
VERTEX
8
0
10
0.768000
20
0.369000
0
SEQEND
8
0
0
POLYLINE
8
0
66
1
40
0.008000
41
0.008000
0
VERTEX
8
0
10
0.743000
20
0.369000
0
VERTEX
8
0
10
0.793000
20
0.369000
0
VERTEX
8
0
10
0.793000
20
0.569000
0
VERTEX
8
0
10
0.743000
20
0.569000
0
VERTEX
8
0
10
0.743000
20
0.369000
0
SEQEND
8
0
0
POLYLINE
8
0
66
1
40
0.008000
41
0.008000
0
VERTEX
8
0
10
0.768000
20
0.569000
0
VERTEX
8
0
10
0.768000
20
0.619000
0
SEQEND
8
0
0
TEXT
8
12632256
10
0.733000
20
0.394000
40
0.048000
41
1.041667
50
90.000000
1
R29
0
POLYLINE
8
0
66
1
40
0.008000
41
0.008000
0
VERTEX
8
0
10
-0.816000
20
-0.628000
0
VERTEX
8
0
10
-0.866000
20
-0.628000
0
SEQEND
8
0
0
POLYLINE
8
0
66
1
40
0.008000
41
0.008000
0
VERTEX
8
0
10
-1.066000
20
-0.653000
0
VERTEX
8
0
10
-0.866000
20
-0.653000
0
VERTEX
8
0
10
-0.866000
20
-0.603000
0
VERTEX
8
0
10
-1.066000
20
-0.603000
0
VERTEX
8
0
10
-1.066000
20
-0.653000
0
SEQEND
8
0
0
POLYLINE
8
0
66
1
40
0.008000
41
0.008000
0
VERTEX
8
0
10
-1.066000
20
-0.628000
0
VERTEX
8
0
10
-1.116000
20
-0.628000
0
SEQEND
8
0
0
TEXT
8
12632256
10
-1.016000
20
-0.711000
40
0.048000
41
1.041667
1
R1
0
POLYLINE
8
0
66
1
40
0.008000
41
0.008000
0
VERTEX
8
0
10
-0.270000
20
0.042000
0
VERTEX
8
0
10
-0.220000
20
0.042000
0
SEQEND
8
0
0
POLYLINE
8
0
66
1
40
0.008000
41
0.008000
0
VERTEX
8
0
10
-0.220000
20
0.017000
0
VERTEX
8
0
10
-0.020000
20
0.017000
0
VERTEX
8
0
10
-0.020000
20
0.067000
0
VERTEX
8
0
10
-0.220000
20
0.067000
0
VERTEX
8
0
10
-0.220000
20
0.017000
0
SEQEND
8
0
0
POLYLINE
8
0
66
1
40
0.008000
41
0.008000
0
VERTEX
8
0
10
-0.020000
20
0.042000
0
VERTEX
8
0
10
0.029000
20
0.042000
0
SEQEND
8
0
0
TEXT
8
12632256
10
-0.170000
20
0.077000
40
0.048000
41
1.041667
1
R2
0
POLYLINE
8
0
66
1
40
0.008000
41
0.008000
0
VERTEX
8
0
10
-1.024000
20
-0.536000
0
VERTEX
8
0
10
-0.724000
20
-0.536000
0
VERTEX
8
0
10
-0.724000
20
-0.286000
0
VERTEX
8
0
10
-1.024000
20
-0.286000
0
VERTEX
8
0
10
-1.024000
20
-0.536000
0
SEQEND
8
0
0
POLYLINE
8
0
66
1
40
0.008000
41
0.008000
0
VERTEX
8
0
10
-1.024000
20
-0.336000
0
VERTEX
8
0
10
-0.724000
20
-0.336000
0
SEQEND
8
0
0
TEXT
8
12632256
10
-0.924000
20
-0.276000
40
0.048000
41
1.041667
1
J1
0
POLYLINE
8
0
66
1
40
0.008000
41
0.008000
0
VERTEX
8
0
10
-0.575000
20
-0.627000
0
VERTEX
8
0
10
-0.525000
20
-0.627000
0
SEQEND
8
0
0
POLYLINE
8
0
66
1
40
0.008000
41
0.008000
0
VERTEX
8
0
10
-0.525000
20
-0.652000
0
VERTEX
8
0
10
-0.325000
20
-0.652000
0
VERTEX
8
0
10
-0.325000
20
-0.602000
0
VERTEX
8
0
10
-0.525000
20
-0.602000
0
VERTEX
8
0
10
-0.525000
20
-0.652000
0
SEQEND
8
0
0
POLYLINE
8
0
66
1
40
0.008000
41
0.008000
0
VERTEX
8
0
10
-0.325000
20
-0.627000
0
VERTEX
8
0
10
-0.275000
20
-0.627000
0
SEQEND
8
0
0
TEXT
8
12632256
10
-0.475000
20
-0.592000
40
0.048000
41
1.041667
1
R4
0
POLYLINE
8
0
66
1
40
0.008000
41
0.008000
0
VERTEX
8
0
10
0.360000
20
-0.210000
0
VERTEX
8
0
10
0.322000
20
-0.210000
0
SEQEND
8
0
0
POLYLINE
8
0
66
1
40
0.008000
41
0.008000
0
VERTEX
8
0
10
0.360000
20
-0.321000
0
VERTEX
8
0
10
0.321000
20
-0.321000
0
SEQEND
8
0
0
POLYLINE
8
0
66
1
40
0.008000
41
0.008000
0
VERTEX
8
0
10
0.280000
20
-0.195000
0
VERTEX
8
0
10
0.280000
20
-0.175000
0
SEQEND
8
0
0
POLYLINE
8
0
66
1
40
0.008000
41
0.008000
0
VERTEX
8
0
10
0.290000
20
-0.185000
0
VERTEX
8
0
10
0.270000
20
-0.185000
0
SEQEND
8
0
0
TEXT
8
12632256
10
0.391000
20
-0.165000
40
0.048000
41
1.041667
71
2
1
C4
0
POLYLINE
8
0
66
1
40
0.008000
41
0.008000
0
VERTEX
8
0
10
0.258000
20
0.093000
0
VERTEX
8
0
10
0.220000
20
0.093000
0
SEQEND
8
0
0
POLYLINE
8
0
66
1
40
0.008000
41
0.008000
0
VERTEX
8
0
10
0.258000
20
-0.017000
0
VERTEX
8
0
10
0.219000
20
-0.017000
0
SEQEND
8
0
0
POLYLINE
8
0
66
1
40
0.008000
41
0.008000
0
VERTEX
8
0
10
0.178000
20
0.108000
0
VERTEX
8
0
10
0.178000
20
0.128000
0
SEQEND
8
0
0
POLYLINE
8
0
66
1
40
0.008000
41
0.008000
0
VERTEX
8
0
10
0.188000
20
0.118000
0
VERTEX
8
0
10
0.168000
20
0.118000
0
SEQEND
8
0
0
TEXT
8
12632256
10
0.289000
20
0.138000
40
0.048000
41
1.041667
71
2
1
C5
0
POLYLINE
8
0
66
1
40
0.008000
41
0.008000
0
VERTEX
8
0
10
1.062000
20
-1.786000
0
VERTEX
8
0
10
1.100000
20
-1.786000
0
SEQEND
8
0
0
POLYLINE
8
0
66
1
40
0.008000
41
0.008000
0
VERTEX
8
0
10
1.062000
20
-1.675000
0
VERTEX
8
0
10
1.101000
20
-1.675000
0
SEQEND
8
0
0
POLYLINE
8
0
66
1
40
0.008000
41
0.008000
0
VERTEX
8
0
10
1.142000
20
-1.801000
0
VERTEX
8
0
10
1.142000
20
-1.821000
0
SEQEND
8
0
0
POLYLINE
8
0
66
1
40
0.008000
41
0.008000
0
VERTEX
8
0
10
1.132000
20
-1.811000
0
VERTEX
8
0
10
1.152000
20
-1.811000
0
SEQEND
8
0
0
TEXT
8
12632256
10
1.131000
20
-1.879000
40
0.048000
41
1.041667
71
2
1
C6
0
POLYLINE
8
0
66
1
40
0.008000
41
0.008000
0
VERTEX
8
0
10
1.475000
20
-1.151000
0
VERTEX
8
0
10
1.475000
20
-1.113000
0
SEQEND
8
0
0
POLYLINE
8
0
66
1
40
0.008000
41
0.008000
0
VERTEX
8
0
10
1.364000
20
-1.151000
0
VERTEX
8
0
10
1.364000
20
-1.112000
0
SEQEND
8
0
0
POLYLINE
8
0
66
1
40
0.008000
41
0.008000
0
VERTEX
8
0
10
1.490000
20
-1.071000
0
VERTEX
8
0
10
1.510000
20
-1.071000
0
SEQEND
8
0
0
POLYLINE
8
0
66
1
40
0.008000
41
0.008000
0
VERTEX
8
0
10
1.500000
20
-1.081000
0
VERTEX
8
0
10
1.500000
20
-1.061000
0
SEQEND
8
0
0
TEXT
8
12632256
10
1.342000
20
-1.172000
40
0.048000
41
1.041667
50
90.000000
71
2
1
C19
0
POLYLINE
8
0
66
1
40
0.008000
41
0.008000
0
VERTEX
8
0
10
-0.883000
20
-0.353000
0
VERTEX
8
0
10
-0.845000
20
-0.353000
0
SEQEND
8
0
0
POLYLINE
8
0
66
1
40
0.008000
41
0.008000
0
VERTEX
8
0
10
-0.883000
20
-0.242000
0
VERTEX
8
0
10
-0.844000
20
-0.242000
0
SEQEND
8
0
0
POLYLINE
8
0
66
1
40
0.008000
41
0.008000
0
VERTEX
8
0
10
-0.803000
20
-0.368000
0
VERTEX
8
0
10
-0.803000
20
-0.388000
0
SEQEND
8
0
0
POLYLINE
8
0
66
1
40
0.008000
41
0.008000
0
VERTEX
8
0
10
-0.813000
20
-0.378000
0
VERTEX
8
0
10
-0.793000
20
-0.378000
0
SEQEND
8
0
0
TEXT
8
12632256
10
-0.605000
20
-0.315000
40
0.048000
41
1.041667
71
2
1
C10
0
TEXT
8
12632256
10
0.004000
20
-0.522000
40
0.048000
41
1.041667
1
U D R L +  + + +
0
TEXT
8
12632256
10
0.370000
20
-0.864000
40
0.048000
41
1.041667
1
BOTONES
0
TEXT
8
12632256
10
-1.334000
20
-0.722000
40
0.048000
41
1.041667
1
T
0
TEXT
8
12632256
10
-1.347000
20
-0.947000
40
0.048000
41
1.041667
1
V12
0
TEXT
8
12632256
10
-1.330000
20
-1.144000
40
0.048000
41
1.041667
1
GND
0
TEXT
8
12632256
10
-1.322000
20
-1.325000
40
0.048000
41
1.041667
1
5V
0
TEXT
8
12632256
10
-1.330000
20
-1.581000
40
0.048000
41
1.041667
1
VF
0
TEXT
8
12632256
10
-0.645000
20
-1.699000
40
0.048000
41
1.041667
1
VIN
0
TEXT
8
12632256
10
-1.712000
20
-1.691000
40
0.048000
41
1.041667
1
SENSOR
0
TEXT
8
12632256
10
-1.692000
20
-1.742000
40
0.048000
41
1.041667
1
FLUJO
0
TEXT
8
12632256
10
-1.669000
20
0.355000
40
0.048000
41
1.041667
1
SWITCH
0
TEXT
8
12632256
10
-1.661000
20
0.296000
40
0.048000
41
1.041667
1
VIDRIO
0
TEXT
8
12632256
10
-1.334000
20
0.099000
40
0.048000
41
1.041667
1
UP
0
TEXT
8
12632256
10
-1.334000
20
-0.104000
40
0.048000
41
1.041667
1
DN
0
TEXT
8
12632256
10
-1.285000
20
-0.347000
40
0.048000
41
1.041667
50
90.000000
1
GND
0
TEXT
8
12632256
10
-1.281000
20
-0.567000
40
0.048000
41
1.041667
50
90.000000
1
GND
0
TEXT
8
12632256
10
-0.077000
20
0.225000
40
0.048000
41
1.041667
1
VCC GND OUT
0
TEXT
8
12632256
10
1.256000
20
0.308000
40
0.048000
41
1.041667
1
16
0
TEXT
8
12632256
10
1.441000
20
-1.199000
40
0.048000
41
1.041667
1
1
0
TEXT
8
12632256
10
-1.377000
20
-1.699000
40
0.048000
41
1.041667
1
GND VAR FEED
0
TEXT
8
12632256
10
-0.009000
20
0.643000
40
0.048000
41
1.041667
1
INFRARROJO
0
TEXT
8
12632256
10
1.285000
20
0.924000
40
0.048000
41
1.041667
50
90.000000
1
O1 O2 GND
0
TEXT
8
12632256
10
1.366000
20
0.769000
40
0.048000
41
1.041667
1
MOTOR
0
TEXT
8
12632256
10
1.342000
20
0.714000
40
0.048000
41
1.041667
1
VIDRIO
0
TEXT
8
12632256
10
-1.310000
20
1.605000
40
0.064000
41
1.093750
1
L  N
0
TEXT
8
12632256
10
-0.728000
20
1.615000
40
0.048000
41
1.041667
1
DAM N
0
TEXT
8
12632256
10
-0.255000
20
1.611000
40
0.048000
41
1.041667
1
ALARMA  N
0
TEXT
8
12632256
10
0.370000
20
1.607000
40
0.048000
41
1.041667
1
MOTOR  N
0
TEXT
8
12632256
10
1.031000
20
1.603000
40
0.048000
41
1.041667
1
LUZ  N
0
POLYLINE
8
0
66
1
40
0.000000
41
0.000000
0
VERTEX
8
0
10
-1.389000
20
0.480000
0
VERTEX
8
0
10
-1.389000
20
1.801000
0
VERTEX
8
0
10
-1.735000
20
1.801000
0
VERTEX
8
0
10
-1.735000
20
0.480000
0
VERTEX
8
0
10
-1.389000
20
0.480000
0
SEQEND
8
0
0
POLYLINE
8
0
66
1
40
0.028000
41
0.028000
0
VERTEX
8
0
10
-1.338000
20
0.294000
0
VERTEX
8
0
10
-0.728000
20
0.294000
0
VERTEX
8
0
10
-0.728000
20
0.739000
0
VERTEX
8
0
10
-1.338000
20
0.739000
0
VERTEX
8
0
10
-1.338000
20
0.294000
0
SEQEND
8
0
0
TEXT
8
12632256
10
-1.204000
20
0.640000
40
0.056000
41
1.071429
1
CONTROL
0
TEXT
8
12632256
10
-1.204000
20
0.565000
40
0.056000
41
1.071429
1
DIGITAL
0
TEXT
8
12632256
10
-1.114000
20
0.494000
40
0.056000
41
1.071429
1
CEGH
0
TEXT
8
12632256
10
-1.134000
20
0.392000
40
0.056000
41
1.250000
1
2017
0
TEXT
8
12632256
10
0.882000
20
-2.124000
40
0.048000
41
1.041667
1
JUDAPIES
0
TEXT
8
12632256
10
1.008000
20
0.592000
40
0.048000
41
1.041667
1
DIELEC-CEGH0011
0
TEXT
8
12632256
10
0.952000
20
0.505000
40
0.048000
41
1.041667
1
Bogota - Colombia
0
TEXT
8
12632256
10
-1.167000
20
0.767000
40
0.048000
41
1.041667
50
90.000000
1
www.jpinglobal.com
0
POLYLINE
8
0
66
1
40
0.000000
41
0.000000
0
VERTEX
8
0
10
-0.989000
20
-0.077000
0
VERTEX
8
0
10
-0.711000
20
-0.077000
0
VERTEX
8
0
10
-0.711000
20
0.198000
0
VERTEX
8
0
10
-0.989000
20
0.198000
0
VERTEX
8
0
10
-0.989000
20
-0.077000
0
SEQEND
8
0
0
POLYLINE
8
0
66
1
40
0.008000
41
0.008000
0
VERTEX
8
0
10
0.122000
20
0.593000
0
VERTEX
8
0
10
0.072000
20
0.593000
0
SEQEND
8
0
0
POLYLINE
8
0
66
1
40
0.008000
41
0.008000
0
VERTEX
8
0
10
-0.127000
20
0.568000
0
VERTEX
8
0
10
0.072000
20
0.568000
0
VERTEX
8
0
10
0.072000
20
0.618000
0
VERTEX
8
0
10
-0.127000
20
0.618000
0
VERTEX
8
0
10
-0.127000
20
0.568000
0
SEQEND
8
0
0
POLYLINE
8
0
66
1
40
0.008000
41
0.008000
0
VERTEX
8
0
10
-0.127000
20
0.593000
0
VERTEX
8
0
10
-0.177000
20
0.593000
0
SEQEND
8
0
0
TEXT
8
12632256
10
-0.245000
20
0.645000
40
0.048000
41
1.041667
1
R24
0
CIRCLE
8
12632256
10
-0.122000
20
0.451000
40
0.000000
0
CIRCLE
8
12632256
10
-0.122000
20
0.451000
40
0.100000
0
POLYLINE
8
0
66
1
40
0.008000
41
0.008000
0
VERTEX
8
0
10
0.002000
20
0.351000
0
VERTEX
8
0
10
-0.047000
20
0.351000
0
SEQEND
8
0
0
POLYLINE
8
0
66
1
40
0.008000
41
0.008000
0
VERTEX
8
0
10
-0.022000
20
0.326000
0
VERTEX
8
0
10
-0.022000
20
0.376000
0
SEQEND
8
0
0
TEXT
8
12632256
10
-0.246000
20
0.286000
40
0.048000
41
1.041667
1
D10
0
ENDSEC
0
EOF

